<?xml version="1.0" standalone="no"?>
<!DOCTYPE svg PUBLIC "-//W3C//DTD SVG 1.1//EN" "http://www.w3.org/Graphics/SVG/1.1/DTD/svg11.dtd" >
<svg xmlns="http://www.w3.org/2000/svg" xmlns:xlink="http://www.w3.org/1999/xlink" version="1.1">
<metadata>
Created by FontForge 20170910 at Tue Nov 30 19:50:37 2010
 By Jimmy Wärting
(c)2010 Paul Barnes and Commercial Type.
</metadata>
<defs>
<font id="DalaFloda-Medium" horiz-adv-x="520" >
  <font-face 
    font-family="Dala Floda Medium"
    font-weight="500"
    font-stretch="normal"
    units-per-em="1000"
    panose-1="2 2 7 3 9 3 8 2 3 3"
    ascent="747"
    descent="-253"
    x-height="435"
    cap-height="630"
    bbox="-169 -280 1525 985"
    underline-thickness="50"
    underline-position="-150"
    unicode-range="U+0020-FB06"
  />
<missing-glyph horiz-adv-x="770" 
 />
    <glyph glyph-name="f_f" unicode="ff" horiz-adv-x="595" 
d="M202 387v-301q0 -41 14.5 -58.5t47.5 -20.5v-7h-245v7q35 5 46 21t11 62v297h-62v8l63 48v47q0 86 57 137t150 60v-6q-82 -14 -82 -134v-111h147v69q0 27 4 46q-22 17 -22 46q0 36 28 55q-12 23 -49 29v6q82 -6 121 -30q54 41 133 47v-6q-90 -13 -90 -134v-126h109
l-10 -50h-99v-298q0 -44 16.5 -62t50.5 -21v-7h-247v7q33 5 44 20.5t11 58.5v301h-147zM604 685q24 0 41.5 -17t17.5 -41q0 -25 -17.5 -42.5t-41.5 -17.5t-41.5 17.5t-17.5 42.5q0 24 17.5 41t41.5 17z" />
    <glyph glyph-name="f_i" unicode="fi" horiz-adv-x="549" 
d="M349 86v301h-147v-301q0 -41 14.5 -58.5t47.5 -20.5v-7h-245v7q35 5 46 21t11 62v297h-62v8l63 48v50q0 94 63.5 148.5t147.5 61.5v-6q-47 -7 -66.5 -46.5t-19.5 -112.5v-102h131q25 0 51.5 2t43 4t31 4t16.5 2l2 -2q-3 -123 -3 -139v-217q0 -43 13.5 -60.5t46.5 -22.5
v-7h-240v7q33 5 44 20.5t11 58.5zM341 611q0 39 36 56q-26 29 -64 31v6q73 0 118 -26q41 -27 41 -67q0 -28 -19 -46t-47 -18q-27 0 -46 18t-19 46z" />
    <glyph glyph-name="f_l" unicode="fl" horiz-adv-x="550" 
d="M349 580q-18 15 -18 42q0 33 29 52q-12 18 -47 24v6q63 -4 102 -18l60 19l2 -2q-3 -123 -3 -139v-478q1 -41 14 -57.5t46 -21.5v-7h-240v7q34 5 44.5 20.5t10.5 58.5v301h-147v-301q0 -42 14.5 -59t47.5 -20v-7h-245v7q35 5 46 21t11 62v297h-62v8l63 48v50
q0 94 63 149.5t148 60.5v-6q-47 -7 -66.5 -48t-19.5 -115v-98h147v144z" />
    <glyph glyph-name="f_f_i" unicode="ffi" horiz-adv-x="822" 
d="M264 0h-245v7q35 5 46 21t11 62v297h-62v8l63 47v48q0 86 57 137t150 60v-6q-82 -14 -82 -134v-111h147v57q0 26 7 56q-25 17 -25 48q0 36 28 55q-12 23 -49 29v6q88 -6 126 -32q52 41 124 48v-6q-47 -7 -66.5 -46.5t-19.5 -112.5v-100h131q42 0 142 10l2 -2
q-3 -123 -3 -139v-217q0 -43 13.5 -60.5t47.5 -22.5v-7h-241v7q34 5 44.5 20.5t10.5 58.5v302h-147v-302q0 -41 14.5 -58.5t47.5 -20.5v-7h-242v7q33 5 44 20.5t11 58.5v301h-147v-301q0 -41 14.5 -58.5t47.5 -20.5v-7zM613 611q0 39 36 56q-26 29 -63 31v6q72 0 117 -26
q41 -27 41 -66q0 -29 -19 -46.5t-47 -17.5q-26 0 -45.5 18t-19.5 45z" />
    <glyph glyph-name="f_f_l" unicode="ffl" horiz-adv-x="822" 
d="M331 597q0 36 28 55q-12 23 -49 29v6q84 -6 124 -31q53 42 125 47v-6q-47 -7 -66.5 -48t-19.5 -115v-96h147v142q-17 15 -17 42q0 35 29 52q-12 18 -47 24v6q62 -4 101 -18l60 19l3 -2q-3 -123 -3 -139v-478q0 -41 13.5 -57.5t46.5 -21.5v-7h-241v7q34 5 44.5 21t10.5 62
v298h-147v-301q0 -42 14.5 -59t48.5 -21v-7h-243v7q34 5 44.5 20.5t10.5 59.5v300h-146v-301q0 -41 14.5 -58.5t47.5 -20.5v-7h-245v7q35 5 46 21t11 62v297h-62v8l63 48v47q0 86 57 137t150 60v-6q-82 -14 -82 -134v-111h146v57q0 27 7 57q-24 17 -24 47z" />
    <glyph glyph-name="f_b" unicode="fb" horiz-adv-x="848" 
d="M349 135v252h-147v-297q0 -44 15 -62t49 -21v-7h-247v7q35 5 46 21t11 62v297h-62v8l63 48v50q0 94 63 149.5t148 60.5v-6q-47 -7 -66.5 -48t-19.5 -115v-98h147v144q-18 15 -18 42q0 32 30 53q-12 17 -48 23v6q61 -4 99 -19l63 20l2 -2q-3 -123 -3 -139v-441
q0 -47 18 -80q19 -36 56 -43v-8q-22 1 -41.5 5t-38 11.5t-27 11.5t-26.5 14l-18 10h-1l-54 -37l-6 3q13 35 13 125zM574 -7v8q53 6 82.5 60t29.5 142q0 91 -34.5 140.5t-102.5 49.5q-29 0 -55 -13v2q25 26 66 45.5t80 19.5q87 0 132.5 -51.5t45.5 -152.5q0 -99 -65.5 -171.5
t-178.5 -78.5z" />
    <glyph glyph-name="f_f_b" unicode="ffb" horiz-adv-x="1120" 
d="M19 0v7q35 5 46 21t11 62v297h-62v8l63 47v48q0 86 57 137t150 60v-6q-82 -14 -82 -134v-111h147v57q0 26 7 56q-25 18 -25 48q0 36 28 55q-12 23 -49 29v6q86 -6 124 -32q53 43 126 48v-6q-47 -7 -66.5 -48t-19.5 -115v-96h147v142q-17 15 -17 42q0 32 29 53
q-10 16 -47 23v6q60 -4 98 -19l63 20l2 -2q-3 -123 -3 -139l1 -441q0 -49 17 -80q21 -36 56 -43v-8q-22 1 -41.5 5t-38 11.5t-27 11.5t-26.5 14l-18 10h-1l-54 -37l-6 3q13 35 13 125v253h-147v-298q0 -44 15 -62t50 -21v-7h-245v7q33 5 44 20.5t11 58.5v301h-147v-301
q0 -41 14.5 -58.5t47.5 -20.5v-7h-245zM846 -7v8q53 6 82.5 60t29.5 142q0 91 -34.5 140.5t-102.5 49.5q-27 0 -55 -13v2q25 26 66 45.5t81 19.5q86 0 131.5 -51.5t45.5 -152.5q0 -99 -65 -171.5t-179 -78.5z" />
    <glyph glyph-name="f_f_h" unicode="ffh" horiz-adv-x="1104" 
d="M264 0h-245v7q35 5 46 21t11 62v297h-62v8l63 47v48q0 86 57 137t150 60v-6q-82 -14 -82 -134v-111h147v57q0 21 6 55q-24 19 -24 49q0 37 28 55q-12 22 -49 29v6q86 -6 124 -32q53 43 126 48v-6q-47 -7 -66.5 -48t-19.5 -115v-96h147v142q-17 15 -17 42q0 32 29 53
q-10 16 -47 23v6q60 -4 98 -19l63 20l2 -2q-3 -123 -3 -139v-478q0 -41 11.5 -57.5t43.5 -21.5v-7h-235v7q34 5 44.5 21t10.5 62v298h-147v-302q0 -41 14.5 -58.5t47.5 -20.5v-7h-242v7q33 5 44 20.5t11 58.5v301h-147v-301q0 -41 14.5 -58.5t47.5 -20.5v-7zM908 86v209
q0 81 -74 81q-33 0 -62 -12v3q24 33 64 56.5t81 23.5q116 0 116 -132v-225q0 -45 11.5 -61.5t45.5 -21.5v-7h-238v7q32 5 44 21.5t12 57.5z" />
    <glyph glyph-name="f_f_j" unicode="ffj" horiz-adv-x="806" 
d="M613 611q0 39 36 56q-26 29 -63 31v6q72 0 117 -26q41 -27 41 -66q0 -29 -19 -46.5t-47 -17.5q-26 0 -45.5 18t-19.5 45zM541 0h-247v7q33 5 44 20.5t11 58.5v301h-147v-301q0 -41 14.5 -58.5t47.5 -20.5v-7h-245v7q35 5 46 21t11 62v297h-62v8l63 47v48q0 86 57 137
t150 60v-6q-82 -14 -82 -134v-111h147v57q0 26 7 56q-25 17 -25 48q0 36 28 55q-12 23 -49 29v6q88 -6 126 -32q52 41 124 48v-6q-47 -7 -66.5 -46.5t-19.5 -112.5v-100h131q42 0 142 10l2 -2q-3 -123 -3 -139v-235q0 -72 -19.5 -123t-47 -78t-72.5 -52q-59 -31 -91 -41
l-2 7q28 16 45 33q40 43 51 88.5t11 144.5v337h-147v-298q0 -44 16.5 -62t50.5 -21v-7z" />
    <glyph glyph-name="f_f_k" unicode="ffk" horiz-adv-x="1080" 
d="M473 388v-302q0 -41 15 -58.5t48 -20.5v-7h-243v7q34 5 44.5 20.5t10.5 58.5v301h-146v-301q0 -41 14.5 -58.5t47.5 -20.5v-7h-245v7q35 5 46 21t11 62v297h-62v8l63 48v47q0 86 57 137t150 60v-6q-82 -14 -82 -134v-111h146v58q0 26 7 56q-24 17 -24 47q0 36 28 55
q-12 23 -49 29v6q84 -6 124 -31q52 42 125 47v-6q-47 -7 -66.5 -48t-19.5 -115v-96h147v142q-17 15 -17 42q0 35 29 52q-12 18 -47 24v6q62 -4 101 -18l60 19l3 -2q-3 -123 -3 -139v-478q0 -41 13.5 -57.5t46.5 -21.5v-7h-241v7q34 5 44.5 21t10.5 62v298h-147zM769 219
l81 84q23 -42 81 -124t85 -109q46 -49 89 -63v-7q-33 -3 -120 -3q-55 0 -90 36q-33 35 -69.5 89t-56.5 97zM842 438h236v-8q-57 -12 -99 -35q-53 -28 -101 -76l-6 8q22 25 22 55q0 40 -52 48v8z" />
    <glyph glyph-name="f_h" unicode="fh" horiz-adv-x="832" 
d="M264 0h-245v7q35 5 46 21t11 62v297h-62v8l63 48v50q0 94 63 149.5t148 60.5v-6q-47 -7 -66.5 -48t-19.5 -115v-98h147v137q-18 15 -18 42q0 32 30 53q-5 10 -19.5 19t-28.5 11v6q61 -4 99 -19l63 20l2 -2q-3 -123 -3 -139v-478q0 -40 12.5 -57t44.5 -22v-7h-237v7
q34 5 44.5 21t10.5 62v297h-147v-301q0 -42 14.5 -59t47.5 -20v-7zM636 86v209q0 81 -74 81q-33 0 -62 -12v3q24 33 64 56.5t81 23.5q116 0 116 -132v-225q0 -45 11.5 -61.5t45.5 -21.5v-7h-238v7q32 5 44 21.5t12 57.5z" />
    <glyph glyph-name="f_j" unicode="fj" horiz-adv-x="534" 
d="M341 611q0 39 36 56q-26 29 -64 31v6q73 0 118 -26q41 -27 41 -67q0 -28 -19 -46t-47 -18q-27 0 -46 18t-19 46zM269 0h-250v7q35 5 46 21t11 62v297h-62v8l63 48v50q0 94 63 149t148 61v-6q-47 -7 -66.5 -48t-19.5 -115v-98h131q25 0 51.5 2t43 4t31 4t16.5 2l2 -2
q-3 -123 -3 -139v-235q0 -104 -35.5 -159.5t-104.5 -93.5q-55 -30 -90 -41l-2 7q29 17 44 33q40 43 51.5 89.5t11.5 143.5v336h-147v-297q0 -44 16 -62t51 -21v-7z" />
    <glyph glyph-name="f_k" unicode="fk" horiz-adv-x="808" 
d="M294 0v7q33 5 44 20.5t11 58.5v301h-147v-301q0 -41 14.5 -58.5t47.5 -20.5v-7h-245v7q35 5 46 21t11 62v297h-62v8l63 48v50q0 94 63 149.5t148 60.5v-6q-47 -7 -66.5 -48t-19.5 -115v-98h147v144q-18 15 -18 42q0 33 29 52q-12 18 -47 24v6q63 -4 102 -18l60 19l2 -2
q-3 -123 -3 -139v-478q1 -41 14 -57.5t46 -21.5v-7h-240zM497 220l81 84q23 -41 81 -123.5t84 -110.5q47 -49 90 -63v-7q-33 -3 -120 -3q-56 0 -91 36q-33 35 -68.5 89t-56.5 98zM569 439h237v-8q-52 -9 -99 -34q-57 -32 -101 -77l-6 7q22 28 22 56q0 18 -14 31t-39 17v8z
" />
    <glyph glyph-name="g_y" unicode="gy" horiz-adv-x="871" 
d="M604 -133l7 -3q-17 -46 -46.5 -74t-66.5 -28q-24 0 -43 16t-19 43t17.5 43t39.5 16q50 0 65 -61q27 16 46 48zM717 436h191v-8q-41 -6 -76.5 -40t-60.5 -91l-8 5q15 35 15 69q0 51 -61 57v8zM413 436h252v-8q-48 -6 -48 -40q0 -20 16 -56l76 -191l-60 -148h-6l-149 355
q-17 42 -34 59t-47 21v8zM297 290q0 132 -67 150v7q73 -3 128 -40.5t55 -105.5q0 -71 -51.5 -110t-118.5 -44v7q29 11 41 44.5t13 91.5zM32 291q0 70 52 110t118 45v-7q-52 -18 -54 -137q0 -131 67 -149v-7q-73 3 -128 41t-55 104zM339 -179v6q52 33 52 78q0 26 -15.5 38.5
t-55.5 12.5q-15 0 -93 -4t-99 -4q-41 0 -72 23.5t-31 66.5q0 25 17 48q22 34 67 68l3 -4q-13 -17 -13 -36q0 -33 48 -33q11 0 76 4t100 4q70 0 104.5 -26t34.5 -86q0 -50 -40 -91.5t-83 -64.5zM311 -185v-7q-74 -47 -168 -47q-66 0 -103 22t-37 58q0 29 39.5 58t77.5 37
l3 -5q-12 -6 -21.5 -22.5t-9.5 -39.5q0 -39 22 -60t75 -21q68 0 122 27z" />
    <glyph glyph-name="longs_b" unicode="&#x17f;b" horiz-adv-x="848" 
d="M202 534v-444q0 -44 15 -62t49 -21v-7h-247v7q35 5 46 21t11 62v297h-62v8l63 48v50q0 94 63 149.5t148 60.5v-6q-47 -7 -66.5 -48t-19.5 -115zM349 135v445q-18 15 -18 42q0 32 30 53q-12 17 -48 23v6q61 -4 99 -19l63 20l2 -2q-3 -123 -3 -139v-441q0 -47 18 -80
q19 -36 56 -43v-8q-22 1 -41.5 5t-38 11.5t-27 11.5t-26.5 14l-18 10h-1l-54 -37l-6 3q13 35 13 125zM574 -7v8q53 6 82.5 60t29.5 142q0 91 -34.5 140.5t-102.5 49.5q-29 0 -55 -13v2q25 26 66 45.5t80 19.5q87 0 132.5 -51.5t45.5 -152.5q0 -99 -65.5 -171.5t-178.5 -78.5
z" />
    <glyph glyph-name="longs_h" unicode="&#x17f;h" horiz-adv-x="832" 
d="M349 90v483q-18 15 -18 42q0 32 30 53q-5 10 -19.5 19t-28.5 11v6q61 -4 99 -19l63 20l2 -2q-3 -123 -3 -139v-478q0 -40 12.5 -57t44.5 -22v-7h-237v7q34 5 44.5 21t10.5 62zM202 534v-444q0 -44 15 -62t49 -21v-7h-247v7q35 5 46 21t11 62v297h-62v8l63 48v50
q0 94 63 149.5t148 60.5v-6q-47 -7 -66.5 -48t-19.5 -115zM636 86v209q0 81 -74 81q-33 0 -62 -12v3q24 33 64 56.5t81 23.5q116 0 116 -132v-225q0 -45 11.5 -61.5t45.5 -21.5v-7h-238v7q32 5 44 21.5t12 57.5z" />
    <glyph glyph-name="longs_i" unicode="&#x17f;i" horiz-adv-x="549" 
d="M202 538v-452q0 -41 14.5 -58.5t47.5 -20.5v-7h-245v7q35 5 46 21t11 62v297h-62v8l63 48v50q0 94 63.5 148.5t147.5 61.5v-6q-47 -7 -66.5 -46.5t-19.5 -112.5zM341 611q0 39 36 56q-26 29 -64 31v6q73 0 118 -26q41 -27 41 -66q0 -29 -19 -46.5t-47 -17.5q-27 0 -46 18
t-19 45zM294 0v7q33 5 44 20.5t11 58.5v225q0 40 -27 61q-13 11 -25 16v5l178 55l2 -2q-3 -123 -3 -139v-217q0 -43 13.5 -60.5t46.5 -22.5v-7h-240z" />
    <glyph glyph-name="longs_j" unicode="&#x17f;j" horiz-adv-x="534" 
d="M341 611q0 39 36 56q-26 29 -64 31v6q73 0 118 -26q41 -27 41 -66q0 -29 -19 -46.5t-47 -17.5q-27 0 -46 18t-19 45zM202 534v-444q0 -44 16 -62t51 -21v-7h-250v7q35 5 46 21t11 62v297h-62v8l63 48v50q0 94 63 149t148 61v-6q-47 -7 -66.5 -48t-19.5 -115zM349 51v260
q0 40 -27 61q-13 11 -25 16v5l178 55l2 -2q-3 -123 -3 -139v-235q0 -72 -19.5 -123t-47.5 -77.5t-73 -52.5q-41 -25 -90 -41l-2 7q29 17 44 33q40 42 50.5 87.5t12.5 145.5z" />
    <glyph glyph-name="longs_k" unicode="&#x17f;k" horiz-adv-x="808" 
d="M349 86v494q-18 15 -18 42q0 33 29 52q-12 18 -47 24v6q63 -4 102 -18l61 19l2 -2q-3 -123 -3 -139v-478q1 -41 14 -57.5t45 -21.5v-7h-240v7q33 5 44 20.5t11 58.5zM202 534v-448q0 -41 14.5 -58.5t47.5 -20.5v-7h-245v7q35 5 46 21t11 62v297h-62v8l63 48v50
q0 94 63 149.5t148 60.5v-6q-47 -7 -66.5 -48t-19.5 -115zM499 218l80 84q23 -41 81 -122.5t85 -109.5q45 -48 89 -63v-7q-33 -3 -119 -3q-56 0 -91 36q-33 35 -68.5 88.5t-56.5 96.5zM807 436v-8q-65 -13 -111 -42q-44 -24 -88 -68l-6 8q22 28 22 55q0 39 -53 47v8h236z
" />
    <glyph glyph-name="longs_l" unicode="&#x17f;l" horiz-adv-x="550" 
d="M202 534v-444q0 -44 15 -62t49 -21v-7h-247v7q35 5 46 21t11 62v297h-62v8l63 48v50q0 94 63 149.5t148 60.5v-6q-47 -7 -66.5 -48t-19.5 -115zM349 90v490q-18 15 -18 42q0 33 29 52q-12 18 -47 24v6q63 -4 102 -18l60 19l2 -2q-3 -123 -3 -139v-478q1 -41 14 -57.5
t46 -21.5v-7h-240v7q34 5 44.5 21t10.5 62z" />
    <glyph glyph-name="longs_longs" unicode="&#x17f;&#x17f;" horiz-adv-x="559" 
d="M349 86v301h-61v8l61 46v64q0 27 4 46q-21 16 -21 46q0 37 27 55q-11 23 -49 29v6q82 -6 121 -30q54 41 133 47v-6q-90 -13 -90 -134v-474q0 -44 16.5 -62t50.5 -21v-7h-247v7q33 5 44 20.5t11 58.5zM202 547v-461q0 -41 14.5 -58.5t47.5 -20.5v-7h-245v7q35 5 46 21
t11 62v297h-62v8l63 48v47q0 86 57 137t150 60v-6q-82 -14 -82 -134zM604 685q24 0 41.5 -17t17.5 -41q0 -25 -17.5 -42.5t-41.5 -17.5t-41.5 17.5t-17.5 42.5q0 24 17.5 41t41.5 17z" />
    <glyph glyph-name="longs_longs_b" unicode="&#x17f;&#x17f;b" horiz-adv-x="1120" 
d="M474 534v-444q0 -44 15 -62t50 -21v-7h-245v7q33 5 44 20.5t11 58.5v301h-61v8l61 46v52q0 32 7 56q-24 18 -24 48q0 37 27 55q-11 23 -49 29v6q86 -6 124 -32q53 43 126 48v-6q-47 -7 -66.5 -48t-19.5 -115zM621 135v445q-17 15 -17 42q0 32 29 53q-10 16 -47 23v6
q60 -4 98 -19l63 20l2 -2q-3 -123 -3 -139l1 -441q0 -49 17 -80q21 -36 56 -43v-8q-22 1 -41.5 5t-38 11.5t-27 11.5t-26.5 14l-18 10h-1l-54 -37l-6 3q13 35 13 125zM202 547v-461q0 -41 14.5 -58.5t47.5 -20.5v-7h-245v7q35 5 46 21t11 62v297h-62v8l63 47v48q0 86 57 137
t150 60v-6q-82 -14 -82 -134zM846 -7v8q53 6 82.5 60t29.5 142q0 91 -34.5 140.5t-102.5 49.5q-27 0 -55 -13v2q25 26 66 45.5t81 19.5q86 0 131.5 -51.5t45.5 -152.5q0 -99 -65 -171.5t-179 -78.5z" />
    <glyph glyph-name="longs_longs_h" unicode="&#x17f;&#x17f;h" horiz-adv-x="1105" 
d="M474 534v-448q0 -41 14.5 -58.5t47.5 -20.5v-7h-242v7q33 5 44 20.5t11 58.5v301h-60v8l60 45v53q0 29 6 55q-24 19 -24 49q0 37 28 55q-12 22 -49 29v6q86 -6 124 -32q53 43 126 48v-6q-47 -7 -66.5 -48t-19.5 -115zM621 90v490q-17 15 -17 42q0 32 29 53q-10 16 -47 23
v6q60 -4 98 -19l63 20l2 -2q-3 -123 -3 -139v-478q0 -41 11.5 -57.5t43.5 -21.5v-7h-235v7q34 5 44.5 21t10.5 62zM202 547v-461q0 -41 14.5 -58.5t47.5 -20.5v-7h-245v7q35 5 46 21t11 62v297h-62v8l63 47v48q0 86 57 137t150 60v-6q-82 -14 -82 -134zM908 86v209
q0 81 -74 81q-33 0 -62 -12v3q24 33 64 56.5t81 23.5q116 0 116 -132v-225q0 -45 11.5 -61.5t46.5 -21.5v-7h-238v7q32 5 43.5 21.5t11.5 57.5z" />
    <glyph glyph-name="longs_longs_i" unicode="&#x17f;&#x17f;i" horiz-adv-x="822" 
d="M474 538v-452q0 -41 14.5 -58.5t47.5 -20.5v-7h-242v7q33 5 44 20.5t11 58.5v301h-61v8l61 46v52q0 32 7 56q-24 16 -24 48q0 37 27 55q-11 23 -49 29v6q88 -6 126 -32q52 41 124 48v-6q-47 -7 -66.5 -46.5t-19.5 -112.5zM202 547v-461q0 -41 14.5 -58.5t47.5 -20.5v-7
h-245v7q35 5 46 21t11 62v297h-62v8l63 47v48q0 86 57 137t150 60v-6q-82 -14 -82 -134zM613 611q0 39 36 56q-26 29 -63 31v6q72 0 117 -26q41 -26 41 -66q0 -29 -19 -46.5t-47 -17.5q-26 0 -45.5 18t-19.5 45zM567 0v7q33 5 43.5 20.5t10.5 58.5v225q0 41 -27 61
q-12 10 -24 16v5l177 55l2 -2q-3 -123 -3 -139v-217q0 -43 13.5 -60.5t47.5 -22.5v-7h-240z" />
    <glyph glyph-name="longs_longs_j" unicode="&#x17f;&#x17f;j" horiz-adv-x="806" 
d="M349 86v301h-61v8l61 46v52q0 32 7 56q-24 16 -24 48q0 37 27 55q-11 23 -49 29v6q88 -6 126 -32q52 41 124 48v-6q-47 -7 -66.5 -46.5t-19.5 -112.5v-448q0 -44 16.5 -62t50.5 -21v-7h-247v7q33 5 44 20.5t11 58.5zM202 547v-461q0 -41 14.5 -58.5t47.5 -20.5v-7h-245v7
q35 5 46 21t11 62v297h-62v8l63 47v48q0 86 57 137t150 60v-6q-82 -14 -82 -134zM613 611q0 39 36 56q-26 29 -63 31v6q72 0 117 -26q41 -26 41 -66q0 -29 -19 -46.5t-47 -17.5q-26 0 -45.5 18t-19.5 45zM621 51v260q0 41 -27 61q-12 10 -24 16v5l177 55l2 -2
q-3 -123 -3 -139v-235q0 -104 -35 -158.5t-104 -94.5q-40 -24 -91 -41l-2 7q28 16 45 33q39 42 49.5 87t12.5 146z" />
    <glyph glyph-name="longs_longs_k" unicode="&#x17f;&#x17f;k" horiz-adv-x="1079" 
d="M473 534v-444q0 -44 15 -62t50 -21v-7h-248v7q35 5 46.5 21.5t11.5 61.5v297h-60v8l60 45v54q0 26 7 56q-23 16 -23 47q0 37 27 55q-11 23 -49 29v6q84 -6 124 -31q52 42 126 47v-6q-48 -7 -67.5 -48t-19.5 -115zM620 90v490q-17 15 -17 42q0 35 29 52q-12 18 -47 24v6
q62 -4 101 -18l60 19l3 -2q-3 -123 -3 -139v-478q0 -41 13.5 -57.5t46.5 -21.5v-7h-240v7q34 5 44 21t10 62zM202 547v-461q0 -41 14.5 -58.5t47.5 -20.5v-7h-245v7q35 5 46 21t11 62v297h-62v8l63 48v47q0 86 57 137t150 60v-6q-82 -14 -82 -134zM770 218l80 84
q23 -41 81 -122.5t85 -109.5q45 -48 89 -63v-7q-33 -3 -119 -3q-56 0 -91 36q-33 35 -68.5 88.5t-56.5 96.5zM1078 436v-8q-65 -13 -111 -42q-44 -24 -88 -68l-6 8q22 28 22 55q0 39 -53 47v8h236z" />
    <glyph glyph-name="longs_longs_l" unicode="&#x17f;&#x17f;l" horiz-adv-x="822" 
d="M473 534v-444q0 -44 15 -62t50 -21v-7h-248v7q35 5 46.5 21.5t11.5 61.5v297h-60v8l60 45v53q0 27 7 57q-23 16 -23 47q0 37 27 55q-11 23 -49 29v6q84 -6 124 -31q54 42 126 47v-6q-48 -7 -67.5 -48t-19.5 -115zM620 90v490q-17 15 -17 42q0 35 29 52q-12 18 -47 24v6
q62 -4 101 -18l60 19l3 -2q-3 -123 -3 -139v-478q0 -41 13.5 -57.5t46.5 -21.5v-7h-240v7q34 5 44 21t10 62zM202 547v-461q0 -41 14.5 -58.5t47.5 -20.5v-7h-245v7q35 5 46 21t11 62v297h-62v8l63 48v47q0 86 57 137t150 60v-6q-82 -14 -82 -134z" />
    <glyph glyph-name=".notdef" horiz-adv-x="770" 
 />
    <glyph glyph-name=".null" horiz-adv-x="0" 
 />
    <glyph glyph-name="nonmarkingreturn" horiz-adv-x="333" 
 />
    <glyph glyph-name="space" unicode=" " horiz-adv-x="180" 
 />
    <glyph glyph-name="exclam" unicode="!" horiz-adv-x="259" 
d="M65 55q0 26 18 44t46 18q27 0 45 -18t18 -44q0 -27 -18 -45t-45 -18q-28 0 -46 18t-18 45zM134 164h-9q-4 33 -33 193.5t-29 207.5q0 73 66 73q34 0 51 -20t17 -53q0 -46 -29.5 -204.5t-33.5 -196.5z" />
    <glyph glyph-name="quotedbl" unicode="&#x22;" horiz-adv-x="309" 
d="M85 386h-6q-48 173 -48 197q0 55 51 55t51 -55q0 -12 -4.5 -34t-10 -42t-16.5 -58.5t-17 -62.5zM230 386h-6q-6 24 -17 62.5t-16.5 58.5t-10 42t-4.5 34q0 55 51 55t51 -55q0 -12 -4.5 -34t-10 -42t-16.5 -58.5t-17 -62.5z" />
    <glyph glyph-name="numbersign" unicode="#" horiz-adv-x="592" 
d="M311 22l126 608h29l-125 -608h-30zM127 22l126 608h29l-125 -608h-30zM414 242l6 27h117l-5 -27h-118zM23 242l5 27h116q0 -2 -5 -27h-116zM446 406l5 26h118l-5 -26h-118zM53 406l5 26h118l-5 -26h-118zM231 242l4 27h97l-5 -27h-96zM263 406l5 26h96l-6 -26h-95z" />
    <glyph glyph-name="dollar" unicode="$" horiz-adv-x="425" 
d="M247 620l-17 -274q22 -15 43 -26q59 -38 90 -75.5t31 -86.5q0 -68 -51 -115t-124 -50v6q35 5 51.5 26.5t16.5 67.5q0 27 -15.5 46t-54.5 45l-17 -261h-21l18 275q-38 24 -43 27q-53 34 -84 72.5t-31 91.5q0 66 49 107t121 47v-7q-63 -16 -63 -81q0 -55 63 -95l17 260h21z
M167 -2v-6q-63 3 -124 29l-8 154h8q16 -62 51.5 -111.5t72.5 -65.5zM255 538v7q66 -3 111 -23l7 -132h-7q-28 111 -111 148z" />
    <glyph glyph-name="percent" unicode="%" horiz-adv-x="640" 
d="M328 136q0 55 38 97t95 47v-10q-25 -6 -36.5 -45t-11.5 -89t11.5 -89t36.5 -45v-10q-57 5 -95 46.5t-38 97.5zM616 136q0 -56 -37.5 -97.5t-94.5 -46.5v10q25 6 36.5 45t11.5 89t-11.5 89t-36.5 45v10q56 -5 94 -47t38 -97zM312 456q0 -55 -38 -97t-95 -47v10
q25 6 36.5 45t11.5 89t-11.5 89t-36.5 45v10q57 -5 95 -46.5t38 -97.5zM24 456q0 56 37.5 97.5t94.5 46.5v-10q-25 -6 -36.5 -45t-11.5 -89t11.5 -89t36.5 -45v-10q-56 5 -94 47t-38 97zM110 10l397 590l23 -18l-397 -590z" />
    <glyph glyph-name="ampersand" unicode="&#x26;" horiz-adv-x="764" 
d="M361 431l-4 4q34 39 34 100q0 92 -68 93q-33 1 -51.5 -19.5t-18.5 -59.5q0 -58 85 -138q35 -32 97 -100t96 -109q8 -9 31.5 -36.5t38.5 -44t30 -30.5q37 -35 78 -35q27 0 52 9v-7q-17 -22 -58 -44t-97 -22q-28 0 -51.5 8.5t-47.5 28.5t-39 36t-43 49q-52 66 -202 220
q-80 75 -80 155q0 63 50.5 106t125.5 43q70 0 109.5 -27.5t39.5 -71.5q0 -70 -107 -108zM169 342l5 -7q-29 -28 -29 -92q0 -51 38 -101q22 -30 53 -48.5t60 -18.5q57 0 94 29l4 -5q-26 -44 -71.5 -75.5t-107.5 -31.5q-81 0 -128.5 46t-47.5 122q0 56 38.5 104t91.5 78z
M557 241l-6 6q25 47 25 75q0 33 -20 50q-18 16 -67 21v8h263v-8q-57 -8 -101.5 -44.5t-93.5 -107.5z" />
    <glyph glyph-name="quotesingle" unicode="'" horiz-adv-x="164" 
d="M85 386h-6q-48 173 -48 197q0 55 51 55t51 -55q0 -12 -4.5 -34t-10 -42t-16.5 -58.5t-17 -62.5z" />
    <glyph glyph-name="parenleft" unicode="(" horiz-adv-x="289" 
d="M58 209q0 139 66 247.5t167 181.5l6 -7q-157 -159 -157 -422t157 -422l-6 -7q-101 73 -167 181.5t-66 247.5z" />
    <glyph glyph-name="parenright" unicode=")" horiz-adv-x="289" 
d="M231 209q0 -139 -66 -247.5t-167 -181.5l-6 7q157 159 157 422t-157 422l6 7q101 -73 167 -181.5t66 -247.5z" />
    <glyph glyph-name="asterisk" unicode="*" horiz-adv-x="352" 
d="M262 644l-47 -120l127 -18v-8l-127 -20l47 -119l-7 -3l-79 101l-80 -101l-7 3l48 119l-127 20v8l127 18l-48 120l7 3l80 -101l79 101z" />
    <glyph glyph-name="plus" unicode="+" horiz-adv-x="430" 
d="M54 240h143v143h35v-143h144v-34h-144v-144h-35v144h-143v34z" />
    <glyph glyph-name="comma" unicode="," horiz-adv-x="238" 
d="M41 61q0 31 22 50t51 19q42 0 65 -25t23 -73q0 -59 -43.5 -107.5t-108.5 -69.5l-3 7q37 16 61 53.5t26 81.5q-13 -5 -28 -5q-26 0 -45.5 19.5t-19.5 49.5z" />
    <glyph glyph-name="hyphen" unicode="-" horiz-adv-x="286" 
d="M239 219h-192v64h192v-64z" />
    <glyph glyph-name="period" unicode="." horiz-adv-x="234" 
d="M47 61q0 29 20.5 49t49.5 20t49.5 -20t20.5 -49t-20.5 -49t-49.5 -20t-49.5 20t-20.5 49z" />
    <glyph glyph-name="slash" unicode="/" horiz-adv-x="311" 
d="M-10 -154l-23 9l307 778l23 -8z" />
    <glyph glyph-name="zero" unicode="0" 
d="M28 220q0 86 64 152t153 75v-9q-83 -18 -83 -218q0 -202 83 -219v-9q-89 8 -153 75t-64 153zM493 220q0 -87 -64 -153.5t-154 -74.5v9q84 17 84 219q0 200 -84 218v9q90 -9 154 -75t64 -152z" />
    <glyph glyph-name="one" unicode="1" horiz-adv-x="309" 
d="M217 332v-225q0 -50 16 -72t56 -27v-8h-270v8q41 5 57 27t16 72v225q0 50 -16 72t-57 27v8h270v-8q-40 -5 -56 -27t-16 -72z" />
    <glyph glyph-name="two" unicode="2" horiz-adv-x="418" 
d="M10 0l106 105h166q77 0 103 83h8l-20 -188h-363zM145 131l-6 5q40 42 61 76t21 75q0 33 -21 53t-62 20q-56 0 -100 -43l-6 4q23 54 65.5 90t99.5 36q69 0 104 -31t35 -88q0 -55 -47.5 -99.5t-143.5 -97.5z" />
    <glyph glyph-name="three" unicode="3" horiz-adv-x="373" 
d="M185 202l-6 5q29 29 29 79q0 38 -23 58t-62 20q-57 0 -94 -37l-7 5q22 50 66 82.5t99 32.5q129 0 129 -105q0 -41 -38 -80.5t-93 -59.5zM61 -82q21 0 36.5 -15.5t15.5 -37.5q0 -21 -15.5 -36.5t-36.5 -15.5q-22 0 -37.5 15.5t-15.5 36.5q0 23 15 38t38 15zM235 -24
q0 51 -31 82t-98 31q-29 0 -51 -5l-2 6l100 92q92 0 144 -44t52 -109q0 -76 -62 -135t-163 -77v8q49 12 80 57t31 94z" />
    <glyph glyph-name="four" unicode="4" horiz-adv-x="546" 
d="M368 446v-602h-123v488l84 114h39zM405 26v102h133l-13 -102h-120zM208 128v-102h-196v7l85 95h111z" />
    <glyph glyph-name="five" unicode="5" horiz-adv-x="351" 
d="M97 332l34 107l205 3l-24 -108zM60 -181l-2 8q63 19 101.5 69.5t38.5 107.5q0 65 -57 122q-32 32 -91 64l39 119q89 -41 135 -84q73 -70 73 -152q0 -93 -67.5 -162t-169.5 -92zM-26 -110q0 22 15.5 37.5t37.5 15.5t37.5 -15.5t15.5 -37.5t-15.5 -37.5t-37.5 -15.5
t-37.5 15.5t-15.5 37.5z" />
    <glyph glyph-name="six" unicode="6" horiz-adv-x="494" 
d="M466 614q-309 -99 -309 -410q0 -32 6 -72.5t26 -82.5t50 -47v-10q-87 3 -152 66t-65 158q0 161 139 274q126 102 303 133zM196 325v1q13 20 45 38t69 18q77 0 121.5 -48.5t44.5 -131.5q0 -82 -60.5 -140.5t-153.5 -68.5v10q34 9 57.5 63t23.5 119q0 147 -105 147
q-28 0 -42 -7z" />
    <glyph glyph-name="seven" unicode="7" horiz-adv-x="414" 
d="M409 439l-49 -108h-234q-80 0 -117 -69h-9l53 177h356zM348 302l-192 -475h-97l277 475h12z" />
    <glyph glyph-name="eight" unicode="8" horiz-adv-x="457" 
d="M307 375l-5 4q31 44 31 114q0 52 -24.5 81.5t-73.5 29.5q-34 0 -58.5 -19.5t-24.5 -59.5q0 -17 5.5 -32.5t11 -26t21 -25.5t23.5 -21.5t31.5 -25t32.5 -25.5q5 -4 30 -23.5t32.5 -25.5t27 -24t26.5 -29t17.5 -28.5t14.5 -36t4 -38.5q0 -76 -61.5 -124t-147.5 -48
q-79 0 -135 36.5t-56 106.5q0 44 36.5 80t82.5 56l5 -5q-19 -16 -33 -47t-14 -66q0 -67 31 -107.5t88 -40.5q50 0 74.5 27t24.5 71q0 11 -2.5 21t-4.5 17.5t-9.5 17t-11.5 14.5t-17 16.5t-18.5 16t-24 19.5t-26.5 21q-10 8 -44.5 35.5t-46 38.5t-31.5 35t-27 48t-7 54
q0 65 55 112.5t132 47.5q76 0 120.5 -32t44.5 -83q0 -40 -28.5 -73t-70.5 -54z" />
    <glyph glyph-name="nine" unicode="9" horiz-adv-x="502" 
d="M37 -169q47 16 82.5 32.5t80.5 50t74.5 73.5t50 104.5t20.5 143.5q0 37 -8 78.5t-29.5 79.5t-51.5 44v10q92 -3 157.5 -62t65.5 -162q0 -156 -132 -263q-115 -94 -308 -138zM299 119v-1q-12 -20 -39.5 -36t-63.5 -16q-78 0 -124.5 47.5t-46.5 130.5q0 84 55.5 138
t151.5 64v-10q-33 -9 -53 -59.5t-20 -117.5q0 -148 105 -148q19 0 35 8z" />
    <glyph glyph-name="colon" unicode=":" horiz-adv-x="236" 
d="M48 60q0 29 20.5 48.5t49.5 19.5t49 -19.5t20 -48.5t-20 -48.5t-49 -19.5t-49.5 19.5t-20.5 48.5zM48 379q0 29 20.5 48.5t49.5 19.5t49 -19.5t20 -48.5t-20 -48.5t-49 -19.5t-49.5 19.5t-20.5 48.5z" />
    <glyph glyph-name="semicolon" unicode=";" horiz-adv-x="240" 
d="M42 61q0 31 22 50t51 19q87 0 87 -98q0 -59 -43 -107.5t-108 -69.5l-3 7q78 37 86 135q-13 -5 -27 -5q-26 0 -45.5 19.5t-19.5 49.5zM43 379q0 29 20.5 48.5t49.5 19.5t49 -19.5t20 -48.5t-20 -48.5t-49 -19.5t-49.5 19.5t-20.5 48.5z" />
    <glyph glyph-name="less" unicode="&#x3c;" horiz-adv-x="378" 
d="M331 317l-241 -93l241 -94v-35l-284 111v35l284 111v-35z" />
    <glyph glyph-name="equal" unicode="=" horiz-adv-x="430" 
d="M54 160h322v-34h-322v34zM54 320h322v-34h-322v34z" />
    <glyph glyph-name="greater" unicode="&#x3e;" horiz-adv-x="378" 
d="M288 224l-241 93v35l284 -111v-35l-284 -111v35z" />
    <glyph glyph-name="question" unicode="?" horiz-adv-x="327" 
d="M309 402q0 -76 -53.5 -116t-150.5 -43v-74h-19v194q194 8 194 86q0 18 -9 51l5 5q33 -47 33 -103zM250 542l-5 -5q-44 15 -121 15q-24 0 -40 -11.5t-17 -30.5q-11 7 -20.5 23.5t-9.5 32.5q0 36 22 54t55 18q35 0 72 -26q32 -24 64 -70zM36 55q0 27 18.5 45t46.5 18
t46 -18t18 -45t-18.5 -45t-45.5 -18q-28 0 -46.5 18.5t-18.5 44.5z" />
    <glyph glyph-name="at" unicode="@" horiz-adv-x="805" 
d="M405 349l-3 3q53 53 116 56l21 23q18 18 35 18q47 0 34 -42l-104 -362q19 -8 42 -8q101 0 165.5 79t64.5 172q0 126 -80.5 202.5t-239.5 76.5q-107 0 -195.5 -58t-136.5 -151.5t-48 -199.5q0 -152 89.5 -249t249.5 -97q93 0 171 30.5t129 71.5l8 -10q-45 -40 -134 -75
t-187 -35q-173 0 -279 96t-106 263q0 117 62.5 217t163.5 156t213 56q165 0 251 -81.5t86 -212.5q0 -113 -86.5 -204.5t-212.5 -91.5q-18 0 -35.5 1.5t-32.5 4.5t-24 8.5t-7 12.5l99 349q-10 4 -27 4q-25 0 -62 -23zM371 328l6 -5q-21 -30 -45.5 -100.5t-24.5 -101.5
q0 -26 3 -36t15 -10q25 0 62 49l7 -4q-30 -50 -70 -89t-84 -39q-21 0 -34 17t-13 44q0 52 55 135t123 140z" />
    <glyph glyph-name="A" unicode="A" horiz-adv-x="610" 
d="M356 144l-35 93h-181l11 30h158l-79 213l62 157h30l199 -513q43 -105 115 -116v-8h-327v8q35 2 52 14.5t17 40.5q0 25 -22 81zM195 0h-233v8q51 8 87 46q34 35 62 104l8 -4q-8 -36 -8 -66q0 -74 84 -80v-8z" />
    <glyph glyph-name="B" unicode="B" horiz-adv-x="619" 
d="M30 0v8q48 7 66 31t18 85v382q0 61 -18 85t-66 31v8h228v-630h-228zM594 167q0 -142 -216 -164q-30 -3 -66 -3v8q72 7 102 45t30 117q0 55 -18 89t-60 53q-31 13 -63 15v7q23 2 38 9q34 14 54 51t20 85q0 132 -104 143v8q65 0 116 -13t88 -48t37 -90q0 -56 -47 -94
t-122 -50v-2q211 -28 211 -166z" />
    <glyph glyph-name="C" unicode="C" horiz-adv-x="672" 
d="M613 428h-9q-13 64 -52.5 114.5t-100.5 73.5q-28 10 -52 13v9q132 -3 212 -33zM607 217h9l-2 -192q-69 -23 -206 -32v9q19 2 46 12q59 25 99 80t54 123zM368 0v-8q-154 6 -246.5 99.5t-92.5 230.5q0 70 30.5 130t79 98t105.5 60.5t114 26.5v-8q-32 -5 -58 -21
q-114 -72 -114 -282q0 -242 121 -305q33 -18 61 -21z" />
    <glyph glyph-name="D" unicode="D" horiz-adv-x="738" 
d="M30 0v8q48 7 66 31t18 85v382q0 61 -18 85t-66 31v8h228v-630h-228zM702 317q0 -107 -65 -185t-173 -110q-71 -22 -152 -22v8q55 2 112 32q122 67 122 273q0 108 -42 181t-114 106q-36 17 -78 22v8q175 -7 282.5 -86.5t107.5 -226.5z" />
    <glyph glyph-name="E" unicode="E" horiz-adv-x="617" 
d="M554 428q-19 63 -41.5 93.5t-65.5 57.5q-48 30 -137 43v8h246l6 -202h-8zM313 322q67 7 96.5 34.5t45.5 95.5h8v-269h-8q-16 68 -45.5 96t-96.5 35v8zM30 0v8q48 7 66 31t18 85v382q0 61 -18 85t-66 31v8h228v-630h-228zM313 0v8q84 9 145 49q43 28 68 69t45 104h8
l-9 -230h-257z" />
    <glyph glyph-name="F" unicode="F" horiz-adv-x="609" 
d="M258 630v-506q0 -61 23.5 -85t77.5 -31v-8h-329v8q48 7 66 31t18 85v382q0 61 -18 85t-66 31v8h228zM568 418q-15 57 -43.5 92.5t-75.5 63.5q-24 14 -64.5 28.5t-74.5 19.5v8h256l10 -212h-8zM313 323q67 7 100.5 38.5t48.5 99.5h8v-284h-8q-15 68 -48.5 99.5
t-100.5 38.5v8z" />
    <glyph glyph-name="G" unicode="G" horiz-adv-x="705" 
d="M611 430h-9q-15 68 -57.5 119t-103.5 71q-10 3 -49 10v8q138 0 206 -25zM494 166q0 57 -17 79t-62 29v8h292v-8q-46 -7 -62.5 -29t-16.5 -79v-140q-34 -12 -102.5 -21.5t-116.5 -11.5v8q28 3 51 12q34 14 34 51v102zM368 0v-8q-106 3 -184 49t-116.5 118t-38.5 159
q0 136 96 222.5t226 96.5v-8q-35 -7 -58 -22q-107 -67 -107 -277q0 -249 121 -312q28 -15 61 -18z" />
    <glyph glyph-name="H" unicode="H" horiz-adv-x="797" 
d="M291 310v30h216v-30h-216zM114 124v382q0 61 -18 85t-66 31v8h307v-8q-46 -7 -62.5 -30t-16.5 -86v-382q0 -63 16.5 -86t62.5 -30v-8h-307v8q48 7 66 31t18 85zM684 506v-382q0 -61 18 -85t65 -31v-8h-306v8q46 7 62.5 30t16.5 86v382q0 63 -16.5 86t-62.5 30v8h306v-8
q-47 -7 -65 -31t-18 -85z" />
    <glyph glyph-name="I" unicode="I" horiz-adv-x="371" 
d="M114 124v382q0 61 -18 85t-66 31v8h311v-8q-46 -7 -64.5 -30.5t-18.5 -85.5v-382q0 -62 18.5 -85.5t64.5 -30.5v-8h-311v8q48 7 66 31t18 85z" />
    <glyph glyph-name="J" unicode="J" horiz-adv-x="346" 
d="M249 506v-411q0 -112 -71 -174q-35 -31 -92.5 -57t-113.5 -39l-3 10q59 23 98 75q38 50 38 174v422q0 61 -18 85t-66 31v8h311v-8q-46 -7 -64.5 -30.5t-18.5 -85.5z" />
    <glyph glyph-name="K" unicode="K" horiz-adv-x="756" 
d="M735 630v-8q-48 -5 -105 -40q-58 -36 -158 -123l-5 6q46 53 46 94q0 57 -82 63v8h304zM760 -7q-95 0 -149 6q-52 6 -86.5 24t-75.5 69q-77 97 -137 198l91 103q45 -64 125 -167.5t118 -143.5q32 -34 58 -54t56 -27v-8zM114 124v382q0 61 -18 85t-66 31v8h311v-8
q-46 -7 -64.5 -30.5t-18.5 -85.5v-382q0 -62 18.5 -85.5t64.5 -30.5v-8h-311v8q48 7 66 31t18 85z" />
    <glyph glyph-name="L" unicode="L" horiz-adv-x="618" 
d="M578 238h9l-19 -238h-258v8q88 8 150 51q85 60 118 179zM258 506v-506h-228v8q48 7 66 31t18 85v382q0 61 -18 85t-66 31v8h322v-8q-52 -7 -73 -30.5t-21 -85.5z" />
    <glyph glyph-name="M" unicode="M" horiz-adv-x="901" 
d="M650 131l-19 499h234v-8q-50 -6 -68 -31.5t-16 -88.5l14 -371q2 -65 21 -91t67 -32v-8h-314v8q43 6 61.5 25.5t19.5 68.5v29zM498 148l-83 -155h-5l-232 494q-33 69 -70 99q-39 31 -85 36v8h250zM263 0h-280v7q59 8 89 43q40 45 62 139h10q-5 -107 24 -139q34 -39 95 -43
v-7z" />
    <glyph glyph-name="N" unicode="N" horiz-adv-x="719" 
d="M279 0h-278v8q59 6 93 50q15 20 25.5 61t10.5 70h10q0 -28 10.5 -68.5t25.5 -60.5q35 -46 103 -52v-8zM542 -2l-413 530q-36 45 -59 62q-34 26 -80 32v8h249l355 -453v-179h-52zM445 630h278v-8q-61 -6 -93 -50q-15 -20 -25.5 -59t-10.5 -68h-10q0 28 -10.5 66.5
t-25.5 58.5q-36 46 -103 52v8z" />
    <glyph glyph-name="O" unicode="O" horiz-adv-x="762" 
d="M377 0v-8q-159 4 -250 96t-91 230q0 71 27.5 130.5t72.5 98t99 62t111 28.5v-8q-37 -8 -57 -22q-96 -60 -96 -277q0 -250 122 -312q32 -15 62 -18zM385 630v8q159 -4 250 -96t91 -230q0 -71 -27.5 -130.5t-72.5 -98t-99 -62t-111 -28.5v8q37 8 56 22q97 61 97 277
q0 250 -122 312q-32 15 -62 18z" />
    <glyph glyph-name="P" unicode="P" horiz-adv-x="601" 
d="M584 458q0 -73 -72.5 -128.5t-202.5 -60.5v9q22 4 45 14q45 20 63.5 57t18.5 107q0 64 -21.5 101.5t-69.5 55.5q-15 6 -36 9v8q30 0 72 -4q106 -11 154.5 -52.5t48.5 -115.5zM258 630v-506q0 -61 23.5 -85t77.5 -31v-8h-329v8q48 7 66 31t18 85v382q0 61 -18 85t-66 31v8
h228z" />
    <glyph glyph-name="Q" unicode="Q" horiz-adv-x="763" 
d="M1161 -166l3 -6q-27 -38 -86 -63.5t-120 -25.5q-132 0 -284 64q-25 10 -155.5 69t-189.5 78v4q89 17 181 17q24 0 54 -5q22 -4 43 -9t47.5 -14.5t41 -14.5t51.5 -20t51 -20q185 -69 275 -69q48 0 88 15zM377 3v-8q-160 4 -251 95.5t-91 228.5q0 71 27.5 130.5t73 98
t99.5 61.5t111 28v-8q-39 -8 -57 -22q-97 -61 -97 -276q0 -249 123 -310q30 -15 62 -18zM384 630v8q160 -4 251 -95.5t91 -228.5q0 -138 -94 -222.5t-217 -95.5v8q36 7 57 22q97 61 97 276q0 248 -123 310q-30 15 -62 18z" />
    <glyph glyph-name="R" unicode="R" horiz-adv-x="724" 
d="M445 98q-60 81 -116 199v4q15 2 36 11q41 16 56 54t15 98q0 140 -127 158v8q52 0 102 -8q173 -26 173 -161q0 -107 -115 -149v-2q54 -100 177 -234q22 -27 53.5 -47t56.5 -24v-8q-28 -2 -152 -2q-50 1 -85.5 26.5t-73.5 76.5zM258 630v-506q0 -61 23.5 -85t77.5 -31v-8
h-329v8q48 7 66 31t18 85v382q0 61 -18 85t-66 31v8h228z" />
    <glyph glyph-name="S" unicode="S" horiz-adv-x="508" 
d="M446 456h-9q-46 154 -149 173v9q28 0 77 -8t73 -16zM478 185q0 -92 -65 -139.5t-160 -52.5v9q46 4 75 33t29 81q0 45 -32.5 74t-111.5 72q-76 42 -118.5 86.5t-42.5 111.5q0 78 59 124.5t138 52.5v-9q-79 -8 -79 -96q0 -25 8 -43.5t30.5 -37.5t37.5 -28t55 -31
q11 -6 16 -9q36 -20 49.5 -28.5t41 -29.5t39 -37.5t21.5 -43.5t10 -59zM215 -8q-113 9 -163 32l-11 193h9q18 -75 66 -139.5t99 -76.5v-9z" />
    <glyph glyph-name="T" unicode="T" horiz-adv-x="668" 
d="M224 630v-8q-46 -10 -93 -44q-66 -50 -94 -151h-9l8 203h188zM444 622v8h188l8 -203h-9q-27 104 -93 151q-47 34 -94 44zM406 630v-506q0 -61 18 -85t66 -31v-8h-311v8q46 7 64.5 30.5t18.5 85.5v506h144z" />
    <glyph glyph-name="U" unicode="U" horiz-adv-x="703" 
d="M431 630h280v-8q-62 -6 -93 -47q-15 -19 -26 -68.5t-11 -79.5h-11q0 30 -11.5 78.5t-26.5 67.5q-33 43 -101 49v8zM97 233v273q0 61 -18 85t-65 31v8h311v-8q-47 -7 -65.5 -30.5t-18.5 -85.5v-294q0 -63 15.5 -100.5t54.5 -60.5q58 -35 148 -30v-7q-9 -6 -40.5 -14
t-63.5 -8q-102 0 -161 32q-97 55 -97 209z" />
    <glyph glyph-name="V" unicode="V" horiz-adv-x="649" 
d="M274 486l127 -329l-65 -162h-26l-202 507q-24 61 -52.5 88t-68.5 32v8h335v-8q-72 -5 -72 -55q0 -24 24 -81zM435 630h244v-8q-60 -10 -102 -52q-36 -38 -71 -123l-8 4q16 48 16 100q0 64 -79 71v8z" />
    <glyph glyph-name="W" unicode="W" horiz-adv-x="968" 
d="M269 492l98 -325l-66 -172h-25l-171 507q-21 62 -47 88.5t-66 31.5v8h316v-8q-58 -5 -58 -52q0 -16 19 -78zM621 492l98 -325l-65 -172h-26l-175 519q-19 57 -40 80.5t-58 27.5v8h310v-8q-61 -5 -61 -53q0 -23 17 -77zM752 630h240v-8q-59 -10 -101 -52q-38 -40 -73 -123
l-8 4q17 61 17 107q0 57 -75 64v8z" />
    <glyph glyph-name="X" unicode="X" horiz-adv-x="699" 
d="M390 123l-240 387q-65 103 -144 112v8h370v-8q-78 -7 -78 -50q0 -27 25 -69l243 -389q29 -47 59 -73.5t72 -32.5v-8h-361v8q40 3 61 16.5t21 33.5q0 21 -28 65zM254 0h-250v8q56 10 105.5 53.5t108.5 115.5l7 -7q-42 -69 -42 -99q0 -27 20 -43t51 -20v-8zM443 630h251v-8
q-52 -9 -105 -51q-23 -16 -56.5 -53t-52.5 -64l-7 7q42 67 42 97q0 53 -72 64v8z" />
    <glyph glyph-name="Y" unicode="Y" horiz-adv-x="611" 
d="M636 622q-49 -7 -99.5 -48t-91.5 -105l-7 6q32 52 32 85q0 31 -17.5 45.5t-53.5 16.5v8h237v-8zM230 124v169l-140 250q-38 68 -108 79v8h330v-8q-32 -1 -52 -15.5t-20 -33.5q0 -17 27 -66l106 -192v-191q0 -62 18.5 -85.5t65.5 -30.5v-8h-311v8q48 7 66 31t18 85z" />
    <glyph glyph-name="Z" unicode="Z" horiz-adv-x="601" 
d="M325 623q-221 -21 -279 -214h-9q5 51 12.5 135t7.5 86h268v-7zM575 630l-401 -630h-163l400 630h164zM553 0h-279v8q115 10 187.5 63t113.5 154h8q-7 -49 -16.5 -122.5t-13.5 -102.5z" />
    <glyph glyph-name="bracketleft" unicode="[" horiz-adv-x="301" 
d="M72 -219v857h211v-13h-132v-831h132v-13h-211z" />
    <glyph glyph-name="backslash" unicode="\" horiz-adv-x="317" 
d="M337 -145l-24 -9l-306 779l22 8z" />
    <glyph glyph-name="bracketright" unicode="]" horiz-adv-x="301" 
d="M229 638v-857h-210v13h131v831h-131v13h210z" />
    <glyph glyph-name="asciicircum" unicode="^" horiz-adv-x="415" 
d="M305 321l-97 223l-97 -223h-39l118 270h36l118 -270h-39z" />
    <glyph glyph-name="underscore" unicode="_" horiz-adv-x="494" 
d="M497 -127h-500v37h500v-37z" />
    <glyph glyph-name="grave" unicode="`" horiz-adv-x="249" 
d="M185 485l-155 144l76 54l87 -193z" />
    <glyph glyph-name="a" unicode="a" horiz-adv-x="452" 
d="M119 400v3q24 17 61 30.5t67 13.5q135 0 135 -128v-225q0 -44 38 -44q17 0 29 7v-5q-10 -24 -36 -42t-65 -18q-44 0 -67.5 26t-23.5 76v219q0 87 -138 87zM203 52q23 0 37 9v-4q-8 -22 -38 -43.5t-69 -21.5q-51 0 -79.5 30t-28.5 75q0 34 14 58.5t27 29.5q46 19 165 47
v-7q-52 -19 -67 -38q-16 -24 -16 -59q0 -76 55 -76zM54 327q0 22 15.5 37.5t37.5 15.5t37.5 -15.5t15.5 -37.5t-15.5 -38t-37.5 -16t-37.5 15.5t-15.5 38.5z" />
    <glyph glyph-name="b" unicode="b" horiz-adv-x="557" 
d="M284 -7v8q53 6 82.5 60t29.5 142q0 91 -34.5 140.5t-103.5 49.5q-27 0 -55 -13v2q26 26 67 45.5t80 19.5q86 0 131.5 -51.5t45.5 -152.5q0 -99 -65 -171.5t-178 -78.5zM58 570q0 27 -10 42t-39 32v5l175 55l3 -2q-3 -123 -3 -139v-440q0 -50 18 -80q19 -36 55 -43v-8
q-22 1 -41.5 5t-37.5 11.5t-27.5 11.5t-26 13.5t-17.5 10.5h-2l-54 -37l-6 3q13 31 13 125v435z" />
    <glyph glyph-name="c" unicode="c" horiz-adv-x="429" 
d="M276 446v-8q-47 -7 -86 -53t-39 -125q0 -91 39 -132t97 -41q40 0 74.5 15.5t50.5 38.5l5 -4q-7 -25 -20.5 -48t-35.5 -46t-58 -37t-80 -14q-93 0 -145 60.5t-52 151.5q0 101 77 168.5t173 73.5zM288 378q0 24 17.5 41.5t42.5 17.5q24 0 41.5 -17.5t17.5 -41.5
q0 -25 -17.5 -42.5t-41.5 -17.5q-25 0 -42.5 17.5t-17.5 42.5z" />
    <glyph glyph-name="d" unicode="d" horiz-adv-x="553" 
d="M342 89v-4q-14 -37 -51.5 -65t-86.5 -28q-78 0 -128 59t-50 147q0 87 56.5 150.5t132.5 86.5v-8q-24 -19 -41.5 -68t-17.5 -112q0 -86 35.5 -129t87.5 -43q39 0 63 14zM484 563v-465q0 -32 6.5 -44.5t22.5 -18.5q32 -9 34 -9v-7l-185 -27l-3 2v294q0 78 -31 113
q-32 35 -80 35v7q23 5 45 5q37 0 66 -11v123q0 47 -27 69q-14 11 -22 15v5l175 55l2 -2q-3 -123 -3 -139z" />
    <glyph glyph-name="e" unicode="e" horiz-adv-x="442" 
d="M219 445v-8q-32 -9 -51 -53t-19 -118q0 -84 39.5 -132.5t108.5 -48.5q86 0 128 58l6 -4q-14 -51 -64.5 -99t-132.5 -48q-98 0 -154 64t-56 156q0 94 56.5 158.5t138.5 74.5zM415 290h-233v7l118 12q-6 121 -55 130v8q79 -3 124.5 -48.5t45.5 -108.5z" />
    <glyph glyph-name="f" unicode="f" horiz-adv-x="322" 
d="M332 685q24 0 41 -17t17 -41q0 -25 -17 -42.5t-41 -17.5t-41.5 17.5t-17.5 42.5q0 24 17.5 41t41.5 17zM269 7v-7h-250v7q35 5 46 21t11 62v297h-62v8l63 47v69q0 86 59.5 136t154.5 57v-6q-46 -7 -67.5 -44.5t-21.5 -92.5v-125h111l-10 -49h-101v-297q0 -44 16 -62
t51 -21z" />
    <glyph glyph-name="g" unicode="g" horiz-adv-x="492" 
d="M297 290q0 132 -67 150v7q73 -3 128 -40.5t55 -105.5q0 -71 -51.5 -110t-118.5 -44v7q29 11 41 44.5t13 91.5zM32 291q0 70 52 110t118 45v-7q-52 -18 -54 -137q0 -131 67 -149v-7q-73 3 -128 41t-55 104zM495 364l-101 40v7l112 41zM348 -179v6q52 35 52 78
q0 26 -15.5 38.5t-55.5 12.5q-16 0 -98 -4t-103 -4q-41 0 -72 23.5t-31 66.5q0 25 17 48q22 34 67 68l3 -4q-13 -17 -13 -36q0 -33 48 -33q11 0 80 4t104 4q71 0 105.5 -26t34.5 -86q0 -52 -39 -92.5t-84 -63.5zM319 -185v-7q-24 -15 -72 -31t-104 -16q-66 0 -103 22t-37 58
q0 29 39.5 58t77.5 37l3 -5q-12 -6 -21.5 -22.5t-9.5 -39.5q0 -39 22 -60t75 -21q78 0 130 27z" />
    <glyph glyph-name="h" unicode="h" horiz-adv-x="556" 
d="M359 86v209q0 41 -17 61t-56 20q-32 0 -63 -12v3q25 33 65 56.5t81 23.5q116 0 116 -132v-225q0 -45 11.5 -61.5t45.5 -21.5v-7h-238v7q32 5 43.5 21.5t11.5 57.5zM198 563v-477q0 -41 11.5 -57.5t43.5 -21.5v-7h-238v7q34 5 45.5 21.5t11.5 61.5v481q0 26 -10 41.5
t-38 31.5v5l175 55l2 -2q-3 -123 -3 -139z" />
    <glyph glyph-name="i" unicode="i" horiz-adv-x="276" 
d="M75 90v221q0 40 -27 61q-12 10 -24 16v5l177 55l2 -2q-3 -123 -3 -139v-217q0 -43 13.5 -60.5t47.5 -22.5v-7h-244v7q35 5 46.5 21.5t11.5 61.5zM65 591q0 29 21 49t50 20q30 0 51 -20t21 -49t-21 -49t-51 -20q-29 0 -50 20t-21 49z" />
    <glyph glyph-name="j" unicode="j" horiz-adv-x="249" 
d="M53 591q0 29 21 49t51 20q29 0 50 -20t21 -49t-21 -49t-50 -20q-30 0 -51 20t-21 49zM63 51v260q0 41 -26 62q-12 9 -25 15v5l178 55l2 -2q-3 -123 -3 -139v-235q0 -104 -35.5 -158.5t-104.5 -94.5q-41 -25 -90 -41l-2 7q29 17 44 33q39 42 49.5 87t12.5 146z" />
    <glyph glyph-name="k" unicode="k" horiz-adv-x="532" 
d="M222 218l80 84q23 -41 81 -122.5t85 -109.5q45 -48 89 -63v-7q-33 -3 -119 -3q-56 0 -91 36q-33 35 -68.5 88.5t-56.5 96.5zM530 436v-8q-65 -13 -111 -42q-44 -24 -88 -68l-6 8q22 28 22 55q0 39 -53 47v8h236zM72 90v482q0 26 -10 42.5t-38 30.5v6l175 54l2 -2
q-3 -123 -3 -139v-474q0 -43 12.5 -60.5t45.5 -22.5v-7h-241v7q35 5 46 21t11 62z" />
    <glyph glyph-name="l" unicode="l" horiz-adv-x="272" 
d="M72 90v482q0 26 -10 42t-38 31v6l175 54l2 -2q-3 -123 -3 -139v-474q0 -43 12.5 -60.5t45.5 -22.5v-7h-241v7q35 5 46 21t11 62z" />
    <glyph glyph-name="m" unicode="m" horiz-adv-x="828" 
d="M200 446v-360q0 -41 11.5 -57.5t43.5 -21.5v-7h-238v7q35 5 46.5 21.5t11.5 61.5v225q0 46 -48 72v6l171 55zM479 317v-231q0 -43 10 -58.5t43 -20.5v-7h-234v7q32 5 43.5 21.5t11.5 57.5v210q0 42 -15 61t-54 19q-27 0 -58 -12v3q24 33 64 56.5t82 23.5q59 0 83 -33.5
t24 -96.5zM632 86v210q0 42 -15 61t-54 19q-28 0 -59 -12v3q24 33 64.5 56.5t81.5 23.5q60 0 83.5 -33.5t23.5 -96.5v-227q0 -45 11.5 -61.5t45.5 -21.5v-7h-238v7q32 5 44 21.5t12 57.5z" />
    <glyph glyph-name="n" unicode="n" horiz-adv-x="558" 
d="M362 86v210q0 41 -17 60.5t-57 19.5q-31 0 -62 -12v3q24 33 64 56.5t82 23.5q115 0 115 -130v-227q0 -45 11.5 -61.5t46.5 -21.5v-7h-238v7q32 5 43.5 21.5t11.5 57.5zM200 446v-360q0 -41 11.5 -57.5t43.5 -21.5v-7h-238v7q35 5 46.5 21.5t11.5 61.5v225q0 46 -48 72v6
l171 55z" />
    <glyph glyph-name="o" unicode="o" horiz-adv-x="524" 
d="M154 213q0 -166 66 -201q18 -10 35 -12v-8q-101 3 -168 64.5t-67 159.5q0 97 65 159t154 71v-7q-30 -5 -50 -34q-35 -49 -35 -192zM369 226q0 168 -65 203q-14 8 -35 10v8q100 -3 167 -65t67 -160q0 -97 -64 -157.5t-155 -71.5v7q29 5 50 36q35 47 35 190z" />
    <glyph glyph-name="p" unicode="p" horiz-adv-x="563" 
d="M335 4v8q30 19 48.5 73.5t18.5 122.5q0 86 -32 133t-96 47q-37 0 -61 -12v2q19 26 62 47.5t82 21.5q93 0 135 -56t42 -144q0 -191 -199 -243zM302 -4q-17 -5 -46 -3q-34 0 -62 10v-135q0 -42 16 -60.5t53 -23.5v-8h-252v8q35 5 46.5 21t11.5 62v446q0 38 -27 59
q-13 11 -23 15v5l173 56l2 -2v-306q0 -70 29 -103q25 -29 79 -33v-8z" />
    <glyph glyph-name="q" unicode="q" horiz-adv-x="554" 
d="M349 72v-4q-13 -30 -50.5 -53t-87.5 -23q-81 0 -133 57.5t-52 151.5q0 69 37 125t90 85.5t112 35.5v-8q-45 -7 -76 -60.5t-31 -131.5q0 -92 34 -140t92 -48q45 0 65 13zM492 442v-575q0 -46 11.5 -62t46.5 -21v-8h-252v8q37 5 52.5 23.5t15.5 60.5v439q0 119 -77 132v8
q74 -4 129 -54h2l66 50z" />
    <glyph glyph-name="r" unicode="r" horiz-adv-x="405" 
d="M330 299q-27 0 -44.5 16.5t-17.5 42.5t13 39q-1 3 -8 3q-28 0 -49 -37v4q9 31 37 55.5t60 24.5q38 0 58 -20.5t20 -55.5q0 -33 -19.5 -52.5t-49.5 -19.5zM200 446v-357q0 -42 16 -59.5t51 -22.5v-7h-250v7q35 5 46.5 21.5t11.5 61.5v225q0 26 -10 41.5t-38 30.5v6l171 55
z" />
    <glyph glyph-name="s" unicode="s" horiz-adv-x="374" 
d="M175 446v-7q-16 -3 -30 -19.5t-14 -40.5q0 -17 6 -30t21.5 -25t25.5 -18t35 -20q7 -4 11 -6q29 -17 47.5 -29t38 -29.5t28.5 -37.5t9 -44q0 -68 -45 -106t-117 -42v6q62 11 62 72q0 17 -6.5 30t-26.5 27t-28.5 19t-41.5 22q-27 14 -43 24.5t-35 28t-28.5 40.5t-9.5 51
q0 54 39 90.5t102 43.5zM208 440v7q73 0 116 -19l6 -122h-7q-15 49 -48 88.5t-67 45.5zM157 -2v-6q-28 0 -66.5 8t-57.5 17l-6 136h7q12 -48 49.5 -96t73.5 -59z" />
    <glyph glyph-name="t" unicode="t" horiz-adv-x="337" 
d="M182 -8q-120 0 -120 119v275h-53v14l168 152l11 -5v-111h142l-10 -50h-132v-238q0 -83 80 -83q42 0 70 10v-5q-17 -28 -61.5 -53t-94.5 -25z" />
    <glyph glyph-name="u" unicode="u" horiz-adv-x="537" 
d="M63 126v208q0 45 -10.5 60.5t-50.5 21.5v8l185 19l2 -1v-289q0 -49 15.5 -68.5t55.5 -19.5q35 0 60 16v-4q-46 -84 -134 -84q-123 0 -123 133zM468 442v-340q0 -33 7 -46.5t24 -18.5l33 -9v-6l-186 -27l-3 1v338q0 45 -11.5 60.5t-51.5 21.5v8l186 19z" />
    <glyph glyph-name="v" unicode="v" horiz-adv-x="430" 
d="M284 435h181v-8q-35 -4 -69.5 -38t-59.5 -89l-7 5q15 35 15 64t-15 42.5t-45 15.5v8zM-23 435h251v-8q-48 -5 -48 -40q0 -12 16 -55l79 -193l-58 -142h-10l-147 347q-18 43 -35.5 61t-47.5 22v8z" />
    <glyph glyph-name="w" unicode="w" horiz-adv-x="665" 
d="M-23 436h241v-8q-42 -4 -42 -36q0 -16 12 -46l74 -200l-60 -149h-9l-136 351q-17 41 -34 58.5t-46 21.5v8zM519 436h181v-8q-35 -6 -70.5 -41.5t-58.5 -86.5l-8 5q15 35 15 71q0 46 -59 52v8zM245 436h237v-8q-47 -6 -47 -41q0 -16 14 -56l69 -185l-60 -149h-9l-140 361
q-15 41 -26 53.5t-38 16.5v8z" />
    <glyph glyph-name="x" unicode="x" horiz-adv-x="480" 
d="M300 436h189v-8q-80 -19 -158 -129l-6 6q28 45 28 79q0 22 -13 31.5t-40 12.5v8zM405 81q44 -64 93 -73v-8h-268v8q44 4 44 34q0 18 -25 56q-7 12 -89.5 135t-88.5 131q-39 58 -89 64v8h271v-8q-46 -5 -46 -33q0 -17 25 -56q4 -7 44.5 -67t82.5 -122.5t46 -68.5zM186 0
h-202v8q48 11 87.5 44.5t79.5 90.5l5 -9q-26 -48 -26 -76q0 -21 16 -34.5t40 -15.5v-8z" />
    <glyph glyph-name="y" unicode="y" horiz-adv-x="435" 
d="M281 436h191v-8q-84 -12 -137 -131l-8 5q15 35 15 69q0 51 -61 57v8zM-23 436h253v-8q-49 -6 -49 -40q0 -15 16 -56l76 -191l-60 -148h-6l-149 355q-17 42 -34 59t-47 21v8zM174 -136q-40 -102 -114 -102q-25 0 -43.5 16t-18.5 43t17 43t40 16q51 0 65 -62q11 7 26 23
t21 26z" />
    <glyph glyph-name="z" unicode="z" horiz-adv-x="446" 
d="M29 276l13 160h169v-8q-63 -12 -105 -47.5t-69 -104.5h-8zM430 436l-281 -436h-140l280 436h141zM409 0h-181v8q62 8 116 56.5t78 116.5h8z" />
    <glyph glyph-name="braceleft" unicode="{" horiz-adv-x="335" 
d="M83 209v-1q71 -10 102.5 -52t31.5 -118v-141q0 -59 28.5 -82t74.5 -28v-7q-87 0 -136 46.5t-49 139.5v108q0 75 -27.5 103t-89.5 28v7q62 0 89.5 28t27.5 104v109q0 93 49 139t136 46v-7q-46 -4 -74.5 -27t-28.5 -83v-141q0 -76 -32 -118.5t-102 -52.5z" />
    <glyph glyph-name="bar" unicode="|" horiz-adv-x="220" 
d="M97 -220v857h25v-857h-25z" />
    <glyph glyph-name="braceright" unicode="}" horiz-adv-x="335" 
d="M252 208v1q-135 19 -135 171v141q0 60 -28.5 83t-74.5 27v7q87 0 136 -46t49 -139v-109q0 -75 28 -103.5t90 -28.5v-7q-62 0 -90 -28t-28 -103v-108q0 -93 -49 -139.5t-136 -46.5v7q46 5 74.5 28t28.5 82v141q0 76 32 118t103 52z" />
    <glyph glyph-name="asciitilde" unicode="~" horiz-adv-x="443" 
d="M213 252q-1 1 -10.5 7.5t-14 9t-13 7t-16.5 6t-17 1.5q-47 0 -55 -63l-39 2q4 45 31 73t63 28q30 0 49 -8.5t44 -27.5q3 -2 14 -10t16 -11t13.5 -7.5t15 -6.5t13.5 -2q25 0 35.5 15.5t14.5 47.5l38 -2q-4 -50 -29 -75t-62 -25q-8 0 -15 1t-14.5 4t-12 4t-13 7t-11 7
t-13 9t-12.5 9z" />
    <glyph glyph-name="uni00A0" unicode="&#xa0;" horiz-adv-x="180" 
 />
    <glyph glyph-name="exclamdown" unicode="&#xa1;" horiz-adv-x="259" 
d="M194 437q0 -27 -18.5 -45t-45.5 -18t-45 18t-18 45q0 26 18 44t45 18t45.5 -18t18.5 -44zM134 327q4 -33 33 -193.5t29 -207.5q0 -73 -66 -73q-34 0 -51 20t-17 53q0 46 29.5 204.5t33.5 196.5h9z" />
    <glyph glyph-name="cent" unicode="&#xa2;" horiz-adv-x="425" 
d="M232 444v-8q-38 -14 -67 -62t-29 -115q0 -98 62 -146l71 427h20l-73 -439q30 -16 67 -16q38 0 73 16.5t51 39.5l6 -4q-14 -56 -62.5 -100.5t-130.5 -44.5q-4 0 -11.5 0.5t-10.5 0.5l-13 -80h-20l13 83q-74 14 -116 72.5t-42 135.5q0 95 61 157.5t151 82.5zM285 378
q0 24 17.5 41.5t42.5 17.5q24 0 41.5 -17.5t17.5 -41.5q0 -25 -17.5 -42.5t-41.5 -17.5q-25 0 -42.5 17.5t-17.5 42.5z" />
    <glyph glyph-name="sterling" unicode="&#xa3;" horiz-adv-x="543" 
d="M89 336h80l7 25q18 70 48.5 122t68.5 80.5t75.5 42.5t79.5 17l1 -6q-53 -15 -81 -71.5t-58 -181.5l-8 -28h107v-21h-113q-7 -28 -19 -50h112v-21h-124q-39 -62 -156 -114l-5 3q21 35 43 111h-78v21h83l12 50h-75v21zM-14 -4l-2 2q10 33 50.5 71.5t96.5 38.5q49 0 139 -15
q98 -15 136 -15q47 0 71.5 11t40.5 39l4 -1q-7 -68 -39.5 -112.5t-98.5 -44.5q-21 0 -48 3.5t-63 9.5t-53 8q-105 15 -150 15q-49 0 -84 -10zM484 598q24 0 41 -16.5t17 -40.5q0 -23 -17 -40t-41 -17q-23 0 -40 17t-17 40q0 24 17 40.5t40 16.5z" />
    <glyph glyph-name="yen" unicode="&#xa5;" horiz-adv-x="550" 
d="M67 278h111l-91 180q-34 69 -101 79v8h300v-8q-63 -3 -63 -44q0 -22 19 -62l74 -153h136v-19h-128v-59h128v-19h-128v-81q0 -49 13.5 -68t51.5 -24v-8h-259v8q40 5 52.5 23.5t12.5 68.5v81h-129v19h129v44l-8 15h-120v19zM567 537q-92 -12 -182 -153l-7 6q24 39 24 86
q0 57 -68 61v8h233v-8z" />
    <glyph glyph-name="brokenbar" unicode="&#xa6;" horiz-adv-x="220" 
d="M97 253v384h26v-384h-26zM97 -220v384h26v-384h-26z" />
    <glyph glyph-name="section" unicode="&#xa7;" horiz-adv-x="461" 
d="M49 -139q0 24 17 41t41 17t41.5 -17t17.5 -41q0 -23 -18 -41t-41 -18q-24 0 -41 17.5t-17 41.5zM242 -115q0 30 -25 69t-87 110q-108 124 -108 216q0 96 91 179l6 -6q-25 -33 -25 -74q0 -81 122 -225q58 -68 85.5 -110.5t27.5 -80.5q0 -71 -50.5 -123t-120.5 -61v7
q84 17 84 99zM414 550q0 -24 -17 -41t-41 -17q-23 0 -40.5 17t-17.5 41q0 23 17.5 40.5t40.5 17.5q24 0 41 -17.5t17 -40.5zM224 526q0 -30 25 -69t87 -110q110 -126 110 -219q0 -100 -91 -181l-6 6q25 33 25 80q0 46 -33 101t-92 126q-44 53 -60.5 74t-34 54.5t-17.5 59.5
q0 70 50 121t121 63v-7q-84 -18 -84 -99z" />
    <glyph glyph-name="dieresis" unicode="&#xa8;" horiz-adv-x="395" 
d="M104 639q23 0 39.5 -17t16.5 -40t-16.5 -40t-39.5 -17t-39.5 17t-16.5 40t16.5 40t39.5 17zM291 639q23 0 39.5 -17t16.5 -40t-16.5 -40t-39.5 -17t-39.5 17t-16.5 40t16.5 40t39.5 17z" />
    <glyph glyph-name="copyright" unicode="&#xa9;" horiz-adv-x="698" 
d="M26 315q0 136 86.5 223.5t218.5 97.5v-15q-127 -11 -207 -94t-80 -212q0 -130 80 -212.5t207 -93.5v-15q-132 10 -218.5 97.5t-86.5 223.5zM672 315q0 -136 -86.5 -223.5t-218.5 -97.5v15q127 11 207 94t80 212q0 130 -80 212.5t-207 93.5v15q132 -10 218.5 -97.5
t86.5 -223.5zM509 374h-11q-21 107 -94 137q-28 7 -34 8v9q81 -3 138 -22zM501 257h10l-1 -132q-39 -13 -135 -23v9q17 3 31 8q37 14 61 52t34 86zM347 111v-10q-103 5 -164 66.5t-61 153.5q0 89 67.5 144.5t150.5 62.5v-10q-24 -3 -40 -14q-73 -45 -73 -181q0 -156 78 -199
q26 -12 42 -13z" />
    <glyph glyph-name="ordfeminine" unicode="&#xaa;" horiz-adv-x="300" 
d="M136 396q13 0 22 6v-5q-8 -15 -26.5 -27t-41.5 -12q-30 0 -48 18t-18 46q0 21 8 36.5t16 18.5q17 7 103 30v-7q-41 -16 -47 -25q-6 -10 -6 -36q0 -43 38 -43zM39 563q0 14 9 23.5t23 9.5t23.5 -9.5t9.5 -23.5t-9.5 -23.5t-23.5 -9.5q-13 0 -22.5 9.5t-9.5 23.5zM82 609v4
q36 24 81 24q84 0 84 -79v-136q0 -27 25 -27q14 0 18 4v-5q-6 -14 -23.5 -25t-40.5 -11q-26 0 -41.5 16.5t-15.5 45.5v130q0 59 -87 59z" />
    <glyph glyph-name="guillemotleft" unicode="&#xab;" horiz-adv-x="311" 
d="M29 229l130 135l10 -5l-68 -135l68 -136l-10 -5l-130 136v10zM154 229l129 135l10 -5l-68 -135l68 -136l-10 -5l-129 136v10z" />
    <glyph glyph-name="registered" unicode="&#xae;" horiz-adv-x="410" 
d="M175 553v-157q0 -32 30 -35v-7h-105v7q27 3 27 35v117q0 32 -27 35v5h75zM394 448q0 -73 -47.5 -126t-119.5 -63v15q63 9 105.5 58t42.5 116q0 66 -42.5 115t-105.5 58v15q72 -9 119.5 -62t47.5 -126zM329 359v-5q-17 -2 -44 0q-27 1 -51 32q-8 11 -36 59v5q31 8 31 49
q0 44 -40 49v5q19 0 30 -3q28 -4 44 -17t16 -32q0 -33 -38 -48v-2q21 -36 55 -70q18 -18 33 -22zM16 448q0 73 47.5 126t118.5 62v-15q-62 -9 -105 -58t-43 -115q0 -67 43 -116t105 -58v-15q-72 10 -119 63t-47 126z" />
    <glyph glyph-name="macron" unicode="&#xaf;" horiz-adv-x="409" 
d="M334 545h-260v42h260v-42z" />
    <glyph glyph-name="degree" unicode="&#xb0;" horiz-adv-x="314" 
d="M42 516q0 46 28.5 77.5t71.5 34.5v-17q-35 -4 -57.5 -29t-22.5 -66q0 -40 22.5 -65.5t57.5 -28.5v-17q-43 3 -71.5 34t-28.5 77zM273 516q0 -46 -29 -77t-72 -34v17q35 3 57.5 28.5t22.5 65.5q0 41 -22 66t-58 29v17q43 -3 72 -34.5t29 -77.5z" />
    <glyph glyph-name="twosuperior" unicode="&#xb2;" horiz-adv-x="319" 
d="M10 281l63 68h138q57 0 75 60h8l-14 -128h-270zM103 370l-10 1q1 1 12 12.5t14.5 15t13.5 15t14.5 18t11.5 17.5t10.5 20t6 20t2.5 22q0 29 -16.5 46.5t-47.5 16.5q-43 0 -74 -33l-4 3q14 37 49 63.5t76 26.5q107 0 107 -97q0 -78 -165 -167z" />
    <glyph glyph-name="threesuperior" unicode="&#xb3;" horiz-adv-x="279" 
d="M172 356q0 34 -19.5 49t-62.5 15q-24 0 -34 -3l-1 4l56 62q13 1 35 1q53 -1 80 -26.5t27 -60.5q0 -43 -38.5 -79t-114.5 -43v8q31 4 51.5 23.5t20.5 49.5zM130 499h-6q28 20 28 43q0 40 -54 40q-44 0 -61 -27l-5 3q12 33 41 54.5t67 21.5q42 0 65 -16.5t23 -45.5
q0 -24 -26.5 -44.5t-71.5 -28.5zM57 346q15 0 25 -10.5t10 -24.5t-10 -24.5t-25 -10.5q-14 0 -24 10.5t-10 24.5t10 24.5t24 10.5z" />
    <glyph glyph-name="acute" unicode="&#xb4;" horiz-adv-x="249" 
d="M216 629l-155 -144l-8 5l87 193z" />
    <glyph glyph-name="paragraph" unicode="&#xb6;" horiz-adv-x="548" 
d="M366 165h-99q-93 0 -169 65.5t-76 164.5q0 102 70.5 168.5t174.5 66.5h271v-18h-172v-447zM465 -171h-20v750h20v-750zM345 -16v147h21v-146q0 -98 -42.5 -146t-105.5 -48q-49 0 -79 30.5t-30 72.5q0 34 22 59t47 31l3 -12q-50 -16 -50 -77q0 -35 24 -60t64 -25
q55 0 90.5 42t35.5 132zM176 -84q0 18 13 30.5t31 12.5q17 0 30 -12.5t13 -30.5t-13 -31t-30 -13q-18 0 -31 13t-13 31z" />
    <glyph glyph-name="periodcentered" unicode="&#xb7;" horiz-adv-x="248" 
d="M55 228q0 29 20.5 49t49.5 20t49 -20t20 -49t-20 -49t-49 -20t-49.5 20t-20.5 49z" />
    <glyph glyph-name="cedilla" unicode="&#xb8;" horiz-adv-x="394" 
d="M201 -218l3 -6q-28 -18 -63 -18q-20 0 -31.5 10.5t-11.5 24.5q0 29 36 45q8 -23 27 -40t40 -16zM217 -216l-3 6q7 6 7 14q0 4 -1 8t-2 6.5t-4 7.5t-4.5 7t-7 9.5t-8.5 10.5q-22 29 -22 45q0 34 68 81l4 -4q-11 -15 -11 -30q0 -19 24 -47q25 -34 25 -50q0 -11 -13 -27
q-22 -24 -52 -37z" />
    <glyph glyph-name="onesuperior" unicode="&#xb9;" horiz-adv-x="274" 
d="M181 553v-199q0 -34 13 -49t41 -18v-8h-194v8q29 3 42.5 18t13.5 49v200q0 35 -10 49q-11 12 -48 16v7q85 0 144 4q-2 -42 -2 -77z" />
    <glyph glyph-name="ordmasculine" unicode="&#xba;" horiz-adv-x="342" 
d="M102 499q0 -98 41 -122q9 -8 21 -10v-7q-56 2 -100.5 41t-44.5 97q0 59 41 96.5t95 44.5v-8q-18 -4 -30 -21q-23 -31 -23 -111zM240 501q0 94 -42 122q-10 7 -20 9v7q56 -2 100.5 -41t44.5 -96q0 -59 -41 -97.5t-95 -44.5v8q22 5 33 29q20 33 20 104z" />
    <glyph glyph-name="guillemotright" unicode="&#xbb;" horiz-adv-x="311" 
d="M153 364l129 -135v-10l-129 -136l-10 5l67 136l-67 135zM28 364l129 -135v-10l-129 -136l-10 5l68 136l-68 135z" />
    <glyph glyph-name="onequarter" unicode="&#xbc;" horiz-adv-x="521" 
d="M22 222h477v-24h-477v24zM304 553v-199q0 -34 13 -49t41 -18v-8h-194v8q29 3 42 18t13 49v200q0 36 -10 49q-9 12 -47 16v7q85 0 144 4q-2 -42 -2 -77zM338 -108v62h74l-7 -62h-67zM204 -46v-62h-117v6l45 56h72zM230 -129v201l55 80l29 -1v-280q0 -34 13 -48.5t41 -18.5
v-7h-194v7q30 4 43 19t13 48z" />
    <glyph glyph-name="onehalf" unicode="&#xbd;" horiz-adv-x="521" 
d="M22 222h477v-23h-477v23zM304 553v-199q0 -34 13 -49t41 -18v-8h-194v8q29 3 42 18t13 49v200q0 36 -10 49q-9 12 -47 16v7q85 0 144 4q-2 -42 -2 -77zM117 -203l63 69h138q28 0 47.5 16t27.5 43h8l-14 -128h-270zM200 -113q85 88 85 147q0 58 -64 56q-43 0 -74 -33l-4 3
q14 37 49.5 63.5t76.5 26.5q104 0 104 -90q0 -44 -48 -91t-115 -83z" />
    <glyph glyph-name="threequarters" unicode="&#xbe;" horiz-adv-x="521" 
d="M22 222h477v-23h-477v23zM338 -108v62h74l-7 -62h-67zM204 -46v-62h-117v6l45 56h72zM230 -129v201l55 80l29 -1v-280q0 -34 13 -48.5t41 -18.5v-7h-194v7q30 4 43 19t13 48zM296 356q0 34 -19.5 49t-62.5 15q-24 0 -34 -3l-2 4l57 62q12 1 35 1q53 -1 79.5 -26.5
t26.5 -60.5q0 -43 -38 -79t-115 -43v8q32 4 52.5 23.5t20.5 49.5zM254 499h-6q27 21 27 43q0 40 -54 40q-43 0 -61 -27l-4 3q12 33 41 54.5t67 21.5q42 0 65 -16.5t23 -45.5q0 -24 -27 -44.5t-71 -28.5zM181 346q15 0 25 -10.5t10 -24.5t-10 -24.5t-25 -10.5q-14 0 -24 10.5
t-10 24.5t10 24.5t24 10.5z" />
    <glyph glyph-name="questiondown" unicode="&#xbf;" horiz-adv-x="327" 
d="M56 -9l-6 -4q-33 48 -33 102q0 76 55 116t150 43v74h18v-194q-194 -8 -194 -86q0 -21 10 -51zM77 -51l4 5q42 -14 122 -14q24 0 40 11t17 30q10 -6 19.5 -23t9.5 -33q0 -36 -21.5 -54t-54.5 -18q-37 0 -72 26q-27 20 -64 70zM291 436q0 -27 -18.5 -45t-46.5 -18t-46 18
t-18 45q0 26 18 44.5t46 18.5t46.5 -18.5t18.5 -44.5z" />
    <glyph glyph-name="Agrave" unicode="&#xc0;" horiz-adv-x="610" 
d="M356 144l-35 93h-181l11 30h158l-79 213l62 157h30l199 -513q43 -105 115 -116v-8h-327v8q35 2 52 14.5t17 40.5q0 25 -22 81zM195 0h-233v8q51 8 87 46q34 35 62 104l8 -4q-8 -36 -8 -66q0 -74 84 -80v-8zM390 679l-212 57l37 81l179 -131z" />
    <glyph glyph-name="Aacute" unicode="&#xc1;" horiz-adv-x="610" 
d="M356 144l-35 93h-181l11 30h158l-79 213l62 157h30l199 -513q43 -105 115 -116v-8h-327v8q35 2 52 14.5t17 40.5q0 25 -22 81zM195 0h-233v8q51 8 87 46q34 35 62 104l8 -4q-8 -36 -8 -66q0 -74 84 -80v-8zM410 736l-212 -57l-4 7l179 131z" />
    <glyph glyph-name="Acircumflex" unicode="&#xc2;" horiz-adv-x="610" 
d="M356 144l-35 93h-181l11 30h158l-79 213l62 157h30l199 -513q43 -105 115 -116v-8h-327v8q35 2 52 14.5t17 40.5q0 25 -22 81zM195 0h-233v8q51 8 87 46q34 35 62 104l8 -4q-8 -36 -8 -66q0 -74 84 -80v-8zM172 683l130 133h4l131 -133l-5 -5l-126 56h-4l-126 -56z" />
    <glyph glyph-name="Atilde" unicode="&#xc3;" horiz-adv-x="610" 
d="M356 144l-35 93h-181l11 30h158l-79 213l62 157h30l199 -513q43 -105 115 -116v-8h-327v8q35 2 52 14.5t17 40.5q0 25 -22 81zM195 0h-233v8q51 8 87 46q34 35 62 104l8 -4q-8 -36 -8 -66q0 -74 84 -80v-8zM469 817l9 -3q-16 -51 -44 -82t-65 -31q-21 0 -79 2.5t-74 2.5
q-48 0 -71 -27l-7 4q53 102 117 102q17 0 74.5 -2.5t76.5 -2.5q50 0 63 37z" />
    <glyph glyph-name="Adieresis" unicode="&#xc4;" horiz-adv-x="610" 
d="M356 144l-35 93h-181l11 30h158l-79 213l62 157h30l199 -513q43 -105 115 -116v-8h-327v8q35 2 52 14.5t17 40.5q0 25 -22 81zM195 0h-233v8q51 8 87 46q34 35 62 104l8 -4q-8 -36 -8 -66q0 -74 84 -80v-8zM197 814q26 0 43.5 -18t17.5 -44t-18 -44.5t-43 -18.5
q-26 0 -44.5 18.5t-18.5 44.5t18.5 44t44.5 18zM418 814q26 0 44 -18t18 -44t-18.5 -44.5t-43.5 -18.5t-43 18.5t-18 44.5t17.5 44t43.5 18z" />
    <glyph glyph-name="Aring" unicode="&#xc5;" horiz-adv-x="610" 
d="M356 144l-35 93h-181l11 30h158l-79 213l62 157h30l199 -513q43 -105 115 -116v-8h-327v8q35 2 52 14.5t17 40.5q0 25 -22 81zM195 0h-233v8q51 8 87 46q34 35 62 104l8 -4q-8 -36 -8 -66q0 -74 84 -80v-8zM220 752q0 34 21.5 53t50.5 22v-20q-17 0 -33 -13.5t-16 -41.5
t16 -41.5t33 -13.5v-20q-29 3 -50.5 22t-21.5 53zM385 752q0 -33 -21.5 -53t-50.5 -22v20q16 0 32.5 13.5t16.5 41.5t-16.5 41.5t-32.5 13.5v20q29 -3 50.5 -22t21.5 -53z" />
    <glyph glyph-name="AE" unicode="&#xc6;" horiz-adv-x="875" 
d="M298 0v8q48 7 66 31t18 85v178h-189l17 30h172v174q0 59 -24 84t-75 32v8h242v-630h-227zM716 183q-16 67 -44.5 95t-90.5 36v8q61 7 90 34.5t45 95.5h8v-269h-8zM198 0h-231v8q47 9 89 51q41 42 70 106l8 -4q-14 -63 -14 -75q0 -34 24.5 -54t53.5 -24v-8zM581 0v8
q71 8 136 51q43 29 68 68.5t44 102.5h8l-9 -230h-247zM819 428h-8q-28 100 -106 150q-51 33 -127 44v8h235z" />
    <glyph glyph-name="Ccedilla" unicode="&#xc7;" horiz-adv-x="672" 
d="M613 428h-9q-13 64 -52.5 114.5t-100.5 73.5q-28 10 -52 13v9q132 -3 212 -33zM607 217h9l-2 -192q-69 -23 -206 -32v9q19 2 46 12q59 25 99 80t54 123zM368 0v-8q-154 6 -246.5 99.5t-92.5 230.5q0 70 30.5 130t79 98t105.5 60.5t114 26.5v-8q-32 -5 -58 -21
q-114 -72 -114 -282q0 -242 121 -305q33 -18 61 -21zM340 -223l3 -5q-25 -18 -65 -18q-21 0 -32.5 10.5t-11.5 25.5q0 28 38 47q22 -61 68 -60zM357 -221l-3 7q6 6 6 13q0 5 -1 8.5t-4 9t-4.5 8t-8.5 11t-10 12.5q-22 29 -22 47q0 35 72 82l4 -4q-10 -13 -10 -30
q0 -18 24 -48q25 -34 25 -50q0 -13 -13 -27q-21 -25 -55 -39z" />
    <glyph glyph-name="Egrave" unicode="&#xc8;" horiz-adv-x="617" 
d="M418 679l-212 57l37 81l179 -131zM313 322q67 7 96.5 34.5t45.5 95.5h8v-269h-8q-16 68 -45.5 96t-96.5 35v8zM30 0v8q48 7 66 31t18 85v382q0 61 -18 85t-66 31v8h228v-630h-228zM554 428q-19 63 -41.5 93.5t-65.5 57.5q-48 30 -137 43v8h246l6 -202h-8zM313 0v8
q84 9 145 49q43 28 68 69t45 104h8l-9 -230h-257z" />
    <glyph glyph-name="Eacute" unicode="&#xc9;" horiz-adv-x="617" 
d="M458 736l-212 -57l-4 7l179 131zM313 322q67 7 96.5 34.5t45.5 95.5h8v-269h-8q-16 68 -45.5 96t-96.5 35v8zM30 0v8q48 7 66 31t18 85v382q0 61 -18 85t-66 31v8h228v-630h-228zM554 428q-19 63 -41.5 93.5t-65.5 57.5q-48 30 -137 43v8h246l6 -202h-8zM313 0v8
q84 9 145 49q43 28 68 69t45 104h8l-9 -230h-257z" />
    <glyph glyph-name="Ecircumflex" unicode="&#xca;" horiz-adv-x="617" 
d="M197 683l130 133h4l131 -133l-5 -5l-126 56h-4l-126 -56zM313 322q67 7 96.5 34.5t45.5 95.5h8v-269h-8q-16 68 -45.5 96t-96.5 35v8zM30 0v8q48 7 66 31t18 85v382q0 61 -18 85t-66 31v8h228v-630h-228zM554 428q-19 63 -41.5 93.5t-65.5 57.5q-48 30 -137 43v8h246
l6 -202h-8zM313 0v8q84 9 145 49q43 28 68 69t45 104h8l-9 -230h-257z" />
    <glyph glyph-name="Edieresis" unicode="&#xcb;" horiz-adv-x="617" 
d="M313 322q67 7 96.5 34.5t45.5 95.5h8v-269h-8q-16 68 -45.5 96t-96.5 35v8zM30 0v8q48 7 66 31t18 85v382q0 61 -18 85t-66 31v8h228v-630h-228zM209 814q26 0 43.5 -18t17.5 -44t-18 -44.5t-43 -18.5q-26 0 -44.5 18.5t-18.5 44.5t18.5 44t44.5 18zM430 814q26 0 44 -18
t18 -44t-18.5 -44.5t-43.5 -18.5t-43 18.5t-18 44.5t17.5 44t43.5 18zM554 428q-19 63 -41.5 93.5t-65.5 57.5q-48 30 -137 43v8h246l6 -202h-8zM313 0v8q84 9 145 49q43 28 68 69t45 104h8l-9 -230h-257z" />
    <glyph glyph-name="Igrave" unicode="&#xcc;" horiz-adv-x="371" 
d="M114 124v382q0 61 -18 85t-66 31v8h311v-8q-46 -7 -64.5 -30.5t-18.5 -85.5v-382q0 -62 18.5 -85.5t64.5 -30.5v-8h-311v8q48 7 66 31t18 85zM288 679l-212 57l37 81l179 -131z" />
    <glyph glyph-name="Iacute" unicode="&#xcd;" horiz-adv-x="371" 
d="M114 124v382q0 61 -18 85t-66 31v8h311v-8q-46 -7 -64.5 -30.5t-18.5 -85.5v-382q0 -62 18.5 -85.5t64.5 -30.5v-8h-311v8q48 7 66 31t18 85zM293 736l-212 -57l-4 7l179 131z" />
    <glyph glyph-name="Icircumflex" unicode="&#xce;" horiz-adv-x="371" 
d="M114 124v382q0 61 -18 85t-66 31v8h311v-8q-46 -7 -64.5 -30.5t-18.5 -85.5v-382q0 -62 18.5 -85.5t64.5 -30.5v-8h-311v8q48 7 66 31t18 85zM53 683l130 133h4l131 -133l-5 -5l-126 56h-4l-126 -56z" />
    <glyph glyph-name="Idieresis" unicode="&#xcf;" horiz-adv-x="371" 
d="M114 124v382q0 61 -18 85t-66 31v8h311v-8q-46 -7 -64.5 -30.5t-18.5 -85.5v-382q0 -62 18.5 -85.5t64.5 -30.5v-8h-311v8q48 7 66 31t18 85zM76 814q26 0 43.5 -18t17.5 -44t-18 -44.5t-43 -18.5q-26 0 -44.5 18.5t-18.5 44.5t18.5 44t44.5 18zM297 814q26 0 44 -18
t18 -44t-18.5 -44.5t-43.5 -18.5t-43 18.5t-18 44.5t17.5 44t43.5 18z" />
    <glyph glyph-name="Eth" unicode="&#xd0;" horiz-adv-x="738" 
d="M30 331h84v175q0 61 -18 85t-66 31v8h228v-299h121v-24h-121v-307h-228v8q48 7 66 31t18 85v183h-84v24zM702 317q0 -107 -65 -185t-173 -110q-71 -22 -152 -22v8q55 2 112 32q122 67 122 273q0 108 -42 181t-114 106q-36 17 -78 22v8q175 -7 282.5 -86.5t107.5 -226.5z
" />
    <glyph glyph-name="Ntilde" unicode="&#xd1;" horiz-adv-x="719" 
d="M532 830l9 -3q-16 -51 -44 -82t-65 -31q-22 0 -80 2.5t-73 2.5q-48 0 -71 -27l-7 4q53 102 117 102q17 0 74.5 -2.5t76.5 -2.5q50 0 63 37zM279 0h-278v8q59 6 93 50q15 20 25.5 61t10.5 70h10q0 -28 10.5 -68.5t25.5 -60.5q35 -46 103 -52v-8zM542 -2l-413 530
q-36 45 -59 62q-34 26 -80 32v8h249l355 -453v-179h-52zM445 630h278v-8q-61 -6 -93 -50q-15 -20 -25.5 -59t-10.5 -68h-10q0 28 -10.5 66.5t-25.5 58.5q-36 46 -103 52v8z" />
    <glyph glyph-name="Ograve" unicode="&#xd2;" horiz-adv-x="762" 
d="M483 679l-212 57l37 81l179 -131zM377 0v-8q-159 4 -250 96t-91 230q0 71 27.5 130.5t72.5 98t99 62t111 28.5v-8q-37 -8 -57 -22q-96 -60 -96 -277q0 -250 122 -312q32 -15 62 -18zM385 630v8q159 -4 250 -96t91 -230q0 -71 -27.5 -130.5t-72.5 -98t-99 -62t-111 -28.5
v8q37 8 56 22q97 61 97 277q0 250 -122 312q-32 15 -62 18z" />
    <glyph glyph-name="Oacute" unicode="&#xd3;" horiz-adv-x="762" 
d="M484 736l-212 -57l-4 7l179 131zM377 0v-8q-159 4 -250 96t-91 230q0 71 27.5 130.5t72.5 98t99 62t111 28.5v-8q-37 -8 -57 -22q-96 -60 -96 -277q0 -250 122 -312q32 -15 62 -18zM385 630v8q159 -4 250 -96t91 -230q0 -71 -27.5 -130.5t-72.5 -98t-99 -62t-111 -28.5v8
q37 8 56 22q97 61 97 277q0 250 -122 312q-32 15 -62 18z" />
    <glyph glyph-name="Ocircumflex" unicode="&#xd4;" horiz-adv-x="762" 
d="M245 683l130 133h4l131 -133l-5 -5l-126 56h-4l-126 -56zM377 0v-8q-159 4 -250 96t-91 230q0 71 27.5 130.5t72.5 98t99 62t111 28.5v-8q-37 -8 -57 -22q-96 -60 -96 -277q0 -250 122 -312q32 -15 62 -18zM385 630v8q159 -4 250 -96t91 -230q0 -71 -27.5 -130.5
t-72.5 -98t-99 -62t-111 -28.5v8q37 8 56 22q97 61 97 277q0 250 -122 312q-32 15 -62 18z" />
    <glyph glyph-name="Otilde" unicode="&#xd5;" horiz-adv-x="762" 
d="M541 830l9 -3q-16 -51 -44 -82t-65 -31q-21 0 -79 2.5t-74 2.5q-48 0 -71 -27l-7 4q53 102 117 102q17 0 74.5 -2.5t76.5 -2.5q50 0 63 37zM377 0v-8q-159 4 -250 96t-91 230q0 71 27.5 130.5t72.5 98t99 62t111 28.5v-8q-37 -8 -57 -22q-96 -60 -96 -277
q0 -250 122 -312q32 -15 62 -18zM385 630v8q159 -4 250 -96t91 -230q0 -71 -27.5 -130.5t-72.5 -98t-99 -62t-111 -28.5v8q37 8 56 22q97 61 97 277q0 250 -122 312q-32 15 -62 18z" />
    <glyph glyph-name="Odieresis" unicode="&#xd6;" horiz-adv-x="762" 
d="M270 814q26 0 43.5 -18t17.5 -44t-18 -44.5t-43 -18.5q-26 0 -44.5 18.5t-18.5 44.5t18.5 44t44.5 18zM491 814q26 0 44 -18t18 -44t-18.5 -44.5t-43.5 -18.5t-43 18.5t-18 44.5t17.5 44t43.5 18zM377 0v-8q-159 4 -250 96t-91 230q0 71 27.5 130.5t72.5 98t99 62
t111 28.5v-8q-37 -8 -57 -22q-96 -60 -96 -277q0 -250 122 -312q32 -15 62 -18zM385 630v8q159 -4 250 -96t91 -230q0 -71 -27.5 -130.5t-72.5 -98t-99 -62t-111 -28.5v8q37 8 56 22q97 61 97 277q0 250 -122 312q-32 15 -62 18z" />
    <glyph glyph-name="multiply" unicode="&#xd7;" horiz-adv-x="415" 
d="M60 95l123 122l-123 122l24 25l122 -122l123 122l25 -24l-123 -123l123 -123l-25 -24l-123 122l-122 -122z" />
    <glyph glyph-name="Oslash" unicode="&#xd8;" horiz-adv-x="762" 
d="M385 630v8q88 -3 156 -34l48 83l22 -13l-48 -80q79 -41 121 -115.5t42 -166.5q0 -71 -27.5 -130.5t-72.5 -98t-99 -62t-111 -28.5v8q37 8 56 22q97 61 97 277q0 143 -42 227l-272 -458q24 -33 60 -51q32 -15 62 -18v-8q-87 3 -147 29l-52 -87l-21 13l50 84
q-82 42 -126.5 117.5t-44.5 169.5q0 71 27.5 130.5t72.5 98t99 62t111 28.5v-8q-37 -8 -57 -22q-96 -60 -96 -277q0 -155 47 -238l273 460q-27 39 -66 60q-32 15 -62 18z" />
    <glyph glyph-name="Ugrave" unicode="&#xd9;" horiz-adv-x="703" 
d="M465 679l-212 57l37 81l179 -131zM431 630h280v-8q-62 -6 -93 -47q-15 -19 -26 -68.5t-11 -79.5h-11q0 30 -11.5 78.5t-26.5 67.5q-33 43 -101 49v8zM97 233v273q0 61 -18 85t-65 31v8h311v-8q-47 -7 -65.5 -30.5t-18.5 -85.5v-294q0 -63 15.5 -100.5t54.5 -60.5
q58 -35 148 -30v-7q-9 -6 -40.5 -14t-63.5 -8q-102 0 -161 32q-97 55 -97 209z" />
    <glyph glyph-name="Uacute" unicode="&#xda;" horiz-adv-x="703" 
d="M482 736l-212 -57l-4 7l179 131zM431 630h280v-8q-62 -6 -93 -47q-15 -19 -26 -68.5t-11 -79.5h-11q0 30 -11.5 78.5t-26.5 67.5q-33 43 -101 49v8zM97 233v273q0 61 -18 85t-65 31v8h311v-8q-47 -7 -65.5 -30.5t-18.5 -85.5v-294q0 -63 15.5 -100.5t54.5 -60.5
q58 -35 148 -30v-7q-9 -6 -40.5 -14t-63.5 -8q-102 0 -161 32q-97 55 -97 209z" />
    <glyph glyph-name="Ucircumflex" unicode="&#xdb;" horiz-adv-x="703" 
d="M232 683l130 133h4l131 -133l-5 -5l-126 56h-4l-126 -56zM431 630h280v-8q-62 -6 -93 -47q-15 -19 -26 -68.5t-11 -79.5h-11q0 30 -11.5 78.5t-26.5 67.5q-33 43 -101 49v8zM97 233v273q0 61 -18 85t-65 31v8h311v-8q-47 -7 -65.5 -30.5t-18.5 -85.5v-294
q0 -63 15.5 -100.5t54.5 -60.5q58 -35 148 -30v-7q-9 -6 -40.5 -14t-63.5 -8q-102 0 -161 32q-97 55 -97 209z" />
    <glyph glyph-name="Udieresis" unicode="&#xdc;" horiz-adv-x="703" 
d="M431 630h280v-8q-62 -6 -93 -47q-15 -19 -26 -68.5t-11 -79.5h-11q0 30 -11.5 78.5t-26.5 67.5q-33 43 -101 49v8zM267 814q26 0 43.5 -18t17.5 -44t-18 -44.5t-43 -18.5q-26 0 -44.5 18.5t-18.5 44.5t18.5 44t44.5 18zM488 814q26 0 44 -18t18 -44t-18.5 -44.5
t-43.5 -18.5t-43 18.5t-18 44.5t17.5 44t43.5 18zM97 233v273q0 61 -18 85t-65 31v8h311v-8q-47 -7 -65.5 -30.5t-18.5 -85.5v-294q0 -63 15.5 -100.5t54.5 -60.5q58 -35 148 -30v-7q-9 -6 -40.5 -14t-63.5 -8q-102 0 -161 32q-97 55 -97 209z" />
    <glyph glyph-name="Yacute" unicode="&#xdd;" horiz-adv-x="611" 
d="M636 622q-49 -7 -99.5 -48t-91.5 -105l-7 6q32 52 32 85q0 31 -17.5 45.5t-53.5 16.5v8h237v-8zM230 124v169l-140 250q-38 68 -108 79v8h330v-8q-32 -1 -52 -15.5t-20 -33.5q0 -17 27 -66l106 -192v-191q0 -62 18.5 -85.5t65.5 -30.5v-8h-311v8q48 7 66 31t18 85z
M462 736l-212 -57l-4 7l179 131z" />
    <glyph glyph-name="Thorn" unicode="&#xde;" horiz-adv-x="583" 
d="M114 124v382q0 61 -18 85t-66 31v8h311v-8q-46 -7 -64.5 -30.5t-18.5 -85.5v-382q0 -62 18.5 -85.5t64.5 -30.5v-8h-311v8q48 7 66 31t18 85zM570 337q0 -72 -71.5 -123.5t-197.5 -57.5v9q16 1 38 8q44 15 63 51.5t19 110.5q0 68 -18.5 102.5t-67.5 49.5q-12 4 -34 7v8
q26 0 62 -4q207 -21 207 -161z" />
    <glyph glyph-name="germandbls" unicode="&#xdf;" horiz-adv-x="548" 
d="M380 480v-10q-19 -24 -19 -54q0 -46 77 -118q60 -55 80 -87.5t20 -71.5q0 -48 -39.5 -83.5t-91.5 -49.5l-2 7q36 14 36 61q0 31 -18 56.5t-70 73.5q-28 27 -42 41.5t-25.5 37t-11.5 45.5q0 70 106 152zM481 546l-86 -63q11 86 -22.5 138.5t-100.5 52.5v5q28 11 65 11
q144 0 146 -120q0 -15 -2 -24zM296 43q0 20 14.5 34t35.5 14t35.5 -14t14.5 -34t-14.5 -34.5t-35.5 -14.5q-22 0 -36 14t-14 35zM266 7v-7h-247v7q35 5 46 21t11 62v299h-62v8l63 48v18q0 71 59.5 132t113.5 77v-6q-22 -12 -35 -47t-13 -80v-449q0 -44 15 -62t49 -21z" />
    <glyph glyph-name="agrave" unicode="&#xe0;" horiz-adv-x="452" 
d="M119 400v3q24 17 61 30.5t67 13.5q135 0 135 -128v-225q0 -44 38 -44q17 0 29 7v-5q-10 -24 -36 -42t-65 -18q-44 0 -67.5 26t-23.5 76v219q0 87 -138 87zM203 52q23 0 37 9v-4q-8 -22 -38 -43.5t-69 -21.5q-51 0 -79.5 30t-28.5 75q0 34 14 58.5t27 29.5q46 19 165 47
v-7q-52 -19 -67 -38q-16 -24 -16 -59q0 -76 55 -76zM54 327q0 22 15.5 37.5t37.5 15.5t37.5 -15.5t15.5 -37.5t-15.5 -38t-37.5 -16t-37.5 15.5t-15.5 38.5zM290 485l-155 144l76 54l87 -193z" />
    <glyph glyph-name="aacute" unicode="&#xe1;" horiz-adv-x="452" 
d="M119 400v3q24 17 61 30.5t67 13.5q135 0 135 -128v-225q0 -44 38 -44q17 0 29 7v-5q-10 -24 -36 -42t-65 -18q-44 0 -67.5 26t-23.5 76v219q0 87 -138 87zM203 52q23 0 37 9v-4q-8 -22 -38 -43.5t-69 -21.5q-51 0 -79.5 30t-28.5 75q0 34 14 58.5t27 29.5q46 19 165 47
v-7q-52 -19 -67 -38q-16 -24 -16 -59q0 -76 55 -76zM54 327q0 22 15.5 37.5t37.5 15.5t37.5 -15.5t15.5 -37.5t-15.5 -38t-37.5 -16t-37.5 15.5t-15.5 38.5zM360 629l-155 -144l-8 5l87 193z" />
    <glyph glyph-name="acircumflex" unicode="&#xe2;" horiz-adv-x="452" 
d="M119 400v3q24 17 61 30.5t67 13.5q135 0 135 -128v-225q0 -44 38 -44q17 0 29 7v-5q-10 -24 -36 -42t-65 -18q-44 0 -67.5 26t-23.5 76v219q0 87 -138 87zM203 52q23 0 37 9v-4q-8 -22 -38 -43.5t-69 -21.5q-51 0 -79.5 30t-28.5 75q0 34 14 58.5t27 29.5q46 19 165 47
v-7q-52 -19 -67 -38q-16 -24 -16 -59q0 -76 55 -76zM54 327q0 22 15.5 37.5t37.5 15.5t37.5 -15.5t15.5 -37.5t-15.5 -38t-37.5 -16t-37.5 15.5t-15.5 38.5zM129 491l-6 5l120 180h4l121 -180l-8 -4l-112 87h-6z" />
    <glyph glyph-name="atilde" unicode="&#xe3;" horiz-adv-x="452" 
d="M119 400v3q24 17 61 30.5t67 13.5q135 0 135 -128v-225q0 -44 38 -44q17 0 29 7v-5q-10 -24 -36 -42t-65 -18q-44 0 -67.5 26t-23.5 76v219q0 87 -138 87zM203 52q23 0 37 9v-4q-8 -22 -38 -43.5t-69 -21.5q-51 0 -79.5 30t-28.5 75q0 34 14 58.5t27 29.5q46 19 165 47
v-7q-52 -19 -67 -38q-16 -24 -16 -59q0 -76 55 -76zM54 327q0 22 15.5 37.5t37.5 15.5t37.5 -15.5t15.5 -37.5t-15.5 -38t-37.5 -16t-37.5 15.5t-15.5 38.5zM394 654l9 -3q-15 -54 -47 -90.5t-67 -36.5q-21 0 -65 2.5t-59 2.5q-23 0 -38 -6t-31 -28l-6 5q58 109 113 109
q18 0 61 -2.5t62 -2.5q24 0 40 11t28 39z" />
    <glyph glyph-name="adieresis" unicode="&#xe4;" horiz-adv-x="452" 
d="M119 400v3q24 17 61 30.5t67 13.5q135 0 135 -128v-225q0 -44 38 -44q17 0 29 7v-5q-10 -24 -36 -42t-65 -18q-44 0 -67.5 26t-23.5 76v219q0 87 -138 87zM203 52q23 0 37 9v-4q-8 -22 -38 -43.5t-69 -21.5q-51 0 -79.5 30t-28.5 75q0 34 14 58.5t27 29.5q46 19 165 47
v-7q-52 -19 -67 -38q-16 -24 -16 -59q0 -76 55 -76zM54 327q0 22 15.5 37.5t37.5 15.5t37.5 -15.5t15.5 -37.5t-15.5 -38t-37.5 -16t-37.5 15.5t-15.5 38.5zM149 639q23 0 39.5 -17t16.5 -40t-16.5 -40t-39.5 -17t-39.5 17t-16.5 40t16.5 40t39.5 17zM336 639q23 0 39.5 -17
t16.5 -40t-16.5 -40t-39.5 -17t-39.5 17t-16.5 40t16.5 40t39.5 17z" />
    <glyph glyph-name="aring" unicode="&#xe5;" horiz-adv-x="452" 
d="M119 400v3q24 17 61 30.5t67 13.5q135 0 135 -128v-225q0 -44 38 -44q17 0 29 7v-5q-10 -24 -36 -42t-65 -18q-44 0 -67.5 26t-23.5 76v219q0 87 -138 87zM203 52q23 0 37 9v-4q-8 -22 -38 -43.5t-69 -21.5q-51 0 -79.5 30t-28.5 75q0 34 14 58.5t27 29.5q46 19 165 47
v-7q-52 -19 -67 -38q-16 -24 -16 -59q0 -76 55 -76zM54 327q0 22 15.5 37.5t37.5 15.5t37.5 -15.5t15.5 -37.5t-15.5 -38t-37.5 -16t-37.5 15.5t-15.5 38.5zM152 579q0 35 21.5 57.5t53.5 25.5v-19q-23 -2 -38 -18t-15 -46t15 -46.5t38 -18.5v-18q-33 2 -54 24.5t-21 58.5z
M325 579q0 -35 -22 -58t-54 -25v18q23 2 38.5 18.5t15.5 46.5t-15.5 46t-38.5 18v19q33 -3 54.5 -25t21.5 -58z" />
    <glyph glyph-name="ae" unicode="&#xe6;" horiz-adv-x="644" 
d="M254 173v144q0 42 -36 64.5t-102 22.5v3q20 18 55 29t67 11q86 0 111 -60q12 12 26 19q4 3 8 4.5t9 2.5t8 2q-6 -6 -12.5 -28.5t-7.5 -50.5q-2 -12 -2 -110q5 -70 37 -105.5t85 -35.5q80 0 129 68l6 -4q-12 -28 -23.5 -47.5t-34.5 -48.5t-57.5 -45t-76.5 -16
q-49 0 -86.5 17t-58.5 44.5t-32 57.5t-12 62zM247 66v-4q-11 -24 -42 -47t-69 -23q-52 0 -81.5 29.5t-29.5 73.5q0 35 14 61.5t27 32.5q24 8 162 45v-7q-53 -21 -66 -39q-15 -20 -15 -60q0 -72 62 -72q24 0 38 10zM625 311l-218 -51v7l103 41q0 46 -24 78.5t-52 35.5
q-2 0 -7.5 -0.5t-7.5 -0.5v7q36 19 68 19q59 0 98 -41t40 -95zM83 366q14 8 29 4t23 -18t4 -29.5t-18 -23.5t-29 -4t-23 18t-4 29.5t18 23.5z" />
    <glyph glyph-name="ccedilla" unicode="&#xe7;" horiz-adv-x="429" 
d="M276 446v-8q-47 -7 -86 -53t-39 -125q0 -91 39 -132t97 -41q40 0 74.5 15.5t50.5 38.5l5 -4q-7 -25 -20.5 -48t-35.5 -46t-58 -37t-80 -14q-93 0 -145 60.5t-52 151.5q0 101 77 168.5t173 73.5zM288 378q0 24 17.5 41.5t42.5 17.5q24 0 41.5 -17.5t17.5 -41.5
q0 -25 -17.5 -42.5t-41.5 -17.5q-25 0 -42.5 17.5t-17.5 42.5zM188 -219l3 -6q-28 -18 -63 -18q-20 0 -31.5 10.5t-11.5 24.5q0 29 36 45q8 -23 27 -40t40 -16zM204 -217l-3 6q7 6 7 14q0 4 -1 8t-2 6.5t-4 7.5t-4.5 7t-7 9.5t-8.5 10.5q-22 29 -22 45q0 34 68 81l4 -4
q-11 -15 -11 -30q0 -19 24 -47q25 -34 25 -50q0 -11 -13 -27q-22 -24 -52 -37z" />
    <glyph glyph-name="egrave" unicode="&#xe8;" horiz-adv-x="442" 
d="M219 445v-8q-32 -9 -51 -53t-19 -118q0 -84 39.5 -132.5t108.5 -48.5q86 0 128 58l6 -4q-14 -51 -64.5 -99t-132.5 -48q-98 0 -154 64t-56 156q0 94 56.5 158.5t138.5 74.5zM415 290h-233v7l118 12q-6 121 -55 130v8q79 -3 124.5 -48.5t45.5 -108.5zM280 485l-155 144
l76 54l87 -193z" />
    <glyph glyph-name="eacute" unicode="&#xe9;" horiz-adv-x="442" 
d="M350 629l-155 -144l-8 5l87 193zM219 445v-8q-32 -9 -51 -53t-19 -118q0 -84 39.5 -132.5t108.5 -48.5q86 0 128 58l6 -4q-14 -51 -64.5 -99t-132.5 -48q-98 0 -154 64t-56 156q0 94 56.5 158.5t138.5 74.5zM415 290h-233v7l118 12q-6 121 -55 130v8q79 -3 124.5 -48.5
t45.5 -108.5z" />
    <glyph glyph-name="ecircumflex" unicode="&#xea;" horiz-adv-x="442" 
d="M116 491l-6 5l120 180h4l121 -180l-8 -4l-112 87h-6zM219 445v-8q-32 -9 -51 -53t-19 -118q0 -84 39.5 -132.5t108.5 -48.5q86 0 128 58l6 -4q-14 -51 -64.5 -99t-132.5 -48q-98 0 -154 64t-56 156q0 94 56.5 158.5t138.5 74.5zM415 290h-233v7l118 12q-6 121 -55 130v8
q79 -3 124.5 -48.5t45.5 -108.5z" />
    <glyph glyph-name="edieresis" unicode="&#xeb;" horiz-adv-x="442" 
d="M145 639q23 0 39.5 -17t16.5 -40t-16.5 -40t-39.5 -17t-39.5 17t-16.5 40t16.5 40t39.5 17zM332 639q23 0 39.5 -17t16.5 -40t-16.5 -40t-39.5 -17t-39.5 17t-16.5 40t16.5 40t39.5 17zM219 445v-8q-32 -9 -51 -53t-19 -118q0 -84 39.5 -132.5t108.5 -48.5q86 0 128 58
l6 -4q-14 -51 -64.5 -99t-132.5 -48q-98 0 -154 64t-56 156q0 94 56.5 158.5t138.5 74.5zM415 290h-233v7l118 12q-6 121 -55 130v8q79 -3 124.5 -48.5t45.5 -108.5z" />
    <glyph glyph-name="igrave" unicode="&#xec;" horiz-adv-x="276" 
d="M179 485l-155 144l76 54l87 -193zM75 90v221q0 40 -27 61q-12 10 -24 16v5l177 55l2 -2q-3 -123 -3 -139v-217q0 -43 13.5 -60.5t47.5 -22.5v-7h-244v7q35 5 46.5 21.5t11.5 61.5z" />
    <glyph glyph-name="iacute" unicode="&#xed;" horiz-adv-x="276" 
d="M231 629l-155 -144l-8 5l87 193zM75 90v221q0 40 -27 61q-12 10 -24 16v5l177 55l2 -2q-3 -123 -3 -139v-217q0 -43 13.5 -60.5t47.5 -22.5v-7h-244v7q35 5 46.5 21.5t11.5 61.5z" />
    <glyph glyph-name="icircumflex" unicode="&#xee;" horiz-adv-x="276" 
d="M16 491l-6 5l120 180h4l121 -180l-8 -4l-112 87h-6zM75 90v221q0 40 -27 61q-12 10 -24 16v5l177 55l2 -2q-3 -123 -3 -139v-217q0 -43 13.5 -60.5t47.5 -22.5v-7h-244v7q35 5 46.5 21.5t11.5 61.5z" />
    <glyph glyph-name="idieresis" unicode="&#xef;" horiz-adv-x="276" 
d="M43 639q23 0 39.5 -17t16.5 -40t-16.5 -40t-39.5 -17t-39.5 17t-16.5 40t16.5 40t39.5 17zM230 639q23 0 39.5 -17t16.5 -40t-16.5 -40t-39.5 -17t-39.5 17t-16.5 40t16.5 40t39.5 17zM75 90v221q0 40 -27 61q-12 10 -24 16v5l177 55l2 -2q-3 -123 -3 -139v-217
q0 -43 13.5 -60.5t47.5 -22.5v-7h-244v7q35 5 46.5 21.5t11.5 61.5z" />
    <glyph glyph-name="eth" unicode="&#xf0;" horiz-adv-x="528" 
d="M127 528l117 63q-78 78 -178 107l3 6q124 -17 225 -85l128 70l12 -22l-115 -64q185 -138 185 -336q0 -106 -63 -185.5t-167 -88.5v10q49 8 72.5 82.5t23.5 166.5q0 198 -109 320l-122 -66zM321 426l-2 -6q-18 6 -44 6q-121 0 -121 -216q0 -73 27.5 -136.5t67.5 -71.5v-10
q-106 5 -167.5 71.5t-61.5 154.5q0 101 67.5 165t159.5 64q53 0 74 -21z" />
    <glyph glyph-name="ntilde" unicode="&#xf1;" horiz-adv-x="558" 
d="M362 86v210q0 41 -17 60.5t-57 19.5q-31 0 -62 -12v3q24 33 64 56.5t82 23.5q115 0 115 -130v-227q0 -45 11.5 -61.5t46.5 -21.5v-7h-238v7q32 5 43.5 21.5t11.5 57.5zM421 654l9 -3q-15 -54 -47 -90.5t-67 -36.5q-22 0 -65 2.5t-59 2.5q-23 0 -38 -6t-31 -28l-6 5
q58 109 113 109q18 0 61 -2.5t62 -2.5q24 0 40 11t28 39zM200 446v-360q0 -41 11.5 -57.5t43.5 -21.5v-7h-238v7q35 5 46.5 21.5t11.5 61.5v225q0 46 -48 72v6l171 55z" />
    <glyph glyph-name="ograve" unicode="&#xf2;" horiz-adv-x="524" 
d="M154 213q0 -166 66 -201q18 -10 35 -12v-8q-101 3 -168 64.5t-67 159.5q0 97 65 159t154 71v-7q-30 -5 -50 -34q-35 -49 -35 -192zM369 226q0 168 -65 203q-14 8 -35 10v8q100 -3 167 -65t67 -160q0 -97 -64 -157.5t-155 -71.5v7q29 5 50 36q35 47 35 190zM313 485
l-155 144l76 54l87 -193z" />
    <glyph glyph-name="oacute" unicode="&#xf3;" horiz-adv-x="524" 
d="M370 629l-155 -144l-8 5l87 193zM154 213q0 -166 66 -201q18 -10 35 -12v-8q-101 3 -168 64.5t-67 159.5q0 97 65 159t154 71v-7q-30 -5 -50 -34q-35 -49 -35 -192zM369 226q0 168 -65 203q-14 8 -35 10v8q100 -3 167 -65t67 -160q0 -97 -64 -157.5t-155 -71.5v7
q29 5 50 36q35 47 35 190z" />
    <glyph glyph-name="ocircumflex" unicode="&#xf4;" horiz-adv-x="524" 
d="M141 491l-6 5l120 180h4l121 -180l-8 -4l-112 87h-6zM154 213q0 -166 66 -201q18 -10 35 -12v-8q-101 3 -168 64.5t-67 159.5q0 97 65 159t154 71v-7q-30 -5 -50 -34q-35 -49 -35 -192zM369 226q0 168 -65 203q-14 8 -35 10v8q100 -3 167 -65t67 -160q0 -97 -64 -157.5
t-155 -71.5v7q29 5 50 36q35 47 35 190z" />
    <glyph glyph-name="otilde" unicode="&#xf5;" horiz-adv-x="524" 
d="M154 213q0 -166 66 -201q18 -10 35 -12v-8q-101 3 -168 64.5t-67 159.5q0 97 65 159t154 71v-7q-30 -5 -50 -34q-35 -49 -35 -192zM369 226q0 168 -65 203q-14 8 -35 10v8q100 -3 167 -65t67 -160q0 -97 -64 -157.5t-155 -71.5v7q29 5 50 36q35 47 35 190zM411 654l9 -3
q-15 -54 -47 -90.5t-67 -36.5q-22 0 -65 2.5t-59 2.5q-23 0 -38 -6t-31 -28l-6 5q58 109 113 109q18 0 61 -2.5t62 -2.5q24 0 40 11t28 39z" />
    <glyph glyph-name="odieresis" unicode="&#xf6;" horiz-adv-x="524" 
d="M168 639q23 0 39.5 -17t16.5 -40t-16.5 -40t-39.5 -17t-39.5 17t-16.5 40t16.5 40t39.5 17zM355 639q23 0 39.5 -17t16.5 -40t-16.5 -40t-39.5 -17t-39.5 17t-16.5 40t16.5 40t39.5 17zM154 213q0 -166 66 -201q18 -10 35 -12v-8q-101 3 -168 64.5t-67 159.5q0 97 65 159
t154 71v-7q-30 -5 -50 -34q-35 -49 -35 -192zM369 226q0 168 -65 203q-14 8 -35 10v8q100 -3 167 -65t67 -160q0 -97 -64 -157.5t-155 -71.5v7q29 5 50 36q35 47 35 190z" />
    <glyph glyph-name="divide" unicode="&#xf7;" horiz-adv-x="430" 
d="M175 102q0 16 11.5 27.5t27.5 11.5t28 -11.5t12 -27.5t-11.5 -27.5t-28.5 -11.5q-16 0 -27.5 11.5t-11.5 27.5zM175 343q0 16 11.5 27.5t27.5 11.5t28 -11.5t12 -27.5t-11.5 -27.5t-28.5 -11.5q-16 0 -27.5 11t-11.5 28zM54 240h322v-34h-322v34z" />
    <glyph glyph-name="oslash" unicode="&#xf8;" horiz-adv-x="524" 
d="M154 213q0 -93 18 -141l164 326q-13 20 -32 31q-14 8 -35 10v8q43 -1 81 -15l35 72l22 -10l-34 -70q60 -27 95 -80t35 -122q0 -97 -64 -157.5t-155 -71.5v7q29 5 50 36q35 47 35 190q0 93 -19 145l-165 -326q13 -22 35 -33q18 -10 35 -12v-8q-44 1 -88 16l-35 -72l-21 11
l34 70q-58 28 -91.5 79.5t-33.5 119.5q0 97 65 159t154 71v-7q-30 -5 -50 -34q-35 -49 -35 -192z" />
    <glyph glyph-name="ugrave" unicode="&#xf9;" horiz-adv-x="537" 
d="M63 126v208q0 45 -10.5 60.5t-50.5 21.5v8l185 19l2 -1v-289q0 -49 15.5 -68.5t55.5 -19.5q35 0 60 16v-4q-46 -84 -134 -84q-123 0 -123 133zM302 485l-155 144l76 54l87 -193zM468 442v-340q0 -33 7 -46.5t24 -18.5l33 -9v-6l-186 -27l-3 1v338q0 45 -11.5 60.5
t-51.5 21.5v8l186 19z" />
    <glyph glyph-name="uacute" unicode="&#xfa;" horiz-adv-x="537" 
d="M63 126v208q0 45 -10.5 60.5t-50.5 21.5v8l185 19l2 -1v-289q0 -49 15.5 -68.5t55.5 -19.5q35 0 60 16v-4q-46 -84 -134 -84q-123 0 -123 133zM388 629l-155 -144l-8 5l87 193zM468 442v-340q0 -33 7 -46.5t24 -18.5l33 -9v-6l-186 -27l-3 1v338q0 45 -11.5 60.5
t-51.5 21.5v8l186 19z" />
    <glyph glyph-name="ucircumflex" unicode="&#xfb;" horiz-adv-x="537" 
d="M63 126v208q0 45 -10.5 60.5t-50.5 21.5v8l185 19l2 -1v-289q0 -49 15.5 -68.5t55.5 -19.5q35 0 60 16v-4q-46 -84 -134 -84q-123 0 -123 133zM146 491l-6 5l120 180h4l121 -180l-8 -4l-112 87h-6zM468 442v-340q0 -33 7 -46.5t24 -18.5l33 -9v-6l-186 -27l-3 1v338
q0 45 -11.5 60.5t-51.5 21.5v8l186 19z" />
    <glyph glyph-name="udieresis" unicode="&#xfc;" horiz-adv-x="537" 
d="M63 126v208q0 45 -10.5 60.5t-50.5 21.5v8l185 19l2 -1v-289q0 -49 15.5 -68.5t55.5 -19.5q35 0 60 16v-4q-46 -84 -134 -84q-123 0 -123 133zM167 639q23 0 39.5 -17t16.5 -40t-16.5 -40t-39.5 -17t-39.5 17t-16.5 40t16.5 40t39.5 17zM354 639q23 0 39.5 -17t16.5 -40
t-16.5 -40t-39.5 -17t-39.5 17t-16.5 40t16.5 40t39.5 17zM468 442v-340q0 -33 7 -46.5t24 -18.5l33 -9v-6l-186 -27l-3 1v338q0 45 -11.5 60.5t-51.5 21.5v8l186 19z" />
    <glyph glyph-name="yacute" unicode="&#xfd;" horiz-adv-x="435" 
d="M281 436h191v-8q-84 -12 -137 -131l-8 5q15 35 15 69q0 51 -61 57v8zM-23 436h253v-8q-49 -6 -49 -40q0 -15 16 -56l76 -191l-60 -148h-6l-149 355q-17 42 -34 59t-47 21v8zM174 -136q-40 -102 -114 -102q-25 0 -43.5 16t-18.5 43t17 43t40 16q51 0 65 -62q11 7 26 23
t21 26zM381 629l-155 -144l-8 5l87 193z" />
    <glyph glyph-name="thorn" unicode="&#xfe;" horiz-adv-x="550" 
d="M328 4v8q29 19 48 73.5t19 122.5q0 86 -32.5 133t-95.5 47q-37 0 -62 -12v2q19 26 62 47.5t83 21.5q93 0 134.5 -56.5t41.5 -143.5q0 -92 -49.5 -154.5t-148.5 -88.5zM294 -4q-15 -5 -45 -3q-34 0 -62 10v-135q0 -42 16 -60.5t53 -23.5v-8h-252v8q35 5 46.5 21t11.5 62
v713q0 26 -10.5 42.5t-39.5 31.5v5l173 56l2 -2v-573q0 -70 29 -103q25 -29 78 -33v-8z" />
    <glyph glyph-name="ydieresis" unicode="&#xff;" horiz-adv-x="435" 
d="M281 436h191v-8q-84 -12 -137 -131l-8 5q15 35 15 69q0 51 -61 57v8zM-23 436h253v-8q-49 -6 -49 -40q0 -15 16 -56l76 -191l-60 -148h-6l-149 355q-17 42 -34 59t-47 21v8zM174 -136q-40 -102 -114 -102q-25 0 -43.5 16t-18.5 43t17 43t40 16q51 0 65 -62q11 7 26 23
t21 26zM150 639q23 0 39.5 -17t16.5 -40t-16.5 -40t-39.5 -17t-39.5 17t-16.5 40t16.5 40t39.5 17zM337 639q23 0 39.5 -17t16.5 -40t-16.5 -40t-39.5 -17t-39.5 17t-16.5 40t16.5 40t39.5 17z" />
    <glyph glyph-name="Amacron" unicode="&#x100;" horiz-adv-x="610" 
d="M356 144l-35 93h-181l11 30h158l-79 213l62 157h30l199 -513q43 -105 115 -116v-8h-327v8q35 2 52 14.5t17 40.5q0 25 -22 81zM195 0h-233v8q51 8 87 46q34 35 62 104l8 -4q-8 -36 -8 -66q0 -74 84 -80v-8zM455 699h-288v42h288v-42z" />
    <glyph glyph-name="amacron" unicode="&#x101;" horiz-adv-x="452" 
d="M119 400v3q24 17 61 30.5t67 13.5q135 0 135 -128v-225q0 -44 38 -44q17 0 29 7v-5q-10 -24 -36 -42t-65 -18q-44 0 -67.5 26t-23.5 76v219q0 87 -138 87zM203 52q23 0 37 9v-4q-8 -22 -38 -43.5t-69 -21.5q-51 0 -79.5 30t-28.5 75q0 34 14 58.5t27 29.5q46 19 165 47
v-7q-52 -19 -67 -38q-16 -24 -16 -59q0 -76 55 -76zM54 327q0 22 15.5 37.5t37.5 15.5t37.5 -15.5t15.5 -37.5t-15.5 -38t-37.5 -16t-37.5 15.5t-15.5 38.5zM369 545h-260v42h260v-42z" />
    <glyph glyph-name="Abreve" unicode="&#x102;" horiz-adv-x="610" 
d="M356 144l-35 93h-181l11 30h158l-79 213l62 157h30l199 -513q43 -105 115 -116v-8h-327v8q35 2 52 14.5t17 40.5q0 25 -22 81zM195 0h-233v8q51 8 87 46q34 35 62 104l8 -4q-8 -36 -8 -66q0 -74 84 -80v-8zM305 752q100 0 113 70h11q0 -79 -40 -114q-32 -29 -84 -29
q-53 0 -84 28q-40 37 -39 115h11q12 -70 112 -70z" />
    <glyph glyph-name="abreve" unicode="&#x103;" horiz-adv-x="452" 
d="M119 400v3q24 17 61 30.5t67 13.5q135 0 135 -128v-225q0 -44 38 -44q17 0 29 7v-5q-10 -24 -36 -42t-65 -18q-44 0 -67.5 26t-23.5 76v219q0 87 -138 87zM203 52q23 0 37 9v-4q-8 -22 -38 -43.5t-69 -21.5q-51 0 -79.5 30t-28.5 75q0 34 14 58.5t27 29.5q46 19 165 47
v-7q-52 -19 -67 -38q-16 -24 -16 -59q0 -76 55 -76zM54 327q0 22 15.5 37.5t37.5 15.5t37.5 -15.5t15.5 -37.5t-15.5 -38t-37.5 -16t-37.5 15.5t-15.5 38.5zM246 567q45 0 71.5 22t32.5 53h11q-3 -88 -52 -124q-23 -19 -63 -19q-35 0 -60 17q-50 35 -55 126h11q7 -31 33 -53
t71 -22z" />
    <glyph glyph-name="Aogonek" unicode="&#x104;" horiz-adv-x="610" 
d="M410 0l-89 237h-181l11 30h158l-79 213l62 157h30l199 -513q43 -105 115 -116v-8h-226zM195 0h-233v8q51 8 87 46q34 35 62 104l8 -4q-8 -36 -8 -66q0 -74 84 -80v-8zM487 -144l8 -5q-46 -85 -118 -85q-43 0 -68 23.5t-25 60.5q0 21 10.5 41t31 37.5t37.5 29t41 25.5h12
q-46 -48 -46 -102q0 -23 16 -39t43 -16q35 0 58 30z" />
    <glyph glyph-name="aogonek" unicode="&#x105;" horiz-adv-x="452" 
d="M119 400v3q24 17 61 30.5t67 13.5q135 0 135 -128v-225q0 -44 38 -44q17 0 29 7v-5q-10 -24 -36 -42t-65 -18q-44 0 -67.5 26t-23.5 76v219q0 87 -138 87zM203 52q23 0 37 9v-4q-8 -22 -38 -43.5t-69 -21.5q-51 0 -79.5 30t-28.5 75q0 34 14 58.5t27 29.5q46 19 165 47
v-7q-52 -19 -67 -38q-16 -24 -16 -59q0 -76 55 -76zM54 327q0 22 15.5 37.5t37.5 15.5t37.5 -15.5t15.5 -37.5t-15.5 -38t-37.5 -16t-37.5 15.5t-15.5 38.5zM409 -144l8 -5q-46 -85 -118 -85q-43 0 -68 23.5t-25 60.5q0 21 10.5 41t31 37.5t37.5 29t41 25.5h12
q-46 -48 -46 -102q0 -23 16 -39t43 -16q35 0 58 30z" />
    <glyph glyph-name="Cacute" unicode="&#x106;" horiz-adv-x="672" 
d="M613 428h-9q-13 64 -52.5 114.5t-100.5 73.5q-28 10 -52 13v9q132 -3 212 -33zM607 217h9l-2 -192q-69 -23 -206 -32v9q19 2 46 12q59 25 99 80t54 123zM368 0v-8q-154 6 -246.5 99.5t-92.5 230.5q0 70 30.5 130t79 98t105.5 60.5t114 26.5v-8q-32 -5 -58 -21
q-114 -72 -114 -282q0 -242 121 -305q33 -18 61 -21zM502 736l-212 -57l-4 7l179 131z" />
    <glyph glyph-name="cacute" unicode="&#x107;" horiz-adv-x="429" 
d="M367 629l-155 -144l-8 5l87 193zM276 446v-8q-47 -7 -86 -53t-39 -125q0 -91 39 -132t97 -41q40 0 74.5 15.5t50.5 38.5l5 -4q-7 -25 -20.5 -48t-35.5 -46t-58 -37t-80 -14q-93 0 -145 60.5t-52 151.5q0 101 77 168.5t173 73.5zM288 378q0 24 17.5 41.5t42.5 17.5
q24 0 41.5 -17.5t17.5 -41.5q0 -25 -17.5 -42.5t-41.5 -17.5q-25 0 -42.5 17.5t-17.5 42.5z" />
    <glyph glyph-name="Ccircumflex" unicode="&#x108;" horiz-adv-x="672" 
d="M248 683l130 133h4l131 -133l-5 -5l-126 56h-4l-126 -56zM613 428h-9q-13 64 -52.5 114.5t-100.5 73.5q-28 10 -52 13v9q132 -3 212 -33zM607 217h9l-2 -192q-69 -23 -206 -32v9q19 2 46 12q59 25 99 80t54 123zM368 0v-8q-154 6 -246.5 99.5t-92.5 230.5q0 70 30.5 130
t79 98t105.5 60.5t114 26.5v-8q-32 -5 -58 -21q-114 -72 -114 -282q0 -242 121 -305q33 -18 61 -21z" />
    <glyph glyph-name="ccircumflex" unicode="&#x109;" horiz-adv-x="429" 
d="M132 491l-6 5l120 180h4l121 -180l-8 -4l-112 87h-6zM276 446v-8q-47 -7 -86 -53t-39 -125q0 -91 39 -132t97 -41q40 0 74.5 15.5t50.5 38.5l5 -4q-7 -25 -20.5 -48t-35.5 -46t-58 -37t-80 -14q-93 0 -145 60.5t-52 151.5q0 101 77 168.5t173 73.5zM288 378
q0 24 17.5 41.5t42.5 17.5q24 0 41.5 -17.5t17.5 -41.5q0 -25 -17.5 -42.5t-41.5 -17.5q-25 0 -42.5 17.5t-17.5 42.5z" />
    <glyph glyph-name="Cdotaccent" unicode="&#x10a;" horiz-adv-x="672" 
d="M613 428h-9q-13 64 -52.5 114.5t-100.5 73.5q-28 10 -52 13v9q132 -3 212 -33zM607 217h9l-2 -192q-69 -23 -206 -32v9q19 2 46 12q59 25 99 80t54 123zM368 0v-8q-154 6 -246.5 99.5t-92.5 230.5q0 70 30.5 130t79 98t105.5 60.5t114 26.5v-8q-32 -5 -58 -21
q-114 -72 -114 -282q0 -242 121 -305q33 -18 61 -21zM314 756q0 28 20 47t48 19q29 0 48.5 -19t19.5 -47t-19.5 -47t-48.5 -19q-28 0 -48 19t-20 47z" />
    <glyph glyph-name="cdotaccent" unicode="&#x10b;" horiz-adv-x="429" 
d="M276 446v-8q-47 -7 -86 -53t-39 -125q0 -91 39 -132t97 -41q40 0 74.5 15.5t50.5 38.5l5 -4q-7 -25 -20.5 -48t-35.5 -46t-58 -37t-80 -14q-93 0 -145 60.5t-52 151.5q0 101 77 168.5t173 73.5zM288 378q0 24 17.5 41.5t42.5 17.5q24 0 41.5 -17.5t17.5 -41.5
q0 -25 -17.5 -42.5t-41.5 -17.5q-25 0 -42.5 17.5t-17.5 42.5zM184 592q0 28 19.5 47t47.5 19q29 0 49 -19t20 -47t-20 -47t-49 -19q-28 0 -47.5 19t-19.5 47z" />
    <glyph glyph-name="Ccaron" unicode="&#x10c;" horiz-adv-x="672" 
d="M250 816l126 -56h4l126 56l5 -5l-131 -133h-4l-130 133zM613 428h-9q-13 64 -52.5 114.5t-100.5 73.5q-28 10 -52 13v9q132 -3 212 -33zM607 217h9l-2 -192q-69 -23 -206 -32v9q19 2 46 12q59 25 99 80t54 123zM368 0v-8q-154 6 -246.5 99.5t-92.5 230.5q0 70 30.5 130
t79 98t105.5 60.5t114 26.5v-8q-32 -5 -58 -21q-114 -72 -114 -282q0 -242 121 -305q33 -18 61 -21z" />
    <glyph glyph-name="ccaron" unicode="&#x10d;" horiz-adv-x="429" 
d="M124 671l7 4l112 -94h6l113 95l7 -5l-121 -187h-4zM276 446v-8q-47 -7 -86 -53t-39 -125q0 -91 39 -132t97 -41q40 0 74.5 15.5t50.5 38.5l5 -4q-7 -25 -20.5 -48t-35.5 -46t-58 -37t-80 -14q-93 0 -145 60.5t-52 151.5q0 101 77 168.5t173 73.5zM288 378q0 24 17.5 41.5
t42.5 17.5q24 0 41.5 -17.5t17.5 -41.5q0 -25 -17.5 -42.5t-41.5 -17.5q-25 0 -42.5 17.5t-17.5 42.5z" />
    <glyph glyph-name="Dcaron" unicode="&#x10e;" horiz-adv-x="738" 
d="M225 816l126 -56h4l126 56l5 -5l-131 -133h-4l-130 133zM30 0v8q48 7 66 31t18 85v382q0 61 -18 85t-66 31v8h228v-630h-228zM702 317q0 -107 -65 -185t-173 -110q-71 -22 -152 -22v8q55 2 112 32q122 67 122 273q0 108 -42 181t-114 106q-36 17 -78 22v8
q175 -7 282.5 -86.5t107.5 -226.5z" />
    <glyph glyph-name="dcaron" unicode="&#x10f;" horiz-adv-x="553" 
d="M626 690l-101 -194h-10l26 194h85zM342 89v-4q-14 -37 -51.5 -65t-86.5 -28q-78 0 -128 59t-50 147q0 87 56.5 150.5t132.5 86.5v-8q-24 -19 -41.5 -68t-17.5 -112q0 -86 35.5 -129t87.5 -43q39 0 63 14zM484 563v-465q0 -32 6.5 -44.5t22.5 -18.5q32 -9 34 -9v-7
l-185 -27l-3 2v294q0 78 -31 113q-32 35 -80 35v7q23 5 45 5q37 0 66 -11v123q0 47 -27 69q-14 11 -22 15v5l175 55l2 -2q-3 -123 -3 -139z" />
    <glyph glyph-name="Dcroat" unicode="&#x110;" horiz-adv-x="738" 
d="M30 331h84v175q0 61 -18 85t-66 31v8h228v-299h121v-24h-121v-307h-228v8q48 7 66 31t18 85v183h-84v24zM702 317q0 -107 -65 -185t-173 -110q-71 -22 -152 -22v8q55 2 112 32q122 67 122 273q0 108 -42 181t-114 106q-36 17 -78 22v8q175 -7 282.5 -86.5t107.5 -226.5z
" />
    <glyph glyph-name="dcroat" unicode="&#x111;" horiz-adv-x="553" 
d="M484 563v-18h73v-28h-73v-419q0 -32 6.5 -44.5t22.5 -18.5q32 -9 34 -9v-7l-185 -27l-3 2v294q0 78 -31 113q-32 35 -80 35v7q23 5 45 5q37 0 66 -11v80h-109v28h109v15q0 47 -27 69q-14 11 -22 15v5l175 55l2 -2q-3 -123 -3 -139zM342 89v-4q-14 -37 -51.5 -65
t-86.5 -28q-78 0 -128 59t-50 147q0 87 56.5 150.5t132.5 86.5v-8q-24 -19 -41.5 -68t-17.5 -112q0 -86 35.5 -129t87.5 -43q39 0 63 14z" />
    <glyph glyph-name="Emacron" unicode="&#x112;" horiz-adv-x="617" 
d="M313 322q67 7 96.5 34.5t45.5 95.5h8v-269h-8q-16 68 -45.5 96t-96.5 35v8zM30 0v8q48 7 66 31t18 85v382q0 61 -18 85t-66 31v8h228v-630h-228zM460 699h-288v42h288v-42zM554 428q-19 63 -41.5 93.5t-65.5 57.5q-48 30 -137 43v8h246l6 -202h-8zM313 0v8q84 9 145 49
q43 28 68 69t45 104h8l-9 -230h-257z" />
    <glyph glyph-name="emacron" unicode="&#x113;" horiz-adv-x="442" 
d="M219 445v-8q-32 -9 -51 -53t-19 -118q0 -84 39.5 -132.5t108.5 -48.5q86 0 128 58l6 -4q-14 -51 -64.5 -99t-132.5 -48q-98 0 -154 64t-56 156q0 94 56.5 158.5t138.5 74.5zM415 290h-233v7l118 12q-6 121 -55 130v8q79 -3 124.5 -48.5t45.5 -108.5zM364 545h-260v42h260
v-42z" />
    <glyph glyph-name="Ebreve" unicode="&#x114;" horiz-adv-x="617" 
d="M313 322q67 7 96.5 34.5t45.5 95.5h8v-269h-8q-16 68 -45.5 96t-96.5 35v8zM30 0v8q48 7 66 31t18 85v382q0 61 -18 85t-66 31v8h228v-630h-228zM324 752q100 0 113 70h11q0 -79 -40 -114q-32 -29 -84 -29q-53 0 -84 28q-40 37 -39 115h11q12 -70 112 -70zM554 428
q-19 63 -41.5 93.5t-65.5 57.5q-48 30 -137 43v8h246l6 -202h-8zM313 0v8q84 9 145 49q43 28 68 69t45 104h8l-9 -230h-257z" />
    <glyph glyph-name="ebreve" unicode="&#x115;" horiz-adv-x="442" 
d="M219 445v-8q-32 -9 -51 -53t-19 -118q0 -84 39.5 -132.5t108.5 -48.5q86 0 128 58l6 -4q-14 -51 -64.5 -99t-132.5 -48q-98 0 -154 64t-56 156q0 94 56.5 158.5t138.5 74.5zM415 290h-233v7l118 12q-6 121 -55 130v8q79 -3 124.5 -48.5t45.5 -108.5zM232 567
q45 0 71.5 22t32.5 53h11q-3 -88 -52 -124q-23 -19 -63 -19q-35 0 -60 17q-50 35 -55 126h11q7 -31 33 -53t71 -22z" />
    <glyph glyph-name="Edotaccent" unicode="&#x116;" horiz-adv-x="617" 
d="M263 756q0 28 20 47t48 19q29 0 48.5 -19t19.5 -47t-19.5 -47t-48.5 -19q-28 0 -48 19t-20 47zM313 322q67 7 96.5 34.5t45.5 95.5h8v-269h-8q-16 68 -45.5 96t-96.5 35v8zM30 0v8q48 7 66 31t18 85v382q0 61 -18 85t-66 31v8h228v-630h-228zM554 428q-19 63 -41.5 93.5
t-65.5 57.5q-48 30 -137 43v8h246l6 -202h-8zM313 0v8q84 9 145 49q43 28 68 69t45 104h8l-9 -230h-257z" />
    <glyph glyph-name="edotaccent" unicode="&#x117;" horiz-adv-x="442" 
d="M219 445v-8q-32 -9 -51 -53t-19 -118q0 -84 39.5 -132.5t108.5 -48.5q86 0 128 58l6 -4q-14 -51 -64.5 -99t-132.5 -48q-98 0 -154 64t-56 156q0 94 56.5 158.5t138.5 74.5zM415 290h-233v7l118 12q-6 121 -55 130v8q79 -3 124.5 -48.5t45.5 -108.5zM167 592
q0 28 19.5 47t47.5 19q29 0 49 -19t20 -47t-20 -47t-49 -19q-28 0 -47.5 19t-19.5 47z" />
    <glyph glyph-name="Eogonek" unicode="&#x118;" horiz-adv-x="617" 
d="M543 -144l8 -5q-46 -85 -118 -85q-43 0 -68 23.5t-25 60.5q0 21 10.5 41t31 37.5t37.5 29t41 25.5h12q-46 -48 -46 -102q0 -23 16 -39t43 -16q35 0 58 30zM313 322q67 7 96.5 34.5t45.5 95.5h8v-269h-8q-16 68 -45.5 96t-96.5 35v8zM30 0v8q48 7 66 31t18 85v382
q0 61 -18 85t-66 31v8h228v-630h-228zM554 428q-19 63 -41.5 93.5t-65.5 57.5q-48 30 -137 43v8h246l6 -202h-8zM313 0v8q84 9 145 49q43 28 68 69t45 104h8l-9 -230h-257z" />
    <glyph glyph-name="eogonek" unicode="&#x119;" horiz-adv-x="442" 
d="M371 -144l8 -5q-46 -85 -118 -85q-43 0 -68 23.5t-25 60.5q0 21 10.5 41t31 37.5t37.5 29t41 25.5h12q-46 -48 -46 -102q0 -23 16 -39t43 -16q35 0 58 30zM219 445v-8q-32 -9 -51 -53t-19 -118q0 -84 39.5 -132.5t108.5 -48.5q86 0 128 58l6 -4q-14 -51 -64.5 -99
t-132.5 -48q-98 0 -154 64t-56 156q0 94 56.5 158.5t138.5 74.5zM415 290h-233v7l118 12q-6 121 -55 130v8q79 -3 124.5 -48.5t45.5 -108.5z" />
    <glyph glyph-name="Ecaron" unicode="&#x11a;" horiz-adv-x="617" 
d="M203 816l126 -56h4l126 56l5 -5l-131 -133h-4l-130 133zM313 322q67 7 96.5 34.5t45.5 95.5h8v-269h-8q-16 68 -45.5 96t-96.5 35v8zM30 0v8q48 7 66 31t18 85v382q0 61 -18 85t-66 31v8h228v-630h-228zM554 428q-19 63 -41.5 93.5t-65.5 57.5q-48 30 -137 43v8h246
l6 -202h-8zM313 0v8q84 9 145 49q43 28 68 69t45 104h8l-9 -230h-257z" />
    <glyph glyph-name="ecaron" unicode="&#x11b;" horiz-adv-x="442" 
d="M112 671l7 4l112 -94h6l113 95l7 -5l-121 -187h-4zM219 445v-8q-32 -9 -51 -53t-19 -118q0 -84 39.5 -132.5t108.5 -48.5q86 0 128 58l6 -4q-14 -51 -64.5 -99t-132.5 -48q-98 0 -154 64t-56 156q0 94 56.5 158.5t138.5 74.5zM415 290h-233v7l118 12q-6 121 -55 130v8
q79 -3 124.5 -48.5t45.5 -108.5z" />
    <glyph glyph-name="Gcircumflex" unicode="&#x11c;" horiz-adv-x="705" 
d="M242 683l130 133h4l131 -133l-5 -5l-126 56h-4l-126 -56zM611 430h-9q-15 68 -57.5 119t-103.5 71q-10 3 -49 10v8q138 0 206 -25zM494 166q0 57 -17 79t-62 29v8h292v-8q-46 -7 -62.5 -29t-16.5 -79v-140q-34 -12 -102.5 -21.5t-116.5 -11.5v8q28 3 51 12q34 14 34 51
v102zM368 0v-8q-106 3 -184 49t-116.5 118t-38.5 159q0 136 96 222.5t226 96.5v-8q-35 -7 -58 -22q-107 -67 -107 -277q0 -249 121 -312q28 -15 61 -18z" />
    <glyph glyph-name="gcircumflex" unicode="&#x11d;" horiz-adv-x="492" 
d="M100 491l-6 5l120 180h4l121 -180l-8 -4l-112 87h-6zM297 290q0 132 -67 150v7q73 -3 128 -40.5t55 -105.5q0 -71 -51.5 -110t-118.5 -44v7q29 11 41 44.5t13 91.5zM32 291q0 70 52 110t118 45v-7q-52 -18 -54 -137q0 -131 67 -149v-7q-73 3 -128 41t-55 104zM495 364
l-101 40v7l112 41zM348 -179v6q52 35 52 78q0 26 -15.5 38.5t-55.5 12.5q-16 0 -98 -4t-103 -4q-41 0 -72 23.5t-31 66.5q0 25 17 48q22 34 67 68l3 -4q-13 -17 -13 -36q0 -33 48 -33q11 0 80 4t104 4q71 0 105.5 -26t34.5 -86q0 -52 -39 -92.5t-84 -63.5zM319 -185v-7
q-24 -15 -72 -31t-104 -16q-66 0 -103 22t-37 58q0 29 39.5 58t77.5 37l3 -5q-12 -6 -21.5 -22.5t-9.5 -39.5q0 -39 22 -60t75 -21q78 0 130 27z" />
    <glyph glyph-name="Gbreve" unicode="&#x11e;" horiz-adv-x="705" 
d="M371 752q100 0 113 70h11q0 -79 -40 -114q-32 -29 -84 -29q-53 0 -84 28q-40 37 -39 115h11q12 -70 112 -70zM611 430h-9q-15 68 -57.5 119t-103.5 71q-10 3 -49 10v8q138 0 206 -25zM494 166q0 57 -17 79t-62 29v8h292v-8q-46 -7 -62.5 -29t-16.5 -79v-140
q-34 -12 -102.5 -21.5t-116.5 -11.5v8q28 3 51 12q34 14 34 51v102zM368 0v-8q-106 3 -184 49t-116.5 118t-38.5 159q0 136 96 222.5t226 96.5v-8q-35 -7 -58 -22q-107 -67 -107 -277q0 -249 121 -312q28 -15 61 -18z" />
    <glyph glyph-name="gbreve" unicode="&#x11f;" horiz-adv-x="492" 
d="M297 290q0 132 -67 150v7q73 -3 128 -40.5t55 -105.5q0 -71 -51.5 -110t-118.5 -44v7q29 11 41 44.5t13 91.5zM32 291q0 70 52 110t118 45v-7q-52 -18 -54 -137q0 -131 67 -149v-7q-73 3 -128 41t-55 104zM495 364l-101 40v7l112 41zM348 -179v6q52 35 52 78
q0 26 -15.5 38.5t-55.5 12.5q-16 0 -98 -4t-103 -4q-41 0 -72 23.5t-31 66.5q0 25 17 48q22 34 67 68l3 -4q-13 -17 -13 -36q0 -33 48 -33q11 0 80 4t104 4q71 0 105.5 -26t34.5 -86q0 -52 -39 -92.5t-84 -63.5zM319 -185v-7q-24 -15 -72 -31t-104 -16q-66 0 -103 22t-37 58
q0 29 39.5 58t77.5 37l3 -5q-12 -6 -21.5 -22.5t-9.5 -39.5q0 -39 22 -60t75 -21q78 0 130 27zM221 567q45 0 71.5 22t32.5 53h11q-3 -88 -52 -124q-23 -19 -63 -19q-35 0 -60 17q-50 35 -55 126h11q7 -31 33 -53t71 -22z" />
    <glyph glyph-name="Gdotaccent" unicode="&#x120;" horiz-adv-x="705" 
d="M306 756q0 28 20 47t48 19q29 0 48.5 -19t19.5 -47t-19.5 -47t-48.5 -19q-28 0 -48 19t-20 47zM611 430h-9q-15 68 -57.5 119t-103.5 71q-10 3 -49 10v8q138 0 206 -25zM494 166q0 57 -17 79t-62 29v8h292v-8q-46 -7 -62.5 -29t-16.5 -79v-140q-34 -12 -102.5 -21.5
t-116.5 -11.5v8q28 3 51 12q34 14 34 51v102zM368 0v-8q-106 3 -184 49t-116.5 118t-38.5 159q0 136 96 222.5t226 96.5v-8q-35 -7 -58 -22q-107 -67 -107 -277q0 -249 121 -312q28 -15 61 -18z" />
    <glyph glyph-name="gdotaccent" unicode="&#x121;" horiz-adv-x="492" 
d="M297 290q0 132 -67 150v7q73 -3 128 -40.5t55 -105.5q0 -71 -51.5 -110t-118.5 -44v7q29 11 41 44.5t13 91.5zM32 291q0 70 52 110t118 45v-7q-52 -18 -54 -137q0 -131 67 -149v-7q-73 3 -128 41t-55 104zM495 364l-101 40v7l112 41zM348 -179v6q52 35 52 78
q0 26 -15.5 38.5t-55.5 12.5q-16 0 -98 -4t-103 -4q-41 0 -72 23.5t-31 66.5q0 25 17 48q22 34 67 68l3 -4q-13 -17 -13 -36q0 -33 48 -33q11 0 80 4t104 4q71 0 105.5 -26t34.5 -86q0 -52 -39 -92.5t-84 -63.5zM319 -185v-7q-24 -15 -72 -31t-104 -16q-66 0 -103 22t-37 58
q0 29 39.5 58t77.5 37l3 -5q-12 -6 -21.5 -22.5t-9.5 -39.5q0 -39 22 -60t75 -21q78 0 130 27zM151 591q0 28 19.5 47t47.5 19q29 0 49 -19t20 -47t-20 -47t-49 -19q-28 0 -47.5 19t-19.5 47z" />
    <glyph glyph-name="Gcommaaccent" unicode="&#x122;" horiz-adv-x="705" 
d="M307 -110q0 29 19 45.5t44 16.5q34 0 53.5 -21.5t19.5 -60.5q0 -43 -37.5 -79t-97.5 -52l-3 7q18 8 30 15t27.5 19t23.5 27.5t7 34.5q-12 -6 -31 -6q-23 0 -39 14.5t-16 39.5zM611 430h-9q-15 68 -57.5 119t-103.5 71q-10 3 -49 10v8q138 0 206 -25zM494 166q0 57 -17 79
t-62 29v8h292v-8q-46 -7 -62.5 -29t-16.5 -79v-140q-34 -12 -102.5 -21.5t-116.5 -11.5v8q28 3 51 12q34 14 34 51v102zM368 0v-8q-106 3 -184 49t-116.5 118t-38.5 159q0 136 96 222.5t226 96.5v-8q-35 -7 -58 -22q-107 -67 -107 -277q0 -249 121 -312q28 -15 61 -18z" />
    <glyph glyph-name="gcommaaccent" unicode="&#x123;" horiz-adv-x="492" 
d="M288 562q0 -28 -19 -44t-44 -16q-34 0 -53 21t-19 59q0 43 37.5 78.5t97.5 51.5l2 -7q-18 -8 -30 -15t-27.5 -19t-23.5 -27.5t-7 -34.5q11 7 31 7q23 0 39 -14.5t16 -39.5zM297 290q0 132 -67 150v7q73 -3 128 -40.5t55 -105.5q0 -71 -51.5 -110t-118.5 -44v7
q29 11 41 44.5t13 91.5zM32 291q0 70 52 110t118 45v-7q-52 -18 -54 -137q0 -131 67 -149v-7q-73 3 -128 41t-55 104zM495 364l-101 40v7l112 41zM348 -179v6q52 35 52 78q0 26 -15.5 38.5t-55.5 12.5q-16 0 -98 -4t-103 -4q-41 0 -72 23.5t-31 66.5q0 25 17 48q22 34 67 68
l3 -4q-13 -17 -13 -36q0 -33 48 -33q11 0 80 4t104 4q71 0 105.5 -26t34.5 -86q0 -52 -39 -92.5t-84 -63.5zM319 -185v-7q-24 -15 -72 -31t-104 -16q-66 0 -103 22t-37 58q0 29 39.5 58t77.5 37l3 -5q-12 -6 -21.5 -22.5t-9.5 -39.5q0 -39 22 -60t75 -21q78 0 130 27z" />
    <glyph glyph-name="Hcircumflex" unicode="&#x124;" horiz-adv-x="797" 
d="M291 310v30h216v-30h-216zM114 124v382q0 61 -18 85t-66 31v8h307v-8q-46 -7 -62.5 -30t-16.5 -86v-382q0 -63 16.5 -86t62.5 -30v-8h-307v8q48 7 66 31t18 85zM684 506v-382q0 -61 18 -85t65 -31v-8h-306v8q46 7 62.5 30t16.5 86v382q0 63 -16.5 86t-62.5 30v8h306v-8
q-47 -7 -65 -31t-18 -85zM266 683l130 133h4l131 -133l-5 -5l-126 56h-4l-126 -56z" />
    <glyph glyph-name="hcircumflex" unicode="&#x125;" horiz-adv-x="556" 
d="M359 86v209q0 41 -17 61t-56 20q-32 0 -63 -12v3q25 33 65 56.5t81 23.5q116 0 116 -132v-225q0 -45 11.5 -61.5t45.5 -21.5v-7h-238v7q32 5 43.5 21.5t11.5 57.5zM143 725l130 133h4l131 -133l-5 -5l-126 56h-4l-126 -56zM198 563v-477q0 -41 11.5 -57.5t43.5 -21.5v-7
h-238v7q34 5 45.5 21.5t11.5 61.5v481q0 26 -10 41.5t-38 31.5v5l175 55l2 -2q-3 -123 -3 -139z" />
    <glyph glyph-name="Hbar" unicode="&#x126;" horiz-adv-x="797" 
d="M291 310v30h216v-30h-216zM114 124v382q0 61 -18 85t-66 31v8h307v-8q-46 -7 -62.5 -30t-16.5 -86v-382q0 -63 16.5 -86t62.5 -30v-8h-307v8q48 7 66 31t18 85zM684 506v-382q0 -61 18 -85t65 -31v-8h-306v8q46 7 62.5 30t16.5 86v382q0 63 -16.5 86t-62.5 30v8h306v-8
q-47 -7 -65 -31t-18 -85zM291 424v29h216v-29h-216zM716 424v29h82v-29h-82zM0 424v29h81v-29h-81z" />
    <glyph glyph-name="hbar" unicode="&#x127;" horiz-adv-x="563" 
d="M326 517h-121v-431q0 -41 11.5 -57.5t43.5 -21.5v-7h-238v7q34 5 45.5 21.5t11.5 61.5v427h-58v28h58q0 35 -1 37q-1 28 -26 48q-10 9 -21 14v5l174 55l3 -2q-3 -105 -3 -119v-38h121v-28zM366 86v209q0 41 -17.5 61t-56.5 20q-31 0 -62 -12v3q24 33 64.5 56.5t81.5 23.5
q116 0 116 -132v-225q0 -45 11.5 -61.5t45.5 -21.5v-7h-238v7q32 5 43.5 21.5t11.5 57.5z" />
    <glyph glyph-name="Itilde" unicode="&#x128;" horiz-adv-x="371" 
d="M114 124v382q0 61 -18 85t-66 31v8h311v-8q-46 -7 -64.5 -30.5t-18.5 -85.5v-382q0 -62 18.5 -85.5t64.5 -30.5v-8h-311v8q48 7 66 31t18 85zM348 830l9 -3q-16 -51 -44 -82t-65 -31q-22 0 -80 2.5t-73 2.5q-48 0 -71 -27l-7 4q53 102 117 102q17 0 74.5 -2.5t76.5 -2.5
q50 0 63 37z" />
    <glyph glyph-name="itilde" unicode="&#x129;" horiz-adv-x="276" 
d="M285 654l9 -3q-15 -54 -47 -90.5t-67 -36.5q-21 0 -64.5 2.5t-59.5 2.5q-23 0 -38 -6t-31 -28l-6 5q58 109 113 109q18 0 61 -2.5t62 -2.5q24 0 40 11t28 39zM75 90v221q0 40 -27 61q-12 10 -24 16v5l177 55l2 -2q-3 -123 -3 -139v-217q0 -43 13.5 -60.5t47.5 -22.5v-7
h-244v7q35 5 46.5 21.5t11.5 61.5z" />
    <glyph glyph-name="Imacron" unicode="&#x12a;" horiz-adv-x="371" 
d="M114 124v382q0 61 -18 85t-66 31v8h311v-8q-46 -7 -64.5 -30.5t-18.5 -85.5v-382q0 -62 18.5 -85.5t64.5 -30.5v-8h-311v8q48 7 66 31t18 85zM330 699h-288v42h288v-42z" />
    <glyph glyph-name="imacron" unicode="&#x12b;" horiz-adv-x="276" 
d="M258 545h-260v42h260v-42zM75 90v221q0 40 -27 61q-12 10 -24 16v5l177 55l2 -2q-3 -123 -3 -139v-217q0 -43 13.5 -60.5t47.5 -22.5v-7h-244v7q35 5 46.5 21.5t11.5 61.5z" />
    <glyph glyph-name="Ibreve" unicode="&#x12c;" horiz-adv-x="371" 
d="M114 124v382q0 61 -18 85t-66 31v8h311v-8q-46 -7 -64.5 -30.5t-18.5 -85.5v-382q0 -62 18.5 -85.5t64.5 -30.5v-8h-311v8q48 7 66 31t18 85zM185 752q100 0 113 70h11q0 -79 -40 -114q-32 -29 -84 -29q-53 0 -84 28q-40 37 -39 115h11q12 -70 112 -70z" />
    <glyph glyph-name="ibreve" unicode="&#x12d;" horiz-adv-x="276" 
d="M130 567q45 0 71.5 22t32.5 53h11q-3 -88 -52 -124q-23 -19 -63 -19q-35 0 -60 17q-50 35 -55 126h11q7 -31 33 -53t71 -22zM75 90v221q0 40 -27 61q-12 10 -24 16v5l177 55l2 -2q-3 -123 -3 -139v-217q0 -43 13.5 -60.5t47.5 -22.5v-7h-244v7q35 5 46.5 21.5t11.5 61.5z
" />
    <glyph glyph-name="Iogonek" unicode="&#x12e;" horiz-adv-x="371" 
d="M114 124v382q0 61 -18 85t-66 31v8h311v-8q-46 -7 -64.5 -30.5t-18.5 -85.5v-382q0 -62 18.5 -85.5t64.5 -30.5v-8h-311v8q48 7 66 31t18 85zM309 -144l8 -5q-46 -85 -118 -85q-43 0 -68 23.5t-25 60.5q0 21 10.5 41t31 37.5t37.5 29t41 25.5h12q-46 -48 -46 -102
q0 -23 16 -39t43 -16q35 0 58 30z" />
    <glyph glyph-name="iogonek" unicode="&#x12f;" horiz-adv-x="276" 
d="M64 591q0 29 21 49t50 20q30 0 51 -20t21 -49t-21 -49t-51 -20q-29 0 -50 20t-21 49zM262 -144l8 -5q-46 -85 -118 -85q-43 0 -68 23.5t-25 60.5q0 21 10.5 41t31 37.5t37.5 29t41 25.5h12q-46 -48 -46 -102q0 -23 15.5 -39t43.5 -16q35 0 58 30zM75 90v221q0 40 -27 61
q-12 10 -24 16v5l177 55l2 -2q-3 -123 -3 -139v-217q0 -43 13.5 -60.5t47.5 -22.5v-7h-244v7q35 5 46.5 21.5t11.5 61.5z" />
    <glyph glyph-name="Idotaccent" unicode="&#x130;" horiz-adv-x="371" 
d="M114 124v382q0 61 -18 85t-66 31v8h311v-8q-46 -7 -64.5 -30.5t-18.5 -85.5v-382q0 -62 18.5 -85.5t64.5 -30.5v-8h-311v8q48 7 66 31t18 85zM117 756q0 28 20 47t48 19q29 0 48.5 -19t19.5 -47t-19.5 -47t-48.5 -19q-28 0 -48 19t-20 47z" />
    <glyph glyph-name="dotlessi" unicode="&#x131;" horiz-adv-x="281" 
d="M75 90v221q0 40 -27 61q-12 10 -24 16v5l177 55l2 -2q-3 -123 -3 -139v-217q0 -43 13.5 -60.5t47.5 -22.5v-7h-244v7q35 5 46.5 21.5t11.5 61.5z" />
    <glyph glyph-name="IJ" unicode="&#x132;" horiz-adv-x="679" 
d="M114 124v382q0 61 -18 85t-66 31v8h301v-8q-44 -7 -58.5 -28t-14.5 -78v-392q0 -62 18.5 -85.5t64.5 -30.5v-8h-311v8q48 7 66 31t18 85zM582 506v-411q0 -112 -71 -174q-35 -31 -92.5 -57t-113.5 -39l-3 10q59 23 98 75q38 50 38 174v432q0 56 -14 77.5t-59 28.5v8h301
v-8q-47 -7 -65.5 -30.5t-18.5 -85.5z" />
    <glyph glyph-name="ij" unicode="&#x133;" horiz-adv-x="506" 
d="M63 591q0 29 21 49t50 20q30 0 51 -20t21 -49t-21 -49t-51 -20q-29 0 -50 20t-21 49zM199 448l2 -2q-3 -123 -3 -139v-217q0 -43 13.5 -60.5t47.5 -22.5v-7h-244v7q35 5 46.5 21.5t11.5 61.5v221q0 40 -27 61q-12 10 -24 16v5zM308 591q0 29 21 49t50 20q30 0 51 -20
t21 -49t-21 -49t-51 -20q-29 0 -50 20t-21 49zM318 51v260q0 41 -26 62q-12 9 -25 15v5l178 55l2 -2q-3 -123 -3 -139v-235q0 -104 -35.5 -158.5t-104.5 -94.5q-41 -25 -90 -41l-2 7q29 17 44 33q39 42 49.5 87t12.5 146z" />
    <glyph glyph-name="Jcircumflex" unicode="&#x134;" horiz-adv-x="346" 
d="M44 683l130 133h4l131 -133l-5 -5l-126 56h-4l-126 -56zM249 506v-411q0 -112 -71 -174q-35 -31 -92.5 -57t-113.5 -39l-3 10q59 23 98 75q38 50 38 174v422q0 61 -18 85t-66 31v8h311v-8q-46 -7 -64.5 -30.5t-18.5 -85.5z" />
    <glyph glyph-name="jcircumflex" unicode="&#x135;" horiz-adv-x="249" 
d="M1 491l-6 5l120 180h4l121 -180l-8 -4l-112 87h-6zM63 51v260q0 41 -26 62q-12 9 -25 15v5l178 55l2 -2q-3 -123 -3 -139v-235q0 -104 -35.5 -158.5t-104.5 -94.5q-41 -25 -90 -41l-2 7q29 17 44 33q39 42 49.5 87t12.5 146z" />
    <glyph glyph-name="Kcommaaccent" unicode="&#x136;" horiz-adv-x="756" 
d="M735 630v-8q-48 -5 -105 -40q-58 -36 -158 -123l-5 6q46 53 46 94q0 57 -82 63v8h304zM760 -7q-95 0 -149 6q-52 6 -86.5 24t-75.5 69q-77 97 -137 198l91 103q45 -64 125 -167.5t118 -143.5q32 -34 58 -54t56 -27v-8zM114 124v382q0 61 -18 85t-66 31v8h311v-8
q-46 -7 -64.5 -30.5t-18.5 -85.5v-382q0 -62 18.5 -85.5t64.5 -30.5v-8h-311v8q48 7 66 31t18 85zM326 -110q0 29 19 45.5t44 16.5q34 0 53.5 -21.5t19.5 -60.5q0 -43 -37.5 -79t-97.5 -52l-3 7q18 8 30 15t27.5 19t23.5 27.5t7 34.5q-12 -6 -31 -6q-23 0 -39 14.5t-16 39.5
z" />
    <glyph glyph-name="kcommaaccent" unicode="&#x137;" horiz-adv-x="532" 
d="M222 218l80 84q23 -41 81 -122.5t85 -109.5q45 -48 89 -63v-7q-33 -3 -119 -3q-56 0 -91 36q-33 35 -68.5 88.5t-56.5 96.5zM530 436v-8q-65 -13 -111 -42q-44 -24 -88 -68l-6 8q22 28 22 55q0 39 -53 47v8h236zM217 -110q0 29 19 45.5t44 16.5q34 0 53.5 -21.5
t19.5 -60.5q0 -43 -37.5 -79t-97.5 -52l-3 7q18 8 30 15t27.5 19t23.5 27.5t7 34.5q-12 -6 -31 -6q-23 0 -39 14.5t-16 39.5zM72 90v482q0 26 -10 42.5t-38 30.5v6l175 54l2 -2q-3 -123 -3 -139v-474q0 -43 12.5 -60.5t45.5 -22.5v-7h-241v7q35 5 46 21t11 62z" />
    <glyph glyph-name="Lacute" unicode="&#x139;" horiz-adv-x="618" 
d="M311 736l-212 -57l-4 7l179 131zM578 238h9l-19 -238h-258v8q89 8 149 52q86 58 119 178zM258 506v-506h-228v8q48 7 66 31t18 85v382q0 61 -18 85t-66 31v8h322v-8q-52 -7 -73 -30.5t-21 -85.5z" />
    <glyph glyph-name="lacute" unicode="&#x13a;" horiz-adv-x="272" 
d="M238 778l-212 -57l-4 7l179 131zM72 90v482q0 26 -10 42t-38 31v6l175 54l2 -2q-3 -123 -3 -139v-474q0 -43 12.5 -60.5t45.5 -22.5v-7h-241v7q35 5 46 21t11 62z" />
    <glyph glyph-name="Lcommaaccent" unicode="&#x13b;" horiz-adv-x="618" 
d="M270 -110q0 29 19 45.5t44 16.5q34 0 53.5 -21.5t19.5 -60.5q0 -43 -37.5 -79t-97.5 -52l-3 7q18 8 30 15t27.5 19t23.5 27.5t7 34.5q-12 -6 -31 -6q-23 0 -39 14.5t-16 39.5zM578 238h9l-19 -238h-258v8q89 8 149 52q86 58 119 178zM258 506v-506h-228v8q48 7 66 31
t18 85v382q0 61 -18 85t-66 31v8h322v-8q-52 -7 -73 -30.5t-21 -85.5z" />
    <glyph glyph-name="lcommaaccent" unicode="&#x13c;" horiz-adv-x="272" 
d="M70 -110q0 29 19 45.5t44 16.5q34 0 53.5 -21.5t19.5 -60.5q0 -43 -37.5 -79t-97.5 -52l-3 7q18 8 30 15t27.5 19t23.5 27.5t7 34.5q-12 -6 -31 -6q-23 0 -39 14.5t-16 39.5zM72 90v482q0 26 -10 42t-38 31v6l175 54l2 -2q-3 -123 -3 -139v-474q0 -43 12.5 -60.5
t45.5 -22.5v-7h-241v7q35 5 46 21t11 62z" />
    <glyph glyph-name="Lcaron" unicode="&#x13d;" horiz-adv-x="618" 
d="M489 668l-101 -194h-10l26 194h85zM578 238h9l-19 -238h-258v8q89 8 149 52q86 58 119 178zM258 506v-506h-228v8q48 7 66 31t18 85v382q0 61 -18 85t-66 31v8h322v-8q-52 -7 -73 -30.5t-21 -85.5z" />
    <glyph glyph-name="lcaron" unicode="&#x13e;" horiz-adv-x="272" 
d="M338 690l-101 -194h-10l26 194h85zM72 90v482q0 26 -10 42t-38 31v6l175 54l2 -2q-3 -123 -3 -139v-474q0 -43 12.5 -60.5t45.5 -22.5v-7h-241v7q35 5 46 21t11 62z" />
    <glyph glyph-name="Ldot" unicode="&#x13f;" horiz-adv-x="618" 
d="M578 227h9l-19 -227h-258v8q88 8 148 48q86 57 120 171zM258 506v-506h-228v8q48 7 66 31t18 85v382q0 61 -18 85t-66 31v8h322v-8q-52 -7 -73 -30.5t-21 -85.5zM436 351q0 27 19.5 46t46.5 19t46 -18.5t19 -46.5t-19 -46.5t-46 -18.5t-46.5 19t-19.5 46z" />
    <glyph glyph-name="ldot" unicode="&#x140;" horiz-adv-x="339" 
d="M239 340q0 28 19 46.5t47 18.5q27 0 46 -18.5t19 -46.5t-19 -46.5t-46 -18.5q-28 0 -47 18.5t-19 46.5zM72 90v482q0 26 -10 42t-38 31v6l175 54l2 -2q-3 -123 -3 -139v-474q0 -43 12.5 -60.5t45.5 -22.5v-7h-241v7q35 5 46 21t11 62z" />
    <glyph glyph-name="Lslash" unicode="&#x141;" horiz-adv-x="618" 
d="M462 394l-201 -90v-304h-228v8q48 7 66 31t18 85v114l-74 -32l-9 23l83 37v240q0 61 -18 85t-66 31v8h322v-8q-53 -7 -73.5 -30.5t-20.5 -85.5v-175l193 86zM581 238h8l-18 -238h-258v8q92 10 152 55q83 56 116 175z" />
    <glyph glyph-name="lslash" unicode="&#x142;" horiz-adv-x="282" 
d="M79 90v196l-77 -44l-11 22l88 50v258q0 26 -10 42t-38 31v6l174 54l3 -2q-3 -123 -3 -139v-179l76 43l12 -22l-88 -50v-266q0 -44 12.5 -61t45.5 -22v-7h-241v7q34 5 45.5 21.5t11.5 61.5z" />
    <glyph glyph-name="Nacute" unicode="&#x143;" horiz-adv-x="719" 
d="M490 736l-212 -57l-4 7l179 131zM279 0h-278v8q59 6 93 50q15 20 25.5 61t10.5 70h10q0 -28 10.5 -68.5t25.5 -60.5q35 -46 103 -52v-8zM542 -2l-413 530q-36 45 -59 62q-34 26 -80 32v8h249l355 -453v-179h-52zM445 630h278v-8q-61 -6 -93 -50q-15 -20 -25.5 -59
t-10.5 -68h-10q0 28 -10.5 66.5t-25.5 58.5q-36 46 -103 52v8z" />
    <glyph glyph-name="nacute" unicode="&#x144;" horiz-adv-x="558" 
d="M420 629l-155 -144l-8 5l87 193zM362 86v210q0 41 -17 60.5t-57 19.5q-31 0 -62 -12v3q24 33 64 56.5t82 23.5q115 0 115 -130v-227q0 -45 11.5 -61.5t46.5 -21.5v-7h-238v7q32 5 43.5 21.5t11.5 57.5zM200 446v-360q0 -41 11.5 -57.5t43.5 -21.5v-7h-238v7
q35 5 46.5 21.5t11.5 61.5v225q0 46 -48 72v6l171 55z" />
    <glyph glyph-name="Ncommaaccent" unicode="&#x145;" horiz-adv-x="719" 
d="M271 -110q0 29 19 45.5t44 16.5q34 0 53.5 -21.5t19.5 -60.5q0 -43 -37.5 -79t-97.5 -52l-3 7q18 8 30 15t27.5 19t23.5 27.5t7 34.5q-12 -6 -31 -6q-23 0 -39 14.5t-16 39.5zM279 0h-278v8q59 6 93 50q15 20 25.5 61t10.5 70h10q0 -28 10.5 -68.5t25.5 -60.5
q35 -46 103 -52v-8zM542 -2l-413 530q-36 45 -59 62q-34 26 -80 32v8h249l355 -453v-179h-52zM445 630h278v-8q-61 -6 -93 -50q-15 -20 -25.5 -59t-10.5 -68h-10q0 28 -10.5 66.5t-25.5 58.5q-36 46 -103 52v8z" />
    <glyph glyph-name="ncommaaccent" unicode="&#x146;" horiz-adv-x="558" 
d="M201 -110q0 29 19 45.5t44 16.5q34 0 53.5 -21.5t19.5 -60.5q0 -43 -37.5 -79t-97.5 -52l-3 7q18 8 30 15t27.5 19t23.5 27.5t7 34.5q-12 -6 -31 -6q-23 0 -39 14.5t-16 39.5zM362 86v210q0 41 -17 60.5t-57 19.5q-31 0 -62 -12v3q24 33 64 56.5t82 23.5q115 0 115 -130
v-227q0 -45 11.5 -61.5t46.5 -21.5v-7h-238v7q32 5 43.5 21.5t11.5 57.5zM200 446v-360q0 -41 11.5 -57.5t43.5 -21.5v-7h-238v7q35 5 46.5 21.5t11.5 61.5v225q0 46 -48 72v6l171 55z" />
    <glyph glyph-name="Ncaron" unicode="&#x147;" horiz-adv-x="719" 
d="M239 816l126 -56h4l126 56l5 -5l-131 -133h-4l-130 133zM279 0h-278v8q59 6 93 50q15 20 25.5 61t10.5 70h10q0 -28 10.5 -68.5t25.5 -60.5q35 -46 103 -52v-8zM542 -2l-413 530q-36 45 -59 62q-34 26 -80 32v8h249l355 -453v-179h-52zM445 630h278v-8q-61 -6 -93 -50
q-15 -20 -25.5 -59t-10.5 -68h-10q0 28 -10.5 66.5t-25.5 58.5q-36 46 -103 52v8z" />
    <glyph glyph-name="ncaron" unicode="&#x148;" horiz-adv-x="558" 
d="M165 671l7 4l112 -94h6l113 95l7 -5l-121 -187h-4zM362 86v210q0 41 -17 60.5t-57 19.5q-31 0 -62 -12v3q24 33 64 56.5t82 23.5q115 0 115 -130v-227q0 -45 11.5 -61.5t46.5 -21.5v-7h-238v7q32 5 43.5 21.5t11.5 57.5zM200 446v-360q0 -41 11.5 -57.5t43.5 -21.5v-7
h-238v7q35 5 46.5 21.5t11.5 61.5v225q0 46 -48 72v6l171 55z" />
    <glyph glyph-name="napostrophe" unicode="&#x149;" horiz-adv-x="598" 
d="M401 86v210q0 41 -17 60.5t-57 19.5q-31 0 -62 -12v3q24 33 64 56.5t82 23.5q115 0 115 -130v-227q0 -45 11.5 -61.5t46.5 -21.5v-7h-238v7q32 5 43.5 21.5t11.5 57.5zM239 446v-360q0 -41 11.5 -57.5t43.5 -21.5v-7h-238v7q35 5 46.5 21.5t11.5 61.5v225q0 46 -48 72v6
l171 55zM-71 572q0 30 20.5 48t49.5 18q79 0 79 -88q0 -47 -43 -90.5t-102 -59.5l-3 7q41 20 64 44t26 65q-14 -6 -29 -6q-26 0 -44 17t-18 45z" />
    <glyph glyph-name="Eng" unicode="&#x14a;" horiz-adv-x="737" 
d="M246 630l355 -511v-54q0 -87 -71 -146q-76 -62 -206 -94l-3 10q29 11 56.5 32t43.5 42q33 45 36 119v33l-321 467q-36 45 -59 62q-34 26 -79 32v8h248zM286 0h-278v8q59 6 93 50q15 20 25.5 61t10.5 70h10q0 -28 10.5 -68.5t25.5 -60.5q35 -46 103 -52v-8zM452 630h278
v-8q-61 -6 -93 -50q-15 -20 -25.5 -59t-10.5 -68h-10q0 28 -10.5 66.5t-25.5 58.5q-35 46 -103 52v8z" />
    <glyph glyph-name="eng" unicode="&#x14b;" horiz-adv-x="532" 
d="M230 367q24 33 64.5 56.5t81.5 23.5q114 0 116 -127v-264q-1 -54 -11 -95.5t-30.5 -70t-43 -47.5t-55.5 -38q-34 -20 -93 -44l-4 10q31 18 47 35q40 43 51 88t13 142v262q0 40 -17.5 59t-56.5 19q-31 0 -62 -12v3zM205 446v-360q0 -41 11.5 -57.5t43.5 -21.5v-7h-238v7
q34 5 45.5 21.5t11.5 61.5v225q0 40 -27 58q-10 11 -21 14v6l171 55z" />
    <glyph glyph-name="Omacron" unicode="&#x14c;" horiz-adv-x="762" 
d="M523 699h-288v42h288v-42zM377 0v-8q-159 4 -250 96t-91 230q0 71 27.5 130.5t72.5 98t99 62t111 28.5v-8q-37 -8 -57 -22q-96 -60 -96 -277q0 -250 122 -312q32 -15 62 -18zM385 630v8q159 -4 250 -96t91 -230q0 -71 -27.5 -130.5t-72.5 -98t-99 -62t-111 -28.5v8
q37 8 56 22q97 61 97 277q0 250 -122 312q-32 15 -62 18z" />
    <glyph glyph-name="omacron" unicode="&#x14d;" horiz-adv-x="524" 
d="M391 545h-260v42h260v-42zM154 213q0 -166 66 -201q18 -10 35 -12v-8q-101 3 -168 64.5t-67 159.5q0 97 65 159t154 71v-7q-30 -5 -50 -34q-35 -49 -35 -192zM369 226q0 168 -65 203q-14 8 -35 10v8q100 -3 167 -65t67 -160q0 -97 -64 -157.5t-155 -71.5v7q29 5 50 36
q35 47 35 190z" />
    <glyph glyph-name="Obreve" unicode="&#x14e;" horiz-adv-x="762" 
d="M377 752q100 0 113 70h11q0 -79 -40 -114q-32 -29 -84 -29q-53 0 -84 28q-40 37 -39 115h11q12 -70 112 -70zM377 0v-8q-159 4 -250 96t-91 230q0 71 27.5 130.5t72.5 98t99 62t111 28.5v-8q-37 -8 -57 -22q-96 -60 -96 -277q0 -250 122 -312q32 -15 62 -18zM385 630v8
q159 -4 250 -96t91 -230q0 -71 -27.5 -130.5t-72.5 -98t-99 -62t-111 -28.5v8q37 8 56 22q97 61 97 277q0 250 -122 312q-32 15 -62 18z" />
    <glyph glyph-name="obreve" unicode="&#x14f;" horiz-adv-x="524" 
d="M154 213q0 -166 66 -201q18 -10 35 -12v-8q-101 3 -168 64.5t-67 159.5q0 97 65 159t154 71v-7q-30 -5 -50 -34q-35 -49 -35 -192zM369 226q0 168 -65 203q-14 8 -35 10v8q100 -3 167 -65t67 -160q0 -97 -64 -157.5t-155 -71.5v7q29 5 50 36q35 47 35 190zM260 567
q45 0 71.5 22t32.5 53h11q-3 -88 -52 -124q-23 -19 -63 -19q-35 0 -60 17q-50 35 -55 126h11q7 -31 33 -53t71 -22z" />
    <glyph glyph-name="Ohungarumlaut" unicode="&#x150;" horiz-adv-x="762" 
d="M418 802l-126 -128l-7 5l70 163zM543 802l-126 -128l-7 5l70 163zM377 0v-8q-159 4 -250 96t-91 230q0 71 27.5 130.5t72.5 98t99 62t111 28.5v-8q-37 -8 -57 -22q-96 -60 -96 -277q0 -250 122 -312q32 -15 62 -18zM385 630v8q159 -4 250 -96t91 -230q0 -71 -27.5 -130.5
t-72.5 -98t-99 -62t-111 -28.5v8q37 8 56 22q97 61 97 277q0 250 -122 312q-32 15 -62 18z" />
    <glyph glyph-name="ohungarumlaut" unicode="&#x151;" horiz-adv-x="524" 
d="M329 638l-146 -156l-7 5l92 193zM447 638l-145 -156l-7 5l91 193zM154 213q0 -166 66 -201q18 -10 35 -12v-8q-101 3 -168 64.5t-67 159.5q0 97 65 159t154 71v-7q-30 -5 -50 -34q-35 -49 -35 -192zM369 226q0 168 -65 203q-14 8 -35 10v8q100 -3 167 -65t67 -160
q0 -97 -64 -157.5t-155 -71.5v7q29 5 50 36q35 47 35 190z" />
    <glyph glyph-name="OE" unicode="&#x152;" horiz-adv-x="919" 
d="M28 319q0 67 32 125t83 97t112.5 62t123.5 27v-8q-37 -4 -77 -30q-50 -31 -83.5 -98t-33.5 -167q0 -236 127 -300q32 -16 67 -19v-8q-161 4 -256 93.5t-95 225.5zM420 0v630h144v-630h-144zM763 59q43 29 68 68.5t44 102.5h8l-9 -230h-254v8q80 9 143 51zM759 183
q-16 68 -44.5 96t-94.5 35v8q66 7 94.5 34t44.5 96h8v-269h-8zM865 428h-8q-19 63 -41 93t-65 57q-49 31 -134 44v8h242z" />
    <glyph glyph-name="oe" unicode="&#x153;" horiz-adv-x="767" 
d="M546 445v-8q-68 -19 -68 -171q0 -84 38 -132.5t106 -48.5q87 0 129 58l5 -4q-15 -52 -64 -99.5t-131 -47.5q-95 0 -146 67q-55 -56 -138 -66v9q26 4 44 31q34 45 34 193q0 170 -62 203q-13 7 -32 9v9q102 -3 161 -70q49 59 124 68zM154 213q0 -170 62 -203q13 -7 32 -9
v-9q-99 3 -163.5 65t-64.5 160t61.5 158.5t150.5 70.5v-9q-25 -4 -43 -30q-35 -47 -35 -194zM740 290h-229v7l114 12q-6 121 -53 130v8q77 -3 122.5 -48.5t45.5 -108.5z" />
    <glyph glyph-name="Racute" unicode="&#x154;" horiz-adv-x="724" 
d="M435 736l-212 -57l-4 7l179 131zM258 630v-506q0 -61 23.5 -85t77.5 -31v-8h-329v8q48 7 66 31t18 85v382q0 61 -18 85t-66 31v8h228zM445 98q-60 81 -116 199v4q15 2 36 11q41 16 56 54t15 98q0 140 -127 158v8q52 0 102 -8q173 -26 173 -161q0 -107 -115 -149v-2
q54 -100 177 -234q22 -27 53.5 -47t56.5 -24v-8q-28 -2 -152 -2q-50 1 -85.5 26.5t-73.5 76.5z" />
    <glyph glyph-name="racute" unicode="&#x155;" horiz-adv-x="405" 
d="M343 629l-155 -144l-8 5l87 193zM330 299q-27 0 -44.5 16.5t-17.5 42.5t13 39q-1 3 -8 3q-28 0 -49 -37v4q9 31 37 55.5t60 24.5q38 0 58 -20.5t20 -55.5q0 -33 -19.5 -52.5t-49.5 -19.5zM200 446v-357q0 -42 16 -59.5t51 -22.5v-7h-250v7q35 5 46.5 21.5t11.5 61.5v225
q0 26 -10 41.5t-38 30.5v6l171 55z" />
    <glyph glyph-name="Rcommaaccent" unicode="&#x156;" horiz-adv-x="724" 
d="M258 630v-506q0 -61 23.5 -85t77.5 -31v-8h-329v8q48 7 66 31t18 85v382q0 61 -18 85t-66 31v8h228zM324 -110q0 29 19 45.5t44 16.5q34 0 53.5 -21.5t19.5 -60.5q0 -43 -37.5 -79t-97.5 -52l-3 7q18 8 30 15t27.5 19t23.5 27.5t7 34.5q-12 -6 -31 -6q-23 0 -39 14.5
t-16 39.5zM445 98q-60 81 -116 199v4q15 2 36 11q41 16 56 54t15 98q0 140 -127 158v8q52 0 102 -8q173 -26 173 -161q0 -107 -115 -149v-2q54 -100 177 -234q22 -27 53.5 -47t56.5 -24v-8q-28 -2 -152 -2q-50 1 -85.5 26.5t-73.5 76.5z" />
    <glyph glyph-name="rcommaaccent" unicode="&#x157;" horiz-adv-x="405" 
d="M330 299q-27 0 -44.5 16.5t-17.5 42.5t13 39q-1 3 -8 3q-28 0 -49 -37v4q9 31 37 55.5t60 24.5q38 0 58 -20.5t20 -55.5q0 -33 -19.5 -52.5t-49.5 -19.5zM72 -110q0 29 19 45.5t44 16.5q34 0 53.5 -21.5t19.5 -60.5q0 -43 -37.5 -79t-97.5 -52l-3 7q18 8 30 15t27.5 19
t23.5 27.5t7 34.5q-12 -6 -31 -6q-23 0 -39 14.5t-16 39.5zM200 446v-357q0 -42 16 -59.5t51 -22.5v-7h-250v7q35 5 46.5 21.5t11.5 61.5v225q0 26 -10 41.5t-38 30.5v6l171 55z" />
    <glyph glyph-name="Rcaron" unicode="&#x158;" horiz-adv-x="724" 
d="M184 816l126 -56h4l126 56l5 -5l-131 -133h-4l-130 133zM258 630v-506q0 -61 23.5 -85t77.5 -31v-8h-329v8q48 7 66 31t18 85v382q0 61 -18 85t-66 31v8h228zM445 98q-60 81 -116 199v4q15 2 36 11q41 16 56 54t15 98q0 140 -127 158v8q52 0 102 -8q173 -26 173 -161
q0 -107 -115 -149v-2q54 -100 177 -234q22 -27 53.5 -47t56.5 -24v-8q-28 -2 -152 -2q-50 1 -85.5 26.5t-73.5 76.5z" />
    <glyph glyph-name="rcaron" unicode="&#x159;" horiz-adv-x="405" 
d="M109 671l7 4l112 -94h6l113 95l7 -5l-121 -187h-4zM330 299q-27 0 -44.5 16.5t-17.5 42.5t13 39q-1 3 -8 3q-28 0 -49 -37v4q9 31 37 55.5t60 24.5q38 0 58 -20.5t20 -55.5q0 -33 -19.5 -52.5t-49.5 -19.5zM200 446v-357q0 -42 16 -59.5t51 -22.5v-7h-250v7
q35 5 46.5 21.5t11.5 61.5v225q0 26 -10 41.5t-38 30.5v6l171 55z" />
    <glyph glyph-name="Sacute" unicode="&#x15a;" horiz-adv-x="508" 
d="M446 456h-9q-46 154 -149 173v9q28 0 77 -8t73 -16zM478 185q0 -92 -65 -139.5t-160 -52.5v9q46 4 75 33t29 81q0 45 -32.5 74t-111.5 72q-76 42 -118.5 86.5t-42.5 111.5q0 78 59 124.5t138 52.5v-9q-79 -8 -79 -96q0 -25 8 -43.5t30.5 -37.5t37.5 -28t55 -31
q11 -6 16 -9q36 -20 49.5 -28.5t41 -29.5t39 -37.5t21.5 -43.5t10 -59zM215 -8q-113 9 -163 32l-11 193h9q18 -75 66 -139.5t99 -76.5v-9zM378 736l-212 -57l-4 7l179 131z" />
    <glyph glyph-name="sacute" unicode="&#x15b;" horiz-adv-x="374" 
d="M308 629l-155 -144l-8 5l87 193zM175 446v-7q-16 -3 -30 -19.5t-14 -40.5q0 -17 6 -30t21.5 -25t25.5 -18t35 -20q7 -4 11 -6q29 -17 47.5 -29t38 -29.5t28.5 -37.5t9 -44q0 -68 -45 -106t-117 -42v6q62 11 62 72q0 17 -6.5 30t-26.5 27t-28.5 19t-41.5 22
q-27 14 -43 24.5t-35 28t-28.5 40.5t-9.5 51q0 54 39 90.5t102 43.5zM208 440v7q73 0 116 -19l6 -122h-7q-15 49 -48 88.5t-67 45.5zM157 -2v-6q-28 0 -66.5 8t-57.5 17l-6 136h7q12 -48 49.5 -96t73.5 -59z" />
    <glyph glyph-name="Scircumflex" unicode="&#x15c;" horiz-adv-x="508" 
d="M129 683l130 133h4l131 -133l-5 -5l-126 56h-4l-126 -56zM446 456h-9q-46 154 -149 173v9q28 0 77 -8t73 -16zM478 185q0 -92 -65 -139.5t-160 -52.5v9q46 4 75 33t29 81q0 45 -32.5 74t-111.5 72q-76 42 -118.5 86.5t-42.5 111.5q0 78 59 124.5t138 52.5v-9
q-79 -8 -79 -96q0 -25 8 -43.5t30.5 -37.5t37.5 -28t55 -31q11 -6 16 -9q36 -20 49.5 -28.5t41 -29.5t39 -37.5t21.5 -43.5t10 -59zM215 -8q-113 9 -163 32l-11 193h9q18 -75 66 -139.5t99 -76.5v-9z" />
    <glyph glyph-name="scircumflex" unicode="&#x15d;" horiz-adv-x="374" 
d="M73 491l-6 5l120 180h4l121 -180l-8 -4l-112 87h-6zM175 446v-7q-16 -3 -30 -19.5t-14 -40.5q0 -17 6 -30t21.5 -25t25.5 -18t35 -20q7 -4 11 -6q29 -17 47.5 -29t38 -29.5t28.5 -37.5t9 -44q0 -68 -45 -106t-117 -42v6q62 11 62 72q0 17 -6.5 30t-26.5 27t-28.5 19
t-41.5 22q-27 14 -43 24.5t-35 28t-28.5 40.5t-9.5 51q0 54 39 90.5t102 43.5zM208 440v7q73 0 116 -19l6 -122h-7q-15 49 -48 88.5t-67 45.5zM157 -2v-6q-28 0 -66.5 8t-57.5 17l-6 136h7q12 -48 49.5 -96t73.5 -59z" />
    <glyph glyph-name="Scedilla" unicode="&#x15e;" horiz-adv-x="508" 
d="M446 456h-9q-46 154 -149 173v9q28 0 77 -8t73 -16zM478 185q0 -92 -65 -139.5t-160 -52.5v9q46 4 75 33t29 81q0 45 -32.5 74t-111.5 72q-76 42 -118.5 86.5t-42.5 111.5q0 78 59 124.5t138 52.5v-9q-79 -8 -79 -96q0 -25 8 -43.5t30.5 -37.5t37.5 -28t55 -31
q11 -6 16 -9q36 -20 49.5 -28.5t41 -29.5t39 -37.5t21.5 -43.5t10 -59zM215 -8q-113 9 -163 32l-11 193h9q18 -75 66 -139.5t99 -76.5v-9zM225 -223l3 -5q-25 -18 -65 -18q-21 0 -32.5 10.5t-11.5 25.5q0 28 38 47q22 -61 68 -60zM242 -221l-3 7q6 6 6 13q0 5 -1 8.5t-4 9
t-4.5 8t-8.5 11t-10 12.5q-22 29 -22 47q0 35 72 82l4 -4q-10 -13 -10 -30q0 -18 24 -48q25 -34 25 -50q0 -13 -13 -27q-21 -25 -55 -39z" />
    <glyph glyph-name="scedilla" unicode="&#x15f;" horiz-adv-x="374" 
d="M175 446v-7q-16 -3 -30 -19.5t-14 -40.5q0 -17 6 -30t21.5 -25t25.5 -18t35 -20q7 -4 11 -6q29 -17 47.5 -29t38 -29.5t28.5 -37.5t9 -44q0 -68 -45 -106t-117 -42v6q62 11 62 72q0 17 -6.5 30t-26.5 27t-28.5 19t-41.5 22q-27 14 -43 24.5t-35 28t-28.5 40.5t-9.5 51
q0 54 39 90.5t102 43.5zM208 440v7q73 0 116 -19l6 -122h-7q-15 49 -48 88.5t-67 45.5zM157 -2v-6q-28 0 -66.5 8t-57.5 17l-6 136h7q12 -48 49.5 -96t73.5 -59zM145 -218l3 -6q-28 -18 -63 -18q-20 0 -31.5 10.5t-11.5 24.5q0 29 36 45q8 -23 27 -40t40 -16zM161 -216l-3 6
q7 6 7 14q0 4 -1 8t-2 6.5t-4 7.5t-4.5 7t-7 9.5t-8.5 10.5q-22 29 -22 45q0 34 68 81l4 -4q-11 -15 -11 -30q0 -19 24 -47q25 -34 25 -50q0 -11 -13 -27q-22 -24 -52 -37z" />
    <glyph glyph-name="Scaron" unicode="&#x160;" horiz-adv-x="508" 
d="M134 816l126 -56h4l126 56l5 -5l-131 -133h-4l-130 133zM446 456h-9q-46 154 -149 173v9q28 0 77 -8t73 -16zM478 185q0 -92 -65 -139.5t-160 -52.5v9q46 4 75 33t29 81q0 45 -32.5 74t-111.5 72q-76 42 -118.5 86.5t-42.5 111.5q0 78 59 124.5t138 52.5v-9
q-79 -8 -79 -96q0 -25 8 -43.5t30.5 -37.5t37.5 -28t55 -31q11 -6 16 -9q36 -20 49.5 -28.5t41 -29.5t39 -37.5t21.5 -43.5t10 -59zM215 -8q-113 9 -163 32l-11 193h9q18 -75 66 -139.5t99 -76.5v-9z" />
    <glyph glyph-name="scaron" unicode="&#x161;" horiz-adv-x="374" 
d="M69 671l7 4l112 -94h6l113 95l7 -5l-121 -187h-4zM175 446v-7q-16 -3 -30 -19.5t-14 -40.5q0 -17 6 -30t21.5 -25t25.5 -18t35 -20q7 -4 11 -6q29 -17 47.5 -29t38 -29.5t28.5 -37.5t9 -44q0 -68 -45 -106t-117 -42v6q62 11 62 72q0 17 -6.5 30t-26.5 27t-28.5 19
t-41.5 22q-27 14 -43 24.5t-35 28t-28.5 40.5t-9.5 51q0 54 39 90.5t102 43.5zM208 440v7q73 0 116 -19l6 -122h-7q-15 49 -48 88.5t-67 45.5zM157 -2v-6q-28 0 -66.5 8t-57.5 17l-6 136h7q12 -48 49.5 -96t73.5 -59z" />
    <glyph glyph-name="Tcommaaccent" unicode="&#x162;" horiz-adv-x="668" 
d="M270 -110q0 29 19 45.5t44 16.5q34 0 53.5 -21.5t19.5 -60.5q0 -43 -37.5 -79t-97.5 -52l-3 7q18 8 30 15t27.5 19t23.5 27.5t7 34.5q-12 -6 -31 -6q-23 0 -39 14.5t-16 39.5zM406 630v-506q0 -61 18 -85t66 -31v-8h-311v8q46 7 64.5 30.5t18.5 85.5v506h144zM224 630v-8
q-46 -10 -93 -44q-66 -50 -94 -151h-9l8 203h188zM444 622v8h188l8 -203h-9q-27 104 -93 151q-47 34 -94 44z" />
    <glyph glyph-name="tcommaaccent" unicode="&#x163;" horiz-adv-x="337" 
d="M100 -110q0 29 19 45.5t44 16.5q34 0 53.5 -21.5t19.5 -60.5q0 -43 -37.5 -79t-97.5 -52l-3 7q18 8 30 15t27.5 19t23.5 27.5t7 34.5q-12 -6 -31 -6q-23 0 -39 14.5t-16 39.5zM182 -8q-120 0 -120 119v275h-53v14l168 152l11 -5v-111h142l-10 -50h-132v-238q0 -83 80 -83
q42 0 70 10v-5q-17 -28 -61.5 -53t-94.5 -25z" />
    <glyph glyph-name="Tcaron" unicode="&#x164;" horiz-adv-x="668" 
d="M207 816l126 -56h4l126 56l5 -5l-131 -133h-4l-130 133zM406 630v-506q0 -61 18 -85t66 -31v-8h-311v8q46 7 64.5 30.5t18.5 85.5v506h144zM224 630v-8q-46 -10 -93 -44q-66 -50 -94 -151h-9l8 203h188zM444 622v8h188l8 -203h-9q-27 104 -93 151q-47 34 -94 44z" />
    <glyph glyph-name="tcaron" unicode="&#x165;" horiz-adv-x="337" 
d="M352 698l-101 -194h-10l26 194h85zM182 -8q-120 0 -120 119v275h-53v14l168 152l11 -5v-111h142l-10 -50h-132v-238q0 -83 80 -83q42 0 70 10v-5q-17 -28 -61.5 -53t-94.5 -25z" />
    <glyph glyph-name="Tbar" unicode="&#x166;" horiz-adv-x="668" 
d="M405 630v-506q0 -61 18 -85t66 -31v-8h-311v8q47 7 65.5 30.5t18.5 85.5v506h143zM89 315v29h140v-29h-140zM585 344v-29h-147v29h147zM224 630v-8q-46 -10 -93 -44q-66 -50 -94 -151h-9l8 203h188zM444 622v8h188l8 -203h-9q-27 104 -93 151q-47 34 -94 44z" />
    <glyph glyph-name="tbar" unicode="&#x167;" horiz-adv-x="338" 
d="M330 285h-139v-137q0 -83 80 -83q42 0 70 10v-5q-17 -28 -61.5 -53t-94.5 -25q-119 0 -119 119v174h-54v28h54v73h-54v14l167 152l12 -5v-111h142l-10 -50h-132v-73h139v-28z" />
    <glyph glyph-name="Utilde" unicode="&#x168;" horiz-adv-x="703" 
d="M431 630h280v-8q-62 -6 -93 -47q-15 -19 -26 -68.5t-11 -79.5h-11q0 30 -11.5 78.5t-26.5 67.5q-33 43 -101 49v8zM523 830l9 -3q-16 -51 -44 -82t-65 -31q-22 0 -79.5 2.5t-73.5 2.5q-48 0 -71 -27l-7 4q53 102 117 102q17 0 74.5 -2.5t76.5 -2.5q50 0 63 37zM97 233
v273q0 61 -18 85t-65 31v8h311v-8q-47 -7 -65.5 -30.5t-18.5 -85.5v-294q0 -63 15.5 -100.5t54.5 -60.5q58 -35 148 -30v-7q-9 -6 -40.5 -14t-63.5 -8q-102 0 -161 32q-97 55 -97 209z" />
    <glyph glyph-name="utilde" unicode="&#x169;" horiz-adv-x="537" 
d="M63 126v208q0 45 -10.5 60.5t-50.5 21.5v8l185 19l2 -1v-289q0 -49 15.5 -68.5t55.5 -19.5q35 0 60 16v-4q-46 -84 -134 -84q-123 0 -123 133zM415 654l9 -3q-15 -54 -47 -90.5t-67 -36.5q-22 0 -65 2.5t-59 2.5q-23 0 -38 -6t-31 -28l-6 5q58 109 113 109q18 0 61 -2.5
t62 -2.5q24 0 40 11t28 39zM468 442v-340q0 -33 7 -46.5t24 -18.5l33 -9v-6l-186 -27l-3 1v338q0 45 -11.5 60.5t-51.5 21.5v8l186 19z" />
    <glyph glyph-name="Umacron" unicode="&#x16a;" horiz-adv-x="703" 
d="M431 630h280v-8q-62 -6 -93 -47q-15 -19 -26 -68.5t-11 -79.5h-11q0 30 -11.5 78.5t-26.5 67.5q-33 43 -101 49v8zM505 699h-288v42h288v-42zM97 233v273q0 61 -18 85t-65 31v8h311v-8q-47 -7 -65.5 -30.5t-18.5 -85.5v-294q0 -63 15.5 -100.5t54.5 -60.5q58 -35 148 -30
v-7q-9 -6 -40.5 -14t-63.5 -8q-102 0 -161 32q-97 55 -97 209z" />
    <glyph glyph-name="umacron" unicode="&#x16b;" horiz-adv-x="537" 
d="M63 126v208q0 45 -10.5 60.5t-50.5 21.5v8l185 19l2 -1v-289q0 -49 15.5 -68.5t55.5 -19.5q35 0 60 16v-4q-46 -84 -134 -84q-123 0 -123 133zM393 545h-260v42h260v-42zM468 442v-340q0 -33 7 -46.5t24 -18.5l33 -9v-6l-186 -27l-3 1v338q0 45 -11.5 60.5t-51.5 21.5v8
l186 19z" />
    <glyph glyph-name="Ubreve" unicode="&#x16c;" horiz-adv-x="703" 
d="M431 630h280v-8q-62 -6 -93 -47q-15 -19 -26 -68.5t-11 -79.5h-11q0 30 -11.5 78.5t-26.5 67.5q-33 43 -101 49v8zM364 752q100 0 113 70h11q0 -79 -40 -114q-32 -29 -84 -29q-53 0 -84 28q-40 37 -39 115h11q12 -70 112 -70zM97 233v273q0 61 -18 85t-65 31v8h311v-8
q-47 -7 -65.5 -30.5t-18.5 -85.5v-294q0 -63 15.5 -100.5t54.5 -60.5q58 -35 148 -30v-7q-9 -6 -40.5 -14t-63.5 -8q-102 0 -161 32q-97 55 -97 209z" />
    <glyph glyph-name="ubreve" unicode="&#x16d;" horiz-adv-x="537" 
d="M63 126v208q0 45 -10.5 60.5t-50.5 21.5v8l185 19l2 -1v-289q0 -49 15.5 -68.5t55.5 -19.5q35 0 60 16v-4q-46 -84 -134 -84q-123 0 -123 133zM264 567q45 0 71.5 22t32.5 53h11q-3 -88 -52 -124q-23 -19 -63 -19q-35 0 -60 17q-50 35 -55 126h11q7 -31 33 -53t71 -22z
M468 442v-340q0 -33 7 -46.5t24 -18.5l33 -9v-6l-186 -27l-3 1v338q0 45 -11.5 60.5t-51.5 21.5v8l186 19z" />
    <glyph glyph-name="Uring" unicode="&#x16e;" horiz-adv-x="703" 
d="M431 630h280v-8q-62 -6 -93 -47q-15 -19 -26 -68.5t-11 -79.5h-11q0 30 -11.5 78.5t-26.5 67.5q-33 43 -101 49v8zM283 752q0 34 21.5 53t50.5 22v-20q-17 0 -33 -13.5t-16 -41.5t16 -41.5t33 -13.5v-20q-29 3 -50.5 22t-21.5 53zM448 752q0 -33 -21.5 -53t-50.5 -22v20
q16 0 32.5 13.5t16.5 41.5t-16.5 41.5t-32.5 13.5v20q29 -3 50.5 -22t21.5 -53zM97 233v273q0 61 -18 85t-65 31v8h311v-8q-47 -7 -65.5 -30.5t-18.5 -85.5v-294q0 -63 15.5 -100.5t54.5 -60.5q58 -35 148 -30v-7q-9 -6 -40.5 -14t-63.5 -8q-102 0 -161 32q-97 55 -97 209z
" />
    <glyph glyph-name="uring" unicode="&#x16f;" horiz-adv-x="537" 
d="M63 126v208q0 45 -10.5 60.5t-50.5 21.5v8l185 19l2 -1v-289q0 -49 15.5 -68.5t55.5 -19.5q35 0 60 16v-4q-46 -84 -134 -84q-123 0 -123 133zM174 579q0 35 21.5 57.5t53.5 25.5v-19q-23 -2 -38 -18t-15 -46t15 -46.5t38 -18.5v-18q-33 2 -54 24.5t-21 58.5zM347 579
q0 -35 -22 -58t-54 -25v18q23 2 38.5 18.5t15.5 46.5t-15.5 46t-38.5 18v19q33 -3 54.5 -25t21.5 -58zM468 442v-340q0 -33 7 -46.5t24 -18.5l33 -9v-6l-186 -27l-3 1v338q0 45 -11.5 60.5t-51.5 21.5v8l186 19z" />
    <glyph glyph-name="Uhungarumlaut" unicode="&#x170;" horiz-adv-x="703" 
d="M425 802l-126 -128l-7 5l70 163zM550 802l-126 -128l-7 5l70 163zM431 630h280v-8q-62 -6 -93 -47q-15 -19 -26 -68.5t-11 -79.5h-11q0 30 -11.5 78.5t-26.5 67.5q-33 43 -101 49v8zM97 233v273q0 61 -18 85t-65 31v8h311v-8q-47 -7 -65.5 -30.5t-18.5 -85.5v-294
q0 -63 15.5 -100.5t54.5 -60.5q58 -35 148 -30v-7q-9 -6 -40.5 -14t-63.5 -8q-102 0 -161 32q-97 55 -97 209z" />
    <glyph glyph-name="uhungarumlaut" unicode="&#x171;" horiz-adv-x="537" 
d="M63 126v208q0 45 -10.5 60.5t-50.5 21.5v8l185 19l2 -1v-289q0 -49 15.5 -68.5t55.5 -19.5q35 0 60 16v-4q-46 -84 -134 -84q-123 0 -123 133zM327 638l-146 -156l-7 5l92 193zM445 638l-145 -156l-7 5l91 193zM468 442v-340q0 -33 7 -46.5t24 -18.5l33 -9v-6l-186 -27
l-3 1v338q0 45 -11.5 60.5t-51.5 21.5v8l186 19z" />
    <glyph glyph-name="Uogonek" unicode="&#x172;" horiz-adv-x="703" 
d="M482 -151l8 -5q-46 -85 -118 -85q-43 0 -68 23.5t-25 60.5q0 21 10.5 41t31 37.5t37.5 29t41 25.5h12q-46 -48 -46 -102q0 -24 15.5 -39.5t43.5 -15.5q35 0 58 30zM431 630h280v-8q-62 -6 -93 -47q-15 -19 -26 -68.5t-11 -79.5h-11q0 30 -11.5 78.5t-26.5 67.5
q-33 43 -101 49v8zM97 233v273q0 61 -18 85t-65 31v8h311v-8q-47 -7 -65.5 -30.5t-18.5 -85.5v-294q0 -63 15.5 -100.5t54.5 -60.5q58 -35 148 -30v-7q-9 -6 -40.5 -14t-63.5 -8q-102 0 -161 32q-97 55 -97 209z" />
    <glyph glyph-name="uogonek" unicode="&#x173;" horiz-adv-x="537" 
d="M63 126v208q0 45 -10.5 60.5t-50.5 21.5v8l185 19l2 -1v-289q0 -49 15.5 -68.5t55.5 -19.5q35 0 60 16v-4q-46 -84 -134 -84q-123 0 -123 133zM439 -144l8 -5q-46 -85 -118 -85q-43 0 -68 23.5t-25 60.5q0 21 10.5 41t31 37.5t37.5 29t41 25.5h12q-46 -48 -46 -102
q0 -23 16 -39t43 -16q35 0 58 30zM468 442v-340q0 -33 7 -46.5t24 -18.5l33 -9v-6l-186 -27l-3 1v338q0 45 -11.5 60.5t-51.5 21.5v8l186 19z" />
    <glyph glyph-name="Wcircumflex" unicode="&#x174;" horiz-adv-x="968" 
d="M376 683l130 133h4l131 -133l-5 -5l-126 56h-4l-126 -56zM269 492l98 -325l-66 -172h-25l-171 507q-21 62 -47 88.5t-66 31.5v8h316v-8q-58 -5 -58 -52q0 -16 19 -78zM621 492l98 -325l-65 -172h-26l-175 519q-19 57 -40 80.5t-58 27.5v8h310v-8q-61 -5 -61 -53
q0 -23 17 -77zM752 630h240v-8q-59 -10 -101 -52q-38 -40 -73 -123l-8 4q17 61 17 107q0 57 -75 64v8z" />
    <glyph glyph-name="wcircumflex" unicode="&#x175;" horiz-adv-x="665" 
d="M245 491l-6 5l120 180h4l121 -180l-8 -4l-112 87h-6zM-23 436h241v-8q-42 -4 -42 -36q0 -16 12 -46l74 -200l-60 -149h-9l-136 351q-17 41 -34 58.5t-46 21.5v8zM519 436h181v-8q-35 -6 -70.5 -41.5t-58.5 -86.5l-8 5q15 35 15 71q0 46 -59 52v8zM245 436h237v-8
q-47 -6 -47 -41q0 -16 14 -56l69 -185l-60 -149h-9l-140 361q-15 41 -26 53.5t-38 16.5v8z" />
    <glyph glyph-name="Ycircumflex" unicode="&#x176;" horiz-adv-x="611" 
d="M636 622q-49 -7 -99.5 -48t-91.5 -105l-7 6q32 52 32 85q0 31 -17.5 45.5t-53.5 16.5v8h237v-8zM230 124v169l-140 250q-38 68 -108 79v8h330v-8q-32 -1 -52 -15.5t-20 -33.5q0 -17 27 -66l106 -192v-191q0 -62 18.5 -85.5t65.5 -30.5v-8h-311v8q48 7 66 31t18 85z
M210 683l130 133h4l131 -133l-5 -5l-126 56h-4l-126 -56z" />
    <glyph glyph-name="ycircumflex" unicode="&#x177;" horiz-adv-x="435" 
d="M281 436h191v-8q-84 -12 -137 -131l-8 5q15 35 15 69q0 51 -61 57v8zM-23 436h253v-8q-49 -6 -49 -40q0 -15 16 -56l76 -191l-60 -148h-6l-149 355q-17 42 -34 59t-47 21v8zM174 -136q-40 -102 -114 -102q-25 0 -43.5 16t-18.5 43t17 43t40 16q51 0 65 -62q11 7 26 23
t21 26zM129 491l-6 5l120 180h4l121 -180l-8 -4l-112 87h-6z" />
    <glyph glyph-name="Ydieresis" unicode="&#x178;" horiz-adv-x="611" 
d="M636 622q-49 -7 -99.5 -48t-91.5 -105l-7 6q32 52 32 85q0 31 -17.5 45.5t-53.5 16.5v8h237v-8zM230 124v169l-140 250q-38 68 -108 79v8h330v-8q-32 -1 -52 -15.5t-20 -33.5q0 -17 27 -66l106 -192v-191q0 -62 18.5 -85.5t65.5 -30.5v-8h-311v8q48 7 66 31t18 85z
M227 814q26 0 43.5 -18t17.5 -44t-18 -44.5t-43 -18.5q-26 0 -44.5 18.5t-18.5 44.5t18.5 44t44.5 18zM448 814q26 0 44 -18t18 -44t-18.5 -44.5t-43.5 -18.5t-43 18.5t-18 44.5t17.5 44t43.5 18z" />
    <glyph glyph-name="Zacute" unicode="&#x179;" horiz-adv-x="601" 
d="M436 736l-212 -57l-4 7l179 131zM325 623q-221 -21 -279 -214h-9q5 51 12.5 135t7.5 86h268v-7zM575 630l-401 -630h-163l400 630h164zM553 0h-279v8q115 10 187.5 63t113.5 154h8q-7 -49 -16.5 -122.5t-13.5 -102.5z" />
    <glyph glyph-name="zacute" unicode="&#x17a;" horiz-adv-x="446" 
d="M355 629l-155 -144l-8 5l87 193zM29 276l13 160h169v-8q-63 -12 -105 -47.5t-69 -104.5h-8zM430 436l-281 -436h-140l280 436h141zM409 0h-181v8q62 8 116 56.5t78 116.5h8z" />
    <glyph glyph-name="Zdotaccent" unicode="&#x17b;" horiz-adv-x="601" 
d="M325 623q-221 -21 -279 -214h-9q5 51 12.5 135t7.5 86h268v-7zM575 630l-401 -630h-163l400 630h164zM553 0h-279v8q115 10 187.5 63t113.5 154h8q-7 -49 -16.5 -122.5t-13.5 -102.5zM240 756q0 28 20 47t48 19q29 0 48.5 -19t19.5 -47t-19.5 -47t-48.5 -19q-28 0 -48 19
t-20 47z" />
    <glyph glyph-name="zdotaccent" unicode="&#x17c;" horiz-adv-x="446" 
d="M29 276l13 160h169v-8q-63 -12 -105 -47.5t-69 -104.5h-8zM430 436l-281 -436h-140l280 436h141zM409 0h-181v8q62 8 116 56.5t78 116.5h8zM162 591q0 28 19.5 47t47.5 19q29 0 49 -19t20 -47t-20 -47t-49 -19q-28 0 -47.5 19t-19.5 47z" />
    <glyph glyph-name="Zcaron" unicode="&#x17d;" horiz-adv-x="601" 
d="M181 816l126 -56h4l126 56l5 -5l-131 -133h-4l-130 133zM325 623q-221 -21 -279 -214h-9q5 51 12.5 135t7.5 86h268v-7zM575 630l-401 -630h-163l400 630h164zM553 0h-279v8q115 10 187.5 63t113.5 154h8q-7 -49 -16.5 -122.5t-13.5 -102.5z" />
    <glyph glyph-name="zcaron" unicode="&#x17e;" horiz-adv-x="446" 
d="M114 671l7 4l112 -94h6l113 95l7 -5l-121 -187h-4zM29 276l13 160h169v-8q-63 -12 -105 -47.5t-69 -104.5h-8zM430 436l-281 -436h-140l280 436h141zM409 0h-181v8q62 8 116 56.5t78 116.5h8z" />
    <glyph glyph-name="longs" unicode="&#x17f;" horiz-adv-x="286" 
d="M332 685q24 0 41 -17t17 -41q0 -25 -17 -42.5t-41 -17.5t-41.5 17.5t-17.5 42.5q0 24 17.5 41t41.5 17zM269 7v-7h-250v7q35 5 46 21t11 62v297h-62v8l63 48v62q0 86 59 138.5t155 60.5v-6q-89 -13 -89 -134v-474q0 -44 16 -62t51 -21z" />
    <glyph glyph-name="florin" unicode="&#x192;" horiz-adv-x="376" 
d="M130 338q18 82 75.5 139.5t138.5 66.5l-1 -6q-41 -11 -59.5 -55t-35.5 -144h98l-15 -49h-91q-5 -26 -54 -258q-15 -72 -65 -125.5t-127 -61.5l1 6q34 9 51 38t31 106q11 63 22.5 148t22.5 147h-62l3 8zM318 473q0 21 15.5 36.5t36.5 15.5t36 -15.5t15 -36.5t-15 -36
t-36 -15t-36.5 15t-15.5 36zM-77 -88q0 19 13.5 32t32.5 13t32.5 -13t13.5 -32t-13.5 -33t-32.5 -14t-32.5 14t-13.5 33z" />
    <glyph glyph-name="Aringacute" unicode="&#x1fa;" horiz-adv-x="610" 
d="M356 144l-35 93h-181l11 30h158l-79 213l62 157h30l199 -513q43 -105 115 -116v-8h-327v8q35 2 52 14.5t17 40.5q0 25 -22 81zM195 0h-233v8q51 8 87 46q34 35 62 104l8 -4q-8 -36 -8 -66q0 -74 84 -80v-8zM411 904l-212 -57l-4 7l179 131zM220 752q0 34 21.5 53t50.5 22
v-20q-17 0 -33 -13.5t-16 -41.5t16 -41.5t33 -13.5v-20q-29 3 -50.5 22t-21.5 53zM385 752q0 -33 -21.5 -53t-50.5 -22v20q16 0 32.5 13.5t16.5 41.5t-16.5 41.5t-32.5 13.5v20q29 -3 50.5 -22t21.5 -53z" />
    <glyph glyph-name="aringacute" unicode="&#x1fb;" horiz-adv-x="452" 
d="M119 400v3q24 17 61 30.5t67 13.5q135 0 135 -128v-225q0 -44 38 -44q17 0 29 7v-5q-10 -24 -36 -42t-65 -18q-44 0 -67.5 26t-23.5 76v219q0 87 -138 87zM203 52q23 0 37 9v-4q-8 -22 -38 -43.5t-69 -21.5q-51 0 -79.5 30t-28.5 75q0 34 14 58.5t27 29.5q46 19 165 47
v-7q-52 -19 -67 -38q-16 -24 -16 -59q0 -76 55 -76zM54 327q0 22 15.5 37.5t37.5 15.5t37.5 -15.5t15.5 -37.5t-15.5 -38t-37.5 -16t-37.5 15.5t-15.5 38.5zM155 575q0 35 21.5 57.5t53.5 25.5v-19q-23 -2 -38 -18t-15 -46t15 -46.5t38 -18.5v-18q-33 2 -54 24.5t-21 58.5z
M328 575q0 -35 -22 -58t-54 -25v18q23 2 38.5 18.5t15.5 46.5t-15.5 46t-38.5 18v19q33 -3 54.5 -25t21.5 -58zM353 736l-212 -57l-4 7l179 131z" />
    <glyph glyph-name="AEacute" unicode="&#x1fc;" horiz-adv-x="875" 
d="M701 736l-212 -57l-4 7l179 131zM198 0h-231v8q47 9 89 51q41 42 70 106l8 -4q-14 -63 -14 -75q0 -34 24.5 -54t53.5 -24v-8zM298 0v8q48 7 66 31t18 85v178h-189l17 30h172v174q0 59 -24 84t-75 32v8h242v-630h-227zM581 0v8q71 8 136 51q43 29 68 68.5t44 102.5h8
l-9 -230h-247zM819 428h-8q-28 100 -106 150q-51 33 -127 44v8h235zM716 183q-16 67 -44.5 95t-90.5 36v8q61 7 90 34.5t45 95.5h8v-269h-8z" />
    <glyph glyph-name="aeacute" unicode="&#x1fd;" horiz-adv-x="644" 
d="M479 629l-155 -144l-8 5l87 193zM259 173v144q0 42 -36 64.5t-102 22.5v3q20 18 55 29t67 11q85 0 111 -60q12 12 26 19q4 3 8 4.5t9 2.5t8 2q-6 -6 -12.5 -28.5t-7.5 -50.5q-2 -12 -2 -110q5 -70 37 -105.5t85 -35.5q80 0 129 68l6 -4q-12 -28 -23.5 -47.5t-34.5 -48.5
t-57.5 -45t-76.5 -16q-49 0 -86.5 17t-58.5 44.5t-32 57.5t-12 62zM252 66v-4q-11 -24 -42 -47t-69 -23q-52 0 -81.5 29.5t-29.5 73.5q0 35 14 61.5t27 32.5q24 8 162 45v-7q-53 -21 -66 -39q-15 -20 -15 -60q0 -72 62 -72q24 0 38 10zM630 311l-218 -51v7l103 41
q0 46 -24 78.5t-52 35.5q-2 0 -7.5 -0.5t-7.5 -0.5v7q36 19 68 19q59 0 98 -41t40 -95zM88 366q14 8 29 4t23 -18t4 -29.5t-18 -23.5t-29 -4t-23 18t-4 29.5t18 23.5z" />
    <glyph glyph-name="Oslashacute" unicode="&#x1fe;" horiz-adv-x="762" 
d="M385 630v8q88 -3 156 -34l48 83l22 -13l-48 -80q79 -41 121 -115.5t42 -166.5q0 -71 -27.5 -130.5t-72.5 -98t-99 -62t-111 -28.5v8q37 8 56 22q97 61 97 277q0 143 -42 227l-272 -458q24 -33 60 -51q32 -15 62 -18v-8q-87 3 -147 29l-52 -87l-21 13l50 84
q-82 42 -126.5 117.5t-44.5 169.5q0 71 27.5 130.5t72.5 98t99 62t111 28.5v-8q-37 -8 -57 -22q-96 -60 -96 -277q0 -155 47 -238l273 460q-27 39 -66 60q-32 15 -62 18zM490 736l-212 -57l-4 7l179 131z" />
    <glyph glyph-name="oslashacute" unicode="&#x1ff;" horiz-adv-x="524" 
d="M154 213q0 -93 18 -141l164 326q-13 20 -32 31q-14 8 -35 10v8q43 -1 81 -15l35 72l22 -10l-34 -70q60 -27 95 -80t35 -122q0 -97 -64 -157.5t-155 -71.5v7q29 5 50 36q35 47 35 190q0 93 -19 145l-165 -326q13 -22 35 -33q18 -10 35 -12v-8q-44 1 -88 16l-35 -72l-21 11
l34 70q-58 28 -91.5 79.5t-33.5 119.5q0 97 65 159t154 71v-7q-30 -5 -50 -34q-35 -49 -35 -192zM373 629l-155 -144l-8 5l87 193z" />
    <glyph glyph-name="Scommaaccent" unicode="&#x218;" horiz-adv-x="508" 
d="M446 456h-9q-46 154 -149 173v9q28 0 77 -8t73 -16zM478 185q0 -92 -65 -139.5t-160 -52.5v9q46 4 75 33t29 81q0 45 -32.5 74t-111.5 72q-76 42 -118.5 86.5t-42.5 111.5q0 78 59 124.5t138 52.5v-9q-79 -8 -79 -96q0 -25 8 -43.5t30.5 -37.5t37.5 -28t55 -31
q11 -6 16 -9q36 -20 49.5 -28.5t41 -29.5t39 -37.5t21.5 -43.5t10 -59zM215 -8q-113 9 -163 32l-11 193h9q18 -75 66 -139.5t99 -76.5v-9zM178 -110q0 29 19 45.5t44 16.5q34 0 53.5 -21.5t19.5 -60.5q0 -43 -37.5 -79t-97.5 -52l-3 7q18 8 30 15t27.5 19t23.5 27.5t7 34.5
q-12 -6 -31 -6q-23 0 -39 14.5t-16 39.5z" />
    <glyph glyph-name="scommaaccent" unicode="&#x219;" horiz-adv-x="374" 
d="M175 446v-7q-16 -3 -30 -19.5t-14 -40.5q0 -17 6 -30t21.5 -25t25.5 -18t35 -20q7 -4 11 -6q29 -17 47.5 -29t38 -29.5t28.5 -37.5t9 -44q0 -68 -45 -106t-117 -42v6q62 11 62 72q0 17 -6.5 30t-26.5 27t-28.5 19t-41.5 22q-27 14 -43 24.5t-35 28t-28.5 40.5t-9.5 51
q0 54 39 90.5t102 43.5zM208 440v7q73 0 116 -19l6 -122h-7q-15 49 -48 88.5t-67 45.5zM157 -2v-6q-28 0 -66.5 8t-57.5 17l-6 136h7q12 -48 49.5 -96t73.5 -59zM121 -110q0 29 19 45.5t44 16.5q34 0 53.5 -21.5t19.5 -60.5q0 -43 -37.5 -79t-97.5 -52l-3 7q18 8 30 15
t27.5 19t23.5 27.5t7 34.5q-12 -6 -31 -6q-23 0 -39 14.5t-16 39.5z" />
    <glyph glyph-name="uni0237" unicode="&#x237;" horiz-adv-x="249" 
d="M63 51v260q0 41 -26 62q-12 9 -25 15v5l178 55l2 -2q-3 -123 -3 -139v-235q0 -104 -35.5 -158.5t-104.5 -94.5q-41 -25 -90 -41l-2 7q29 17 44 33q39 42 49.5 87t12.5 146z" />
    <glyph glyph-name="circumflex" unicode="&#x2c6;" horiz-adv-x="328" 
d="M48 491l-6 5l120 180h4l121 -180l-8 -4l-112 87h-6z" />
    <glyph glyph-name="caron" unicode="&#x2c7;" horiz-adv-x="328" 
d="M42 671l7 4l112 -94h6l113 95l7 -5l-121 -187h-4z" />
    <glyph glyph-name="breve" unicode="&#x2d8;" horiz-adv-x="394" 
d="M197 567q45 0 71.5 22t32.5 53h11q-3 -88 -52 -124q-23 -19 -63 -19q-35 0 -60 17q-50 35 -55 126h11q7 -31 33 -53t71 -22z" />
    <glyph glyph-name="dotaccent" unicode="&#x2d9;" horiz-adv-x="222" 
d="M43 591q0 28 19.5 47t47.5 19q29 0 49 -19t20 -47t-20 -47t-49 -19q-28 0 -47.5 19t-19.5 47z" />
    <glyph glyph-name="ring" unicode="&#x2da;" horiz-adv-x="373" 
d="M95 579q0 35 21.5 57.5t53.5 25.5v-19q-23 -2 -38 -18t-15 -46t15 -46.5t38 -18.5v-18q-33 2 -54 24.5t-21 58.5zM268 579q0 -35 -22 -58t-54 -25v18q23 2 38.5 18.5t15.5 46.5t-15.5 46t-38.5 18v19q33 -3 54.5 -25t21.5 -58z" />
    <glyph glyph-name="ogonek" unicode="&#x2db;" horiz-adv-x="268" 
d="M252 -144l8 -5q-46 -85 -118 -85q-43 0 -68 23.5t-25 60.5q0 21 10.5 41t31 37.5t37.5 29t41 25.5h12q-46 -48 -46 -102q0 -23 15.5 -39t43.5 -16q35 0 58 30z" />
    <glyph glyph-name="tilde" unicode="&#x2dc;" horiz-adv-x="385" 
d="M351 654l9 -3q-15 -54 -47 -90.5t-67 -36.5q-22 0 -65 2.5t-59 2.5q-23 0 -38 -6t-31 -28l-6 5q58 109 113 109q18 0 61 -2.5t62 -2.5q24 0 40 11t28 39z" />
    <glyph glyph-name="hungarumlaut" unicode="&#x2dd;" horiz-adv-x="394" 
d="M204 638l-146 -156l-7 5l92 193zM322 638l-145 -156l-7 5l91 193z" />
    <glyph glyph-name="Wgrave" unicode="&#x1e80;" horiz-adv-x="968" 
d="M613 679l-212 57l37 81l179 -131zM269 492l98 -325l-66 -172h-25l-171 507q-21 62 -47 88.5t-66 31.5v8h316v-8q-58 -5 -58 -52q0 -16 19 -78zM621 492l98 -325l-65 -172h-26l-175 519q-19 57 -40 80.5t-58 27.5v8h310v-8q-61 -5 -61 -53q0 -23 17 -77zM752 630h240v-8
q-59 -10 -101 -52q-38 -40 -73 -123l-8 4q17 61 17 107q0 57 -75 64v8z" />
    <glyph glyph-name="wgrave" unicode="&#x1e81;" horiz-adv-x="665" 
d="M-23 436h241v-8q-42 -4 -42 -36q0 -16 12 -46l74 -200l-60 -149h-9l-136 351q-17 41 -34 58.5t-46 21.5v8zM519 436h181v-8q-35 -6 -70.5 -41.5t-58.5 -86.5l-8 5q15 35 15 71q0 46 -59 52v8zM245 436h237v-8q-47 -6 -47 -41q0 -16 14 -56l69 -185l-60 -149h-9l-140 361
q-15 41 -26 53.5t-38 16.5v8zM408 485l-155 144l76 54l87 -193z" />
    <glyph glyph-name="Wacute" unicode="&#x1e82;" horiz-adv-x="968" 
d="M612 736l-212 -57l-4 7l179 131zM269 492l98 -325l-66 -172h-25l-171 507q-21 62 -47 88.5t-66 31.5v8h316v-8q-58 -5 -58 -52q0 -16 19 -78zM621 492l98 -325l-65 -172h-26l-175 519q-19 57 -40 80.5t-58 27.5v8h310v-8q-61 -5 -61 -53q0 -23 17 -77zM752 630h240v-8
q-59 -10 -101 -52q-38 -40 -73 -123l-8 4q17 61 17 107q0 57 -75 64v8z" />
    <glyph glyph-name="wacute" unicode="&#x1e83;" horiz-adv-x="665" 
d="M473 629l-155 -144l-8 5l87 193zM-23 436h241v-8q-42 -4 -42 -36q0 -16 12 -46l74 -200l-60 -149h-9l-136 351q-17 41 -34 58.5t-46 21.5v8zM519 436h181v-8q-35 -6 -70.5 -41.5t-58.5 -86.5l-8 5q15 35 15 71q0 46 -59 52v8zM245 436h237v-8q-47 -6 -47 -41
q0 -16 14 -56l69 -185l-60 -149h-9l-140 361q-15 41 -26 53.5t-38 16.5v8z" />
    <glyph glyph-name="Wdieresis" unicode="&#x1e84;" horiz-adv-x="968" 
d="M384 814q26 0 43.5 -18t17.5 -44t-18 -44.5t-43 -18.5q-26 0 -44.5 18.5t-18.5 44.5t18.5 44t44.5 18zM605 814q26 0 44 -18t18 -44t-18.5 -44.5t-43.5 -18.5t-43 18.5t-18 44.5t17.5 44t43.5 18zM269 492l98 -325l-66 -172h-25l-171 507q-21 62 -47 88.5t-66 31.5v8h316
v-8q-58 -5 -58 -52q0 -16 19 -78zM621 492l98 -325l-65 -172h-26l-175 519q-19 57 -40 80.5t-58 27.5v8h310v-8q-61 -5 -61 -53q0 -23 17 -77zM752 630h240v-8q-59 -10 -101 -52q-38 -40 -73 -123l-8 4q17 61 17 107q0 57 -75 64v8z" />
    <glyph glyph-name="wdieresis" unicode="&#x1e85;" horiz-adv-x="665" 
d="M255 639q23 0 39.5 -17t16.5 -40t-16.5 -40t-39.5 -17t-39.5 17t-16.5 40t16.5 40t39.5 17zM442 639q23 0 39.5 -17t16.5 -40t-16.5 -40t-39.5 -17t-39.5 17t-16.5 40t16.5 40t39.5 17zM-23 436h241v-8q-42 -4 -42 -36q0 -16 12 -46l74 -200l-60 -149h-9l-136 351
q-17 41 -34 58.5t-46 21.5v8zM519 436h181v-8q-35 -6 -70.5 -41.5t-58.5 -86.5l-8 5q15 35 15 71q0 46 -59 52v8zM245 436h237v-8q-47 -6 -47 -41q0 -16 14 -56l69 -185l-60 -149h-9l-140 361q-15 41 -26 53.5t-38 16.5v8z" />
    <glyph glyph-name="Ygrave" unicode="&#x1ef2;" horiz-adv-x="611" 
d="M636 622q-49 -7 -99.5 -48t-91.5 -105l-7 6q32 52 32 85q0 31 -17.5 45.5t-53.5 16.5v8h237v-8zM230 124v169l-140 250q-38 68 -108 79v8h330v-8q-32 -1 -52 -15.5t-20 -33.5q0 -17 27 -66l106 -192v-191q0 -62 18.5 -85.5t65.5 -30.5v-8h-311v8q48 7 66 31t18 85z
M433 679l-212 57l37 81l179 -131z" />
    <glyph glyph-name="ygrave" unicode="&#x1ef3;" horiz-adv-x="435" 
d="M281 436h191v-8q-84 -12 -137 -131l-8 5q15 35 15 69q0 51 -61 57v8zM-23 436h253v-8q-49 -6 -49 -40q0 -15 16 -56l76 -191l-60 -148h-6l-149 355q-17 42 -34 59t-47 21v8zM174 -136q-40 -102 -114 -102q-25 0 -43.5 16t-18.5 43t17 43t40 16q51 0 65 -62q11 7 26 23
t21 26zM276 485l-155 144l76 54l87 -193z" />
    <glyph glyph-name="uni2009" unicode="&#x2009;" horiz-adv-x="44" 
 />
    <glyph glyph-name="endash" unicode="&#x2013;" horiz-adv-x="466" 
d="M33 280h400v-35h-400v35z" />
    <glyph glyph-name="emdash" unicode="&#x2014;" horiz-adv-x="726" 
d="M33 280h660v-35h-660v35z" />
    <glyph glyph-name="quoteleft" unicode="&#x2018;" horiz-adv-x="201" 
d="M180 467q0 -30 -21 -48.5t-49 -18.5q-79 0 -79 89q0 46 43 89.5t102 59.5l3 -7q-87 -41 -91 -108q14 7 31 7q26 0 43.5 -17.5t17.5 -45.5z" />
    <glyph glyph-name="quoteright" unicode="&#x2019;" horiz-adv-x="201" 
d="M21 572q0 30 20.5 48t49.5 18q79 0 79 -88q0 -47 -43 -90.5t-102 -59.5l-3 7q41 20 64 44t26 65q-14 -6 -29 -6q-26 0 -44 17t-18 45z" />
    <glyph glyph-name="quotesinglbase" unicode="&#x201a;" horiz-adv-x="208" 
d="M21 56q0 30 20.5 48t49.5 18q79 0 79 -88q0 -47 -43 -90.5t-102 -59.5l-3 7q41 20 64 44t26 65q-14 -6 -29 -6q-26 0 -44 17t-18 45z" />
    <glyph glyph-name="quotedblleft" unicode="&#x201c;" horiz-adv-x="372" 
d="M180 467q0 -30 -21 -48.5t-49 -18.5q-79 0 -79 89q0 46 43 89.5t102 59.5l3 -7q-87 -41 -91 -108q14 7 31 7q26 0 43.5 -17.5t17.5 -45.5zM352 467q0 -30 -21 -48.5t-50 -18.5q-78 0 -78 89q0 46 43 89.5t101 59.5l3 -7q-21 -11 -31.5 -17.5t-26 -19.5t-23.5 -30.5
t-10 -40.5q14 7 31 7q26 0 44 -17.5t18 -45.5z" />
    <glyph glyph-name="quotedblright" unicode="&#x201d;" horiz-adv-x="372" 
d="M21 572q0 30 20.5 48t49.5 18q79 0 79 -88q0 -47 -43 -90.5t-102 -59.5l-3 7q41 20 64 44t26 65q-14 -6 -29 -6q-26 0 -44 17t-18 45zM192 572q0 30 21 48t50 18q78 0 78 -88q0 -47 -43 -90.5t-101 -59.5l-3 7q42 22 64 45t26 64q-14 -6 -30 -6q-26 0 -44 17t-18 45z" />
    <glyph glyph-name="quotedblbase" unicode="&#x201e;" horiz-adv-x="379" 
d="M21 56q0 30 20.5 48t49.5 18q79 0 79 -88q0 -47 -43 -90.5t-102 -59.5l-3 7q41 20 64 44t26 65q-14 -6 -29 -6q-26 0 -44 17t-18 45zM192 56q0 30 21 48t50 18q78 0 78 -88q0 -47 -43 -90.5t-101 -59.5l-3 7q42 22 64 45t26 64q-14 -6 -30 -6q-26 0 -44 17t-18 45z" />
    <glyph glyph-name="dagger" unicode="&#x2020;" horiz-adv-x="434" 
d="M235 506l12 -537h-54l13 537l-13 202h54zM415 476l-150 13v26l150 12v-51zM175 489l-156 -13v51l156 -12v-26z" />
    <glyph glyph-name="daggerdbl" unicode="&#x2021;" horiz-adv-x="455" 
d="M260 708l-12 -202v-332l12 -205h-57l12 205v332l-12 202h57zM426 476l-148 13v26l148 12v-51zM278 188l148 13v-51l-148 12v26zM29 201l156 -13v-26l-156 -12v51zM185 489l-156 -13v51l156 -12v-26z" />
    <glyph glyph-name="bullet" unicode="&#x2022;" horiz-adv-x="250" 
d="M33 278q0 38 27 65t65 27t65 -27t27 -65t-27 -65t-65 -27t-65 27t-27 65z" />
    <glyph glyph-name="ellipsis" unicode="&#x2026;" horiz-adv-x="824" 
d="M64 61q0 29 20.5 49t49.5 20t49 -20t20 -49t-20 -49t-49 -20t-49.5 20t-20.5 49zM342 61q0 29 20.5 49t49.5 20t49 -20t20 -49t-20 -49t-49 -20t-49.5 20t-20.5 49zM621 61q0 29 20.5 49t49.5 20t49 -20t20 -49t-20 -49t-49 -20t-49.5 20t-20.5 49z" />
    <glyph glyph-name="perthousand" unicode="&#x2030;" horiz-adv-x="969" 
d="M328 136q0 55 38 97t95 47v-10q-25 -6 -36.5 -45t-11.5 -89t11.5 -89t36.5 -45v-10q-57 5 -95 46.5t-38 97.5zM616 136q0 -56 -37.5 -97.5t-94.5 -46.5v10q25 6 36.5 45t11.5 89t-11.5 89t-36.5 45v10q56 -5 94 -47t38 -97zM312 456q0 -55 -38 -97t-95 -47v10
q25 6 36.5 45t11.5 89t-11.5 89t-36.5 45v10q57 -5 95 -46.5t38 -97.5zM110 10l397 590l23 -18l-397 -590zM24 456q0 56 37.5 97.5t94.5 46.5v-10q-25 -6 -36.5 -45t-11.5 -89t11.5 -89t36.5 -45v-10q-56 5 -94 47t-38 97zM658 136q0 55 38 97t94 47v-10q-25 -6 -36.5 -45
t-11.5 -89t11.5 -89t36.5 -45v-10q-56 5 -94 46.5t-38 97.5zM946 136q0 -56 -38 -97.5t-95 -46.5v10q25 5 37 44.5t12 89.5t-12 89.5t-37 44.5v10q57 -5 95 -47t38 -97z" />
    <glyph glyph-name="guilsinglleft" unicode="&#x2039;" horiz-adv-x="186" 
d="M29 229l130 135l10 -5l-68 -135l68 -136l-10 -5l-130 136v10z" />
    <glyph glyph-name="guilsinglright" unicode="&#x203a;" horiz-adv-x="186" 
d="M28 364l129 -135v-10l-129 -136l-10 5l67 136l-67 135z" />
    <glyph glyph-name="fraction" unicode="&#x2044;" horiz-adv-x="103" 
d="M-152 -8l-17 12l424 634l18 -12z" />
    <glyph glyph-name="Euro" unicode="&#x20ac;" horiz-adv-x="603" 
d="M20 334h68q19 94 96.5 151t165.5 62v-9q-51 -9 -83 -64.5t-41 -139.5h148v-21h-150q-1 -9 -1 -34q0 -32 1 -43h111v-20h-110q17 -189 134 -215v-9q-111 4 -181.5 66.5t-88.5 157.5h-68v20h64q-2 28 -2 43q0 23 2 34h-65v21zM545 199h9v-174q-69 -24 -158 -32v9
q109 19 149 197zM553 355h-9q-15 74 -56.5 124t-99.5 60v9q100 -7 165 -32v-161z" />
    <glyph glyph-name="trademark" unicode="&#x2122;" horiz-adv-x="586" 
d="M86 630v-7q-47 -8 -63 -78h-8l3 85h68zM440 468l-27 -65h-8l-81 182q-16 33 -48 38v7h92zM484 454l-9 176h89v-7q-16 -1 -22.5 -10t-5.5 -28l6 -131q1 -37 29 -40v-6h-113v6q27 5 26 40zM355 408h-92v6q38 6 49 62h8q0 -18 1.5 -28.5t9.5 -21.5t24 -12v-6zM161 630v-180
q0 -33 29 -36v-6h-114v6q29 3 29 36v180h56zM180 623v7h68l3 -85h-8q-16 70 -63 78z" />
    <glyph glyph-name="onethird" unicode="&#x2153;" horiz-adv-x="521" 
d="M304 553v-199q0 -34 13 -49t41 -18v-8h-194v8q29 3 42 18t13 49v200q0 36 -10 49q-9 12 -47 16v7q85 0 144 4q-2 -42 -2 -77zM22 222h477v-23h-477v23zM298 -128q0 34 -19.5 49t-62.5 15q-24 0 -34 -3l-1 4l56 61q13 2 35 2q53 -1 80 -26.5t27 -61.5q0 -43 -38.5 -78.5
t-114.5 -42.5v8q31 4 51.5 23.5t20.5 49.5zM256 14h-6q28 22 28 44q0 40 -54 40q-44 0 -61 -27l-5 3q12 33 41 54.5t67 21.5q42 0 65 -16.5t23 -45.5q0 -24 -26.5 -44.5t-71.5 -29.5zM183 -138q15 0 25 -10.5t10 -24.5t-10 -24.5t-25 -10.5q-14 0 -24 10.5t-10 24.5t10 24.5
t24 10.5z" />
    <glyph glyph-name="twothirds" unicode="&#x2154;" horiz-adv-x="521" 
d="M209 368l-10 2q26 28 38 41.5t29.5 46t17.5 59.5q0 56 -64 56q-42 0 -74 -34l-5 3q14 37 49.5 64t76.5 27q104 0 104 -91q0 -43 -47.5 -90t-114.5 -84zM116 279l63 69h137q59 0 75 59h9l-14 -128h-270zM22 222h477v-23h-477v23zM306 -128q0 34 -19.5 49t-62.5 15
q-24 0 -34 -3l-1 4l56 61q13 2 35 2q53 -1 80 -26.5t27 -61.5q0 -43 -38.5 -78.5t-114.5 -42.5v8q31 4 51.5 23.5t20.5 49.5zM264 14h-6q28 22 28 44q0 40 -54 40q-44 0 -61 -27l-5 3q12 33 41 54.5t67 21.5q42 0 65 -16.5t23 -45.5q0 -24 -26.5 -44.5t-71.5 -29.5z
M191 -138q15 0 25 -10.5t10 -24.5t-10 -24.5t-25 -10.5q-14 0 -24 10.5t-10 24.5t10 24.5t24 10.5z" />
    <glyph glyph-name="oneeighth" unicode="&#x215b;" horiz-adv-x="521" 
d="M304 553v-199q0 -34 13 -49t41 -18v-8h-194v8q29 3 42 18t13 49v200q0 36 -10 49q-9 12 -47 16v7q85 0 144 4q-2 -42 -2 -77zM22 222h477v-23h-477v23zM316 20l-5 3q17 25 17 56q0 62 -61 62q-23 0 -39.5 -12t-16.5 -36q0 -6 1.5 -11.5t5 -10.5t6.5 -9t9.5 -8.5t11 -8
t12.5 -8t12.5 -7t14.5 -7.5l14 -7q20 -10 33 -18.5t28 -22t23 -30.5t8 -38q0 -45 -39 -80t-91 -35q-51 0 -85.5 21.5t-34.5 57.5q0 26 20 44.5t44 27.5l4 -4q-20 -26 -20 -60t19.5 -56t52.5 -22q28 0 45.5 15t17.5 42q0 7 -1.5 13t-4.5 11.5t-6 9.5t-9.5 9t-10 8t-12 8
t-12 7t-13 6.5t-12.5 6.5q-24 13 -35.5 20.5t-28.5 22t-24 31.5t-7 38q0 43 36.5 72t86.5 29q49 0 76.5 -19t27.5 -49q0 -40 -58 -62z" />
    <glyph glyph-name="threeeighths" unicode="&#x215c;" horiz-adv-x="521" 
d="M316 20l-5 3q17 25 17 56q0 62 -61 62q-23 0 -39.5 -12t-16.5 -36q0 -6 1.5 -11.5t5 -10.5t6.5 -9t9.5 -8.5t11 -8t12.5 -8t12.5 -7t14.5 -7.5l14 -7q20 -10 33 -18.5t28 -22t23 -30.5t8 -38q0 -45 -39 -80t-91 -35q-51 0 -85.5 21.5t-34.5 57.5q0 26 20 44.5t44 27.5
l4 -4q-20 -26 -20 -60t19.5 -56t52.5 -22q28 0 45.5 15t17.5 42q0 7 -1.5 13t-4.5 11.5t-6 9.5t-9.5 9t-10 8t-12 8t-12 7t-13 6.5t-12.5 6.5q-24 13 -35.5 20.5t-28.5 22t-24 31.5t-7 38q0 43 36.5 72t86.5 29q49 0 76.5 -19t27.5 -49q0 -40 -58 -62zM22 222h477v-23h-477
v23zM294 356q0 34 -19.5 49t-62.5 15q-24 0 -34 -3l-2 4l57 62q12 1 34 1q53 -1 80 -26.5t27 -60.5q0 -43 -38 -79t-115 -43v8q32 4 52.5 23.5t20.5 49.5zM252 499h-6q27 21 27 43q0 40 -54 40q-43 0 -61 -27l-4 3q11 33 40.5 54.5t67.5 21.5q42 0 65 -16.5t23 -45.5
q0 -24 -27 -44.5t-71 -28.5zM179 346q15 0 25 -10.5t10 -24.5t-10 -24.5t-25 -10.5q-14 0 -24 10.5t-10 24.5t10 24.5t24 10.5z" />
    <glyph glyph-name="fiveeighths" unicode="&#x215d;" horiz-adv-x="521" 
d="M316 20l-5 3q17 25 17 56q0 62 -61 62q-23 0 -39.5 -12t-16.5 -36q0 -6 1.5 -11.5t5 -10.5t6.5 -9t9.5 -8.5t11 -8t12.5 -8t12.5 -7t14.5 -7.5l14 -7q20 -10 33 -18.5t28 -22t23 -30.5t8 -38q0 -45 -39 -80t-91 -35q-51 0 -85.5 21.5t-34.5 57.5q0 26 20 44.5t44 27.5
l4 -4q-20 -26 -20 -60t19.5 -56t52.5 -22q28 0 45.5 15t17.5 42q0 7 -1.5 13t-4.5 11.5t-6 9.5t-9.5 9t-10 8t-12 8t-12 7t-13 6.5t-12.5 6.5q-24 13 -35.5 20.5t-28.5 22t-24 31.5t-7 38q0 43 36.5 72t86.5 29q49 0 76.5 -19t27.5 -49q0 -40 -58 -62zM22 222h477v-23h-477
v23zM366 658l-13 -95h-171l9 66h128q32 0 42 29h5zM217 275v7q87 11 87 85q0 71 -92 71q-24 0 -48 -4l12 67q25 5 59 5q68 0 103.5 -28t35.5 -77q0 -53 -40 -88.5t-117 -37.5zM183 355q16 0 26 -10.5t10 -26.5q0 -15 -10.5 -26t-25.5 -11t-26 11t-11 26q0 16 11 26.5
t26 10.5z" />
    <glyph glyph-name="seveneighths" unicode="&#x215e;" horiz-adv-x="521" 
d="M420 629l-28 -69h-154q-45 0 -61 -37h-9l30 106h222zM372 538h11l-100 -257h-72zM22 222h477v-23h-477v23zM316 20l-5 3q17 25 17 56q0 62 -61 62q-23 0 -39.5 -12t-16.5 -36q0 -6 1.5 -11.5t5 -10.5t6.5 -9t9.5 -8.5t11 -8t12.5 -8t12.5 -7t14.5 -7.5l14 -7
q20 -10 33 -18.5t28 -22t23 -30.5t8 -38q0 -45 -39 -80t-91 -35q-51 0 -85.5 21.5t-34.5 57.5q0 26 20 44.5t44 27.5l4 -4q-20 -26 -20 -60t19.5 -56t52.5 -22q28 0 45.5 15t17.5 42q0 10 -4 19t-8 14.5t-14.5 13t-16 11t-19.5 11t-19 10.5q-57 34 -74 53q-21 26 -21 59
q0 43 36.5 72t86.5 29q49 0 76.5 -19t27.5 -49q0 -40 -58 -62z" />
    <glyph glyph-name="minus" unicode="&#x2212;" horiz-adv-x="430" 
d="M54 235h322v-35h-322v35z" />
    <glyph glyph-name="uni24C5" unicode="&#x24c5;" horiz-adv-x="698" 
d="M26 315q0 136 86.5 223.5t218.5 97.5v-15q-127 -11 -207 -94t-80 -212q0 -130 80 -212.5t207 -93.5v-15q-132 10 -218.5 97.5t-86.5 223.5zM672 315q0 -136 -86.5 -223.5t-218.5 -97.5v15q127 11 207 94t80 212q0 130 -80 212.5t-207 93.5v15q132 -10 218.5 -97.5
t86.5 -223.5zM558 400q0 -48 -51.5 -85t-136.5 -41v8q12 2 25 8q59 22 59 109q0 43 -14 67.5t-47 37.5q-4 2 -23 6v8q28 0 50 -3q138 -18 138 -115zM340 518v-325q0 -39 20 -55.5t59 -21.5v-9h-244v9q35 5 51 21t16 56v237q0 40 -16.5 58t-50.5 23v7h165z" />
    <glyph glyph-name="s_t" unicode="&#xfb06;" horiz-adv-x="685" 
d="M230 280q59 -34 89 -64.5t30 -75.5q0 -68 -44.5 -106t-116.5 -42v6q28 4 45 22.5t17 50.5q0 21 -13.5 38t-30 27.5t-47.5 26.5q-7 3 -10 5q-27 14 -42.5 24.5t-34.5 28t-28.5 40.5t-9.5 51q0 54 40 90.5t104 43.5v-7q-18 -3 -32.5 -19.5t-14.5 -40.5q0 -17 5.5 -30
t22.5 -26t25.5 -18t36.5 -20q6 -3 9 -5zM170 551q0 -72 52 -106q48 -7 100 -17l6 -129h-7q-28 92 -110 141q-18 11 -34.5 42t-16.5 69q0 75 51 114t117 43v-8q-59 -3 -108.5 -40t-49.5 -109zM154 -2v-6q-67 0 -122 25l-6 136h7q13 -49 49.5 -96.5t71.5 -58.5zM552 532
q0 -57 -13 -96h141l-10 -50h-132v-238q0 -83 80 -83q42 0 70 10v-5q-17 -28 -61.5 -53t-94.5 -25q-119 0 -119 119v275h-47v11q15 5 39.5 24t49.5 61t25 90q0 61 -28.5 92.5t-97.5 35.5v8q102 -4 150 -53t48 -123z" />
    <glyph glyph-name="space_uni0326" horiz-adv-x="207" 
d="M43 -110q0 29 19 45.5t44 16.5q34 0 53.5 -21.5t19.5 -60.5q0 -43 -37.5 -79t-97.5 -52l-3 7q18 8 30 15t27.5 19t23.5 27.5t7 34.5q-12 -6 -31 -6q-23 0 -39 14.5t-16 39.5z" />
    <glyph glyph-name="caron.alt" horiz-adv-x="196" 
d="M156 690l-101 -194h-10l26 194h85z" />
    <glyph glyph-name="space_uni0326.alt" horiz-adv-x="221" 
d="M180 562q0 -28 -19 -44t-44 -16q-34 0 -53 21t-19 59q0 43 37.5 78.5t97.5 51.5l2 -7q-18 -8 -30 -15t-27.5 -19t-23.5 -27.5t-7 -34.5q11 7 31 7q23 0 39 -14.5t16 -39.5z" />
    <glyph glyph-name="grave.uc" horiz-adv-x="285" 
d="M249 659l-212 57l37 81l179 -131z" />
    <glyph glyph-name="dieresis.uc" horiz-adv-x="400" 
d="M90 794q26 0 43.5 -18t17.5 -44t-18 -44.5t-43 -18.5q-26 0 -44.5 18.5t-18.5 44.5t18.5 44t44.5 18zM311 794q26 0 44 -18t18 -44t-18.5 -44.5t-43.5 -18.5t-43 18.5t-18 44.5t17.5 44t43.5 18z" />
    <glyph glyph-name="macron.uc" horiz-adv-x="394" 
d="M341 679h-288v42h288v-42z" />
    <glyph glyph-name="acute.uc" horiz-adv-x="285" 
d="M248 716l-212 -57l-4 7l179 131z" />
    <glyph glyph-name="circumflex.uc" horiz-adv-x="348" 
d="M42 663l130 133h4l131 -133l-5 -5l-126 56h-4l-126 -56z" />
    <glyph glyph-name="caron.uc" horiz-adv-x="343" 
d="M46 796l126 -56h4l126 56l5 -5l-131 -133h-4l-130 133z" />
    <glyph glyph-name="breve.uc" horiz-adv-x="353" 
d="M176 732q100 0 113 70h11q0 -79 -40 -114q-32 -29 -84 -29q-53 0 -84 28q-40 37 -39 115h11q12 -70 112 -70z" />
    <glyph glyph-name="dotaccent.uc" horiz-adv-x="229" 
d="M46 736q0 28 20 47t48 19q29 0 48.5 -19t19.5 -47t-19.5 -47t-48.5 -19q-28 0 -48 19t-20 47z" />
    <glyph glyph-name="ring.uc" horiz-adv-x="249" 
d="M42 732q0 34 21.5 53t50.5 22v-20q-17 0 -33 -13.5t-16 -41.5t16 -41.5t33 -13.5v-20q-29 3 -50.5 22t-21.5 53zM207 732q0 -33 -21.5 -53t-50.5 -22v20q16 0 32.5 13.5t16.5 41.5t-16.5 41.5t-32.5 13.5v20q29 -3 50.5 -22t21.5 -53z" />
    <glyph glyph-name="tilde.uc" horiz-adv-x="421" 
d="M371 810l9 -3q-16 -51 -44 -82t-65 -31q-21 0 -79 2.5t-74 2.5q-48 0 -71 -27l-7 4q53 102 117 102q17 0 74.5 -2.5t76.5 -2.5q50 0 63 37z" />
    <glyph glyph-name="hungarumlaut.uc" horiz-adv-x="394" 
d="M217 802l-126 -128l-7 5l70 163zM342 802l-126 -128l-7 5l70 163z" />
    <glyph glyph-name="cedilla.uc" horiz-adv-x="394" 
d="M219 -223l3 -5q-25 -18 -65 -18q-21 0 -32.5 10.5t-11.5 25.5q0 28 38 47q22 -61 68 -60zM236 -221l-3 7q6 6 6 13q0 5 -1 8.5t-4 9t-4.5 8t-8.5 11t-10 12.5q-22 29 -22 47q0 35 72 82l4 -4q-10 -13 -10 -30q0 -18 24 -48q25 -34 25 -50q0 -13 -13 -27q-21 -25 -55 -39z
" />
    <glyph glyph-name="idotaccent" horiz-adv-x="276" 
d="M75 90v221q0 40 -27 61q-12 10 -24 16v5l177 55l2 -2q-3 -123 -3 -139v-217q0 -43 13.5 -60.5t47.5 -22.5v-7h-244v7q35 5 46.5 21.5t11.5 61.5zM65 591q0 29 21 49t50 20q30 0 51 -20t21 -49t-21 -49t-51 -20q-29 0 -50 20t-21 49z" />
    <glyph glyph-name="c_t" horiz-adv-x="747" 
d="M614 532q0 -57 -13 -96h141l-10 -50h-132v-238q0 -83 80 -83q42 0 70 10v-5q-17 -29 -61 -53.5t-94 -24.5q-120 0 -120 119v275h-47v11q10 3 27.5 16t38 34t35 54.5t14.5 70.5q0 61 -28.5 92.5t-98.5 35.5v8q102 -4 150 -53t48 -123zM254 444v-8q-44 -8 -76.5 -53.5
t-32.5 -118.5q0 -91 39.5 -135t96.5 -44q36 0 70.5 16.5t49.5 39.5l6 -4q-13 -57 -59 -101t-128 -44q-92 0 -146 62.5t-54 149.5q0 103 70.5 166.5t163.5 73.5zM277 375q0 29 23 47q-30 19 -48.5 53.5t-18.5 73.5q0 75 47 115t111 44v-8q-33 -2 -63 -14t-55 -45t-25 -82
q0 -44 31.5 -79t65.5 -47q23 -8 35 -20q16 -16 16 -40q0 -25 -17.5 -41.5t-42.5 -16.5t-42 17.5t-17 42.5z" />
    <glyph glyph-name="f_f_r" horiz-adv-x="952" 
d="M264 0h-245v7q35 5 46 21t11 62v297h-62v8l63 47v48q0 86 57 137t150 60v-6q-82 -14 -82 -134v-111h147v67q0 22 5 47q-22 16 -22 47q0 37 27 55q-11 23 -49 29v6q83 -6 122 -30q53 41 132 47v-6q-90 -13 -90 -134v-128h131q26 0 52.5 2t42.5 4t30.5 4t16.5 2l2 -2
q-2 -58 -2 -124l-1 -232q0 -43 13.5 -60.5t47.5 -22.5v-7h-240v7q33 5 43.5 20.5t10.5 58.5v301h-147v-301q0 -41 14.5 -58.5t47.5 -20.5v-7h-242v7q33 5 44 20.5t11 58.5v301h-147v-301q0 -41 14.5 -58.5t47.5 -20.5v-7zM877 299q-27 0 -44.5 16.5t-17.5 42.5q0 25 12 39
q-1 3 -8 3q-28 0 -49 -37v4q10 31 38.5 55.5t60.5 24.5q37 0 57 -20.5t20 -55.5q0 -32 -19.5 -52t-49.5 -20zM604 685q24 0 41.5 -17t17.5 -41q0 -25 -17.5 -42.5t-41.5 -17.5t-41.5 17.5t-17.5 42.5q0 24 17.5 41t41.5 17z" />
    <glyph glyph-name="f_r" horiz-adv-x="679" 
d="M14 395l63 48v62q0 86 59 138.5t155 60.5v-6q-89 -13 -89 -134v-128h131q25 0 51.5 2t43 4t31 4t16.5 2l2 -2q-3 -123 -3 -139v-217q0 -43 13.5 -60.5t46.5 -22.5v-7h-240v7q33 5 44 20.5t11 58.5v301h-147v-301q0 -41 14.5 -58.5t47.5 -20.5v-7h-245v7q35 5 46 21t11 62
v297h-62v8zM604 299q-27 0 -44.5 16.5t-17.5 42.5t13 39q-3 3 -9 3q-27 0 -48 -37v4q9 31 38 55.5t61 24.5q37 0 56.5 -20.5t19.5 -55.5q0 -33 -19.5 -52.5t-49.5 -19.5zM332 685q24 0 41 -17t17 -41q0 -25 -17 -42.5t-41 -17.5t-41.5 17.5t-17.5 42.5q0 24 17.5 41t41.5 17
z" />
    <glyph glyph-name="dollar.lin" horiz-adv-x="490" 
d="M259 701h21l-14 -302l33 -18q30 -17 41.5 -24t36.5 -23.5t35.5 -29t24 -31.5t19 -41.5t5.5 -48.5q0 -85 -58 -134.5t-145 -55.5v9q100 13 100 110q0 38 -26 65.5t-81 60.5l-14 -315h-21l15 327q-15 8 -20 11q-80 45 -119.5 88t-39.5 111q0 75 55.5 123t128.5 54v-9
q-38 -4 -61 -29.5t-23 -68.5q0 -39 22.5 -64.5t71.5 -54.5zM204 -8q-102 9 -152 32l-11 178h9q17 -72 63.5 -131t90.5 -70v-9zM434 466h-9q-19 71 -48 112t-85 51v9q90 -6 134 -21z" />
    <glyph glyph-name="Euro.lin" horiz-adv-x="621" 
d="M10 274h75q-3 24 -3 49q0 20 1 30h-73v20h75q11 85 59 146.5t106.5 88.5t121.5 30v-9q-22 -1 -47 -14q-93 -47 -103 -242h162v-20h-163v-30q0 -36 2 -49h128v-21h-127q18 -200 120 -243q12 -5 35 -9v-9q-119 5 -196.5 73t-95.5 188h-77v21zM572 218h9l-2 -193
q-80 -27 -162 -32v9q116 32 155 216zM580 429h-9q-16 78 -59 132.5t-102 67.5v9q99 -5 169 -33z" />
    <glyph glyph-name="sterling.lin" horiz-adv-x="549" 
d="M100 336h78l8 32q18 70 47.5 122.5t65 83t72.5 46t77 18.5l1 -6q-47 -14 -69.5 -64.5t-49.5 -164.5l-3 -13.5t-2.5 -12t-3.5 -13.5l-8 -28h122v-21h-128q-7 -28 -19 -50h127v-21h-139q-41 -63 -156 -114l-6 3q21 34 41 111h-75v21h81l12 50h-73v21zM-3 -4l-3 5
q15 41 55.5 74t92.5 33q49 0 139 -15q97 -15 150 -15q45 0 70 14.5t43 45.5l6 -1q-7 -70 -40.5 -118.5t-99.5 -48.5q-20 0 -179 21q-105 15 -151 15q-48 0 -83 -10zM485 612q24 0 41.5 -17.5t17.5 -41.5q0 -25 -17.5 -42.5t-41.5 -17.5t-41.5 17.5t-17.5 42.5
q0 24 17.5 41.5t41.5 17.5z" />
    <glyph glyph-name="yen.lin" horiz-adv-x="569" 
d="M86 340h115l-111 203q-39 69 -109 79v8h325v-8q-32 -1 -52 -15t-20 -33q0 -23 27 -67l92 -167h145v-21h-138v-71h138v-21h-138v-103q0 -62 18.5 -85.5t65.5 -30.5v-8h-304v8q47 7 65 31t18 85v103h-137v21h137v49l-11 22h-126v21zM610 622q-45 -7 -92.5 -46t-87.5 -102
l-7 6q29 47 29 86q0 52 -66 56v8h224v-8z" />
    <glyph glyph-name="zero.lin" horiz-adv-x="622" 
d="M41 315q0 144 77 231t178 92v-8q-26 -5 -44 -19q-72 -57 -72 -296t72 -296q18 -14 44 -19v-8q-101 5 -178 92t-77 231zM581 315q0 -143 -77.5 -230.5t-177.5 -92.5v8q27 5 44 19q72 57 72 296t-72 296q-17 14 -44 19v8q100 -5 177.5 -92.5t77.5 -230.5z" />
    <glyph glyph-name="one.lin" horiz-adv-x="360" 
d="M256 502v-378q0 -64 15 -86.5t61 -29.5v-8h-289v8q46 7 61 30t15 86v377q0 64 -18 88q-17 22 -72 30v8q94 0 229 5q-2 -37 -2 -130z" />
    <glyph glyph-name="two.lin" horiz-adv-x="498" 
d="M-8 0l110 110h243q46 0 80.5 30t48.5 74h7l-23 -214h-466zM143 146l-8 1q7 7 38 36.5t48 50t40 53.5t34.5 72t11.5 82q0 49 -28.5 78.5t-89.5 28.5q-83 -1 -143 -56l-5 4q36 65 94.5 103.5t121.5 38.5q88 0 136 -40.5t48 -120.5q0 -85 -74.5 -160.5t-223.5 -170.5z" />
    <glyph glyph-name="three.lin" horiz-adv-x="434" 
d="M209 386l-7 1q42 44 42 83q0 44 -26 63t-79 19q-68 0 -103 -40l-5 4q24 57 70.5 89.5t99.5 32.5q76 0 115 -31t39 -88q0 -41 -39 -76t-107 -57zM78 108q23 0 40 -17t17 -41t-17 -41t-40 -17q-24 0 -41.5 17t-17.5 41t17.5 41t41.5 17zM286 153q0 62 -39 91t-119 29
q-25 0 -47 -5l-2 6l93 87q110 9 170 -37t60 -120q0 -77 -67.5 -141.5t-190.5 -70.5v8q72 8 107 51.5t35 101.5z" />
    <glyph glyph-name="four.lin" horiz-adv-x="546" 
d="M383 637v-513q0 -63 15.5 -86t60.5 -30v-8h-289v8q46 7 61.5 30t15.5 86v390l109 126zM413 185v95h122l-13 -95h-109zM216 280v-95h-216v4l76 91h140z" />
    <glyph glyph-name="five.lin" horiz-adv-x="430" 
d="M389 677l-21 -157h-295l14 110h229q51 0 66 47h7zM136 -8l-1 7q72 8 115.5 53t43.5 113q0 136 -163 136q-48 0 -91 -8l21 104q49 9 98 9q116 0 178.5 -49t62.5 -136q0 -95 -69 -160t-195 -69zM77 123q24 0 42 -18t18 -43t-18 -42.5t-42 -17.5q-25 0 -43 17.5t-18 42.5
t18 43t43 18z" />
    <glyph glyph-name="six.lin" horiz-adv-x="543" 
d="M477 624q-42 -12 -80.5 -30.5t-81 -51.5t-73 -75.5t-51 -106t-20.5 -139.5q0 -84 23.5 -147t71.5 -72v-10q-93 3 -160.5 70.5t-67.5 163.5q0 86 38.5 158.5t100.5 123.5q117 95 298 124zM218 350v3q13 20 49.5 34.5t69.5 14.5q82 0 129 -50t47 -143q0 -84 -62 -145
t-162 -71v10q39 9 66 68t27 126q0 160 -117 160q-33 0 -47 -7z" />
    <glyph glyph-name="seven.lin" horiz-adv-x="440" 
d="M442 630l-46 -113h-268q-80 0 -108 -52h-9l43 165h388zM380 481l-191 -481h-116l296 481h11z" />
    <glyph glyph-name="eight.lin" horiz-adv-x="465" 
d="M311 397l-5 4q40 35 42 114q0 112 -104 112q-43 0 -75.5 -24t-32.5 -68t36 -76.5t106 -68.5q35 -18 59.5 -33t53 -39.5t43 -56t14.5 -69.5q0 -82 -62.5 -141t-154.5 -59q-90 0 -150 40.5t-60 107.5q0 80 123 137l5 -5q-46 -48 -47 -109q-2 -70 30 -114.5t99 -44.5
q121 0 121 107q0 51 -35.5 86.5t-106.5 71.5q-39 20 -62 35t-52 39.5t-43 56t-14 69.5q0 73 61 121t146 48q78 0 125.5 -32.5t47.5 -80.5q0 -40 -28 -75.5t-80 -52.5z" />
    <glyph glyph-name="nine.lin" horiz-adv-x="546" 
d="M69 1q42 12 80.5 31t81 53t73.5 77t51 107t20 140q0 84 -23.5 147t-71.5 72v10q96 -3 162 -70t66 -164q0 -169 -139 -282q-125 -101 -298 -129zM328 283v-3q-13 -20 -49.5 -34.5t-69.5 -14.5q-79 0 -128 52t-49 143q0 83 62.5 142t162.5 69v-10q-40 -9 -67 -62.5
t-27 -126.5q0 -162 118 -162q33 0 47 7z" />
    <glyph glyph-name="percent.lin" horiz-adv-x="629" 
d="M304 489q0 -56 -39.5 -100.5t-96.5 -49.5v10q49 11 49 140q0 128 -49 139v10q56 -5 96 -49.5t40 -99.5zM103 9l415 631l23 -18l-415 -630zM10 489q0 55 40 99.5t96 49.5v-10q-49 -11 -49 -139q0 -129 49 -140v-10q-57 5 -96.5 49.5t-39.5 100.5zM325 141q0 56 39.5 100.5
t96.5 49.5v-10q-48 -11 -48 -140q0 -128 48 -139v-10q-56 5 -96 49.5t-40 99.5zM619 141q0 -55 -39.5 -99.5t-95.5 -49.5v10q48 11 48 139q0 129 -48 140v10q56 -5 95.5 -49.5t39.5 -100.5z" />
    <glyph glyph-name="perthousand.lin" horiz-adv-x="961" 
d="M304 489q0 -56 -39.5 -100.5t-96.5 -49.5v10q49 11 49 140q0 128 -49 139v10q56 -5 96 -49.5t40 -99.5zM103 9l415 631l23 -18l-415 -630zM10 489q0 55 40 99.5t96 49.5v-10q-49 -11 -49 -139q0 -129 49 -140v-10q-57 5 -96.5 49.5t-39.5 100.5zM325 141q0 56 39.5 100.5
t96.5 49.5v-10q-48 -11 -48 -140q0 -128 48 -139v-10q-56 5 -96 49.5t-40 99.5zM619 141q0 -55 -39.5 -99.5t-95.5 -49.5v10q48 11 48 139q0 129 -48 140v10q56 -5 95.5 -49.5t39.5 -100.5zM658 141q0 56 39.5 100.5t96.5 49.5v-10q-49 -11 -49 -140q0 -128 49 -139v-10
q-56 5 -96 49.5t-40 99.5zM952 141q0 -55 -40 -99.5t-96 -49.5v10q49 11 49 139q0 129 -49 140v10q57 -5 96.5 -49.5t39.5 -100.5z" />
    <glyph glyph-name="plus.lin" horiz-adv-x="430" 
d="M40 336h157v157h35v-157h158v-35h-158v-158h-35v158h-157v35z" />
    <glyph glyph-name="minus.lin" horiz-adv-x="430" 
d="M40 336h350v-35h-350v35z" />
    <glyph glyph-name="multiply.lin" horiz-adv-x="389" 
d="M32 181l138 137l-138 137l25 25l137 -137l138 138l25 -25l-138 -138l138 -138l-25 -25l-138 138l-137 -137z" />
    <glyph glyph-name="divide.lin" horiz-adv-x="430" 
d="M174 197q0 17 11.5 29t28.5 12q16 0 28.5 -12t12.5 -29t-12 -28.5t-29 -11.5t-28.5 11.5t-11.5 28.5zM174 438q0 17 11.5 29t28.5 12q16 0 28.5 -12.5t12.5 -28.5q0 -17 -12 -28.5t-29 -11.5t-28.5 11.5t-11.5 28.5zM40 336h350v-35h-350v35z" />
    <glyph glyph-name="equal.lin" horiz-adv-x="430" 
d="M40 260h350v-35h-350v35zM40 420h350v-35h-350v35z" />
    <glyph glyph-name="less.lin" horiz-adv-x="367" 
d="M328 431l-251 -108l251 -108v-35l-291 125v36l291 125v-35z" />
    <glyph glyph-name="greater.lin" horiz-adv-x="367" 
d="M290 323l-251 108v35l291 -125v-36l-291 -125v35z" />
    <glyph glyph-name="zero.num" horiz-adv-x="390" 
d="M26 443q0 85 48 137t110 55v-8q-5 0 -17 -5q-45 -27 -45 -179t45 -179q13 -5 17 -5v-8q-62 3 -110 55t-48 137zM364 443q0 -85 -48 -137t-110 -55v8q4 0 17 5q45 27 45 179t-45 179q-12 5 -17 5v8q62 -3 110 -55t48 -137z" />
    <glyph glyph-name="one.num" horiz-adv-x="281" 
d="M190 541v-214q0 -34 14 -47.5t48 -17.5v-8h-216v8q35 4 49.5 17.5t14.5 47.5v218q0 45 -11 57t-55 16v9q71 0 157 6q-1 -21 -1 -92z" />
    <glyph glyph-name="two.num" horiz-adv-x="353" 
d="M11 254l75 76h149q31 0 52 20.5t30 49.5h7l-18 -146h-295zM115 354l-8 1q31 35 43.5 50t26.5 46t14 63q0 29 -18 46t-52 17q-49 0 -80 -38l-4 3q18 41 55.5 68.5t87.5 27.5q114 0 114 -99q0 -89 -179 -185z" />
    <glyph glyph-name="three.num" horiz-adv-x="300" 
d="M149 488h-11q26 19 26 48q0 42 -52 42q-47 0 -72 -30l-6 3q14 37 45 60.5t73 23.5q47 0 73 -18t26 -52q0 -25 -28 -46t-74 -31zM64 336q17 0 28.5 -11.5t11.5 -27.5t-11.5 -27.5t-28.5 -11.5q-16 0 -27 11.5t-11 27.5t11 27.5t27 11.5zM187 342q0 33 -17.5 49t-62.5 16
q-19 0 -37 -5l-3 6l59 64q76 9 114 -17.5t38 -74.5q0 -49 -43 -88t-128 -43v9q36 4 58 27t22 57z" />
    <glyph glyph-name="four.num" horiz-adv-x="361" 
d="M246 636v-308q0 -35 14.5 -48.5t47.5 -17.5v-8h-219v8q34 4 49 18t15 48v212l72 98zM272 358v69h67l-8 -69h-59zM126 427v-69h-114v2l51 67h63z" />
    <glyph glyph-name="five.num" horiz-adv-x="298" 
d="M271 662l-18 -109h-195l11 77h150q33 0 44 32h8zM99 249v9q41 4 67 26.5t26 60.5q0 80 -100 80q-26 0 -49 -4l12 76q27 5 57 5q159 0 159 -115q0 -57 -48 -95.5t-124 -42.5zM58 342q17 0 28.5 -12t11.5 -29t-12 -28.5t-28 -11.5q-17 0 -29 11.5t-12 28.5t12 29t29 12z
" />
    <glyph glyph-name="six.num" horiz-adv-x="339" 
d="M285 623q-170 -47 -170 -237q0 -117 48 -127v-9q-60 2 -100.5 43t-40.5 100q0 105 87 171q75 55 174 67zM140 464v4q9 12 29 20t41 8q51 0 81 -29t30 -84q0 -51 -38 -90t-100 -43v9q46 9 46 110q0 51 -14 74.5t-50 23.5q-17 0 -25 -3z" />
    <glyph glyph-name="seven.num" horiz-adv-x="296" 
d="M291 630l-30 -80h-168q-49 0 -66 -41h-10l28 121h246zM253 531l-120 -277h-86l194 277h12z" />
    <glyph glyph-name="eight.num" horiz-adv-x="314" 
d="M214 496l-5 3q17 28 17 58q0 35 -19 53t-49 18q-25 0 -42.5 -13t-17.5 -37q0 -19 13.5 -35t27.5 -24t49 -27q22 -11 36.5 -19.5t32 -23.5t26.5 -33.5t9 -41.5q0 -50 -39.5 -86.5t-99.5 -36.5q-57 0 -94 23t-37 62q0 47 70 77l5 -4q-22 -24 -22 -64q0 -38 21 -62t57 -24
q31 0 51.5 17t20.5 46q0 9 -2 17t-8 15t-10.5 12t-15.5 11.5t-16 9.5t-20 10.5t-20 10.5q-24 12 -37.5 20.5t-31 23t-25.5 33t-8 41.5q0 47 37 79t91 32q53 0 84 -20.5t31 -52.5q0 -45 -60 -68z" />
    <glyph glyph-name="nine.num" horiz-adv-x="339" 
d="M49 258q175 49 175 237q0 118 -48 128v8q59 -2 99.5 -43t40.5 -99q0 -107 -87 -171q-70 -52 -178 -68zM197 418l1 -4q-24 -29 -70 -29q-49 0 -80 31t-31 82q0 53 37.5 91t100.5 42v-8q-46 -9 -46 -110q0 -51 15 -75t49 -24q14 0 24 4z" />
    <glyph glyph-name="zero.den" horiz-adv-x="390" 
d="M26 189q0 85 48 137t110 55v-8q-7 0 -17 -6q-45 -26 -45 -178q0 -153 45 -179q8 -5 17 -5v-8q-62 2 -110 54t-48 138zM364 189q0 -86 -48 -138t-110 -54v8q9 0 17 5q45 26 45 179q0 152 -45 178q-10 6 -17 6v8q62 -3 110 -55t48 -137z" />
    <glyph glyph-name="one.den" horiz-adv-x="281" 
d="M190 287v-214q0 -35 14 -48.5t48 -16.5v-8h-216v8q35 3 49.5 17t14.5 48v218q0 45 -11 57t-55 16v8q81 2 157 7q-1 -22 -1 -92z" />
    <glyph glyph-name="two.den" horiz-adv-x="353" 
d="M11 0l75 76h149q31 0 52 20.5t30 49.5h7l-18 -146h-295zM115 99l-8 2q46 43 68.5 77.5t22.5 81.5q0 29 -17.5 46t-51.5 17q-49 0 -80 -38l-5 3q18 40 56 68t87 28q114 0 114 -99q0 -36 -31 -73t-66.5 -60.5t-88.5 -52.5z" />
    <glyph glyph-name="three.den" horiz-adv-x="300" 
d="M146 233h-11q26 21 26 48q0 43 -52 43q-45 0 -71 -31l-7 4q14 37 45 60.5t73 23.5q100 0 100 -70q0 -25 -28.5 -46.5t-74.5 -31.5zM62 82q17 0 28 -11.5t11 -28.5q0 -16 -11.5 -27t-27.5 -11t-27.5 11t-11.5 27q0 17 11 28.5t28 11.5zM184 88q0 33 -17.5 48.5t-62.5 15.5
q-23 0 -37 -4l-3 5l59 65q76 9 114.5 -17.5t38.5 -74.5q0 -49 -43.5 -88t-128.5 -43v8q35 4 57.5 27.5t22.5 57.5z" />
    <glyph glyph-name="four.den" horiz-adv-x="361" 
d="M246 382v-309q0 -34 14.5 -47.5t47.5 -17.5v-8h-219v8q34 4 49 18t15 47v212l72 99zM272 103v70h67l-8 -70h-59zM126 173v-70h-114v3l51 67h63z" />
    <glyph glyph-name="five.den" horiz-adv-x="298" 
d="M271 408l-18 -109h-195l11 77h150q34 0 44 32h8zM99 -5v8q41 5 67 27.5t26 60.5q0 79 -100 79q-26 0 -49 -4l12 77q27 5 57 5q159 0 159 -115q0 -57 -48 -96t-124 -42zM58 88q16 0 28 -12t12 -29t-12 -28.5t-28 -11.5q-17 0 -29 11.5t-12 28.5t12 29t29 12z" />
    <glyph glyph-name="six.den" horiz-adv-x="339" 
d="M285 369q-170 -47 -170 -237q0 -118 48 -127v-9q-60 2 -100.5 43t-40.5 99q0 105 87 171q73 54 174 68zM140 210v4q9 12 29 20t41 8q50 0 80.5 -29t30.5 -84q0 -52 -38 -90.5t-100 -42.5v9q46 9 46 109q0 52 -14 75.5t-50 23.5q-10 0 -25 -3z" />
    <glyph glyph-name="seven.den" horiz-adv-x="296" 
d="M291 376l-30 -80h-168q-49 0 -66 -41h-10l28 121h246zM253 277l-120 -277h-86l194 277h12z" />
    <glyph glyph-name="eight.den" horiz-adv-x="314" 
d="M214 242l-5 3q17 28 17 58q0 35 -19 53t-49 18q-25 0 -42.5 -13.5t-17.5 -37.5q0 -26 20.5 -43t69.5 -42q23 -11 37 -19.5t31.5 -23.5t26.5 -34t9 -42q0 -49 -39.5 -85.5t-99.5 -36.5q-57 0 -94 23t-37 62q0 49 70 76l5 -4q-22 -24 -22 -63q0 -38 21 -62t57 -24
q31 0 51.5 17t20.5 46q0 8 -2 15.5t-5 13t-9.5 11.5t-11 9.5t-14.5 9.5t-15 8.5t-17.5 8.5t-17.5 9q-23 12 -37 21t-31 23.5t-25.5 33t-8.5 41.5q0 47 37 79t91 32q53 0 84 -21t31 -53q0 -44 -60 -67z" />
    <glyph glyph-name="nine.den" horiz-adv-x="339" 
d="M49 4q175 49 175 237q0 118 -48 127v9q59 -2 99.5 -43t40.5 -99q0 -107 -87 -171q-68 -52 -178 -68zM197 163l1 -4q-24 -28 -70 -28q-49 0 -80 31t-31 82q0 53 37.5 91t100.5 42v-9q-46 -9 -46 -109q0 -51 15 -75t49 -24q9 0 24 3z" />
    <glyph glyph-name="Y.alt" horiz-adv-x="655" 
d="M245 124v137q0 212 -158 319q-53 34 -113 38v8q40 8 82 8q89 0 126 -13t77 -47q45 -37 87.5 -112t42.5 -172v-166q0 -62 18.5 -85.5t64.5 -30.5v-8h-311v8q48 7 66 31t18 85zM682 620q-72 -10 -137 -48t-98 -103l-8 5q14 47 38.5 91t36.5 51q22 17 98 17q32 0 70 -5v-8z
" />
    <glyph glyph-name="Q.long" horiz-adv-x="765" 
d="M1520 -130l5 -5q-29 -56 -111.5 -100.5t-219.5 -44.5q-161 0 -436 88q-64 20 -223.5 74t-205.5 68v4q105 20 173 20q81 0 161 -19q35 -9 118.5 -33t114.5 -32q293 -83 440 -83q62 0 111 17.5t73 45.5zM377 3v-8q-160 4 -251 95.5t-91 228.5q0 71 27.5 130.5t73 98
t99.5 61.5t111 28v-8q-39 -8 -57 -22q-97 -61 -97 -276q0 -249 123 -310q30 -15 62 -18zM384 630v8q160 -4 251 -95.5t91 -228.5q0 -138 -94 -222.5t-217 -95.5v8q36 7 57 22q97 61 97 276q0 248 -123 310q-30 15 -62 18z" />
    <glyph glyph-name="Q.short" horiz-adv-x="765" 
d="M921 -92l3 -6q-17 -30 -71.5 -59t-113.5 -29q-45 0 -88.5 12.5t-111.5 40.5q-21 9 -57.5 24.5t-52 21.5t-43 16.5t-57.5 20.5v4q89 17 172 17q32 0 67.5 -6.5t53.5 -12t68 -22.5q107 -36 169 -36q27 0 62 14zM377 3v-8q-160 4 -251 95.5t-91 228.5q0 71 27.5 130.5t73 98
t99.5 61.5t111 28v-8q-39 -8 -57 -22q-97 -61 -97 -276q0 -249 123 -310q30 -15 62 -18zM384 630v8q160 -4 251 -95.5t91 -228.5q0 -138 -94 -222.5t-217 -95.5v8q36 7 57 22q97 61 97 276q0 248 -123 310q-30 15 -62 18z" />
    <glyph glyph-name="ampersand.swash" horiz-adv-x="1234" 
d="M367 443l-4 4q28 30 28 88q0 93 -70 93q-26 0 -43.5 -21.5t-17.5 -54.5q0 -31 19 -59.5t63 -76.5q23 -25 100 -115.5t103 -117.5q35 -37 54 -55.5t52 -46t63.5 -39.5t62.5 -12q43 0 82 19.5t57 47.5l6 -4q-29 -62 -90 -104t-146 -42q-88 0 -161 62q-35 30 -100 105
q-7 10 -100.5 115.5t-97.5 109.5q-38 42 -57.5 75t-19.5 71q0 63 49 108t122 45q71 0 109 -25t38 -69q0 -35 -29 -62.5t-72 -38.5zM174 347l4 -7q-28 -32 -28 -81q0 -57 29 -108q17 -29 50 -51t69 -22q51 0 89 28l4 -5q-19 -42 -66 -75.5t-110 -33.5q-81 0 -128.5 46
t-47.5 122q0 59 40 108.5t95 78.5zM526 303q92 147 207 275q139 153 316 153q107 0 161 -43t68 -107l-8 -2q-19 38 -59.5 57t-121.5 19q-102 0 -205 -56q-152 -83 -351 -303zM1150 529q0 24 17.5 41t41.5 17t41 -17t17 -41t-17 -41t-41 -17t-41.5 17t-17.5 41z" />
    <glyph glyph-name="ampersand.swashalt" horiz-adv-x="800" 
d="M572 255l-6 6q1 2 10.5 18.5t13.5 25t11 23t10 26.5t3 22q0 27 -23 44q-24 16 -60 19v8h262v-8q-99 -14 -221 -184zM386 434l-4 4q27 37 27 99q0 91 -64 91q-27 0 -43 -20t-16 -52q0 -30 19 -62t60 -82q50 -62 190 -207q302 -316 596 -316q160 0 213 78l6 -5
q-9 -27 -28.5 -54t-54.5 -56t-93.5 -47t-130.5 -18q-85 0 -171 25.5t-147.5 58.5t-126.5 83.5t-95.5 80t-68.5 69.5q-163 167 -212 233q-34 42 -49.5 74.5t-15.5 74.5q0 61 49 106.5t121 45.5q65 0 102 -27.5t37 -71.5q0 -33 -29 -62t-71 -43zM196 349l5 -6q-37 -30 -37 -97
q0 -59 29 -103q47 -73 120 -73q46 0 86 31l5 -5q-19 -43 -66 -77t-110 -34q-82 0 -135.5 48.5t-53.5 127.5q0 61 49 112.5t108 75.5z" />
    <glyph glyph-name="a.terminal" horiz-adv-x="905" 
d="M204 52q25 0 36 9v-4q-8 -22 -37.5 -43.5t-67.5 -21.5q-52 0 -81 29t-29 73q0 34 14 60t27 31q43 17 165 47v-7q-52 -19 -67 -38q-14 -21 -14 -59q0 -76 54 -76zM52 329q0 22 15.5 37.5t37.5 15.5q21 0 36.5 -15.5t15.5 -37.5t-15.5 -37.5t-36.5 -15.5q-22 0 -37.5 15.5
t-15.5 37.5zM382 319v-138q0 -53 3 -67q9 -17 43 -19q52 -2 115 -2q128 0 185 8t91 34q25 19 38 49t13 56q0 43 -26 60l4 6q23 -11 39 -38t16 -68q-3 -90 -80 -143q-40 -31 -107 -45t-210 -15q-46 0 -128.5 1.5t-115.5 1.5l-3 3q-3 56 -3 101v209q0 42 -35.5 64.5
t-101.5 22.5v3q20 18 57.5 31t70.5 13q135 0 135 -128zM748 262q0 21 13.5 35.5t34.5 14.5q20 0 34.5 -15t14.5 -35q0 -21 -14 -34.5t-35 -13.5t-34.5 13.5t-13.5 34.5z" />
    <glyph glyph-name="d.terminal" horiz-adv-x="1001" 
d="M849 262q0 21 13.5 35.5t34.5 14.5q20 0 35 -15t15 -35q0 -21 -14.5 -34.5t-35.5 -13.5t-34.5 13.5t-13.5 34.5zM278 75q40 0 64 14v-4q-14 -37 -51.5 -65t-86.5 -28q-79 0 -128.5 59t-49.5 147q0 87 56.5 150.5t132.5 86.5v-8q-25 -19 -42 -68t-17 -112q0 -86 35.5 -129
t86.5 -43zM364 0l-3 3q-3 56 -3 101v184q0 78 -31 113t-80 35v7q23 5 45 5q38 0 67 -11v123q0 46 -28 69q-13 11 -21 15v5l174 55l3 -2q-3 -123 -3 -139v-382q0 -53 3 -67q9 -17 43 -19q50 -2 115 -2q128 0 184.5 8t90.5 34q25 20 38.5 49.5t13.5 55.5q0 41 -26 60l3 6
q55 -26 55 -106q-2 -89 -79 -143q-40 -31 -107 -45t-210 -15q-46 0 -128.5 1.5t-115.5 1.5z" />
    <glyph glyph-name="e.terminal" horiz-adv-x="885" 
d="M800 136q-142 -144 -456 -144q-149 0 -238.5 60.5t-89.5 175.5q0 88 56 149t127 69v-8q-33 -10 -55 -47.5t-22 -96.5q0 -199 272 -199t384 100q37 33 56 78t19 81q0 44 -22 64l4 4q44 -30 44 -103q0 -46 -20.5 -95.5t-58.5 -87.5zM394 297h-232v7l117 12q-4 116 -54 123
v8q79 -3 124 -45.5t45 -104.5zM742 389q0 18 12 30t30 12q17 0 29.5 -12.5t12.5 -29.5q0 -18 -12 -30t-30 -12q-19 0 -30.5 11.5t-11.5 30.5z" />
    <glyph glyph-name="h.terminal" horiz-adv-x="957" 
d="M590 -2q-102 0 -286 2v7q32 5 43.5 21.5t11.5 57.5v210q0 41 -17 60.5t-57 19.5q-31 0 -62 -12v3q24 33 64.5 56.5t81.5 23.5q116 0 116 -130v-171q0 -39 2 -50q50 -2 125 -2q197 0 259 44q26 18 39.5 45.5t13.5 53.5q0 45 -28 66l4 5q23 -11 39 -38t16 -68
q-2 -95 -84 -147q-84 -57 -281 -57zM800 264q0 21 13.5 35.5t34.5 14.5q20 0 34.5 -15t14.5 -35q0 -21 -14 -34.5t-35 -13.5t-34.5 13.5t-13.5 34.5zM198 563v-477q0 -41 11.5 -57.5t43.5 -21.5v-7h-238v7q34 5 45.5 21.5t11.5 61.5v481q0 26 -10 41.5t-38 31.5v5l175 55
l2 -2q-3 -123 -3 -139z" />
    <glyph glyph-name="l.terminal" horiz-adv-x="687" 
d="M22 0v7q26 7 38.5 24t12.5 58v483q0 40 -26 59q-10 9 -23 14v6l175 54l2 -2q-3 -123 -3 -139v-418q0 -36 1 -50q50 -2 141 -2q197 0 259 44q52 37 52 99q0 43 -27 66l4 5q53 -29 53 -106q-4 -98 -82 -147q-84 -57 -281 -57q-112 0 -296 2zM528 264q0 21 13.5 35.5
t34.5 14.5q20 0 34.5 -15t14.5 -35q0 -21 -14 -34.5t-35 -13.5t-34.5 13.5t-13.5 34.5z" />
    <glyph glyph-name="m.terminal" horiz-adv-x="1234" 
d="M205 446v-360q0 -41 11.5 -57.5t43.5 -21.5v-7h-239v7q35 5 46.5 21.5t11.5 61.5v225q0 46 -48 72v6l172 55zM483 317v-231q0 -43 10 -58.5t43 -20.5v-7h-234v7q32 5 43.5 21.5t11.5 57.5v210q0 42 -15 61t-53 19q-28 0 -59 -12v3q24 33 64.5 56.5t81.5 23.5
q60 0 83.5 -33.5t23.5 -96.5zM761 317v-171q0 -22 2 -50q50 -2 125 -2q197 0 260 44q26 18 39 46.5t13 54.5q0 44 -27 64l4 5q55 -29 55 -106q-4 -97 -84 -147q-84 -57 -281 -57q-102 0 -286 2v7q32 5 43.5 21.5t11.5 57.5v210q0 43 -15 61.5t-55 18.5q-27 0 -58 -12v3
q25 33 64.5 56.5t78.5 23.5q63 0 86.5 -33t23.5 -97z" />
    <glyph glyph-name="n.terminal" horiz-adv-x="964" 
d="M492 317v-171q0 -39 2 -50q50 -2 125 -2q197 0 259 44q26 18 39.5 45.5t13.5 53.5q0 45 -28 66l4 5q23 -11 39 -38t16 -68q-2 -95 -84 -147q-84 -57 -281 -57q-102 0 -286 2v7q32 5 43.5 21.5t11.5 57.5v210q0 41 -17 60.5t-57 19.5q-31 0 -62 -12v3q24 33 64.5 56.5
t81.5 23.5q116 0 116 -130zM807 264q0 21 13.5 35.5t34.5 14.5q20 0 34.5 -15t14.5 -35q0 -21 -14 -34.5t-35 -13.5t-34.5 13.5t-13.5 34.5zM205 446v-360q0 -41 11.5 -57.5t43.5 -21.5v-7h-239v7q35 5 46.5 21.5t11.5 61.5v225q0 46 -48 72v6l172 55z" />
    <glyph glyph-name="r.terminal" horiz-adv-x="590" 
d="M205 446v-357q0 -42 16 -59.5t50 -22.5v-7h-249v7q34 5 45.5 21.5t11.5 61.5v225q0 25 -10.5 41t-37.5 31v6l171 55zM231 331l-5 2q18 48 51 81t71 33q37 0 88 -25q83 -41 121 -41q20 0 35.5 13t21.5 31l6 -2q-9 -54 -49.5 -88t-88.5 -34q-29 0 -96 31q-10 4 -29.5 13
t-28 13t-21 7.5t-21.5 3.5q-16 0 -31.5 -10.5t-23.5 -27.5zM519 476q0 22 14 36t35 14t35.5 -14t14.5 -36q0 -21 -14.5 -35t-35.5 -14t-35 14t-14 35z" />
    <glyph glyph-name="t.terminal" horiz-adv-x="680" 
d="M310 -2q-109 0 -293 2v7q25 6 36.5 22.5t11.5 55.5v301h-53v14l167 152l12 -5v-111h142l-10 -50h-132v-290q52 -2 141 -2q197 0 259 44q26 18 39.5 45.5t13.5 53.5q0 42 -28 66l4 5q56 -28 56 -106q-4 -98 -82 -147q-84 -57 -284 -57zM520 264q0 21 13.5 35.5t34.5 14.5
q20 0 35 -15t15 -35q0 -21 -14.5 -34.5t-35.5 -13.5t-34.5 13.5t-13.5 34.5z" />
    <glyph glyph-name="t.terminalalt" horiz-adv-x="439" 
d="M191 436h139q72 0 113 22t52 77l8 -1q-9 -71 -59 -110q-49 -38 -132 -38h-121v-238q0 -83 80 -83q42 0 70 10v-5q-17 -28 -61.5 -53t-94.5 -25q-119 0 -119 119v275h-54v14l167 152l12 -5v-111zM393 540q0 18 12.5 31t30.5 13t31 -13t13 -31t-13 -30.5t-31 -12.5
t-30.5 12.5t-12.5 30.5z" />
    <glyph glyph-name="z.terminal" horiz-adv-x="700" 
d="M50 1q-35 0 -48 -1l288 437h141l-242 -369q99 -3 170 -3q113 0 165.5 12.5t94.5 43.5q25 18 37.5 49.5t12.5 59.5q0 49 -30 68l4 6q22 -11 38.5 -38.5t16.5 -67.5q-2 -91 -84 -143q-89 -58 -264 -58q-79 0 -187 2t-113 2zM37 278h-8l13 159h170v-8q-64 -12 -105.5 -47
t-69.5 -104zM549 259q0 20 13 33.5t32 13.5q20 0 33.5 -14t13.5 -33t-13.5 -32.5t-33.5 -13.5q-19 0 -32 13t-13 33z" />
    <glyph glyph-name="c_t.terminal" horiz-adv-x="1090" 
d="M254 444v-8q-44 -8 -76.5 -53.5t-32.5 -118.5q0 -91 39.5 -135t96.5 -44q36 0 70.5 16.5t49.5 39.5l6 -4q-13 -57 -59 -101t-128 -44q-92 0 -146 62.5t-54 149.5q0 70 36.5 125t88 82.5t109.5 32.5zM277 375q0 29 23 47q-30 19 -48.5 53.5t-18.5 73.5q0 75 47 115t111 44
v-8q-33 -2 -63 -14t-55 -45t-25 -82q0 -44 31.5 -78.5t65.5 -47.5q23 -8 34 -19q16 -16 16 -41t-17 -41.5t-43 -16.5q-25 0 -41.5 17.5t-16.5 42.5zM600 386v-247q0 -32 1 -43q52 -2 140 -2q197 0 260 44q52 37 52 99q0 43 -27 66l4 5q55 -28 55 -106q-2 -97 -81 -147
q-84 -57 -284 -57q-107 0 -293 2v7q25 6 36.5 22.5t11.5 55.5v301h-47v11q10 3 27.5 16t38 34t35 54.5t14.5 70.5q0 61 -29 93t-98 35v8q100 -2 149 -52t49 -124q0 -57 -13 -96h141l-10 -50h-132zM930 264q0 21 13.5 35.5t34.5 14.5q20 0 34.5 -15t14.5 -35q0 -21 -14 -34.5
t-35 -13.5t-34.5 13.5t-13.5 34.5z" />
    <glyph glyph-name="s_t.terminal" horiz-adv-x="1027" 
d="M658 -2q-109 0 -293 2v7q25 6 36.5 22.5t11.5 55.5v301h-47v11q15 5 39.5 24t49.5 61t25 90q0 62 -28.5 93.5t-97.5 34.5v8q100 -2 149 -52t49 -124q0 -57 -13 -96h141l-10 -50h-132v-290q52 -2 141 -2q197 0 259 44q53 36 53 99q0 43 -27 66l3 5q56 -28 56 -106
q-2 -97 -82 -147q-83 -57 -283 -57zM178 446v-7q-18 -3 -32.5 -19.5t-14.5 -40.5q0 -17 5.5 -30t22.5 -26t25.5 -18t36.5 -20q6 -3 9 -5q59 -34 89 -64.5t30 -75.5q0 -68 -44.5 -106t-116.5 -42v6q28 4 45 22.5t17 50.5q0 21 -13.5 38t-30 27.5t-47.5 26.5q-7 3 -10 5
q-27 14 -42.5 24.5t-34.5 28t-28.5 40.5t-9.5 51q0 54 40 90.5t104 43.5zM170 551q0 -72 52 -106q78 -11 100 -17l6 -129h-7q-28 92 -110 141q-18 11 -34.5 42t-16.5 69q0 75 51 114t117 43v-8q-59 -3 -108.5 -40t-49.5 -109zM154 -2v-6q-67 0 -122 25l-6 136h7
q13 -49 49.5 -96.5t71.5 -58.5zM868 264q0 21 13.5 35.5t34.5 14.5q20 0 34.5 -15t14.5 -35q0 -21 -14.5 -34.5t-34.5 -13.5q-21 0 -34.5 13.5t-13.5 34.5z" />
    <glyph glyph-name="c_t.terminalalt" horiz-adv-x="849" 
d="M254 444v-8q-44 -8 -76.5 -53.5t-32.5 -118.5q0 -91 39.5 -135t96.5 -44q36 0 70.5 16.5t49.5 39.5l6 -4q-13 -57 -59 -101t-128 -44q-92 0 -146 62.5t-54 149.5q0 104 70.5 168.5t163.5 71.5zM601 436h139q72 0 112.5 22t52.5 77l8 -1q-9 -73 -60 -110q-49 -38 -131 -38
h-122v-238q0 -83 80 -83q42 0 70 10v-5q-17 -29 -61 -53.5t-94 -24.5q-120 0 -120 119v275h-47v11q10 3 27.5 16t38 34t35 54.5t14.5 70.5q0 61 -28.5 92.5t-98.5 35.5v8q103 -4 150.5 -53t47.5 -123q0 -57 -13 -96zM803 540q0 18 12.5 31t30.5 13q17 0 30.5 -13t13.5 -31
t-13 -30.5t-31 -12.5t-30.5 12.5t-12.5 30.5zM277 375q0 29 23 47q-30 19 -48.5 53.5t-18.5 73.5q0 75 47 115t111 44v-8q-55 -4 -98.5 -37.5t-43.5 -103.5q0 -44 31 -78.5t65 -47.5q23 -8 34 -19q16 -16 16 -41t-17 -41.5t-43 -16.5q-25 0 -41.5 17.5t-16.5 42.5z" />
    <glyph glyph-name="s_t.terminalalt" horiz-adv-x="787" 
d="M178 446v-7q-18 -3 -32.5 -19.5t-14.5 -40.5q0 -17 5.5 -30t22.5 -26t25.5 -18t36.5 -20q6 -3 9 -5q59 -34 89 -64.5t30 -75.5q0 -68 -44.5 -106t-116.5 -42v6q28 4 45 22.5t17 50.5q0 21 -13.5 38t-30 27.5t-47.5 26.5q-7 3 -10 5q-27 14 -42.5 24.5t-34.5 28
t-28.5 40.5t-9.5 51q0 54 40 90.5t104 43.5zM170 551q0 -72 52 -106q48 -7 100 -17l6 -129h-7q-28 92 -110 141q-18 11 -34.5 42t-16.5 69q0 75 51 114t117 43v-8q-63 -6 -110.5 -41t-47.5 -108zM154 -2v-6q-67 0 -122 25l-6 136h7q13 -49 49.5 -96.5t71.5 -58.5zM539 436
h138q72 0 113 22t53 77l8 -1q-10 -73 -60 -110q-49 -38 -132 -38h-121v-238q0 -83 80 -83q42 0 70 10v-5q-17 -28 -61.5 -53t-94.5 -25q-119 0 -119 119v275h-47v11q15 5 39.5 24t49.5 61t25 90q0 62 -28 93t-98 35v8q102 -4 150 -53t48 -123q0 -57 -13 -96zM741 540
q0 18 12.5 31t30.5 13q17 0 30 -13t13 -31t-13 -30.5t-30 -12.5q-19 0 -31 12.5t-12 30.5z" />
    <glyph glyph-name="f_r.terminal" horiz-adv-x="869" 
d="M86 444v61q0 86 59 138.5t155 60.5v-6q-89 -13 -89 -134v-127h131q32 0 142 11l2 -2q-3 -123 -3 -139v-217q0 -43 13.5 -60.5t47.5 -22.5v-7h-241v7q34 5 44.5 20.5t10.5 58.5v302h-147v-302q0 -41 14.5 -58.5t47.5 -20.5v-7h-245v7q35 5 46 21t11 62v298h-62v8zM505 333
q17 48 50 81t72 33q35 0 88 -25q83 -41 120 -41q21 0 36.5 13t21.5 31l6 -2q-9 -54 -50 -88t-88 -34q-29 0 -96 31q-8 4 -29 13.5t-29 13t-21 7t-22 3.5q-16 0 -31 -10.5t-23 -27.5zM341 685q24 0 41.5 -17t17.5 -41q0 -25 -17.5 -42.5t-41.5 -17.5t-41.5 17.5t-17.5 42.5
q0 24 17.5 41t41.5 17zM797 476q0 22 14.5 36t35.5 14t35.5 -14t14.5 -36q0 -21 -14.5 -35t-35.5 -14t-35.5 14t-14.5 35z" />
    <glyph glyph-name="f_f_r.terminal" horiz-adv-x="1141" 
d="M273 0h-245v7q35 5 46 21t11 62v298h-62v8l63 47v47q0 86 57 137t150 60v-6q-82 -14 -82 -134v-110h147v66q0 22 5 47q-22 17 -22 47q0 36 28 55q-12 22 -49 29v6q83 -6 121 -30q53 41 132 47v-6q-90 -14 -90 -134v-127h131q26 0 52.5 1.5t42.5 3.5t31 4t16 2l2 -2
q-2 -58 -2 -112v-244q0 -43 13 -60.5t47 -22.5v-7h-240v7q33 5 43.5 20.5t10.5 58.5v302h-147v-302q0 -41 15 -58.5t48 -20.5v-7h-243v7q34 5 44.5 20.5t10.5 58.5v302h-147v-302q0 -41 14.5 -58.5t47.5 -20.5v-7zM777 333q18 48 51 81t71 33q37 0 88 -25q83 -41 121 -41
q20 0 35.5 13t21.5 31l6 -2q-9 -54 -49.5 -88t-88.5 -34q-29 0 -96 31q-10 4 -29.5 13t-28 13t-21 7.5t-21.5 3.5q-16 0 -31.5 -10.5t-23.5 -27.5zM613 685q25 0 42 -17t17 -41q0 -25 -17 -42.5t-42 -17.5q-24 0 -41 17.5t-17 42.5q0 24 17 41t41 17zM1070 476q0 22 14 36
t35 14t35.5 -14t14.5 -36q0 -21 -14.5 -35t-35.5 -14t-35 14t-14 35z" />
    <glyph glyph-name="Yacute.alt" horiz-adv-x="655" 
d="M447 721l-212 -57l-4 7l179 131zM230 124v137q0 212 -158 319q-53 34 -113 38v8q40 8 82 8q89 0 126 -13t77 -47q45 -37 87.5 -112t42.5 -172v-166q0 -62 18.5 -85.5t64.5 -30.5v-8h-311v8q48 7 66 31t18 85zM667 620q-72 -10 -137 -48t-98 -103l-8 5q14 47 38.5 91
t36.5 51q22 17 98 17q33 0 70 -5v-8z" />
    <glyph glyph-name="Ydieresis.alt" horiz-adv-x="655" 
d="M230 124v137q0 212 -158 319q-53 34 -113 38v8q40 8 82 8q89 0 126 -13t77 -47q45 -37 87.5 -112t42.5 -172v-166q0 -62 18.5 -85.5t64.5 -30.5v-8h-311v8q48 7 66 31t18 85zM667 620q-72 -10 -137 -48t-98 -103l-8 5q14 47 38.5 91t36.5 51q22 17 98 17q33 0 70 -5v-8z
M215 799q26 0 43.5 -18t17.5 -44t-18 -44.5t-43 -18.5q-26 0 -44.5 18.5t-18.5 44.5t18.5 44t44.5 18zM436 799q26 0 44 -18t18 -44t-18.5 -44.5t-43.5 -18.5t-43 18.5t-18 44.5t17.5 44t43.5 18z" />
    <glyph glyph-name="Ycircumflex.alt" horiz-adv-x="655" 
d="M195 670l130 133h4l131 -133l-5 -5l-126 56h-4l-126 -56zM230 124v137q0 212 -158 319q-53 34 -113 38v8q40 8 82 8q89 0 126 -13t77 -47q45 -37 87.5 -112t42.5 -172v-166q0 -62 18.5 -85.5t64.5 -30.5v-8h-311v8q48 7 66 31t18 85zM667 620q-72 -10 -137 -48t-98 -103
l-8 5q14 47 38.5 91t36.5 51q22 17 98 17q33 0 70 -5v-8z" />
    <glyph glyph-name="Ygrave.alt" horiz-adv-x="655" 
d="M230 124v137q0 212 -158 319q-53 34 -113 38v8q40 8 82 8q89 0 126 -13t77 -47q45 -37 87.5 -112t42.5 -172v-166q0 -62 18.5 -85.5t64.5 -30.5v-8h-311v8q48 7 66 31t18 85zM667 620q-72 -10 -137 -48t-98 -103l-8 5q14 47 38.5 91t36.5 51q22 17 98 17q33 0 70 -5v-8z
M412 664l-212 57l37 81l179 -131z" />
    <glyph glyph-name="aacute.terminal" horiz-adv-x="905" 
d="M353 629l-155 -144l-8 5l87 193zM204 52q25 0 36 9v-4q-8 -22 -37.5 -43.5t-67.5 -21.5q-52 0 -81 29t-29 73q0 34 14 60t27 31q43 17 165 47v-7q-52 -19 -67 -38q-14 -21 -14 -59q0 -76 54 -76zM52 329q0 22 15.5 37.5t37.5 15.5q21 0 36.5 -15.5t15.5 -37.5
t-15.5 -37.5t-36.5 -15.5q-22 0 -37.5 15.5t-15.5 37.5zM382 319v-138q0 -53 3 -67q9 -17 43 -19q52 -2 115 -2q128 0 185 8t91 34q25 19 38 49t13 56q0 43 -26 60l4 6q23 -11 39 -38t16 -68q-3 -90 -80 -143q-40 -31 -107 -45t-210 -15q-46 0 -128.5 1.5t-115.5 1.5l-3 3
q-3 56 -3 101v209q0 42 -35.5 64.5t-101.5 22.5v3q20 18 57.5 31t70.5 13q135 0 135 -128zM748 262q0 21 13.5 35.5t34.5 14.5q20 0 34.5 -15t14.5 -35q0 -21 -14 -34.5t-35 -13.5t-34.5 13.5t-13.5 34.5z" />
    <glyph glyph-name="agrave.terminal" horiz-adv-x="905" 
d="M204 52q25 0 36 9v-4q-8 -22 -37.5 -43.5t-67.5 -21.5q-52 0 -81 29t-29 73q0 34 14 60t27 31q43 17 165 47v-7q-52 -19 -67 -38q-14 -21 -14 -59q0 -76 54 -76zM52 329q0 22 15.5 37.5t37.5 15.5q21 0 36.5 -15.5t15.5 -37.5t-15.5 -37.5t-36.5 -15.5q-22 0 -37.5 15.5
t-15.5 37.5zM382 319v-138q0 -53 3 -67q9 -17 43 -19q52 -2 115 -2q128 0 185 8t91 34q25 19 38 49t13 56q0 43 -26 60l4 6q23 -11 39 -38t16 -68q-3 -90 -80 -143q-40 -31 -107 -45t-210 -15q-46 0 -128.5 1.5t-115.5 1.5l-3 3q-3 56 -3 101v209q0 42 -35.5 64.5
t-101.5 22.5v3q20 18 57.5 31t70.5 13q135 0 135 -128zM748 262q0 21 13.5 35.5t34.5 14.5q20 0 34.5 -15t14.5 -35q0 -21 -14 -34.5t-35 -13.5t-34.5 13.5t-13.5 34.5zM284 485l-155 144l76 54l87 -193z" />
    <glyph glyph-name="acircumflex.terminal" horiz-adv-x="905" 
d="M114 491l-6 5l120 180h4l121 -180l-8 -4l-112 87h-6zM204 52q25 0 36 9v-4q-8 -22 -37.5 -43.5t-67.5 -21.5q-52 0 -81 29t-29 73q0 34 14 60t27 31q43 17 165 47v-7q-52 -19 -67 -38q-14 -21 -14 -59q0 -76 54 -76zM52 329q0 22 15.5 37.5t37.5 15.5q21 0 36.5 -15.5
t15.5 -37.5t-15.5 -37.5t-36.5 -15.5q-22 0 -37.5 15.5t-15.5 37.5zM382 319v-138q0 -53 3 -67q9 -17 43 -19q52 -2 115 -2q128 0 185 8t91 34q25 19 38 49t13 56q0 43 -26 60l4 6q23 -11 39 -38t16 -68q-3 -90 -80 -143q-40 -31 -107 -45t-210 -15q-46 0 -128.5 1.5
t-115.5 1.5l-3 3q-3 56 -3 101v209q0 42 -35.5 64.5t-101.5 22.5v3q20 18 57.5 31t70.5 13q135 0 135 -128zM748 262q0 21 13.5 35.5t34.5 14.5q20 0 34.5 -15t14.5 -35q0 -21 -14 -34.5t-35 -13.5t-34.5 13.5t-13.5 34.5z" />
    <glyph glyph-name="adieresis.terminal" horiz-adv-x="905" 
d="M137 639q23 0 39.5 -17t16.5 -40t-16.5 -40t-39.5 -17t-39.5 17t-16.5 40t16.5 40t39.5 17zM324 639q23 0 39.5 -17t16.5 -40t-16.5 -40t-39.5 -17t-39.5 17t-16.5 40t16.5 40t39.5 17zM204 52q25 0 36 9v-4q-8 -22 -37.5 -43.5t-67.5 -21.5q-52 0 -81 29t-29 73
q0 34 14 60t27 31q43 17 165 47v-7q-52 -19 -67 -38q-14 -21 -14 -59q0 -76 54 -76zM52 329q0 22 15.5 37.5t37.5 15.5q21 0 36.5 -15.5t15.5 -37.5t-15.5 -37.5t-36.5 -15.5q-22 0 -37.5 15.5t-15.5 37.5zM382 319v-138q0 -53 3 -67q9 -17 43 -19q52 -2 115 -2q128 0 185 8
t91 34q25 19 38 49t13 56q0 43 -26 60l4 6q23 -11 39 -38t16 -68q-3 -90 -80 -143q-40 -31 -107 -45t-210 -15q-46 0 -128.5 1.5t-115.5 1.5l-3 3q-3 56 -3 101v209q0 42 -35.5 64.5t-101.5 22.5v3q20 18 57.5 31t70.5 13q135 0 135 -128zM748 262q0 21 13.5 35.5t34.5 14.5
q20 0 34.5 -15t14.5 -35q0 -21 -14 -34.5t-35 -13.5t-34.5 13.5t-13.5 34.5z" />
    <glyph glyph-name="atilde.terminal" horiz-adv-x="905" 
d="M204 52q25 0 36 9v-4q-8 -22 -37.5 -43.5t-67.5 -21.5q-52 0 -81 29t-29 73q0 34 14 60t27 31q43 17 165 47v-7q-52 -19 -67 -38q-14 -21 -14 -59q0 -76 54 -76zM52 329q0 22 15.5 37.5t37.5 15.5q21 0 36.5 -15.5t15.5 -37.5t-15.5 -37.5t-36.5 -15.5q-22 0 -37.5 15.5
t-15.5 37.5zM382 319v-138q0 -53 3 -67q9 -17 43 -19q52 -2 115 -2q128 0 185 8t91 34q25 19 38 49t13 56q0 43 -26 60l4 6q23 -11 39 -38t16 -68q-3 -90 -80 -143q-40 -31 -107 -45t-210 -15q-46 0 -128.5 1.5t-115.5 1.5l-3 3q-3 56 -3 101v209q0 42 -35.5 64.5
t-101.5 22.5v3q20 18 57.5 31t70.5 13q135 0 135 -128zM748 262q0 21 13.5 35.5t34.5 14.5q20 0 34.5 -15t14.5 -35q0 -21 -14 -34.5t-35 -13.5t-34.5 13.5t-13.5 34.5zM381 654l9 -3q-15 -54 -47 -90.5t-67 -36.5q-22 0 -65 2.5t-59 2.5q-23 0 -38 -6t-31 -28l-6 5
q58 109 113 109q18 0 61 -2.5t62 -2.5q24 0 40 11t28 39z" />
    <glyph glyph-name="aring.terminal" horiz-adv-x="905" 
d="M147 579q0 35 21.5 57.5t53.5 25.5v-19q-23 -2 -38 -18t-15 -46t15 -46.5t38 -18.5v-18q-33 2 -54 24.5t-21 58.5zM320 579q0 -35 -22 -58t-54 -25v18q23 2 38.5 18.5t15.5 46.5t-15.5 46t-38.5 18v19q33 -3 54.5 -25t21.5 -58zM204 52q25 0 36 9v-4q-8 -22 -37.5 -43.5
t-67.5 -21.5q-52 0 -81 29t-29 73q0 34 14 60t27 31q43 17 165 47v-7q-52 -19 -67 -38q-14 -21 -14 -59q0 -76 54 -76zM52 329q0 22 15.5 37.5t37.5 15.5q21 0 36.5 -15.5t15.5 -37.5t-15.5 -37.5t-36.5 -15.5q-22 0 -37.5 15.5t-15.5 37.5zM382 319v-138q0 -53 3 -67
q9 -17 43 -19q52 -2 115 -2q128 0 185 8t91 34q25 19 38 49t13 56q0 43 -26 60l4 6q23 -11 39 -38t16 -68q-3 -90 -80 -143q-40 -31 -107 -45t-210 -15q-46 0 -128.5 1.5t-115.5 1.5l-3 3q-3 56 -3 101v209q0 42 -35.5 64.5t-101.5 22.5v3q20 18 57.5 31t70.5 13
q135 0 135 -128zM748 262q0 21 13.5 35.5t34.5 14.5q20 0 34.5 -15t14.5 -35q0 -21 -14 -34.5t-35 -13.5t-34.5 13.5t-13.5 34.5z" />
    <glyph glyph-name="abreve.terminal" horiz-adv-x="905" 
d="M204 52q25 0 36 9v-4q-8 -22 -37.5 -43.5t-67.5 -21.5q-52 0 -81 29t-29 73q0 34 14 60t27 31q43 17 165 47v-7q-52 -19 -67 -38q-14 -21 -14 -59q0 -76 54 -76zM52 329q0 22 15.5 37.5t37.5 15.5q21 0 36.5 -15.5t15.5 -37.5t-15.5 -37.5t-36.5 -15.5q-22 0 -37.5 15.5
t-15.5 37.5zM382 319v-138q0 -53 3 -67q9 -17 43 -19q52 -2 115 -2q128 0 185 8t91 34q25 19 38 49t13 56q0 43 -26 60l4 6q23 -11 39 -38t16 -68q-3 -90 -80 -143q-40 -31 -107 -45t-210 -15q-46 0 -128.5 1.5t-115.5 1.5l-3 3q-3 56 -3 101v209q0 42 -35.5 64.5
t-101.5 22.5v3q20 18 57.5 31t70.5 13q135 0 135 -128zM748 262q0 21 13.5 35.5t34.5 14.5q20 0 34.5 -15t14.5 -35q0 -21 -14 -34.5t-35 -13.5t-34.5 13.5t-13.5 34.5zM240 567q45 0 71.5 22t32.5 53h11q-3 -88 -52 -124q-23 -19 -63 -19q-35 0 -60 17q-50 35 -55 126h11
q7 -31 33 -53t71 -22z" />
    <glyph glyph-name="amacron.terminal" horiz-adv-x="905" 
d="M204 52q25 0 36 9v-4q-8 -22 -37.5 -43.5t-67.5 -21.5q-52 0 -81 29t-29 73q0 34 14 60t27 31q43 17 165 47v-7q-52 -19 -67 -38q-14 -21 -14 -59q0 -76 54 -76zM52 329q0 22 15.5 37.5t37.5 15.5q21 0 36.5 -15.5t15.5 -37.5t-15.5 -37.5t-36.5 -15.5q-22 0 -37.5 15.5
t-15.5 37.5zM382 319v-138q0 -53 3 -67q9 -17 43 -19q52 -2 115 -2q128 0 185 8t91 34q25 19 38 49t13 56q0 43 -26 60l4 6q23 -11 39 -38t16 -68q-3 -90 -80 -143q-40 -31 -107 -45t-210 -15q-46 0 -128.5 1.5t-115.5 1.5l-3 3q-3 56 -3 101v209q0 42 -35.5 64.5
t-101.5 22.5v3q20 18 57.5 31t70.5 13q135 0 135 -128zM748 262q0 21 13.5 35.5t34.5 14.5q20 0 34.5 -15t14.5 -35q0 -21 -14 -34.5t-35 -13.5t-34.5 13.5t-13.5 34.5zM358 545h-260v42h260v-42z" />
    <glyph glyph-name="aogonek.terminal" horiz-adv-x="905" 
d="M204 52q25 0 36 9v-4q-8 -22 -37.5 -43.5t-67.5 -21.5q-52 0 -81 29t-29 73q0 34 14 60t27 31q43 17 165 47v-7q-52 -19 -67 -38q-14 -21 -14 -59q0 -76 54 -76zM52 329q0 22 15.5 37.5t37.5 15.5q21 0 36.5 -15.5t15.5 -37.5t-15.5 -37.5t-36.5 -15.5q-22 0 -37.5 15.5
t-15.5 37.5zM382 319v-138q0 -53 3 -67q9 -17 43 -19q52 -2 115 -2q128 0 185 8t91 34q25 19 38 49t13 56q0 43 -26 60l4 6q23 -11 39 -38t16 -68q-3 -90 -80 -143q-40 -31 -107 -45t-210 -15q-46 0 -128.5 1.5t-115.5 1.5l-3 3q-3 56 -3 101v209q0 42 -35.5 64.5
t-101.5 22.5v3q20 18 57.5 31t70.5 13q135 0 135 -128zM748 262q0 21 13.5 35.5t34.5 14.5q20 0 34.5 -15t14.5 -35q0 -21 -14 -34.5t-35 -13.5t-34.5 13.5t-13.5 34.5zM425 -144l8 -5q-46 -85 -118 -85q-43 0 -68 23.5t-25 60.5q0 21 10.5 41t31 37.5t37.5 29t41 25.5h12
q-46 -48 -46 -102q0 -23 16 -39t43 -16q35 0 58 30z" />
    <glyph glyph-name="aringacute.terminal" horiz-adv-x="905" 
d="M149 579q0 35 21.5 57.5t53.5 25.5v-19q-23 -2 -38 -18t-15 -46t15 -46.5t38 -18.5v-18q-33 2 -54 24.5t-21 58.5zM322 579q0 -35 -22 -58t-54 -25v18q23 2 38.5 18.5t15.5 46.5t-15.5 46t-38.5 18v19q33 -3 54.5 -25t21.5 -58zM204 52q25 0 36 9v-4q-8 -22 -37.5 -43.5
t-67.5 -21.5q-52 0 -81 29t-29 73q0 34 14 60t27 31q43 17 165 47v-7q-52 -19 -67 -38q-14 -21 -14 -59q0 -76 54 -76zM52 329q0 22 15.5 37.5t37.5 15.5q21 0 36.5 -15.5t15.5 -37.5t-15.5 -37.5t-36.5 -15.5q-22 0 -37.5 15.5t-15.5 37.5zM382 319v-138q0 -53 3 -67
q9 -17 43 -19q52 -2 115 -2q128 0 185 8t91 34q25 19 38 49t13 56q0 43 -26 60l4 6q23 -11 39 -38t16 -68q-3 -90 -80 -143q-40 -31 -107 -45t-210 -15q-46 0 -128.5 1.5t-115.5 1.5l-3 3q-3 56 -3 101v209q0 42 -35.5 64.5t-101.5 22.5v3q20 18 57.5 31t70.5 13
q135 0 135 -128zM748 262q0 21 13.5 35.5t34.5 14.5q20 0 34.5 -15t14.5 -35q0 -21 -14 -34.5t-35 -13.5t-34.5 13.5t-13.5 34.5zM349 738l-212 -57l-4 7l179 131z" />
    <glyph glyph-name="dcroat.terminal" horiz-adv-x="1001" 
d="M250 517v28h109v15q0 46 -28 69q-13 11 -21 15v5l174 55l3 -2q-3 -123 -3 -139v-18h73v-28h-73v-336q0 -53 3 -67q9 -17 43 -19q50 -2 115 -2q128 0 184.5 8t90.5 34q25 20 38.5 49.5t13.5 55.5q0 41 -26 60l3 6q55 -26 55 -106q-2 -89 -79 -143q-40 -31 -107 -45
t-210 -15q-46 0 -128.5 1.5t-115.5 1.5l-3 3q-3 56 -3 101v184q0 77 -31 113q-29 33 -80 35v7q19 4 45 4q41 0 67 -10v80h-109zM278 75q40 0 64 14v-4q-14 -37 -51.5 -65t-86.5 -28q-79 0 -128.5 59t-49.5 147q0 87 56.5 150.5t132.5 85.5v-8q-25 -18 -42 -67t-17 -112
q0 -86 35.5 -129t86.5 -43zM849 262q0 21 13.5 35.5t34.5 14.5q20 0 35 -15t15 -35q0 -21 -14.5 -34.5t-35.5 -13.5t-34.5 13.5t-13.5 34.5z" />
    <glyph glyph-name="dcaron.terminal" horiz-adv-x="1001" 
d="M849 262q0 21 13.5 35.5t34.5 14.5q20 0 35 -15t15 -35q0 -21 -14.5 -34.5t-35.5 -13.5t-34.5 13.5t-13.5 34.5zM278 75q40 0 64 14v-4q-14 -37 -51.5 -65t-86.5 -28q-79 0 -128.5 59t-49.5 147q0 87 56.5 150.5t132.5 86.5v-8q-25 -19 -42 -68t-17 -112q0 -86 35.5 -129
t86.5 -43zM364 0l-3 3q-3 56 -3 101v184q0 78 -31 113t-80 35v7q23 5 45 5q38 0 67 -11v123q0 46 -28 69q-13 11 -21 15v5l174 55l3 -2q-3 -123 -3 -139v-382q0 -53 3 -67q9 -17 43 -19q50 -2 115 -2q128 0 184.5 8t90.5 34q25 20 38.5 49.5t13.5 55.5q0 41 -26 60l3 6
q55 -26 55 -106q-2 -89 -79 -143q-40 -31 -107 -45t-210 -15q-46 0 -128.5 1.5t-115.5 1.5zM626 690l-101 -194h-10l26 194h85z" />
    <glyph glyph-name="eacute.terminal" horiz-adv-x="885" 
d="M323 629l-155 -144l-8 5l87 193zM802 136q-142 -144 -456 -144q-149 0 -238.5 60.5t-89.5 175.5q0 88 56 149t127 69v-8q-33 -10 -55 -47.5t-22 -96.5q0 -199 272 -199t384 100q37 33 56 78t19 81q0 44 -22 64l4 4q44 -30 44 -103q0 -46 -20.5 -95.5t-58.5 -87.5z
M396 297h-232v7l117 12q-4 116 -54 123v8q79 -3 124 -45.5t45 -104.5zM744 389q0 18 12 30t30 12q17 0 29.5 -12.5t12.5 -29.5q0 -18 -12 -30t-30 -12q-19 0 -30.5 11.5t-11.5 30.5z" />
    <glyph glyph-name="egrave.terminal" horiz-adv-x="885" 
d="M277 485l-155 144l76 54l87 -193zM802 136q-142 -144 -456 -144q-149 0 -238.5 60.5t-89.5 175.5q0 88 56 149t127 69v-8q-33 -10 -55 -47.5t-22 -96.5q0 -199 272 -199t384 100q37 33 56 78t19 81q0 44 -22 64l4 4q44 -30 44 -103q0 -46 -20.5 -95.5t-58.5 -87.5z
M396 297h-232v7l117 12q-4 116 -54 123v8q79 -3 124 -45.5t45 -104.5zM744 389q0 18 12 30t30 12q17 0 29.5 -12.5t12.5 -29.5q0 -18 -12 -30t-30 -12q-19 0 -30.5 11.5t-11.5 30.5z" />
    <glyph glyph-name="ecircumflex.terminal" horiz-adv-x="885" 
d="M100 491l-6 5l120 180h4l121 -180l-8 -4l-112 87h-6zM802 136q-142 -144 -456 -144q-149 0 -238.5 60.5t-89.5 175.5q0 88 56 149t127 69v-8q-33 -10 -55 -47.5t-22 -96.5q0 -199 272 -199t384 100q37 33 56 78t19 81q0 44 -22 64l4 4q44 -30 44 -103q0 -46 -20.5 -95.5
t-58.5 -87.5zM396 297h-232v7l117 12q-4 116 -54 123v8q79 -3 124 -45.5t45 -104.5zM744 389q0 18 12 30t30 12q17 0 29.5 -12.5t12.5 -29.5q0 -18 -12 -30t-30 -12q-19 0 -30.5 11.5t-11.5 30.5z" />
    <glyph glyph-name="edieresis.terminal" horiz-adv-x="885" 
d="M121 639q23 0 39.5 -17t16.5 -40t-16.5 -40t-39.5 -17t-39.5 17t-16.5 40t16.5 40t39.5 17zM308 639q23 0 39.5 -17t16.5 -40t-16.5 -40t-39.5 -17t-39.5 17t-16.5 40t16.5 40t39.5 17zM802 136q-142 -144 -456 -144q-149 0 -238.5 60.5t-89.5 175.5q0 88 56 149t127 69
v-8q-33 -10 -55 -47.5t-22 -96.5q0 -199 272 -199t384 100q37 33 56 78t19 81q0 44 -22 64l4 4q44 -30 44 -103q0 -46 -20.5 -95.5t-58.5 -87.5zM396 297h-232v7l117 12q-4 116 -54 123v8q79 -3 124 -45.5t45 -104.5zM744 389q0 18 12 30t30 12q17 0 29.5 -12.5t12.5 -29.5
q0 -18 -12 -30t-30 -12q-19 0 -30.5 11.5t-11.5 30.5z" />
    <glyph glyph-name="ebreve.terminal" horiz-adv-x="885" 
d="M215 567q45 0 71.5 22t32.5 53h11q-3 -88 -52 -124q-23 -19 -63 -19q-35 0 -60 17q-50 35 -55 126h11q7 -31 33 -53t71 -22zM802 136q-142 -144 -456 -144q-149 0 -238.5 60.5t-89.5 175.5q0 88 56 149t127 69v-8q-33 -10 -55 -47.5t-22 -96.5q0 -199 272 -199t384 100
q37 33 56 78t19 81q0 44 -22 64l4 4q44 -30 44 -103q0 -46 -20.5 -95.5t-58.5 -87.5zM396 297h-232v7l117 12q-4 116 -54 123v8q79 -3 124 -45.5t45 -104.5zM744 389q0 18 12 30t30 12q17 0 29.5 -12.5t12.5 -29.5q0 -18 -12 -30t-30 -12q-19 0 -30.5 11.5t-11.5 30.5z" />
    <glyph glyph-name="ecaron.terminal" horiz-adv-x="885" 
d="M94 671l7 4l112 -94h6l113 95l7 -5l-121 -187h-4zM802 136q-142 -144 -456 -144q-149 0 -238.5 60.5t-89.5 175.5q0 88 56 149t127 69v-8q-33 -10 -55 -47.5t-22 -96.5q0 -199 272 -199t384 100q37 33 56 78t19 81q0 44 -22 64l4 4q44 -30 44 -103q0 -46 -20.5 -95.5
t-58.5 -87.5zM396 297h-232v7l117 12q-4 116 -54 123v8q79 -3 124 -45.5t45 -104.5zM744 389q0 18 12 30t30 12q17 0 29.5 -12.5t12.5 -29.5q0 -18 -12 -30t-30 -12q-19 0 -30.5 11.5t-11.5 30.5z" />
    </font>
</defs>
</svg>
