<?xml version="1.0" encoding="UTF-8" standalone="no"?>
<svg width="213px" height="62px" viewBox="0 0 213 62" version="1.1" xmlns="http://www.w3.org/2000/svg" xmlns:xlink="http://www.w3.org/1999/xlink">
    <!-- Generator: Sketch 3.8.3 (29802) - http://www.bohemiancoding.com/sketch -->
    <title>Logo</title>
    <desc>Created with Sketch.</desc>
    <defs></defs>
    <g id="Page-1" stroke="none" stroke-width="1" fill="none" fill-rule="evenodd">
        <path d="M123.012069,22.8017681 C122.981456,22.4473097 122.953668,22.1522868 122.9293,21.9394 C122.4503,17.6714 121.5813,16.1184 119.3603,16.1184 C117.5313,16.1184 116.3003,17.1764 115.6233,18.8554 C114.9583,20.5064 114.8473,20.9384 114.2933,20.9154 C113.7743,20.8914 113.6953,20.5574 113.5313,19.7904 C113.3893,19.0934 113.1223,17.8354 112.9683,17.2864 C112.8563,16.8594 113.0523,16.6504 113.5063,16.3524 C115.5163,15.0354 117.3053,14.1924 120.1063,14.1924 C124.1073,14.1984 125.9333,16.4474 126.4353,20.9614 C126.5983,22.3844 126.8423,26.6514 127.1273,28.6304 C127.4113,30.6084 127.8823,32.0344 128.9303,32.0344 C129.6833,32.0344 130.0923,31.6774 130.4673,30.9834 C130.6543,30.6304 131.6993,31.1474 131.4583,31.8494 C130.8633,33.5604 129.3923,34.8354 127.7223,34.8354 C125.875873,34.8354 124.670373,33.9120739 124.04754,31.9940382 C121.853927,33.5925928 119.154828,34.8348 116.7719,34.8348 C113.3609,34.8318 111.0839,33.4498 111.0839,30.1438 C111.0839,27.8458 112.8929,25.8298 116.6869,24.4098 C118.42714,23.764532 120.583314,23.2754625 123.012069,22.8017681 Z M123.146039,24.4555618 C123.298546,26.3983399 123.485748,28.8438025 123.666029,30.2035499 C122.439073,31.0985238 120.474723,32.0308 118.3549,32.0308 C115.9089,32.0308 115.1069,30.8028 115.1069,29.3258 C115.109843,27.120665 116.330003,25.6073716 123.146039,24.4555618 Z M73.0083,31.73 C73.0053,32.906 74.2113,32.921 74.5533,33.155 C74.7513,33.289 74.7573,33.604 74.7573,33.863 C74.7573,34.254 74.6293,34.484 74.3063,34.484 L67.9333,34.481 C67.6083,34.481 67.4773,34.251 67.4773,33.862 C67.4773,33.601 67.4883,33.287 67.6863,33.155 C68.0293,32.921 69.2323,32.906 69.2323,31.73 L69.2353,23.303 C69.2353,20.753 69.0173,19.66 68.4043,18.829 C67.6193,17.757 66.1933,17.162 63.7623,17.162 C62.3063,17.162 60.6453,17.429 59.3083,18.013 C58.6983,18.273 58.5973,18.62 58.5973,19.262 L58.5943,31.727 C58.5943,32.903 59.8003,32.916 60.1423,33.152 C60.3373,33.287 60.3453,33.601 60.3453,33.862 C60.3453,34.251 60.2173,34.481 59.8923,34.481 L53.5223,34.477 C53.1963,34.477 53.0663,34.25 53.0663,33.859 C53.0663,33.601 53.0773,33.283 53.2753,33.152 C53.6153,32.916 54.8233,32.903 54.8233,31.727 L54.8233,19.779 C54.8233,18.945 54.4083,18.547 53.3883,18.457 C53.1883,18.434 53.0663,18.222 53.0663,17.96 C53.0663,17.574 53.2663,17.307 53.6183,17.06 L57.3303,14.431 C58.0103,13.949 58.8873,14.48 58.7273,15.5 C58.6903,15.782 58.6753,17.022 58.6263,17.162 C58.5823,17.301 58.7453,17.365 58.8583,17.221 C59.8003,16.084 62.4723,14.193 65.3713,14.193 C67.8843,14.193 69.9813,15.192 71.3293,16.598 C72.6833,18.013 73.0083,19.561 73.0083,22.112 L73.0083,31.73 Z M24.4468,18.896 C24.4498,18.056 23.8658,17.554 22.6258,17.254 C22.4258,17.204 22.3028,16.954 22.3028,16.695 C22.3028,16.411 22.5068,16.206 22.8548,16.033 L26.9398,14.208 C27.6188,13.874 28.4298,14.504 28.2808,15.487 C28.2378,15.766 28.2228,16.575 28.2228,16.97 L28.2198,25.879 C28.2198,29.298 29.3768,31.849 33.7078,31.849 C35.1598,31.849 36.9008,31.5 38.1608,31 C38.7768,30.758 38.8758,30.392 38.8758,29.749 L38.8788,17.407 C38.8788,16.233 37.4238,16.091 37.0808,15.857 C36.8888,15.729 36.8738,15.41 36.8738,15.153 C36.8738,14.762 37.0048,14.533 37.3298,14.533 L42.1928,14.533 C42.5188,14.533 42.6488,14.7 42.6488,15.089 L42.6488,29.231 C42.6428,30.068 43.0678,30.463 44.0838,30.559 C44.2788,30.575 44.4008,30.787 44.4008,31.049 C44.4008,31.434 44.1998,31.706 43.8488,31.952 L40.1418,34.582 C39.4568,35.066 38.5848,34.529 38.7388,33.513 C38.7768,33.226 38.7978,32.237 38.8438,32.097 C38.8898,31.959 38.7568,31.918 38.6088,32.039 C36.9348,33.406 34.5068,34.818 31.6078,34.818 C26.8638,34.818 24.4468,31.201 24.4468,27.021 L24.4468,18.896 Z M196.8853,26.9438 L196.3483,25.3198 L208.2323,21.1328 C207.2733,18.5008 204.5403,16.6328 201.9603,16.6298 C198.8623,16.6298 196.2603,19.1168 196.2603,22.5948 C196.2553,27.6118 199.6553,31.9518 204.1363,31.9518 C207.0033,31.9518 209.5943,30.5008 210.9683,28.6738 C211.0843,28.5188 211.2883,28.4388 211.5323,28.5188 C211.9023,28.6328 212.4293,28.9338 212.2433,29.3218 C210.4923,32.8838 207.4183,34.8508 202.7773,34.8508 C197.6403,34.8498 193.0773,30.9508 193.0773,24.6828 C193.0773,18.3758 198.6983,14.2108 203.0503,14.2108 C208.9753,14.2108 212.1523,19.6018 212.1453,21.0868 C212.1453,21.4408 211.9563,21.6158 211.0323,21.9528 L196.8853,26.9438 Z M184.5776,16.5137 C182.8566,15.0097 180.5276,14.2077 177.3116,14.2077 C172.0566,14.2077 167.3456,19.1967 167.3456,24.6797 C167.3396,30.9487 172.1596,34.8467 177.2926,34.8467 C181.1796,34.8467 184.0376,33.1847 186.0976,30.2367 C186.3466,29.8857 185.8676,29.5077 185.5176,29.3407 C185.2836,29.2257 185.0856,29.2807 184.9366,29.4087 C183.2256,30.9007 181.0206,31.8267 178.6506,31.8267 C174.1726,31.8267 170.6446,28.5517 170.6506,23.2037 C170.6506,19.4017 173.4896,16.2587 176.9986,16.2587 C179.7416,16.2587 181.7606,17.6297 182.0826,18.9147 C182.5006,20.5837 182.5476,21.0167 183.1036,21.0167 C183.6306,21.0167 183.7616,20.6887 184.0346,19.9357 C184.2776,19.2447 184.7336,18.0087 184.9676,17.4697 C185.1426,17.0517 184.9616,16.8567 184.5776,16.5137 Z M7.5928,14.1738 C9.6258,14.1738 11.1718,14.4278 12.4648,14.8508 C12.9668,15.0148 13.2048,15.1558 13.2078,15.6108 C13.2108,16.2028 13.2598,17.1148 13.3068,17.8468 C13.3558,18.6478 13.3678,19.0008 12.8828,19.1848 C12.3708,19.3748 12.0638,19.0208 11.1308,17.9608 C10.3468,17.0718 8.8618,16.0578 7.3108,16.0578 C5.1878,16.0578 4.2118,17.1038 4.2118,18.8648 C4.2058,23.5368 14.5408,21.8078 14.5348,28.6418 C14.5348,32.0208 11.0928,34.8148 7.2908,34.8118 C4.7898,34.8118 2.9048,34.4658 1.0938,33.6588 C0.6068,33.4348 0.3938,33.2138 0.3568,32.7568 C0.3068,32.1698 0.1788,31.2568 0.0748,30.5258 C-0.0412,29.7208 -0.0792,29.3678 0.3908,29.1868 C0.8848,28.9958 1.2188,29.3508 2.2418,30.4078 C3.8278,32.0518 6.0328,32.8868 8.1038,32.8868 C9.9918,32.8868 11.4158,31.8968 11.4158,29.5658 C11.4158,25.4848 0.9608,26.6278 0.9608,20.0078 C0.9638,17.3678 3.3138,14.1738 7.5928,14.1738 Z M101.941,2.8533 C101.941,2.4633 101.958,1.6483 101.999,1.3703 C102.153,0.3853 101.343,-0.2447 100.657,0.0913 L96.576,1.9193 C96.227,2.0883 96.027,2.2973 96.027,2.5803 C96.027,2.8393 96.146,3.0903 96.346,3.1423 C97.59,3.4423 98.165,3.9413 98.165,4.7783 L98.165,15.3433 C96.686,14.5803 95.132,14.1903 92.878,14.1903 C87.373,14.1873 82.415,19.0933 82.412,24.6623 C82.412,30.9313 87.196,34.8263 91.998,34.8263 C94.865,34.8263 97.148,33.5083 98.301,31.8813 C98.412,31.7273 98.577,31.8023 98.537,31.9393 C98.487,32.0783 98.301,33.2103 98.272,33.5223 C98.174,34.7233 99.007,35.0613 99.678,34.5913 L103.144,31.9613 C103.49,31.7183 103.69,31.4453 103.69,31.0583 C103.69,30.7973 103.574,30.5853 103.373,30.5713 C102.356,30.4723 101.936,30.0793 101.936,29.2433 L101.941,2.8533 Z M98.165,28.9253 C98.165,29.7333 97.897,30.3933 97.288,30.9033 C96.274,31.7473 95.179,32.1773 93.726,32.1773 C89.238,32.1773 85.964,28.5383 85.964,23.1923 C85.964,19.3403 88.64,16.4873 91.942,16.4873 C95.179,16.4873 98.165,18.6263 98.165,20.7843 L98.165,28.9253 Z M158.0063,31.7476 C158.0063,32.9216 159.2083,32.9376 159.5543,33.1686 C159.7423,33.3046 159.7583,33.6216 159.7583,33.8816 C159.7583,34.2666 159.6263,34.4986 159.3053,34.4986 L152.9313,34.4986 C152.6113,34.4986 152.4783,34.2666 152.4783,33.8796 C152.4783,33.6186 152.4893,33.3046 152.6873,33.1686 C153.0273,32.9376 154.2333,32.9216 154.2333,31.7476 L154.2333,23.3136 C154.2333,20.7656 154.0153,19.6776 153.4023,18.8426 C152.6203,17.7746 151.1933,17.1796 148.7633,17.1796 C147.3073,17.1796 145.6433,17.4436 144.3103,18.0276 C143.6953,18.2906 143.5983,18.6346 143.5983,19.2796 L143.5923,31.7446 C143.5923,32.9156 144.8003,32.9356 145.1373,33.1656 C145.3343,33.3046 145.3503,33.6186 145.3503,33.8796 C145.3503,34.2666 145.2193,34.4956 144.8943,34.4956 L138.5203,34.4956 C138.1993,34.4956 138.0643,34.2666 138.0643,33.8766 C138.0643,33.6146 138.0783,33.3016 138.2733,33.1656 C138.6123,32.9356 139.8183,32.9156 139.8183,31.7446 L139.8203,19.7966 C139.8203,18.9596 139.4023,18.5616 138.3863,18.4696 C138.1893,18.4536 138.0673,18.2396 138.0673,17.9776 C138.0673,17.5936 138.2703,17.3236 138.6213,17.0756 L142.3273,14.4506 C143.0113,13.9656 143.8853,14.4956 143.7323,15.5156 C143.6913,15.7996 143.6763,17.0396 143.6333,17.1766 C143.5823,17.3156 143.7393,17.3826 143.8603,17.2406 C144.7983,16.1036 147.4733,14.2066 150.3713,14.2096 C152.8823,14.2096 154.9823,15.2056 156.3233,16.6136 C157.6813,18.0246 158.0093,19.5806 158.0093,22.1256 L158.0063,31.7476 Z M33.5654,53.5063 L33.5424,53.1893 C33.9604,53.0693 34.6084,52.9633 35.4014,52.9633 C35.6804,52.9633 35.7674,53.0853 35.8834,53.3743 L37.6064,58.0743 C38.1374,56.7833 39.0094,54.6963 39.5174,53.4193 L39.5144,53.1943 C39.7504,53.0723 41.0484,52.9633 41.4264,52.9633 C41.5944,52.9633 41.7134,53.0543 41.7454,53.3623 L42.3414,58.0383 C42.5504,59.4073 42.7124,60.4683 42.7884,60.9483 C42.6314,61.0173 41.3794,61.1213 41.0634,61.1213 C40.8364,61.1213 40.7634,61.0203 40.7434,60.8033 C40.6654,60.0813 40.6014,59.3793 40.4704,57.5543 L40.2324,55.0703 C39.8724,56.1913 39.0904,58.3183 38.2224,60.7543 C37.8584,60.8763 37.1124,60.9913 36.7084,60.9913 C36.3834,59.8633 35.2884,56.5723 34.7624,54.9453 C34.6754,56.3923 34.2744,59.1583 34.0824,60.8733 C34.0474,61.0703 33.9814,61.1213 33.8214,61.1213 C33.6144,61.1213 32.4904,61.0693 32.2934,60.9443 C32.5314,59.5543 33.1124,56.2503 33.5654,53.5063 Z M50.1523,52.8608 C53.2343,52.8608 54.6233,55.0418 54.6203,56.9728 C54.6203,59.3268 53.0573,61.2668 50.1233,61.2608 C47.1253,61.2608 45.6843,59.2408 45.6843,57.1538 C45.6843,55.7778 46.2683,54.4528 47.5413,53.6158 C48.1833,53.1668 49.0713,52.8608 50.1353,52.8608 L50.1523,52.8608 Z M50.0393,54.1938 C48.9443,54.2028 47.8343,55.0988 47.8313,57.0238 C47.8313,58.8598 48.8743,59.9328 50.1933,59.9328 C51.5383,59.9328 52.4703,58.9868 52.4703,57.1238 C52.4703,55.1728 51.3053,54.1938 50.0563,54.1938 L50.0393,54.1938 Z M60.0493,57.148 C60.0493,59.236 60.9443,59.925 61.9233,59.925 C63.0293,59.925 63.8253,59.269 63.8253,57.082 L63.8253,53.369 C63.8253,53.09 63.9453,53.04 64.1223,53.022 C64.4973,52.977 65.4243,52.968 65.6883,52.968 C65.6473,53.492 65.6303,54.266 65.6303,55.341 L65.6303,56.992 C65.6303,60.73 63.5293,61.267 61.7083,61.267 C59.4633,61.267 58.0563,60.083 58.0563,57.314 L58.0563,54.754 C58.0563,53.868 58.0423,53.351 58.0253,53.058 C58.2773,53.017 59.0933,52.968 59.7823,52.968 C60.0033,52.968 60.0493,53.09 60.0493,53.704 L60.0493,57.148 Z M69.6011,53.5317 L69.4411,53.1697 L69.4411,53.0727 C69.7871,53.0237 71.3501,52.9717 71.5121,52.9717 C71.7011,52.9717 71.8261,53.0347 71.9361,53.1847 C72.2881,53.6507 73.3891,55.4827 74.2111,56.6927 C74.7341,57.5437 75.0821,58.1967 75.3761,58.8737 C75.2941,57.7347 75.2631,57.1237 75.2631,56.1637 L75.2631,53.3717 C75.2631,53.0917 75.3411,53.0387 75.5611,53.0237 C75.9391,52.9717 76.6771,52.9717 76.9301,52.9717 C76.9101,53.5097 76.8951,54.2487 76.8921,55.3357 L76.8921,60.9517 C76.7531,61.0017 75.6611,61.1337 75.3241,61.1337 C75.1001,61.1337 74.9401,61.0687 74.7771,60.8507 C74.3651,60.3077 73.6561,59.3187 72.6831,57.7177 C72.0701,56.6107 71.7451,56.0707 71.1321,54.8447 C71.2071,55.9657 71.2271,56.7007 71.2271,57.5527 L71.2271,60.7287 C71.2271,60.9817 71.1411,61.0437 70.9401,61.0797 C70.6931,61.1157 70.0831,61.1447 69.5661,61.1307 C69.6011,60.5937 69.6011,59.8487 69.6011,58.7617 L69.6011,53.5317 Z M82.8271,54.3765 L80.4221,54.3765 C80.1891,54.3765 80.0761,54.2455 80.1421,54.0295 C80.3281,53.3625 80.5171,53.1215 80.6771,52.9725 C80.9041,53.0245 81.2851,53.0415 82.6231,53.0415 L87.6551,53.0415 C87.5381,53.9385 87.1671,54.3065 86.8121,54.3795 L84.8261,54.3795 L84.8201,59.4685 C84.8201,60.3635 84.8541,60.7875 84.8751,61.0435 C84.4711,61.0985 83.8521,61.1465 83.1121,61.1465 C82.8961,61.1465 82.8241,61.0985 82.8241,60.9065 L82.8271,54.3765 Z M91.71,59.1636 C91.46,59.7516 91.138,60.5936 91.007,60.8766 C90.908,61.0896 90.798,61.1336 90.565,61.1336 C90.075,61.1336 89.319,61.0646 89.006,60.9926 L88.971,60.8636 C89.636,59.2856 91.661,54.8296 92.21,53.4586 L92.14,53.1546 C92.907,53.0446 93.741,52.9766 94.011,52.9766 C94.159,52.9766 94.231,53.0386 94.301,53.1946 C94.975,54.7566 95.861,57.1406 96.274,58.1466 C96.84,59.5816 97.154,60.2746 97.383,60.7946 L97.357,60.9826 C97.137,61.0996 95.972,61.1366 95.708,61.1336 C95.446,61.1336 95.295,61.0156 95.19,60.7296 C94.955,60.1106 94.775,59.6546 94.592,59.1666 L91.71,59.1636 Z M94.159,57.8596 C93.595,56.1456 93.314,55.3926 93.171,55.0416 C92.849,55.8546 92.62,56.6006 92.146,57.8596 L94.159,57.8596 Z M100.5791,54.6763 C100.5791,53.8923 100.5611,53.3543 100.5351,53.0853 C100.7851,53.0283 102.0601,52.9773 102.3191,52.9773 C102.5311,52.9773 102.5751,53.0973 102.5751,53.7113 L102.5751,59.4593 C102.5751,60.3223 102.6091,60.7553 102.6241,61.0313 C102.4201,61.1023 101.2011,61.1363 100.8871,61.1363 C100.6781,61.1363 100.5791,61.0993 100.5791,60.8733 L100.5791,54.6763 Z M106.6763,53.5376 L106.5193,53.1756 L106.5193,53.0856 C106.8653,53.0266 108.4273,52.9756 108.5933,52.9756 C108.7773,52.9756 108.9053,53.0386 109.0113,53.1906 C109.3663,53.6526 110.4673,55.4926 111.2923,56.6986 C111.8093,57.5526 112.1573,58.2056 112.4573,58.8826 C112.3733,57.7366 112.3413,57.1266 112.3413,56.1696 L112.3413,53.3796 C112.3413,53.0996 112.4193,53.0506 112.6433,53.0266 C113.0203,52.9756 113.7583,52.9776 114.0083,52.9776 C113.9893,53.5186 113.9733,54.2576 113.9733,55.3446 L113.9733,60.9596 C113.8343,61.0086 112.7393,61.1366 112.4033,61.1366 C112.1813,61.1366 112.0223,61.0746 111.8573,60.8636 C111.4443,60.3106 110.7383,59.3276 109.7613,57.7256 C109.1493,56.6166 108.8233,56.0776 108.2103,54.8506 C108.2853,55.9716 108.3113,56.7076 108.3113,57.5586 L108.3113,60.7346 C108.3113,60.9936 108.2213,61.0496 108.0183,61.0906 C107.7723,61.1216 107.1613,61.1476 106.6413,61.1366 C106.6763,60.5966 106.6763,59.8576 106.6763,58.7676 L106.6763,53.5376 Z M123.4897,54.5425 C123.4897,53.9175 123.4897,53.5895 123.4727,53.2265 C123.6987,53.1725 124.9077,52.9785 126.1537,52.9795 C128.3787,52.9795 129.4767,53.8405 129.4767,55.4215 C129.4707,56.5945 128.5937,57.1475 128.1807,57.3825 C128.4107,57.8455 128.7397,58.4085 129.2327,59.2085 C129.7767,60.0315 130.1017,60.4575 130.4007,60.8525 L130.3367,61.0025 C130.0527,61.1125 129.6397,61.1715 129.0377,61.1715 C128.5187,61.1715 128.1437,61.0315 127.7987,60.5635 C127.5517,60.2415 127.0927,59.4795 126.4877,58.3515 C126.2027,57.8515 125.9477,57.8315 125.4507,57.8805 L125.4507,60.7405 C125.4507,61.0175 125.3547,61.0645 125.1977,61.0905 C124.7857,61.1255 123.7337,61.1365 123.4487,61.1395 C123.4867,60.5995 123.4867,59.8555 123.4867,58.7985 L123.4897,54.5425 Z M125.4507,56.6975 C125.8657,56.7335 126.5257,56.6915 126.7587,56.6005 C127.0087,56.4935 127.4377,56.1695 127.4377,55.4535 C127.4377,54.5805 126.7487,54.1795 126.0637,54.1795 C125.8047,54.1795 125.5917,54.2155 125.4507,54.2515 L125.4507,56.6975 Z M133.5356,54.8589 C133.5356,54.2489 133.5356,53.8149 133.5006,53.2259 C134.0906,53.1719 134.7496,53.0879 135.3776,53.0549 C135.9026,53.0549 137.4716,53.0579 138.6776,53.0579 C138.5906,53.8829 138.3896,54.1619 138.2036,54.3039 C137.9946,54.3909 137.5736,54.3909 136.9666,54.3909 L135.5346,54.3909 L135.5346,56.2909 L138.5286,56.2949 C138.2256,57.5549 137.9416,57.6239 137.4766,57.6239 L135.5316,57.6239 L135.5316,59.7039 C135.7716,59.7739 136.2026,59.8089 137.0476,59.8089 C137.7126,59.8089 138.3716,59.7929 138.9616,59.7449 L139.0276,59.8359 C138.8686,60.4679 138.6396,60.8799 138.2906,61.0409 C138.0786,61.1219 137.7566,61.1419 136.5206,61.1419 C134.9276,61.1419 134.0736,61.0709 133.7536,61.0199 L133.5356,60.7619 L133.5356,54.8589 Z M144.8618,52.9038 C145.7918,52.9038 146.6788,53.2258 146.9418,53.5778 C146.9218,53.8148 146.6518,54.2688 146.5268,54.4098 C146.3888,54.5658 146.2608,54.6128 146.1138,54.5378 C145.8918,54.4238 145.4028,54.2298 144.8838,54.2298 C144.2778,54.2298 143.9338,54.5688 143.9338,54.9888 C143.9338,55.5078 144.5618,55.8638 145.4298,56.3838 C146.4298,56.9918 147.3628,57.5578 147.3628,58.8908 C147.3628,60.4538 145.7738,61.2828 144.2318,61.2828 C143.1758,61.2828 142.4668,61.0648 142.0878,60.8158 C141.8018,60.6318 141.7128,60.4768 141.7128,60.2568 C141.7128,60.0348 142.0068,59.4018 142.1418,59.2858 C142.6688,59.6608 143.3878,59.9458 144.0898,59.9458 C144.7368,59.9458 145.2238,59.6488 145.2238,59.1228 C145.2238,58.7748 144.9988,58.4458 143.6348,57.6128 C142.3918,56.8748 141.9628,56.0988 141.9628,55.2548 C141.9628,54.2628 142.5598,52.9038 144.8458,52.9038 L144.8618,52.9038 Z M154.6831,52.8774 C157.7591,52.8774 159.1501,55.0604 159.1501,56.9924 C159.1501,59.3424 157.5851,61.2874 154.6571,61.2874 C151.6501,61.2874 150.2151,59.2654 150.2151,57.1764 C150.2151,55.7984 150.7991,54.4734 152.0711,53.6294 C152.7131,53.1894 153.5991,52.8774 154.6651,52.8774 L154.6831,52.8774 Z M154.5691,54.2154 C153.4721,54.2214 152.3651,55.1204 152.3621,57.0474 C152.3621,58.8764 153.3991,59.9544 154.7211,59.9544 C156.0621,59.9544 156.9981,59.0094 156.9981,57.1434 C156.9981,55.1904 155.8331,54.2154 154.5871,54.2154 L154.5691,54.2154 Z M162.6509,54.5513 C162.6509,53.9243 162.6509,53.5983 162.6339,53.2323 C162.8629,53.1803 164.0719,52.9883 165.3179,52.9883 C167.5469,52.9883 168.6439,53.8483 168.6439,55.4283 C168.6379,56.6003 167.7579,57.1543 167.3449,57.3923 C167.5749,57.8513 167.9029,58.4173 168.3939,59.2153 C168.9429,60.0373 169.2659,60.4663 169.5679,60.8583 L169.4979,61.0113 C169.2139,61.1193 168.8039,61.1773 168.1989,61.1773 C167.6849,61.1773 167.3109,61.0403 166.9649,60.5673 C166.7129,60.2493 166.2539,59.4883 165.6519,58.3603 C165.3669,57.8603 165.1089,57.8433 164.6119,57.8833 L164.6119,60.7493 C164.6119,61.0263 164.5219,61.0713 164.3589,61.0963 C163.9529,61.1343 162.9009,61.1423 162.6129,61.1453 C162.6479,60.6053 162.6479,59.8613 162.6479,58.8073 L162.6509,54.5513 Z M164.6119,56.7073 C165.0329,56.7433 165.6929,56.6973 165.9219,56.6113 C166.1699,56.5023 166.5989,56.1753 166.5989,55.4593 C166.5989,54.5853 165.9099,54.1853 165.2249,54.1853 C164.9689,54.1853 164.7529,54.2213 164.6149,54.2603 L164.6119,56.7073 Z M174.2563,54.3911 L171.8543,54.3911 C171.6183,54.3911 171.5113,54.2631 171.5773,54.0451 C171.7603,53.3791 171.9493,53.1331 172.1103,52.9891 C172.3363,53.0381 172.7223,53.0581 174.0553,53.0581 L179.0843,53.0581 C178.9703,53.9561 178.5993,54.3221 178.2473,54.3911 L176.2523,54.3911 L176.2493,59.4891 C176.2493,60.3781 176.2863,60.8041 176.3043,61.0621 C175.8983,61.1201 175.2813,61.1621 174.5443,61.1621 C174.3313,61.1621 174.2563,61.1201 174.2563,60.9271 L174.2563,54.3911 Z" id="Logo" fill="#333333"></path>
    </g>
</svg>