<?xml version="1.0" encoding="UTF-8"?>
<svg width="412px" height="425px" viewBox="0 0 412 425" version="1.1" xmlns="http://www.w3.org/2000/svg" xmlns:xlink="http://www.w3.org/1999/xlink">
    <!-- Generator: Sketch 42 (36781) - http://www.bohemiancoding.com/sketch -->
    <title>parking_open</title>
    <desc>Created with Sketch.</desc>
    <defs></defs>
    <g id="Page-1" stroke="none" stroke-width="1" fill="none" fill-rule="evenodd">
        <g id="parking_open" transform="translate(-44.000000, -59.000000)">
            <g id="Icon-Spacer">
                <rect id="Rectangle-2" x="0" y="0" width="500" height="540"></rect>
            </g>
            <g transform="translate(44.000000, 59.000000)" id="Page-1" fill-rule="nonzero">
                <g>
                    <g>
                        <g id="parking_open">
                            <g id="Group" transform="translate(0.000000, 164.000000)">
                                <path d="M404.8,260.9 L7.2,260.9 C3.4,260.9 0.3,258 0.3,254.6 C0.3,251.2 3.4,248.3 7.2,248.3 L404.7,248.3 C408.5,248.3 411.6,251.2 411.6,254.6 C411.6,258 408.6,260.9 404.8,260.9 Z" id="Shape" fill="#231F20"></path>
                                <path d="M338.3,228.9 L72.7,228.9 C70.2,228.9 68.1,225.9 68.1,222.3 C68.1,218.7 70.2,215.7 72.7,215.7 L338.4,215.7 C340.9,215.7 343,218.7 343,222.3 C343,225.9 340.8,228.9 338.3,228.9 Z" id="Shape" fill="#231F20"></path>
                                <path d="M299.3,9.9 L105.7,9.9 C103.9,9.9 102.4,7.6 102.4,5 C102.4,2.4 103.9,0.1 105.7,0.1 L299.3,0.1 C301.1,0.1 302.6,2.4 302.6,5 C302.6,7.6 301.1,9.9 299.3,9.9 Z" id="Shape" fill="#231F20"></path>
                                <g transform="translate(30.000000, 178.000000)">
                                    <g>
                                        <rect id="Rectangle-path" fill="#FFFFFF" x="6.5" y="6.9" width="65.9" height="69.6"></rect>
                                        <path d="M72.4,82.6 L6.5,82.6 C3.1,82.6 0.4,79.8 0.4,76.5 L0.4,6.9 C0.4,3.5 3.2,0.8 6.5,0.8 L72.4,0.8 C75.8,0.8 78.5,3.6 78.5,6.9 L78.5,76.5 C78.5,79.9 75.8,82.6 72.4,82.6 Z M12.7,70.4 L66.3,70.4 L66.3,13 L12.7,13 L12.7,70.4 Z" id="Shape" fill="#231F20"></path>
                                    </g>
                                    <g transform="translate(274.000000, 0.000000)">
                                        <rect id="Rectangle-path" fill="#FFFFFF" x="6.4" y="6.9" width="65.9" height="69.6"></rect>
                                        <path d="M72.3,82.6 L6.4,82.6 C3,82.6 0.3,79.8 0.3,76.5 L0.3,6.9 C0.3,3.5 3.1,0.8 6.4,0.8 L72.3,0.8 C75.7,0.8 78.4,3.6 78.4,6.9 L78.4,76.5 C78.4,79.9 75.7,82.6 72.3,82.6 Z M12.6,70.4 L66.2,70.4 L66.2,13 L12.6,13 L12.6,70.4 Z" id="Shape" fill="#231F20"></path>
                                    </g>
                                </g>
                                <path d="M142.8,210.4 C144.3,203.6 149.1,198.9 154.6,198.9 L257.5,198.9 C263,198.9 267.8,203.6 269.3,210.4 L269.4,210.9 C270.8,217.4 276.5,222 283.1,222 L359.7,222 C368.9,222 376.3,213.8 376.2,203.6 L375.8,154.7 C375.7,146.7 373.6,138.9 369.6,132.2 L369.5,132.1 C362.5,120.5 351.7,100 340.1,100 L206,92.6 L71.8,99.9 C60.3,99.9 49.4,120.5 42.4,132.1 L42.4,132.1 C38.4,138.8 36.2,146.7 36.2,154.7 L35.8,203.6 C35.7,213.7 43.1,222 52.3,222 L129,222 C135.6,222 141.3,217.4 142.7,210.9 L142.8,210.4 Z" id="Shape" fill="#FFFFFF"></path>
                                <g id="Shape" transform="translate(61.000000, 15.000000)">
                                    <path d="M55.3,12.2 C38.7,15.5 25.4,24.7 19.8,43.7 L7.1,86.2 L145,77.8 L282.9,86.2 L270.2,43.7 C264.5,24.7 249.6,16.1 234.7,12.2 L224.9,11 C171.8,5.1 118.2,5.1 65.2,11 L55.3,12.2 Z" fill="#FFFFFF"></path>
                                    <path d="M282.9,92.4 L282.5,92.4 L145,84 L7.5,92.4 C5.5,92.5 3.6,91.7 2.3,90.1 C1.1,88.5 0.7,86.4 1.2,84.5 L13.9,42 C19.8,22.3 33.3,10.3 54.1,6.2 C54.2,6.2 54.4,6.1 54.5,6.1 L64.3,4.9 L64.4,4.9 C117.8,-1 172,-1 225.5,4.9 L225.6,4.9 L235.4,6.1 C235.7,6.1 235.9,6.2 236.2,6.3 C257.2,11.9 270.6,23.9 276.1,42 L288.8,84.5 C289.4,86.4 289,88.5 287.7,90.1 C286.6,91.5 284.8,92.4 282.9,92.4 Z M145,71.7 L145.4,71.7 L274.5,79.6 L264.3,45.5 C260.2,31.7 250.1,22.7 233.5,18.3 L224.2,17.1 C171.7,11.3 118.4,11.3 65.9,17.1 L56.4,18.3 C40.3,21.5 30.3,30.4 25.8,45.5 L15.6,79.6 L144.7,71.7 L145,71.7 Z" fill="#231F20"></path>
                                </g>
                                <g id="Shape" transform="translate(30.000000, 142.000000)">
                                    <g id="Group">
                                        <path d="M6.7,6.6 L90.2,15.2 L93.3,24.1 C96.2,32.3 90.2,40.9 81.5,41.1 L6.4,42.8 L6.7,6.6 Z" id="Shape" fill="#FFFFFF"></path>
                                        <path d="M6.5,49 C4.9,49 3.3,48.4 2.2,47.2 C1,46 0.4,44.4 0.4,42.8 L0.6,6.6 C0.6,4.9 1.3,3.2 2.6,2.1 C3.9,0.9 5.6,0.4 7.3,0.6 L90.8,9.2 C93.2,9.4 95.2,11 96,13.3 L99.1,22.2 C101.1,28 100.3,34.2 96.8,39.3 C93.3,44.3 87.8,47.3 81.6,47.5 L6.7,49 L6.5,49 Z M12.8,13.4 L12.7,36.5 L81.4,35 C83.6,35 85.5,33.9 86.7,32.1 C87.9,30.3 88.2,28.1 87.5,26.1 L85.6,20.8 L12.8,13.4 Z" id="Shape" fill="#231F20"></path>
                                    </g>
                                    <g id="Group" transform="translate(251.000000, 0.000000)">
                                        <path d="M94.4,6.6 L10.9,15.2 L7.8,24.1 C4.9,32.3 10.9,40.9 19.6,41.1 L94.7,42.8 L94.4,6.6 Z" id="Shape" fill="#FFFFFF"></path>
                                        <path d="M94.6,49 L94.5,49 L19.4,47.3 C13.3,47.2 7.7,44.2 4.3,39.1 C0.8,34.1 -1.32560629e-13,27.8 2,22 L5.1,13.1 C5.9,10.9 7.9,9.3 10.3,9 L93.8,0.4 C95.5,0.2 97.2,0.8 98.5,1.9 C99.8,3.1 100.5,4.7 100.5,6.4 L100.7,42.6 C100.7,44.3 100,45.8 98.9,47 C97.7,48.4 96.2,49 94.6,49 Z M15.4,21 L13.5,26.3 C12.8,28.3 13.1,30.5 14.3,32.3 C15.5,34.1 17.5,35.1 19.6,35.2 L88.3,36.7 L88.2,13.6 L15.4,21 Z" id="Shape" fill="#231F20"></path>
                                    </g>
                                </g>
                                <g id="Shape" transform="translate(21.000000, 70.000000)">
                                    <g id="Group" transform="translate(315.000000, 0.000000)">
                                        <path d="M6.9,29.4 C6.9,29.3 9,25 11.3,20.5 C14.5,14.2 20.4,9.8 27.2,8.4 L37.8,6.3 C42.9,5.3 47.7,9.2 47.7,14.4 L47.9,29.3 L12.4,33.5 L6.9,29.4 Z" id="Shape" fill="#FFFFFF"></path>
                                        <path d="M12.5,39.7 C11.2,39.7 9.9,39.3 8.8,38.5 L3.2,34.3 C2.1,33.5 1.4,32.4 1,31.1 C0.3,28.7 0.9,27.5 2.7,23.8 C3.5,22.1 4.6,19.9 5.8,17.7 C9.9,9.7 17.2,4.1 26,2.4 L36.6,0.3 C40.8,-0.5 45.2,0.6 48.5,3.3 C51.8,6 53.8,10 53.8,14.4 L54,29.3 C54,32.4 51.7,35.1 48.6,35.5 L13.1,39.7 L12.5,39.7 Z M39.5,12.4 L39.1,12.4 L28.5,14.5 C23.4,15.5 19.2,18.7 16.8,23.3 C16,24.8 15.4,26 14.9,27.1 L41.8,24 L41.7,14.6 C41.7,13.7 41.2,13.2 40.9,12.9 C40.6,12.7 40.2,12.4 39.5,12.4 Z" id="Shape" fill="#231F20"></path>
                                    </g>
                                    <g id="Group">
                                        <path d="M48.1,29.4 C48.1,29.3 46,25 43.7,20.5 C40.5,14.2 34.6,9.8 27.8,8.4 L17.2,6.3 C12.1,5.3 7.3,9.2 7.3,14.4 L7,29.4 L42.5,33.6 L48.1,29.4 Z" id="Shape" fill="#FFFFFF"></path>
                                        <path d="M42.5,39.7 L41.8,39.7 L6.3,35.5 C3.2,35.1 0.8,32.5 0.9,29.3 L1.1,14.4 C1.2,10.1 3.1,6.1 6.4,3.3 C9.7,0.6 14.1,-0.5 18.3,0.3 L28.9,2.4 C37.7,4.1 45.1,9.7 49.1,17.7 C50.2,19.9 51.4,22.1 52.2,23.8 C54,27.5 54.6,28.7 53.9,31.1 C53.5,32.4 52.7,33.5 51.7,34.3 L46.1,38.5 C45.1,39.3 43.9,39.7 42.5,39.7 Z M13.2,23.9 L40.1,27 C39.6,26 39,24.7 38.2,23.2 C35.9,18.6 31.6,15.4 26.5,14.4 L15.9,12.3 C15,12.1 14.4,12.5 14.1,12.7 C13.8,12.9 13.3,13.5 13.3,14.4 L13.2,23.9 Z" id="Shape" fill="#231F20"></path>
                                    </g>
                                </g>
                                <g id="Shape" transform="translate(141.000000, 148.000000)">
                                    <path d="M108.1,34.4 L21.8,34.4 C17.3,34.4 13.4,31.4 12.3,27.1 L6.9,0.6 L123,0.6 L117.6,27.1 C116.5,31.4 112.6,34.4 108.1,34.4 Z" fill="#FFFFFF"></path>
                                    <path d="M108.1,79.6 L21.8,79.6 C14.6,79.6 8.2,73.9 6.4,65.7 C6.4,65.6 6.3,65.4 6.3,65.3 L0.9,13.1 C0.5,11 1,8.8 2.2,7.1 C3.4,5.4 5.1,4.4 7,4.4 L123.1,4.4 C124.9,4.4 126.7,5.4 127.9,7.1 C129.1,8.8 129.5,11 129.2,13.1 L123.8,65.3 C123.8,65.4 123.7,65.6 123.7,65.7 C121.7,73.8 115.4,79.6 108.1,79.6 Z M18.3,62.1 C18.8,63.9 20.2,65.2 21.8,65.2 L108.1,65.2 C109.7,65.2 111.2,63.9 111.6,62.1 L115.5,18.8 L14.5,18.8 L18.3,62.1 Z" fill="#231F20"></path>
                                </g>
                                <g id="Shape" opacity="0.6" transform="translate(76.000000, 27.000000)" fill="#FFFFFF">
                                    <path d="M183.5,3 C183.5,3 135.4,13.2 94.8,61.8 L0.8,67.1 L12.3,29.2 C12.3,29.2 19.3,8.3 44.9,5.6 C44.8,5.7 118.9,-3.1 183.5,3 Z"></path>
                                </g>
                            </g>
                            <path d="M381.9,318.6 C381.8,309.5 379.4,300.6 374.9,293 L374.8,292.9 C374.1,291.8 373.4,290.6 372.7,289.4 C364.9,276.1 354.2,258 340.3,257.8 L206.3,250.4 L205.6,250.4 L71.6,257.7 C57.8,257.9 47.1,276 39.3,289.2 C38.5,290.5 37.8,291.7 37.1,292.9 C32.5,300.6 30.1,309.5 30,318.6 L29.6,367.5 C29.5,374.3 32.2,380.8 36.8,385.5 C41,389.7 46.5,392.1 52.3,392.1 L129,392.1 C137.1,392.1 144.4,387.1 147.6,379.8 L129,379.8 L112.5,379.8 L52.3,379.8 C49.8,379.8 47.4,378.8 45.6,376.9 C43.3,374.6 42,371.2 42,367.7 L42.4,318.8 C42.5,311.8 44.3,305.1 47.7,299.3 C48.4,298.1 49.1,296.9 49.9,295.6 C54.8,287.3 64.9,270.1 71.8,270.1 L72.1,270.1 L205.9,262.8 L339.7,270.2 L340,270.2 C346.9,270.2 357.1,287.4 362,295.7 C362.7,297 363.5,298.2 364.1,299.2 L364.2,299.3 C367.6,305.1 369.5,311.8 369.5,318.7 L369.9,367.6 C369.9,371.1 368.6,374.5 366.3,376.8 C364.4,378.7 362,379.7 359.6,379.7 L290.4,379.7 L283,379.7 L264.4,379.7 C267.5,387 274.8,392 283,392 L359.6,392 C365.4,392 370.9,389.7 375.1,385.4 C379.7,380.8 382.3,374.2 382.3,367.4 L381.9,318.6 Z" id="Shape" fill="#231F20"></path>
                            <path d="M112.4,164.4 L112.4,164.4 C109,164.4 106.3,167.2 106.3,170.5 L106.3,186.1 C106.3,189.5 109.1,192.2 112.4,192.2 L112.4,192.2 C115.8,192.2 118.5,189.4 118.5,186.1 L118.5,170.5 C118.5,167.1 115.8,164.4 112.4,164.4 Z" id="Shape" fill="#231F20"></path>
                            <path d="M292.4,164.4 L292.4,164.4 C289,164.4 286.3,167.2 286.3,170.5 L286.3,186.1 C286.3,189.5 289.1,192.2 292.4,192.2 L292.4,192.2 C295.8,192.2 298.5,189.4 298.5,186.1 L298.5,170.5 C298.5,167.1 295.8,164.4 292.4,164.4 Z" id="Shape" fill="#231F20"></path>
                            <ellipse id="Oval" fill="#327A32" cx="202.5" cy="75.3" rx="74.6" ry="74.6"></ellipse>
                            <path d="M184.9,105.6 C184,105.6 183.2,105.3 182.5,104.6 L164,86.1 C162.7,84.8 162.7,82.6 164,81.3 C165.3,80 167.5,80 168.8,81.3 L184.9,97.4 L236.2,46.1 C237.5,44.8 239.7,44.8 241,46.1 C242.3,47.4 242.3,49.6 241,50.9 L187.3,104.6 C186.7,105.2 185.8,105.6 184.9,105.6 Z" id="Shape" stroke="#FFFFFF" stroke-width="5" fill="#FFFFFF"></path>
                        </g>
                    </g>
                </g>
            </g>
        </g>
    </g>
</svg>