<?xml version="1.0" encoding="UTF-8"?>
<svg width="250px" height="421px" viewBox="0 0 250 421" version="1.1" xmlns="http://www.w3.org/2000/svg" xmlns:xlink="http://www.w3.org/1999/xlink">
    <!-- Generator: Sketch 42 (36781) - http://www.bohemiancoding.com/sketch -->
    <title>road_189_open</title>
    <desc>Created with Sketch.</desc>
    <defs></defs>
    <g id="Page-1" stroke="none" stroke-width="1" fill="none" fill-rule="evenodd">
        <g id="road_189_open" transform="translate(-125.000000, -62.000000)">
            <g id="Icon-Spacer">
                <rect id="Rectangle-2" x="0" y="0" width="500" height="540"></rect>
            </g>
            <g transform="translate(130.000000, 62.000000)" id="Layer_1">
                <g>
                    <path d="M149.2,101.7 L122.2,74.7 L145.9,51 C147.2,49.7 147.2,47.7 145.9,46.4 C144.6,45.1 142.6,45.1 141.3,46.4 L117.6,70.1 L93.9,46.4 C92.6,45.1 90.6,45.1 89.3,46.4 C88,47.7 88,49.7 89.3,51 L113,74.7 L86,101.7 C84.7,103 84.7,105 86,106.3 C86.6,106.9 87.5,107.3 88.3,107.3 C89.1,107.3 90,107 90.6,106.3 L117.6,79.3 L144.6,106.3 C145.2,106.9 146.1,107.3 146.9,107.3 C147.7,107.3 148.6,107 149.2,106.3 C150.5,105.1 150.5,103 149.2,101.7 Z" id="Shape" stroke="#FFFFFF" stroke-width="5" fill="#FFFFFF" fill-rule="nonzero"></path>
                    <g id="Group" transform="translate(107.000000, 28.000000)" stroke="#FFFFFF" fill-rule="nonzero" stroke-width="5" fill="#FFFFFF" stroke-linejoin="round">
                        <path d="M10.6,72.4 C8.1,72.4 6.1,70.4 6.1,67.9 L0.7,2.8 C0.7,0.3 20.5,0.3 20.5,2.8 L15.1,67.9 C15.1,70.5 13.1,72.4 10.6,72.4 Z" id="Shape"></path>
                        <circle id="Oval" cx="10.6" cy="90.4" r="4.5"></circle>
                    </g>
                    <ellipse id="Oval" fill="#327A32" fill-rule="nonzero" cx="117.6" cy="74.6" rx="74.6" ry="74.6"></ellipse>
                    <path d="M100,104.8 C99.1,104.8 98.3,104.5 97.6,103.8 L79.1,85.3 C77.8,84 77.8,81.8 79.1,80.5 C80.4,79.2 82.6,79.2 83.9,80.5 L100,96.6 L151.3,45.3 C152.6,44 154.8,44 156.1,45.3 C157.4,46.6 157.4,48.8 156.1,50.1 L102.4,103.8 C101.8,104.4 100.9,104.8 100,104.8 Z" id="Shape" stroke="#FFFFFF" stroke-width="5" fill="#FFFFFF" fill-rule="nonzero"></path>
                    <g id="Group" transform="translate(0.000000, 176.000000)">
                        <g id="Shape">
                            <path d="M120,0.6 C129.7,8.9 142.3,13.9 156.1,13.9 C169.9,13.9 182.5,8.9 192.2,0.6 L239.6,48 C230.9,60.4 225.7,75.5 225.7,91.9 C225.7,103.6 228.4,114.8 233.1,124.7 C237.2,133.3 239.6,143.1 239.6,153.2 C239.6,189.7 210,219.2 173.6,219.2 L163.2,219.2 C145.7,219.2 130.1,227.2 119.9,239.8 C109.7,227.2 94.1,219.2 76.6,219.2 L66.2,219.2 C29.7,219.2 0.2,189.6 0.2,153.2 C0.2,143 2.6,133.3 6.7,124.7 C11.4,114.8 14.1,103.6 14.1,91.9 C14.1,75.6 9,60.4 0.2,48 L47.6,0.6 C57.3,8.9 69.9,13.9 83.7,13.9 C97.7,13.9 110.3,8.9 120,0.6 Z" fill="#FFFFFF" fill-rule="nonzero"></path>
                            <path d="M120,0.6 C129.7,8.9 142.3,13.9 156.1,13.9 C169.9,13.9 182.5,8.9 192.2,0.6 L239.6,48 C230.9,60.4 225.7,75.5 225.7,91.9 C225.7,103.6 228.4,114.8 233.1,124.7 C237.2,133.3 239.6,143.1 239.6,153.2 C239.6,189.7 210,219.2 173.6,219.2 L163.2,219.2 C145.7,219.2 130.1,227.2 119.9,239.8 C109.7,227.2 94.1,219.2 76.6,219.2 L66.2,219.2 C29.7,219.2 0.2,189.6 0.2,153.2 C0.2,143 2.6,133.3 6.7,124.7 C11.4,114.8 14.1,103.6 14.1,91.9 C14.1,75.6 9,60.4 0.2,48 L47.6,0.6 C57.3,8.9 69.9,13.9 83.7,13.9 C97.7,13.9 110.3,8.9 120,0.6 Z" stroke="#000000" stroke-width="10" stroke-linecap="round" stroke-linejoin="round"></path>
                        </g>
                    </g>
                    <g id="Group" transform="translate(37.000000, 252.000000)" fill-rule="nonzero" fill="#000000">
                        <path d="M22,86.5 L8.5,86.5 L8.5,18.5 L0.7,18.5 L0.7,7.6 C5.7,7.3 9.3,5.4 11.6,1.8 L22,1.8 L22,86.5 Z" id="Shape"></path>
                        <path d="M95.2,59.5 C95.2,67.3 92.3,73.9 86.6,79.6 C80.9,85.2 74.1,88.1 66.4,88.1 C58.6,88.1 51.9,85.3 46.2,79.6 C40.5,74 37.6,67.3 37.6,59.5 C37.8,51 41.1,44.5 47.5,40 C43.4,36 41.3,30.8 41.2,24.5 C41.2,17.9 43.7,12.3 48.7,7.6 C53.7,2.9 59.6,0.5 66.5,0.5 C73.3,0.5 79.3,2.9 84.4,7.6 C89.5,12.4 92,18 92,24.5 C91.7,30.8 89.2,36 84.7,39.9 C91.4,44.1 94.9,50.6 95.2,59.5 Z M81.8,59.8 C81.8,56.3 80.3,53.2 77.3,50.7 C74.3,48.2 70.6,46.9 66.4,46.9 C62.2,46.9 58.6,48.1 55.7,50.6 C52.8,53.1 51.3,56.1 51.3,59.8 C51.3,63.8 52.8,67.2 55.7,70 C58.6,72.9 62.2,74.3 66.4,74.3 C70.7,74.3 74.3,72.9 77.3,70 C80.3,67.2 81.8,63.8 81.8,59.8 Z M78.2,24.2 C78.2,21.3 77,18.9 74.7,17 C72.4,15.1 69.6,14.1 66.3,14.1 C63,14.1 60.2,15.1 57.9,17 C55.6,18.9 54.4,21.3 54.4,24.2 C54.4,26.6 55.6,28.8 57.9,30.6 C60.2,32.4 63,33.3 66.3,33.3 C69.5,33.3 72.3,32.4 74.6,30.6 C77.1,28.8 78.2,26.6 78.2,24.2 Z" id="Shape"></path>
                        <path d="M107.7,26.3 C107.7,19 110.5,12.8 116,7.8 C121.5,2.8 128.4,0.3 136.5,0.3 C144.7,0.3 151.5,2.9 157,8.1 C162.5,13.3 165.3,19.7 165.3,27.3 C165.3,39 162.3,50.4 156.3,61.5 C150.3,72.6 142.4,81.4 132.7,87.8 L125.9,76.6 C135.8,68.9 142.7,60.3 146.6,50.6 C143.5,51.5 140.1,52 136.5,52 C128.7,52 121.9,49.5 116.2,44.4 C110.5,39.3 107.7,33.4 107.7,26.3 Z M121.1,26.6 C121.1,29.9 122.6,32.7 125.6,35.1 C128.6,37.5 132.3,38.7 136.5,38.7 C141.3,38.8 145,37.7 147.6,35.5 C150.2,33.3 151.6,30.3 151.6,26.5 C151.6,23 150.1,20.1 147.2,17.7 C144.2,15.3 140.7,14 136.5,14 C132.4,14 128.8,15.2 125.7,17.7 C122.6,20.3 121.1,23.2 121.1,26.6 Z" id="Shape"></path>
                    </g>
                </g>
            </g>
        </g>
    </g>
</svg>