<?xml version="1.0" encoding="UTF-8"?>
<svg width="289px" height="415px" viewBox="0 0 289 415" version="1.1" xmlns="http://www.w3.org/2000/svg" xmlns:xlink="http://www.w3.org/1999/xlink">
    <!-- Generator: Sketch 42 (36781) - http://www.bohemiancoding.com/sketch -->
    <title>road_92_open</title>
    <desc>Created with Sketch.</desc>
    <defs></defs>
    <g id="Page-1" stroke="none" stroke-width="1" fill="none" fill-rule="evenodd">
        <g id="road_92_open" transform="translate(-105.000000, -65.000000)">
            <g id="Icon-Spacer">
                <rect id="Rectangle-2" x="0" y="0" width="500" height="540"></rect>
            </g>
            <g transform="translate(109.000000, 65.000000)" id="Page-1" fill-rule="nonzero">
                <g>
                    <g>
                        <g id="road_92_open">
                            <g id="Layer_1">
                                <path d="M168.2,100.7 L141.2,73.7 L164.9,50 C166.2,48.7 166.2,46.7 164.9,45.4 C163.6,44.1 161.6,44.1 160.3,45.4 L136.6,69.1 L112.9,45.4 C111.6,44.1 109.6,44.1 108.3,45.4 C107,46.7 107,48.7 108.3,50 L132,73.7 L105,100.7 C103.7,102 103.7,104 105,105.3 C105.6,105.9 106.5,106.3 107.3,106.3 C108.1,106.3 109,106 109.6,105.3 L136.6,78.3 L163.6,105.3 C164.2,105.9 165.1,106.3 165.9,106.3 C166.7,106.3 167.6,106 168.2,105.3 C169.5,104.1 169.5,102 168.2,100.7 Z" id="Shape" stroke="#FFFFFF" stroke-width="5" fill="#FFFFFF"></path>
                                <g id="Group" transform="translate(0.000000, 174.000000)">
                                    <g id="Shape" transform="translate(0.000000, 178.000000)">
                                        <polygon fill="#FFFFFF" points="229.1 1.7 279.1 25.7 279.1 57.1 1.1 57.1 1.1 25.7 51.1 1.7"></polygon>
                                        <path d="M280.1,58.1 L0.1,58.1 L0.1,25.1 L51.1,0.7 L229.5,0.7 L229.7,0.8 L280.2,25.1 L280.2,58.1 L280.1,58.1 L280.1,58.1 Z M2,56.1 L278.2,56.1 L278.2,26.3 L229,2.7 L51.3,2.7 L2,26.3 L2,56.1 Z" stroke="#000000" stroke-width="8" stroke-linejoin="round" fill="#221F1F"></path>
                                    </g>
                                    <g id="Shape" transform="translate(12.000000, 0.000000)">
                                        <path d="M128.1,209.7 C197.9,209.7 254.5,193.2 254.5,172.7 C254.5,164.9 250.2,160.1 243.7,157.7 C248.4,153.9 250.9,149.7 250.9,145.6 C250.9,138.2 247.5,133.6 239.9,130.8 C243.5,127.5 245.3,124.1 245.3,120.5 C245.3,111.1 239.7,105.8 230.2,103.7 C232.8,101 233.3,97.8 233.3,94.9 C233.2,86.8 226.3,79.3 214.3,78.1 C216.4,75.9 217.6,70.5 216.8,67.2 C214.7,59.2 208,54.5 195.8,54.7 C200.5,45.1 191.3,34.3 176.8,35.2 C175.9,28.9 171.2,20.1 163.6,17.8 C159.4,16.6 152.8,17.1 149.3,18.8 C147.1,8.9 138.5,1.5 128.1,1.5 C117.8,1.5 109.1,9 106.9,18.8 C103.3,17.1 96.7,16.6 92.6,17.8 C85,20 80.2,29 79.4,35.2 C64.8,34.2 55.6,45 60.4,54.7 C48.4,54.3 41.5,59.2 39.4,67.2 C38.5,70.6 39.6,75.9 41.9,78.1 C29.9,79.3 23,86.7 22.9,94.9 C22.9,97.8 23.4,101 26,103.7 C16.6,105.8 10.9,111.2 10.9,120.5 C10.9,124.1 12.7,127.6 16.3,130.8 C8.7,133.6 5.3,138.3 5.3,145.6 C5.3,149.9 7.9,153.9 12.5,157.7 C6.1,160 1.7,164.8 1.7,172.7 C1.6,193.2 58.2,209.7 128.1,209.7 Z" fill="#FFFFFF"></path>
                                        <path d="M128.1,210.7 C56.6,210.7 0.7,194 0.7,172.7 C0.7,165.6 4.1,160.3 10.5,157.5 C6.2,153.7 4.1,149.7 4.1,145.6 C4.1,138.4 7.4,133.5 14.3,130.4 C11.2,127.2 9.6,123.9 9.6,120.5 C9.6,111.6 14.4,105.7 23.9,103.1 C22.3,100.9 21.6,98.2 21.7,94.9 C21.8,87.4 27.5,79.3 39.8,77.4 C38.2,74.6 37.3,70.2 38.2,67 C39.8,61 44.6,53.9 58.6,53.8 C57.3,50.1 57.7,46.2 59.8,42.8 C63.2,37.3 70.1,34.1 78.2,34.3 C79.4,27.4 84.6,19.2 91.9,17 C93.5,16.5 95.6,16.3 97.7,16.3 C100.6,16.3 103.7,16.8 105.9,17.6 C108.6,7.5 117.4,0.7 127.7,0.7 C138,0.7 146.8,7.6 149.5,17.6 C153.3,16.1 159.6,15.9 163.5,17 C171,19.2 176,27.4 177.2,34.3 C185.3,34.1 192.2,37.2 195.6,42.8 C197.8,46.2 198.2,50.2 196.9,53.8 C211,53.9 215.8,61 217.3,67 C218.2,70.2 217.4,74.6 215.7,77.4 C228.1,79.4 233.7,87.5 233.8,94.9 C233.8,98.2 233.1,100.9 231.6,103.1 C241.2,105.7 245.9,111.6 245.9,120.5 C245.9,123.9 244.3,127.2 241.2,130.4 C248.2,133.5 251.4,138.4 251.4,145.6 C251.4,149.6 249.3,153.7 245,157.5 C251.5,160.3 254.8,165.6 254.8,172.7 C255.5,194.1 199.4,210.7 128.1,210.7 Z M59.2,55.6 C48.9,55.6 42.3,59.6 40.3,67.4 C39.6,70.5 40.5,75.5 42.5,77.5 L43.8,79 L41.8,79.2 C31.1,80.3 23.8,86.7 23.8,95 C23.8,98.6 24.7,101.1 26.5,103.1 L27.7,104.3 L26,104.7 C16.3,106.9 11.7,112.1 11.7,120.6 C11.7,123.8 13.4,127.1 16.7,130.2 L17.8,131.3 L16.3,131.8 C9.2,134.5 6,138.8 6,145.8 C6,149.7 8.3,153.5 12.9,157.2 L14.2,158.3 L12.6,158.9 C7.9,160.6 2.5,164.4 2.5,172.9 C2.5,192.8 58.8,208.9 127.9,208.9 C197,208.9 253.3,192.7 253.3,172.9 C253.3,164.3 247.8,160.5 243.2,158.9 L241.6,158.3 L242.9,157.2 C247.4,153.5 249.8,149.6 249.8,145.8 C249.8,138.8 246.6,134.5 239.5,131.8 L238,131.3 L239.1,130.2 C242.5,127 244.1,123.8 244.1,120.6 C244.1,112 239.4,106.9 229.8,104.7 L228.1,104.3 L229.3,103.1 C231.3,101 232.1,98.4 232,95 C231.9,86.7 224.6,80.3 214,79.2 L212,79 L213.3,77.5 C215.1,75.5 216.2,70.5 215.5,67.4 C213.4,59.4 206.6,55.4 195.5,55.6 L193.9,55.6 L194.6,54.1 C196.3,50.5 196.1,46.9 194,43.6 C190.8,38.5 184.2,35.6 176.5,36.1 L176,36.1 L175.9,35.2 C175.2,29.7 170.8,20.9 163.4,18.7 C159.6,17.6 153,18.1 149.8,19.7 L148.7,20.2 L148.5,19 C146.3,9.2 138.1,2.5 128.3,2.5 C118.6,2.5 110.3,9.4 108.1,19 L107.9,20.2 L106.8,19.7 C103.6,18.1 96.9,17.6 93.2,18.7 C85.7,20.9 81.4,29.7 80.7,35.2 L80.6,36.1 L79.7,36.1 C72,35.6 65.4,38.4 62.2,43.6 C60.1,46.9 59.9,50.7 61.6,54.1 L62.3,55.6 L60.7,55.6 L59.2,55.6 Z" stroke="#000000" stroke-width="6" fill="#221F1F"></path>
                                    </g>
                                    <path d="M140.1,23.5 C132.3,23.5 124.8,22.2 118.3,19.5 L119,17.7 C125.3,20.2 132.5,21.5 140.1,21.5 C147.7,21.5 154.9,20.2 161.2,17.7 L161.9,19.5 C155.4,22.2 147.8,23.5 140.1,23.5 Z" id="Shape" stroke="#000000" stroke-width="6" fill="#221F1F"></path>
                                    <path d="M140.1,45.8 C120.2,45.8 101.7,42.1 90.6,36 L91.6,34.3 C102.5,40.3 120.8,43.9 140.3,43.9 C159.8,43.9 177.9,40.3 189,34.3 L190,36 C178.3,42.2 159.8,45.8 140.1,45.8 Z" id="Shape" stroke="#000000" stroke-width="6" fill="#221F1F"></path>
                                    <path d="M140.1,181.7 C126.9,181.7 116.1,192.5 116.1,205.7 C116.1,206.9 116.2,208 116.3,209.1 C124,209.5 131.9,209.7 140.1,209.7 C148.2,209.7 156.2,209.5 163.9,209.1 C164,208 164.1,206.8 164.1,205.7 C164,192.5 153.3,181.7 140.1,181.7 Z" id="Shape" fill="#000000"></path>
                                    <polygon id="Shape" fill="#221F1F" points="1.1 202.8 31.7 204.7 1.1 206.6"></polygon>
                                    <polygon id="Shape" fill="#221F1F" points="279.1 206.6 248.5 204.7 279.1 202.8"></polygon>
                                </g>
                                <g id="Group" transform="translate(75.000000, 249.000000)" fill="#000000">
                                    <path d="M0.2,26.9 C0.2,19.6 3,13.4 8.5,8.4 C14,3.4 20.9,0.9 29,0.9 C37.2,0.9 44,3.5 49.5,8.7 C55,13.9 57.8,20.3 57.8,27.9 C57.8,39.6 54.8,51 48.8,62.1 C42.8,73.2 34.9,82 25.2,88.4 L18.4,77.2 C28.3,69.5 35.2,60.9 39.1,51.2 C36,52.1 32.6,52.6 29,52.6 C21.2,52.6 14.4,50.1 8.7,45 C3,39.9 0.2,34 0.2,26.9 Z M13.6,27.2 C13.6,30.5 15.1,33.3 18.1,35.7 C21.1,38.1 24.8,39.3 29,39.3 C33.8,39.4 37.5,38.3 40.1,36.1 C42.7,33.9 44.1,30.9 44.1,27.1 C44.1,23.6 42.6,20.7 39.7,18.3 C36.8,15.9 33.2,14.6 29,14.6 C24.9,14.6 21.3,15.8 18.2,18.3 C15.2,20.9 13.6,23.8 13.6,27.2 Z" id="Shape"></path>
                                    <path d="M130,87 L72.4,87 C73,66.9 83.1,51.2 102.7,40.1 C112.3,35 116.9,30.3 116.6,25.8 C116.6,22.6 115.2,19.9 112.5,17.8 C109.8,15.7 106.2,14.6 101.8,14.4 C93.9,15 88.5,19 85.8,26.4 L72.4,22.5 C74.6,16.4 78.2,11.3 83.3,7.1 C88.4,2.9 94.4,0.8 101.2,0.8 C109.2,0.8 116,3.2 121.6,8.1 C127.2,13 130,18.7 130,25.2 C129.7,35.9 123.3,44.5 110.5,51.1 C98.5,58.1 91.2,65.5 88.9,73.2 L130,73.2 L130,87 Z" id="Shape"></path>
                                </g>
                                <path d="M188.2,102.5 L161.2,75.5 L184.9,51.8 C186.2,50.5 186.2,48.5 184.9,47.2 C183.6,45.9 181.6,45.9 180.3,47.2 L156.6,70.9 L132.9,47.2 C131.6,45.9 129.6,45.9 128.3,47.2 C127,48.5 127,50.5 128.3,51.8 L152,75.5 L125,102.5 C123.7,103.8 123.7,105.8 125,107.1 C125.6,107.7 126.5,108.1 127.3,108.1 C128.1,108.1 129,107.8 129.6,107.1 L156.6,80.1 L183.6,107.1 C184.2,107.7 185.1,108.1 185.9,108.1 C186.7,108.1 187.6,107.8 188.2,107.1 C189.5,105.9 189.5,103.8 188.2,102.5 Z" id="Shape" stroke="#FFFFFF" stroke-width="5" fill="#FFFFFF"></path>
                                <g id="Group" transform="translate(126.000000, 29.000000)" stroke="#FFFFFF" stroke-width="5" fill="#FFFFFF" stroke-linejoin="round">
                                    <path d="M10.6,72.2 C8.1,72.2 6.1,70.2 6.1,67.7 L0.7,2.6 C0.7,0.1 20.5,0.1 20.5,2.6 L15.1,67.7 C15.1,70.3 13.1,72.2 10.6,72.2 Z" id="Shape"></path>
                                    <circle id="Oval" cx="10.6" cy="90.2" r="4.5"></circle>
                                </g>
                                <path d="M198.2,102.5 L171.2,75.5 L194.9,51.8 C196.2,50.5 196.2,48.5 194.9,47.2 C193.6,45.9 191.6,45.9 190.3,47.2 L166.6,70.9 L142.9,47.2 C141.6,45.9 139.6,45.9 138.3,47.2 C137,48.5 137,50.5 138.3,51.8 L162,75.5 L135,102.5 C133.7,103.8 133.7,105.8 135,107.1 C135.6,107.7 136.5,108.1 137.3,108.1 C138.1,108.1 139,107.8 139.6,107.1 L166.6,80.1 L193.6,107.1 C194.2,107.7 195.1,108.1 195.9,108.1 C196.7,108.1 197.6,107.8 198.2,107.1 C199.5,105.9 199.5,103.8 198.2,102.5 Z" id="Shape" stroke="#FFFFFF" stroke-width="5" fill="#FFFFFF"></path>
                                <g id="Group" transform="translate(156.000000, 29.000000)" stroke="#FFFFFF" stroke-width="5" fill="#FFFFFF" stroke-linejoin="round">
                                    <path d="M10.6,72.2 C8.1,72.2 6.1,70.2 6.1,67.7 L0.7,2.6 C0.7,0.1 20.5,0.1 20.5,2.6 L15.1,67.7 C15.1,70.3 13.1,72.2 10.6,72.2 Z" id="Shape"></path>
                                    <circle id="Oval" cx="10.6" cy="90.2" r="4.5"></circle>
                                </g>
                                <ellipse id="Oval" fill="#327A32" cx="136.6" cy="75.4" rx="74.6" ry="74.6"></ellipse>
                                <path d="M119,105.6 C118.1,105.6 117.3,105.3 116.6,104.6 L98.1,86.1 C96.8,84.8 96.8,82.6 98.1,81.3 C99.4,80 101.6,80 102.9,81.3 L119,97.4 L170.3,46.1 C171.6,44.8 173.8,44.8 175.1,46.1 C176.4,47.4 176.4,49.6 175.1,50.9 L121.4,104.6 C120.8,105.2 119.9,105.6 119,105.6 Z" id="Shape" stroke="#FFFFFF" stroke-width="5" fill="#FFFFFF"></path>
                            </g>
                        </g>
                    </g>
                </g>
            </g>
        </g>
    </g>
</svg>